<?xml version="1.0" standalone="no"?>
<!DOCTYPE svg PUBLIC "-//W3C//DTD SVG 1.1//EN"
"http://www.w3.org/Graphics/SVG/1.1/DTD/svg11.dtd">
<svg width="8920.03" height="4978.03" viewBox="0 0 8920.03 4978.03" version="1.1"
xmlns="http://www.w3.org/2000/svg"
xmlns:xlink="http://www.w3.org/1999/xlink">
<circle cx="1428" cy="4291" r="31" style=""/>
<circle cx="1754" cy="3748" r="31" style=""/>
<circle cx="2228" cy="3748" r="31" style=""/>
<circle cx="2549" cy="3649" r="31" style=""/>
<circle cx="2549" cy="2910" r="31" style=""/>
<circle cx="1919" cy="2398" r="31" style=""/>
<circle cx="1748" cy="1030" r="31" style=""/>
<circle cx="1308" cy="820" r="31" style=""/>
<circle cx="858" cy="944" r="31" style=""/>
<circle cx="3239" cy="1210" r="31" style=""/>
<circle cx="4133" cy="1530" r="31" style=""/>
<circle cx="4536" cy="2270" r="31" style=""/>
<circle cx="4813" cy="2301" r="31" style=""/>
<circle cx="5382" cy="1630" r="31" style=""/>
<circle cx="4919" cy="1168" r="31" style=""/>
<circle cx="4686" cy="3498" r="31" style=""/>
<circle cx="4957" cy="3514" r="31" style=""/>
<circle cx="4913" cy="3795" r="31" style=""/>
<circle cx="4536" cy="3744" r="31" style=""/>
<circle cx="4492" cy="4604" r="31" style=""/>
<circle cx="5301" cy="4700" r="31" style=""/>
<circle cx="5301" cy="4700" r="31" style=""/>
<circle cx="5387" cy="4204" r="31" style=""/>
<circle cx="3683" cy="4221" r="31" style=""/>
<circle cx="6642" cy="2804" r="31" style=""/>
<circle cx="8466" cy="1361" r="31" style=""/>
<circle cx="754" cy="3839" r="38" style=""/>
<circle cx="954" cy="3839" r="38" style=""/>
<circle cx="2219" cy="4234" r="38" style=""/>
<circle cx="2419" cy="4234" r="38" style=""/>
<circle cx="2619" cy="4234" r="38" style=""/>
<circle cx="2819" cy="4234" r="38" style=""/>
<circle cx="3019" cy="4234" r="38" style=""/>
<circle cx="3019" cy="4034" r="38" style=""/>
<circle cx="2819" cy="4034" r="38" style=""/>
<circle cx="2619" cy="4034" r="38" style=""/>
<circle cx="2419" cy="4034" r="38" style=""/>
<circle cx="2219" cy="4034" r="38" style=""/>
<circle cx="1052" cy="1125" r="38" style=""/>
<circle cx="856" cy="1125" r="38" style=""/>
<circle cx="659" cy="1125" r="38" style=""/>
<circle cx="5530" cy="853" r="38" style=""/>
<circle cx="5730" cy="853" r="38" style=""/>
<circle cx="5930" cy="853" r="38" style=""/>
<circle cx="6130" cy="853" r="38" style=""/>
<circle cx="6330" cy="853" r="38" style=""/>
<circle cx="6530" cy="853" r="38" style=""/>
<circle cx="6730" cy="853" r="38" style=""/>
<circle cx="6930" cy="853" r="38" style=""/>
<circle cx="7130" cy="853" r="38" style=""/>
<circle cx="7330" cy="853" r="38" style=""/>
<circle cx="7530" cy="853" r="38" style=""/>
<circle cx="7730" cy="853" r="38" style=""/>
<circle cx="7930" cy="853" r="38" style=""/>
<circle cx="8130" cy="853" r="38" style=""/>
<circle cx="8330" cy="853" r="38" style=""/>
<circle cx="8530" cy="853" r="38" style=""/>
<circle cx="659" cy="2267" r="54" style=""/>
<circle cx="1052" cy="2267" r="54" style=""/>
<circle cx="654" cy="3041" r="58" style=""/>
<circle cx="1154" cy="3241" r="58" style=""/>
<circle cx="383" cy="1715" r="81" style=""/>
<circle cx="1328" cy="1715" r="81" style=""/>
<circle cx="452" cy="4545" r="85" style=""/>
<circle cx="409" cy="398" r="85" style=""/>
<circle cx="8546" cy="374" r="85" style=""/>
<circle cx="8556" cy="4619" r="85" style=""/>
<circle cx="454" cy="3441" r="65" style=""/>
<circle cx="1254" cy="3441" r="65" style=""/>
<circle cx="854" cy="3441" r="154" style=""/>
</svg>
