<?xml version="1.0" standalone="no"?>
<!DOCTYPE svg PUBLIC "-//W3C//DTD SVG 1.1//EN"
"http://www.w3.org/Graphics/SVG/1.1/DTD/svg11.dtd">
<svg width="8572" height="4629" viewBox="0 0 8572 4629" version="1.1"
xmlns="http://www.w3.org/2000/svg"
xmlns:xlink="http://www.w3.org/1999/xlink">
<g fill-rule="evenodd"><path d="M 2979,4184 L 3172,3991 L 3184,3981 L 3198,3974 L 3212,3969 L 3228,3968 L 3510,3968 L 3526,3970 L 3542,3975 L 3556,3983 L 3568,3994 L 3578,4007 L 3585,4022 L 3588,4038 L 3588,4055 L 3585,4071 L 3578,4086 L 3568,4099 L 3556,4110 L 3542,4118 L 3526,4124 L 3510,4125 L 3260,4125 L 3067,4318 L 3056,4328 L 3042,4335 L 3027,4340 L 3012,4341 L 1400,4341 L 1385,4340 L 1370,4335 L 1356,4328 L 1344,4318 L 1198,4172 L 1188,4159 L 1181,4145 L 1176,4129 L 1176,4112 L 1178,4096 L 1184,4081 L 1193,4067 L 1205,4055 L 1218,4046 L 1234,4040 L 1250,4038 L 1266,4039 L 1282,4043 L 1297,4050 L 1310,4061 L 1433,4184 L 2979,4184 z " style="fill-opacity:1.000000;fill:rgb(41,35,190);stroke:rgb(0,0,0);stroke-width:2"/></g>
<g fill-rule="evenodd"><path d="M 4590,3226 L 4599,3232 L 4611,3243 L 4620,3257 L 4625,3272 L 4628,3289 L 4627,3305 L 4623,3321 L 4615,3336 L 4605,3348 L 4575,3378 L 4563,3388 L 4550,3395 L 4535,3400 L 4519,3401 L 4511,3401 L 4496,3400 L 4481,3395 L 4468,3388 L 4456,3378 L 4446,3366 L 4439,3353 L 4434,3338 L 4433,3323 L 4433,2255 L 4434,2240 L 4439,2225 L 4446,2211 L 4456,2199 L 4584,2071 L 4596,2061 L 4609,2054 L 4624,2050 L 4639,2048 L 4655,2050 L 4670,2054 L 4683,2061 L 4695,2071 L 4705,2083 L 4712,2097 L 4717,2112 L 4718,2127 L 4718,2173 L 4717,2188 L 4712,2203 L 4705,2217 L 4695,2229 L 4693,2231 L 4680,2241 L 4666,2248 L 4650,2253 L 4633,2254 L 4625,2252 L 4590,2288 L 4590,3226 z " style="fill-opacity:1.000000;fill:rgb(132,225,108);stroke:rgb(0,0,0);stroke-width:2"/></g>
<g fill-rule="evenodd"><path d="M 4393,3372 L 4417,3395 L 4427,3407 L 4434,3421 L 4439,3436 L 4440,3451 L 4440,3569 L 4438,3585 L 4433,3601 L 4425,3615 L 4414,3627 L 4401,3637 L 4386,3644 L 4370,3647 L 4353,3647 L 4337,3644 L 4322,3637 L 4309,3627 L 4298,3615 L 4290,3601 L 4284,3585 L 4283,3569 L 4283,3484 L 4259,3460 L 4249,3448 L 4242,3434 L 4237,3420 L 4236,3404 L 4236,2173 L 4237,2158 L 4242,2143 L 4249,2130 L 4259,2118 L 4283,2094 L 4284,2080 L 4289,2065 L 4296,2051 L 4306,2039 L 4318,2029 L 4331,2022 L 4346,2018 L 4361,2016 L 4371,2016 L 4388,2018 L 4404,2023 L 4418,2031 L 4430,2042 L 4440,2056 L 4446,2071 L 4450,2087 L 4450,2103 L 4446,2119 L 4439,2135 L 4439,2139 L 4438,2143 L 4435,2155 L 4433,2159 L 4428,2169 L 4425,2173 L 4417,2182 L 4393,2206 L 4393,3372 z " style="fill-opacity:1.000000;fill:rgb(214,174,82);stroke:rgb(0,0,0);stroke-width:2"/></g>
<g fill-rule="evenodd"><path d="M 4661,3974 L 4661,3621 L 4662,3604 L 4667,3589 L 4676,3574 L 4687,3562 L 4700,3552 L 4715,3546 L 4731,3542 L 4748,3542 L 4764,3546 L 4779,3552 L 4792,3562 L 4803,3574 L 4811,3589 L 4816,3604 L 4818,3621 L 4818,4007 L 4817,4022 L 4812,4037 L 4805,4050 L 4795,4062 L 4373,4484 L 4361,4494 L 4348,4501 L 4333,4506 L 4317,4507 L 4302,4506 L 4287,4501 L 4274,4494 L 4262,4484 L 4252,4472 L 4245,4459 L 4240,4444 L 4239,4428 L 4239,4376 L 4240,4360 L 4246,4344 L 4254,4330 L 4265,4318 L 4278,4308 L 4293,4302 L 4309,4298 L 4326,4298 L 4335,4300 L 4661,3974 z " style="fill-opacity:1.000000;fill:rgb(144,73,241);stroke:rgb(0,0,0);stroke-width:2"/></g>
<g fill-rule="evenodd"><path d="M 5154,1480 L 5152,1476 L 5149,1464 L 5148,1452 L 5150,1440 L 5155,1428 L 5161,1418 L 5170,1409 L 5180,1402 L 5192,1398 L 5204,1396 L 5217,1397 L 5228,1400 L 5239,1406 L 5249,1413 L 5255,1419 L 5262,1428 L 5268,1438 L 5271,1450 L 5272,1461 L 5272,4029 L 5271,4041 L 5267,4053 L 5261,4063 L 5253,4072 L 5243,4080 L 5232,4085 L 5219,4087 L 5207,4087 L 5195,4085 L 5184,4080 L 5174,4072 L 5166,4063 L 5159,4053 L 5156,4041 L 5154,4029 L 5154,1480 z " style="fill-opacity:1.000000;fill:rgb(241,187,233);stroke:rgb(0,0,0);stroke-width:2"/></g>
<g fill-rule="evenodd"><path d="M 0,1560 L 1,1557 L 2,1555 L 3,1553 L 6,1551 L 10,1550 L 14,1551 L 16,1552 L 19,1555 L 20,1559 L 31,1614 L 72,1675 L 134,1716 L 207,1731 L 213,1731 L 286,1716 L 348,1675 L 389,1614 L 403,1541 L 389,1469 L 348,1407 L 286,1366 L 213,1352 L 207,1352 L 134,1366 L 72,1407 L 31,1469 L 20,1524 L 19,1527 L 16,1530 L 14,1531 L 12,1531 L 8,1531 L 5,1530 L 3,1529 L 1,1525 L 1,1524 L 0,9 L 1,5 L 3,2 L 6,0 L 8,0 L 8310,0 L 8312,0 L 8315,2 L 8317,5 L 8318,7 L 8318,11 L 8316,15 L 8315,16 L 8312,19 L 8263,39 L 8210,92 L 8181,161 L 8181,237 L 8210,307 L 8263,360 L 8333,389 L 8408,389 L 8478,360 L 8531,307 L 8551,258 L 8554,255 L 8555,254 L 8559,252 L 8563,252 L 8565,253 L 8568,255 L 8569,256 L 8570,258 L 8571,262 L 8570,4360 L 8570,4361 L 8568,4365 L 8564,4367 L 8563,4367 L 8559,4367 L 8557,4367 L 8554,4365 L 8551,4361 L 8541,4337 L 8488,4284 L 8418,4255 L 8343,4255 L 8273,4284 L 8220,4337 L 8191,4407 L 8191,4482 L 8220,4552 L 8273,4605 L 8285,4610 L 8288,4613 L 8289,4617 L 8289,4619 L 8289,4620 L 8288,4624 L 8285,4627 L 8283,4628 L 8279,4629 L 8,4628 L 5,4627 L 2,4624 L 1,4622 L 0,4619 L 0,2189 L 0,1560M 468,4408 L 468,4333 L 439,4263 L 386,4210 L 316,4181 L 241,4181 L 171,4210 L 118,4263 L 89,4333 L 89,4408 L 118,4478 L 171,4531 L 240,4560 L 316,4560 L 386,4531 L 439,4478 L 468,4408M 1059,3374 L 1101,3374 L 1141,3357 L 1171,3327 L 1187,3288 L 1187,3246 L 1171,3206 L 1141,3176 L 1102,3160 L 1095,3160 L 1091,3159 L 1088,3157 L 1086,3154 L 1085,3150 L 1086,3146 L 1087,3144 L 1090,3140 L 1110,3093 L 1110,3041 L 1090,2993 L 1054,2957 L 1006,2937 L 954,2937 L 907,2956 L 870,2993 L 850,3041 L 850,3092 L 870,3140 L 906,3177 L 954,3197 L 980,3197 L 984,3198 L 987,3201 L 988,3205 L 988,3207 L 988,3211 L 973,3245 L 973,3288 L 989,3327 L 1020,3357 L 1059,3374M 513,3378 L 569,3434 L 641,3464 L 719,3464 L 792,3434 L 847,3378 L 877,3306 L 877,3228 L 847,3155 L 792,3100 L 720,3070 L 641,3070 L 569,3100 L 513,3155 L 483,3227 L 483,3306 L 513,3378M 371,3206 L 341,3176 L 302,3160 L 259,3160 L 220,3176 L 190,3206 L 173,3245 L 173,3288 L 190,3327 L 220,3357 L 259,3374 L 302,3374 L 341,3357 L 371,3327 L 387,3288 L 387,3246 L 371,3206M 1023,1669 L 1081,1709 L 1152,1723 L 1157,1723 L 1228,1709 L 1287,1669 L 1326,1611 L 1340,1541 L 1326,1472 L 1287,1413 L 1228,1373 L 1157,1359 L 1152,1359 L 1081,1373 L 1023,1413 L 983,1472 L 969,1541 L 983,1611 L 1023,1669M 1006,2067 L 986,2021 L 951,1985 L 904,1966 L 854,1966 L 807,1985 L 772,2020 L 753,2067 L 752,2117 L 772,2164 L 807,2199 L 854,2219 L 904,2219 L 951,2200 L 986,2164 L 1006,2117 L 1006,2067M 76,331 L 129,384 L 198,413 L 274,413 L 344,384 L 397,331 L 426,261 L 426,186 L 397,116 L 344,63 L 274,34 L 199,34 L 129,63 L 76,116 L 47,185 L 47,261 L 76,331M 5114,4028 L 5122,4066 L 5143,4098 L 5175,4120 L 5213,4127 L 5251,4120 L 5283,4098 L 5305,4066 L 5312,4028 L 5312,1462 L 5305,1423 L 5283,1390 L 5278,1386 L 5245,1364 L 5207,1356 L 5169,1364 L 5137,1385 L 5116,1417 L 5108,1455 L 5114,1485 L 5114,4028M 2187,3889 L 2185,3886 L 2180,3872 L 2179,3859 L 2180,3845 L 2185,3831 L 2187,3828 L 2156,3797 L 2154,3794 L 2154,3792 L 2151,3777 L 2142,3763 L 2129,3754 L 2112,3751 L 1980,3751 L 1964,3754 L 1951,3762 L 1942,3776 L 1938,3793 L 1938,3925 L 1941,3940 L 1950,3954 L 1963,3963 L 1967,3964 L 1971,3965 L 1973,3967 L 1975,3970 L 1975,3974 L 1975,3978 L 1973,3981 L 1955,3998 L 1939,4037 L 1939,4080 L 1955,4119 L 1964,4128 L 1966,4132 L 1966,4136 L 1964,4139 L 1961,4142 L 1958,4144 L 1451,4144 L 1450,4143 L 1446,4141 L 1339,4033 L 1300,4007 L 1254,3998 L 1209,4007 L 1170,4033 L 1145,4071 L 1136,4117 L 1145,4162 L 1171,4201 L 1315,4346 L 1355,4372 L 1401,4381 L 3011,4381 L 3057,4372 L 3096,4346 L 3275,4167 L 3277,4166 L 3281,4165 L 3509,4165 L 3555,4156 L 3593,4130 L 3619,4092 L 3628,4047 L 3619,4001 L 3593,3963 L 3555,3937 L 3509,3928 L 3229,3928 L 3182,3937 L 3143,3963 L 2966,4141 L 2962,4143 L 2958,4144 L 2934,4144 L 2930,4142 L 2928,4139 L 2926,4136 L 2926,4132 L 2928,4128 L 2936,4119 L 2953,4080 L 2953,4037 L 2946,4020 L 2945,4016 L 2945,3901 L 2946,3897 L 2953,3880 L 2953,3837 L 2936,3798 L 2906,3768 L 2867,3752 L 2825,3752 L 2785,3768 L 2755,3798 L 2754,3800 L 2753,3802 L 2750,3804 L 2746,3804 L 2742,3804 L 2739,3802 L 2738,3800 L 2737,3798 L 2706,3768 L 2667,3752 L 2625,3752 L 2585,3768 L 2555,3798 L 2554,3800 L 2553,3802 L 2550,3804 L 2546,3804 L 2542,3804 L 2539,3802 L 2538,3800 L 2537,3798 L 2507,3768 L 2467,3752 L 2425,3752 L 2385,3768 L 2355,3798 L 2354,3801 L 2352,3803 L 2349,3805 L 2346,3806 L 2344,3806 L 2331,3802 L 2305,3828 L 2307,3831 L 2311,3845 L 2313,3859 L 2311,3872 L 2307,3886 L 2305,3889 L 2331,3915 L 2336,3914 L 2338,3914 L 2340,3914 L 2342,3915 L 2344,3916 L 2345,3918 L 2346,3920 L 2347,3922 L 2347,3924 L 2347,3993 L 2347,3995 L 2346,3997 L 2345,3999 L 2344,4001 L 2342,4002 L 2340,4003 L 2338,4003 L 2336,4003 L 2331,4002 L 2305,4028 L 2307,4031 L 2311,4045 L 2313,4059 L 2311,4072 L 2307,4086 L 2300,4098 L 2291,4108 L 2279,4116 L 2267,4122 L 2253,4125 L 2239,4125 L 2225,4122 L 2212,4116 L 2201,4108 L 2192,4098 L 2185,4086 L 2180,4072 L 2179,4059 L 2180,4045 L 2185,4031 L 2187,4028 L 2161,4002 L 2148,4006 L 2144,4006 L 2141,4004 L 2138,4001 L 2137,3998 L 2120,3981 L 2118,3979 L 2117,3976 L 2117,3972 L 2118,3968 L 2120,3967 L 2123,3965 L 2128,3964 L 2141,3955 L 2150,3941 L 2154,3925 L 2155,3921 L 2156,3920 L 2187,3889M 817,3730 L 803,3736 L 788,3739 L 772,3739 L 757,3736 L 743,3730 L 730,3720 L 720,3709 L 712,3695 L 707,3680 L 705,3665 L 707,3649 L 712,3634 L 720,3621 L 730,3609 L 743,3600 L 757,3593 L 772,3590 L 788,3590 L 803,3593 L 817,3599 L 843,3574 L 839,3564 L 799,3549 L 753,3551 L 722,3564 L 715,3582 L 714,3583 L 712,3585 L 710,3586 L 709,3586 L 707,3587 L 705,3586 L 703,3586 L 701,3585 L 696,3580 L 694,3577 L 693,3575 L 685,3561 L 671,3552 L 654,3549 L 506,3549 L 491,3552 L 477,3560 L 468,3574 L 464,3591 L 464,3739 L 467,3754 L 476,3768 L 489,3777 L 506,3781 L 654,3781 L 670,3778 L 684,3769 L 693,3755 L 694,3752 L 696,3749 L 701,3744 L 703,3743 L 705,3743 L 707,3743 L 709,3743 L 710,3744 L 712,3745 L 714,3746 L 715,3747 L 722,3765 L 762,3780 L 808,3779 L 839,3766 L 843,3755 L 817,3730M 845,3701 L 871,3727 L 881,3723 L 896,3683 L 894,3637 L 881,3606 L 871,3602 L 845,3628 L 849,3634 L 854,3649 L 855,3665 L 854,3680 L 849,3695 L 845,3701M 404,2914 L 398,2903 L 392,2885 L 390,2867 L 392,2848 L 398,2830 L 404,2819 L 379,2794 L 367,2799 L 350,2845 L 351,2897 L 367,2935 L 379,2940 L 404,2914M 556,2914 L 582,2940 L 594,2935 L 611,2889 L 609,2837 L 594,2799 L 582,2794 L 556,2819 L 563,2830 L 568,2848 L 570,2867 L 568,2885 L 563,2903 L 556,2914M 528,2943 L 525,2945 L 508,2952 L 490,2956 L 471,2956 L 453,2952 L 435,2945 L 433,2943 L 407,2968 L 412,2980 L 458,2997 L 510,2996 L 548,2980 L 553,2968 L 528,2943M 528,2791 L 553,2766 L 548,2754 L 502,2736 L 450,2738 L 412,2753 L 407,2766 L 433,2791 L 435,2789 L 453,2781 L 471,2777 L 490,2777 L 508,2781 L 525,2789 L 528,2791M 2215,3799 L 2225,3795 L 2239,3792 L 2253,3792 L 2267,3795 L 2277,3799 L 2303,3774 L 2300,3764 L 2262,3751 L 2220,3753 L 2192,3764 L 2189,3774 L 2215,3799M 531,2166 L 529,2167 L 512,2174 L 495,2178 L 476,2178 L 459,2174 L 442,2167 L 440,2166 L 415,2191 L 420,2203 L 464,2219 L 515,2218 L 551,2203 L 556,2191 L 531,2166M 531,2019 L 556,1993 L 551,1982 L 507,1965 L 456,1966 L 420,1982 L 415,1993 L 440,2019 L 442,2017 L 459,2010 L 476,2006 L 495,2006 L 512,2010 L 529,2017 L 531,2019M 559,2137 L 584,2163 L 596,2158 L 613,2113 L 611,2063 L 596,2026 L 584,2022 L 559,2047 L 565,2057 L 570,2074 L 572,2092 L 570,2110 L 565,2127 L 559,2137M 412,2137 L 406,2127 L 401,2110 L 399,2092 L 401,2074 L 406,2057 L 412,2047 L 387,2022 L 375,2026 L 358,2071 L 360,2122 L 375,2158 L 387,2163 L 412,2137M 716,889 L 742,863 L 738,853 L 700,839 L 655,841 L 626,853 L 623,863 L 648,889 L 660,883 L 675,880 L 690,880 L 704,883 L 716,889M 648,1013 L 623,1038 L 626,1048 L 665,1062 L 709,1060 L 738,1048 L 742,1038 L 716,1013 L 704,1018 L 690,1021 L 675,1021 L 660,1018 L 648,1013M 620,984 L 618,979 L 613,965 L 611,951 L 613,936 L 618,922 L 620,917 L 595,891 L 590,893 L 588,893 L 584,892 L 582,891 L 548,857 L 508,840 L 464,840 L 423,857 L 392,888 L 375,929 L 375,973 L 391,1013 L 423,1045 L 463,1061 L 507,1062 L 548,1045 L 582,1010 L 586,1009 L 588,1008 L 590,1009 L 595,1010 L 620,984M 744,917 L 747,922 L 752,936 L 753,951 L 752,965 L 747,979 L 744,984 L 770,1010 L 775,1009 L 777,1009 L 781,1009 L 782,1010 L 816,1045 L 857,1061 L 901,1062 L 942,1045 L 973,1014 L 990,973 L 990,929 L 973,888 L 942,857 L 901,840 L 857,840 L 816,857 L 782,891 L 779,893 L 777,893 L 775,893 L 770,891 L 744,917M 5292,659 L 5296,650 L 5303,638 L 5312,628 L 5324,621 L 5336,615 L 5336,581 L 5327,577 L 5301,588 L 5270,616 L 5254,651 L 5258,659 L 5292,659M 5336,743 L 5330,741 L 5318,734 L 5308,725 L 5299,714 L 5293,702 L 5292,699 L 5258,699 L 5254,707 L 5270,742 L 5301,771 L 5327,782 L 5336,777 L 5336,743M 5376,616 L 5382,618 L 5394,624 L 5405,633 L 5413,644 L 5419,656 L 5422,669 L 5423,682 L 5421,696 L 5416,709 L 5409,720 L 5400,730 L 5388,738 L 5376,743 L 5376,777 L 5385,782 L 5411,771 L 5442,742 L 5446,733 L 5449,730 L 5452,728 L 5456,727 L 5459,728 L 5462,730 L 5481,757 L 5515,780 L 5556,788 L 5597,780 L 5631,757 L 5649,731 L 5652,729 L 5656,728 L 5660,729 L 5663,731 L 5680,757 L 5715,780 L 5756,788 L 5797,780 L 5831,757 L 5849,731 L 5852,729 L 5856,728 L 5860,729 L 5863,731 L 5880,757 L 5915,780 L 5956,788 L 5997,780 L 6031,757 L 6049,731 L 6052,729 L 6056,728 L 6060,729 L 6063,731 L 6080,757 L 6115,780 L 6156,788 L 6197,780 L 6231,757 L 6249,731 L 6252,729 L 6256,728 L 6260,729 L 6263,731 L 6280,757 L 6315,780 L 6356,788 L 6397,780 L 6431,757 L 6449,731 L 6452,729 L 6456,728 L 6460,729 L 6463,731 L 6480,757 L 6515,780 L 6556,788 L 6597,780 L 6631,757 L 6649,731 L 6652,729 L 6656,728 L 6660,729 L 6663,731 L 6680,757 L 6715,780 L 6756,788 L 6797,780 L 6831,757 L 6849,731 L 6852,729 L 6856,728 L 6860,729 L 6863,731 L 6880,757 L 6915,780 L 6956,788 L 6997,780 L 7031,757 L 7049,731 L 7052,729 L 7056,728 L 7059,729 L 7063,731 L 7080,757 L 7115,780 L 7156,788 L 7196,780 L 7231,757 L 7249,731 L 7252,729 L 7256,728 L 7259,729 L 7263,731 L 7280,757 L 7315,780 L 7356,788 L 7396,780 L 7431,757 L 7448,731 L 7452,729 L 7456,728 L 7459,729 L 7463,731 L 7480,757 L 7515,780 L 7556,788 L 7596,780 L 7631,757 L 7648,731 L 7652,729 L 7656,728 L 7659,729 L 7663,731 L 7680,757 L 7715,780 L 7756,788 L 7796,780 L 7831,757 L 7848,731 L 7852,729 L 7855,728 L 7859,729 L 7863,731 L 7880,757 L 7915,780 L 7955,788 L 7996,780 L 8031,757 L 8048,731 L 8052,729 L 8055,728 L 8059,729 L 8063,731 L 8080,757 L 8115,780 L 8155,788 L 8196,780 L 8231,757 L 8233,753 L 8235,752 L 8237,751 L 8240,751 L 8244,751 L 8247,753 L 8250,757 L 8255,769 L 8266,780 L 8281,786 L 8329,786 L 8335,779 L 8335,746 L 8288,746 L 8288,612 L 8335,612 L 8335,579 L 8329,572 L 8281,572 L 8266,578 L 8255,589 L 8250,601 L 8247,605 L 8244,607 L 8240,608 L 8237,607 L 8235,606 L 8233,605 L 8231,601 L 8196,578 L 8155,570 L 8115,578 L 8080,601 L 8063,627 L 8059,629 L 8055,630 L 8052,629 L 8048,627 L 8031,601 L 7996,578 L 7955,570 L 7915,578 L 7880,601 L 7863,627 L 7859,629 L 7855,630 L 7852,629 L 7848,627 L 7831,601 L 7796,578 L 7756,570 L 7715,578 L 7680,601 L 7663,627 L 7659,629 L 7656,630 L 7652,629 L 7648,627 L 7631,601 L 7596,578 L 7556,570 L 7515,578 L 7480,601 L 7463,627 L 7459,629 L 7456,630 L 7452,629 L 7448,627 L 7431,601 L 7396,578 L 7356,570 L 7315,578 L 7280,601 L 7263,627 L 7259,629 L 7256,630 L 7252,629 L 7249,627 L 7231,601 L 7196,578 L 7156,570 L 7115,578 L 7080,601 L 7063,627 L 7059,629 L 7056,630 L 7052,629 L 7049,627 L 7031,601 L 6997,578 L 6956,570 L 6915,578 L 6880,601 L 6863,627 L 6860,629 L 6856,630 L 6852,629 L 6849,627 L 6831,601 L 6797,578 L 6756,570 L 6715,578 L 6680,601 L 6663,627 L 6660,629 L 6656,630 L 6652,629 L 6649,627 L 6631,601 L 6597,578 L 6556,570 L 6515,578 L 6480,601 L 6463,627 L 6460,629 L 6456,630 L 6452,629 L 6449,627 L 6431,601 L 6397,578 L 6356,570 L 6315,578 L 6280,601 L 6263,627 L 6260,629 L 6256,630 L 6252,629 L 6249,627 L 6231,601 L 6197,578 L 6156,570 L 6115,578 L 6080,601 L 6063,627 L 6060,629 L 6056,630 L 6052,629 L 6049,627 L 6031,601 L 5997,578 L 5956,570 L 5915,578 L 5880,601 L 5863,627 L 5860,629 L 5856,630 L 5852,629 L 5849,627 L 5831,601 L 5797,578 L 5756,570 L 5715,578 L 5680,601 L 5664,626 L 5662,628 L 5658,630 L 5656,630 L 5652,629 L 5649,627 L 5631,601 L 5597,578 L 5556,570 L 5515,578 L 5481,601 L 5462,628 L 5459,630 L 5456,631 L 5452,630 L 5449,628 L 5446,625 L 5442,616 L 5411,588 L 5385,577 L 5376,581 L 5376,616M 8375,746 L 8375,779 L 8382,786 L 8430,786 L 8445,780 L 8456,769 L 8462,754 L 8462,706 L 8456,699 L 8422,699 L 8422,746 L 8375,746M 8375,612 L 8422,612 L 8422,659 L 8456,659 L 8462,652 L 8462,604 L 8456,589 L 8445,578 L 8430,572 L 8382,572 L 8375,579 L 8375,612M 4315,4547 L 4320,4547 L 4363,4538 L 4399,4513 L 4409,4504 L 4413,4500 L 4823,4091 L 4849,4052 L 4858,4006 L 4858,3622 L 4849,3575 L 4823,3537 L 4785,3511 L 4739,3502 L 4694,3511 L 4656,3537 L 4630,3575 L 4621,3622 L 4621,3953 L 4620,3957 L 4619,3959 L 4323,4255 L 4321,4256 L 4318,4258 L 4272,4267 L 4234,4293 L 4208,4331 L 4199,4377 L 4199,4427 L 4208,4474 L 4234,4512 L 4272,4538 L 4315,4547M 4359,3687 L 4364,3687 L 4407,3678 L 4443,3654 L 4447,3651 L 4471,3614 L 4480,3568 L 4480,3452 L 4479,3447 L 4480,3443 L 4482,3440 L 4486,3438 L 4489,3437 L 4512,3441 L 4518,3441 L 4565,3432 L 4604,3406 L 4633,3377 L 4659,3338 L 4668,3293 L 4659,3247 L 4632,3207 L 4631,3205 L 4630,3201 L 4630,2308 L 4631,2304 L 4632,2303 L 4641,2294 L 4645,2292 L 4683,2284 L 4723,2258 L 4749,2218 L 4758,2172 L 4758,2128 L 4749,2082 L 4723,2043 L 4685,2017 L 4639,2008 L 4594,2017 L 4555,2044 L 4505,2093 L 4502,2095 L 4498,2096 L 4496,2096 L 4493,2094 L 4490,2091 L 4489,2090 L 4481,2050 L 4455,2011 L 4417,1985 L 4370,1976 L 4362,1976 L 4316,1985 L 4278,2011 L 4252,2050 L 4248,2070 L 4246,2073 L 4231,2089 L 4205,2128 L 4196,2174 L 4196,3403 L 4205,3450 L 4231,3489 L 4240,3497 L 4242,3501 L 4243,3502 L 4243,3568 L 4252,3614 L 4278,3652 L 4316,3678 L 4359,3687 z " style="fill-opacity:1.000000;fill:rgb(235,179,166);stroke:rgb(0,0,0);stroke-width:2"/></g>
<g fill-rule="evenodd"><path d="M 1155,1683 L 1126,1680 L 1099,1671 L 1074,1657 L 1052,1639 L 1034,1616 L 1022,1590 L 1015,1563 L 1013,1534 L 1017,1506 L 1027,1479 L 1043,1454 L 1062,1434 L 1086,1417 L 1112,1406 L 1140,1400 L 1155,1399 L 1183,1402 L 1210,1411 L 1236,1425 L 1257,1443 L 1275,1466 L 1287,1492 L 1295,1520 L 1296,1548 L 1292,1577 L 1282,1603 L 1267,1628 L 1247,1649 L 1223,1665 L 1197,1676 L 1169,1682 L 1155,1683 z " style="fill-opacity:1.000000;fill:rgb(219,60,135);stroke:rgb(0,0,0);stroke-width:2"/></g>
<g fill-rule="evenodd"><path d="M 210,1691 L 180,1688 L 151,1679 L 124,1664 L 102,1644 L 83,1620 L 70,1593 L 62,1564 L 61,1533 L 65,1504 L 76,1475 L 92,1450 L 113,1428 L 137,1410 L 165,1398 L 195,1392 L 210,1391 L 240,1395 L 269,1404 L 295,1418 L 318,1438 L 337,1462 L 350,1489 L 358,1518 L 359,1549 L 355,1579 L 344,1607 L 328,1633 L 307,1655 L 283,1672 L 255,1684 L 225,1690 L 210,1691 z " style="fill-opacity:1.000000;fill:rgb(12,62,153);stroke:rgb(0,0,0);stroke-width:2"/></g>
<g fill-rule="evenodd"><path d="M 966,2092 L 964,2110 L 958,2127 L 949,2143 L 937,2156 L 922,2167 L 906,2174 L 888,2178 L 870,2178 L 852,2174 L 836,2167 L 821,2156 L 809,2143 L 800,2127 L 794,2110 L 792,2092 L 794,2074 L 800,2057 L 809,2041 L 821,2028 L 836,2017 L 852,2010 L 870,2006 L 888,2006 L 906,2010 L 922,2017 L 937,2028 L 949,2041 L 958,2057 L 964,2074 L 966,2092 z " style="fill-opacity:1.000000;fill:rgb(36,94,13);stroke:rgb(0,0,0);stroke-width:2"/></g>
<g fill-rule="evenodd"><path d="M 950,951 L 948,965 L 944,979 L 936,992 L 926,1003 L 915,1012 L 901,1018 L 886,1021 L 872,1021 L 857,1018 L 844,1012 L 832,1003 L 822,992 L 814,979 L 810,965 L 808,951 L 810,936 L 814,922 L 822,909 L 832,898 L 844,889 L 857,883 L 872,880 L 886,880 L 901,883 L 915,889 L 926,898 L 936,909 L 944,922 L 948,936 L 950,951 z " style="fill-opacity:1.000000;fill:rgb(28,6,183);stroke:rgb(0,0,0);stroke-width:2"/></g>
<g fill-rule="evenodd"><path d="M 556,951 L 555,965 L 550,979 L 543,992 L 533,1003 L 521,1012 L 507,1018 L 493,1021 L 478,1021 L 464,1018 L 450,1012 L 438,1003 L 428,992 L 421,979 L 416,965 L 415,951 L 416,936 L 421,922 L 428,909 L 438,898 L 450,889 L 464,883 L 478,880 L 493,880 L 507,883 L 521,889 L 533,898 L 543,909 L 550,922 L 555,936 L 556,951 z " style="fill-opacity:1.000000;fill:rgb(71,222,179);stroke:rgb(0,0,0);stroke-width:2"/></g>
<g fill-rule="evenodd"><path d="M 1979,3925 L 1979,3792 L 2113,3792 L 2113,3925 L 1979,3925 z " style="fill-opacity:1.000000;fill:rgb(18,77,200);stroke:rgb(0,0,0);stroke-width:2"/></g>
<g fill-rule="evenodd"><path d="M 2113,4059 L 2111,4072 L 2107,4086 L 2100,4098 L 2091,4108 L 2079,4116 L 2067,4122 L 2053,4125 L 2039,4125 L 2025,4122 L 2013,4116 L 2001,4108 L 1992,4098 L 1985,4086 L 1981,4072 L 1979,4059 L 1981,4045 L 1985,4031 L 1992,4019 L 2001,4009 L 2013,4001 L 2025,3995 L 2039,3992 L 2053,3992 L 2067,3995 L 2079,4001 L 2091,4009 L 2100,4019 L 2107,4031 L 2111,4045 L 2113,4059 z " style="fill-opacity:1.000000;fill:rgb(67,187,139);stroke:rgb(0,0,0);stroke-width:2"/></g>
<g fill-rule="evenodd"><path d="M 1070,3067 L 1068,3085 L 1062,3103 L 1053,3120 L 1040,3134 L 1025,3145 L 1008,3152 L 990,3156 L 971,3156 L 952,3152 L 935,3145 L 920,3134 L 907,3120 L 898,3103 L 892,3085 L 890,3067 L 892,3048 L 898,3030 L 907,3014 L 920,3000 L 935,2989 L 952,2981 L 971,2977 L 990,2977 L 1008,2981 L 1025,2989 L 1040,3000 L 1053,3014 L 1062,3030 L 1068,3048 L 1070,3067 z " style="fill-opacity:1.000000;fill:rgb(166,31,3);stroke:rgb(0,0,0);stroke-width:2"/></g>
<g fill-rule="evenodd"><path d="M 505,3740 L 505,3590 L 655,3590 L 655,3740 L 505,3740 z " style="fill-opacity:1.000000;fill:rgb(90,125,9);stroke:rgb(0,0,0);stroke-width:2"/></g>
<g fill-rule="evenodd"><path d="M 386,223 L 383,254 L 373,284 L 357,311 L 336,335 L 311,353 L 283,366 L 252,372 L 221,372 L 190,366 L 162,353 L 136,335 L 115,311 L 100,284 L 90,254 L 87,223 L 90,192 L 100,163 L 115,135 L 136,112 L 162,94 L 190,81 L 221,75 L 252,75 L 283,81 L 311,94 L 336,112 L 357,135 L 373,163 L 383,192 L 386,223 z " style="fill-opacity:1.000000;fill:rgb(56,37,31);stroke:rgb(0,0,0);stroke-width:2"/></g>
<g fill-rule="evenodd"><path d="M 8520,199 L 8517,230 L 8507,260 L 8492,287 L 8471,311 L 8445,329 L 8417,342 L 8386,348 L 8355,348 L 8324,342 L 8296,329 L 8271,311 L 8250,287 L 8234,260 L 8224,230 L 8221,199 L 8224,168 L 8234,139 L 8250,111 L 8271,88 L 8296,70 L 8324,57 L 8355,51 L 8386,51 L 8417,57 L 8445,70 L 8471,88 L 8492,111 L 8507,139 L 8517,168 L 8520,199 z " style="fill-opacity:1.000000;fill:rgb(93,212,203);stroke:rgb(0,0,0);stroke-width:2"/></g>
<g fill-rule="evenodd"><path d="M 8530,4444 L 8527,4476 L 8517,4505 L 8502,4532 L 8481,4556 L 8455,4574 L 8427,4587 L 8396,4593 L 8365,4593 L 8334,4587 L 8306,4574 L 8281,4556 L 8260,4532 L 8244,4505 L 8234,4476 L 8231,4444 L 8234,4413 L 8244,4384 L 8260,4357 L 8281,4333 L 8306,4315 L 8334,4302 L 8365,4296 L 8396,4296 L 8427,4302 L 8455,4315 L 8481,4333 L 8502,4357 L 8517,4384 L 8527,4413 L 8530,4444 z " style="fill-opacity:1.000000;fill:rgb(252,150,245);stroke:rgb(0,0,0);stroke-width:2"/></g>
<g fill-rule="evenodd"><path d="M 428,4370 L 425,4402 L 415,4431 L 399,4458 L 378,4482 L 353,4500 L 325,4513 L 294,4519 L 263,4519 L 232,4513 L 204,4500 L 178,4482 L 157,4458 L 142,4431 L 132,4402 L 129,4370 L 132,4339 L 142,4310 L 157,4283 L 178,4259 L 204,4241 L 232,4228 L 263,4222 L 294,4222 L 325,4228 L 353,4241 L 378,4259 L 399,4283 L 415,4310 L 425,4339 L 428,4370 z " style="fill-opacity:1.000000;fill:rgb(69,59,19);stroke:rgb(0,0,0);stroke-width:2"/></g>
<g fill-rule="evenodd"><path d="M 8155,746 L 8142,745 L 8129,741 L 8117,734 L 8107,725 L 8099,714 L 8093,702 L 8089,689 L 8089,676 L 8091,662 L 8095,650 L 8103,638 L 8112,628 L 8123,621 L 8135,615 L 8149,612 L 8155,612 L 8169,614 L 8182,618 L 8194,624 L 8204,633 L 8212,644 L 8218,656 L 8222,669 L 8222,682 L 8220,696 L 8215,709 L 8208,720 L 8199,730 L 8188,738 L 8175,743 L 8162,746 L 8155,746 z " style="fill-opacity:1.000000;fill:rgb(13,137,10);stroke:rgb(0,0,0);stroke-width:2"/></g>
<g fill-rule="evenodd"><path d="M 7955,746 L 7942,745 L 7929,741 L 7917,734 L 7907,725 L 7899,714 L 7893,702 L 7889,689 L 7889,676 L 7891,662 L 7895,650 L 7903,638 L 7912,628 L 7923,621 L 7935,615 L 7949,612 L 7955,612 L 7969,614 L 7982,618 L 7994,624 L 8004,633 L 8012,644 L 8018,656 L 8022,669 L 8022,682 L 8020,696 L 8016,709 L 8008,720 L 7999,730 L 7988,738 L 7975,743 L 7962,746 L 7955,746 z " style="fill-opacity:1.000000;fill:rgb(28,219,174);stroke:rgb(0,0,0);stroke-width:2"/></g>
<g fill-rule="evenodd"><path d="M 7756,746 L 7742,745 L 7729,741 L 7717,734 L 7707,725 L 7699,714 L 7693,702 L 7689,689 L 7689,676 L 7691,662 L 7695,650 L 7703,638 L 7712,628 L 7723,621 L 7735,615 L 7749,612 L 7756,612 L 7769,614 L 7782,618 L 7794,624 L 7804,633 L 7812,644 L 7818,656 L 7822,669 L 7822,682 L 7820,696 L 7816,709 L 7808,720 L 7799,730 L 7788,738 L 7776,743 L 7762,746 L 7756,746 z " style="fill-opacity:1.000000;fill:rgb(50,32,154);stroke:rgb(0,0,0);stroke-width:2"/></g>
<g fill-rule="evenodd"><path d="M 7556,746 L 7542,745 L 7529,741 L 7517,734 L 7507,725 L 7499,714 L 7493,702 L 7489,689 L 7489,676 L 7491,662 L 7495,650 L 7503,638 L 7512,628 L 7523,621 L 7536,615 L 7549,612 L 7556,612 L 7569,614 L 7582,618 L 7594,624 L 7604,633 L 7612,644 L 7618,656 L 7622,669 L 7622,682 L 7620,696 L 7616,709 L 7608,720 L 7599,730 L 7588,738 L 7576,743 L 7562,746 L 7556,746 z " style="fill-opacity:1.000000;fill:rgb(80,238,64);stroke:rgb(0,0,0);stroke-width:2"/></g>
<g fill-rule="evenodd"><path d="M 7356,746 L 7342,745 L 7329,741 L 7317,734 L 7307,725 L 7299,714 L 7293,702 L 7289,689 L 7289,676 L 7291,662 L 7296,650 L 7303,638 L 7312,628 L 7323,621 L 7336,615 L 7349,612 L 7356,612 L 7369,614 L 7382,618 L 7394,624 L 7404,633 L 7412,644 L 7418,656 L 7422,669 L 7422,682 L 7420,696 L 7416,709 L 7409,720 L 7399,730 L 7388,738 L 7376,743 L 7362,746 L 7356,746 z " style="fill-opacity:1.000000;fill:rgb(120,54,253);stroke:rgb(0,0,0);stroke-width:2"/></g>
<g fill-rule="evenodd"><path d="M 7156,746 L 7142,745 L 7129,741 L 7117,734 L 7107,725 L 7099,714 L 7093,702 L 7089,689 L 7089,676 L 7091,662 L 7096,650 L 7103,638 L 7112,628 L 7123,621 L 7136,615 L 7149,612 L 7156,612 L 7169,614 L 7182,618 L 7194,624 L 7204,633 L 7212,644 L 7218,656 L 7222,669 L 7222,682 L 7220,696 L 7216,709 L 7209,720 L 7199,730 L 7188,738 L 7176,743 L 7162,746 L 7156,746 z " style="fill-opacity:1.000000;fill:rgb(18,73,50);stroke:rgb(0,0,0);stroke-width:2"/></g>
<g fill-rule="evenodd"><path d="M 6956,746 L 6942,745 L 6929,741 L 6917,734 L 6907,725 L 6899,714 L 6893,702 L 6890,689 L 6889,676 L 6891,662 L 6896,650 L 6903,638 L 6912,628 L 6923,621 L 6936,615 L 6949,612 L 6956,612 L 6969,614 L 6982,618 L 6994,624 L 7004,633 L 7012,644 L 7018,656 L 7022,669 L 7023,682 L 7020,696 L 7016,709 L 7009,720 L 6999,730 L 6988,738 L 6976,743 L 6962,746 L 6956,746 z " style="fill-opacity:1.000000;fill:rgb(246,158,125);stroke:rgb(0,0,0);stroke-width:2"/></g>
<g fill-rule="evenodd"><path d="M 6756,746 L 6742,745 L 6729,741 L 6717,734 L 6707,725 L 6699,714 L 6693,702 L 6690,689 L 6689,676 L 6691,662 L 6696,650 L 6703,638 L 6712,628 L 6723,621 L 6736,615 L 6749,612 L 6756,612 L 6769,614 L 6782,618 L 6794,624 L 6804,633 L 6813,644 L 6818,656 L 6822,669 L 6823,682 L 6820,696 L 6816,709 L 6809,720 L 6799,730 L 6788,738 L 6776,743 L 6762,746 L 6756,746 z " style="fill-opacity:1.000000;fill:rgb(73,220,173);stroke:rgb(0,0,0);stroke-width:2"/></g>
<g fill-rule="evenodd"><path d="M 6556,746 L 6542,745 L 6529,741 L 6518,734 L 6507,725 L 6499,714 L 6493,702 L 6490,689 L 6489,676 L 6491,662 L 6496,650 L 6503,638 L 6512,628 L 6523,621 L 6536,615 L 6549,612 L 6556,612 L 6569,614 L 6582,618 L 6594,624 L 6604,633 L 6613,644 L 6619,656 L 6622,669 L 6623,682 L 6621,696 L 6616,709 L 6609,720 L 6599,730 L 6588,738 L 6576,743 L 6563,746 L 6556,746 z " style="fill-opacity:1.000000;fill:rgb(79,20,242);stroke:rgb(0,0,0);stroke-width:2"/></g>
<g fill-rule="evenodd"><path d="M 6356,746 L 6342,745 L 6329,741 L 6318,734 L 6307,725 L 6299,714 L 6293,702 L 6290,689 L 6289,676 L 6291,662 L 6296,650 L 6303,638 L 6312,628 L 6323,621 L 6336,615 L 6349,612 L 6356,612 L 6369,614 L 6382,618 L 6394,624 L 6404,633 L 6413,644 L 6419,656 L 6422,669 L 6423,682 L 6421,696 L 6416,709 L 6409,720 L 6399,730 L 6388,738 L 6376,743 L 6363,746 L 6356,746 z " style="fill-opacity:1.000000;fill:rgb(68,64,102);stroke:rgb(0,0,0);stroke-width:2"/></g>
<g fill-rule="evenodd"><path d="M 6156,746 L 6142,745 L 6129,741 L 6118,734 L 6107,725 L 6099,714 L 6093,702 L 6090,689 L 6089,676 L 6091,662 L 6096,650 L 6103,638 L 6112,628 L 6123,621 L 6136,615 L 6149,612 L 6156,612 L 6169,614 L 6182,618 L 6194,624 L 6204,633 L 6213,644 L 6219,656 L 6222,669 L 6223,682 L 6221,696 L 6216,709 L 6209,720 L 6199,730 L 6188,738 L 6176,743 L 6163,746 L 6156,746 z " style="fill-opacity:1.000000;fill:rgb(208,107,196);stroke:rgb(0,0,0);stroke-width:2"/></g>
<g fill-rule="evenodd"><path d="M 5956,746 L 5942,745 L 5930,741 L 5918,734 L 5907,725 L 5899,714 L 5893,702 L 5890,689 L 5889,676 L 5891,662 L 5896,650 L 5903,638 L 5912,628 L 5923,621 L 5936,615 L 5949,612 L 5956,612 L 5969,614 L 5982,618 L 5994,624 L 6004,633 L 6013,644 L 6019,656 L 6022,669 L 6023,682 L 6021,696 L 6016,709 L 6009,720 L 5999,730 L 5988,738 L 5976,743 L 5963,746 L 5956,746 z " style="fill-opacity:1.000000;fill:rgb(48,183,50);stroke:rgb(0,0,0);stroke-width:2"/></g>
<g fill-rule="evenodd"><path d="M 5756,746 L 5742,745 L 5730,741 L 5718,734 L 5707,725 L 5699,714 L 5693,702 L 5690,689 L 5689,676 L 5691,662 L 5696,650 L 5703,638 L 5712,628 L 5723,621 L 5736,615 L 5749,612 L 5756,612 L 5769,614 L 5782,618 L 5794,624 L 5804,633 L 5813,644 L 5819,656 L 5822,669 L 5823,682 L 5821,696 L 5816,709 L 5809,720 L 5800,730 L 5788,738 L 5776,743 L 5763,746 L 5756,746 z " style="fill-opacity:1.000000;fill:rgb(59,161,34);stroke:rgb(0,0,0);stroke-width:2"/></g>
<g fill-rule="evenodd"><path d="M 5556,746 L 5543,745 L 5530,741 L 5518,734 L 5507,725 L 5499,714 L 5493,702 L 5490,689 L 5489,676 L 5491,662 L 5496,650 L 5503,638 L 5512,628 L 5524,621 L 5536,615 L 5549,612 L 5556,612 L 5569,614 L 5582,618 L 5594,624 L 5604,633 L 5613,644 L 5619,656 L 5622,669 L 5623,682 L 5621,696 L 5616,709 L 5609,720 L 5600,730 L 5588,738 L 5576,743 L 5563,746 L 5556,746 z " style="fill-opacity:1.000000;fill:rgb(246,34,145);stroke:rgb(0,0,0);stroke-width:2"/></g>
<g fill-rule="evenodd"><path d="M 2705,4028 L 2707,4031 L 2711,4045 L 2713,4059 L 2711,4072 L 2707,4086 L 2700,4098 L 2691,4108 L 2679,4116 L 2667,4122 L 2653,4125 L 2639,4125 L 2625,4122 L 2612,4116 L 2601,4108 L 2592,4098 L 2585,4086 L 2580,4072 L 2579,4059 L 2580,4045 L 2585,4031 L 2587,4028 L 2587,3889 L 2585,3886 L 2580,3872 L 2579,3859 L 2580,3845 L 2585,3831 L 2592,3819 L 2601,3809 L 2612,3801 L 2625,3795 L 2639,3792 L 2653,3792 L 2667,3795 L 2679,3801 L 2691,3809 L 2700,3819 L 2707,3831 L 2711,3845 L 2713,3859 L 2711,3872 L 2707,3886 L 2705,3889 L 2705,4028 z " style="fill-opacity:1.000000;fill:rgb(157,225,139);stroke:rgb(0,0,0);stroke-width:2"/></g>
<g fill-rule="evenodd"><path d="M 2505,4028 L 2507,4031 L 2511,4045 L 2513,4059 L 2511,4072 L 2507,4086 L 2500,4098 L 2491,4108 L 2479,4116 L 2467,4122 L 2453,4125 L 2439,4125 L 2425,4122 L 2412,4116 L 2401,4108 L 2392,4098 L 2385,4086 L 2380,4072 L 2379,4059 L 2380,4045 L 2385,4031 L 2387,4028 L 2387,3889 L 2385,3886 L 2380,3872 L 2379,3859 L 2380,3845 L 2385,3831 L 2392,3819 L 2401,3809 L 2412,3801 L 2425,3795 L 2439,3792 L 2453,3792 L 2467,3795 L 2479,3801 L 2491,3809 L 2500,3819 L 2507,3831 L 2511,3845 L 2513,3859 L 2511,3872 L 2507,3886 L 2505,3889 L 2505,4028 z " style="fill-opacity:1.000000;fill:rgb(31,218,176);stroke:rgb(0,0,0);stroke-width:2"/></g>
<g fill-rule="evenodd"><path d="M 2905,4028 L 2907,4031 L 2911,4045 L 2913,4059 L 2911,4072 L 2907,4086 L 2900,4098 L 2891,4108 L 2879,4116 L 2866,4122 L 2853,4125 L 2839,4125 L 2825,4122 L 2812,4116 L 2801,4108 L 2792,4098 L 2785,4086 L 2780,4072 L 2779,4059 L 2780,4045 L 2785,4031 L 2787,4028 L 2787,3889 L 2785,3886 L 2780,3872 L 2779,3859 L 2780,3845 L 2785,3831 L 2792,3819 L 2801,3809 L 2812,3801 L 2825,3795 L 2839,3792 L 2853,3792 L 2866,3795 L 2879,3801 L 2891,3809 L 2900,3819 L 2907,3831 L 2911,3845 L 2913,3859 L 2911,3872 L 2907,3886 L 2905,3889 L 2905,4028 z " style="fill-opacity:1.000000;fill:rgb(202,153,2);stroke:rgb(0,0,0);stroke-width:2"/></g>
</svg>
