<?xml version="1.0" standalone="no"?>
<!DOCTYPE svg PUBLIC "-//W3C//DTD SVG 1.1//EN"
"http://www.w3.org/Graphics/SVG/1.1/DTD/svg11.dtd">
<svg width="8587" height="4645" viewBox="0 0 8587 4645" version="1.1"
xmlns="http://www.w3.org/2000/svg"
xmlns:xlink="http://www.w3.org/1999/xlink">
<g fill-rule="evenodd"><path d="M 4282,3495 L 4261,3474 L 4260,3473 L 4251,3461 L 4250,3460 L 4242,3446 L 4242,3445 L 4237,3430 L 4237,3428 L 4236,3413 L 4236,3412 L 4236,2181 L 4236,2181 L 4237,2165 L 4237,2164 L 4242,2149 L 4242,2148 L 4250,2134 L 4251,2133 L 4260,2121 L 4261,2120 L 4283,2098 L 4284,2087 L 4284,2085 L 4289,2071 L 4289,2069 L 4297,2055 L 4297,2054 L 4307,2042 L 4308,2041 L 4320,2031 L 4322,2031 L 4335,2023 L 4337,2023 L 4351,2018 L 4353,2018 L 4368,2016 L 4369,2016 L 4379,2016 L 4380,2016 L 4396,2018 L 4397,2018 L 4398,2018 L 4413,2024 L 4414,2024 L 4415,2024 L 4429,2032 L 4430,2033 L 4431,2033 L 4443,2044 L 4444,2046 L 4454,2059 L 4454,2060 L 4454,2060 L 4461,2075 L 4461,2076 L 4462,2077 L 4465,2093 L 4465,2095 L 4465,2111 L 4465,2112 L 4465,2113 L 4462,2129 L 4461,2130 L 4461,2130 L 4455,2144 L 4455,2147 L 4454,2148 L 4454,2152 L 4454,2153 L 4450,2165 L 4450,2166 L 4448,2170 L 4448,2170 L 4442,2181 L 4442,2182 L 4439,2185 L 4439,2186 L 4431,2195 L 4430,2196 L 4409,2217 L 4409,3376 L 4430,3398 L 4431,3398 L 4441,3410 L 4441,3412 L 4449,3425 L 4449,3427 L 4454,3441 L 4454,3443 L 4456,3458 L 4456,3459 L 4456,3577 L 4456,3578 L 4454,3594 L 4453,3596 L 4448,3611 L 4448,3612 L 4448,3613 L 4439,3627 L 4439,3628 L 4439,3628 L 4428,3640 L 4426,3642 L 4413,3651 L 4412,3652 L 4412,3652 L 4397,3659 L 4396,3659 L 4395,3659 L 4379,3663 L 4377,3663 L 4361,3663 L 4360,3663 L 4359,3663 L 4343,3659 L 4342,3659 L 4341,3659 L 4326,3652 L 4325,3651 L 4312,3642 L 4310,3640 L 4299,3628 L 4299,3628 L 4298,3627 L 4290,3613 L 4290,3612 L 4290,3611 L 4284,3596 L 4284,3594 L 4282,3578 L 4282,3577 L 4282,3495 z " style="fill-opacity:1.000000;fill:rgb(41,35,190);stroke:rgb(0,0,0);stroke-width:2"/></g>
<g fill-rule="evenodd"><path d="M 4340,4300 L 4660,3979 L 4660,3629 L 4660,3628 L 4662,3612 L 4662,3610 L 4668,3594 L 4668,3593 L 4668,3593 L 4676,3578 L 4677,3578 L 4677,3577 L 4688,3565 L 4690,3564 L 4703,3554 L 4704,3553 L 4719,3547 L 4720,3546 L 4721,3546 L 4737,3543 L 4738,3543 L 4739,3543 L 4755,3543 L 4757,3543 L 4773,3546 L 4774,3546 L 4774,3547 L 4789,3553 L 4790,3554 L 4791,3554 L 4804,3564 L 4805,3565 L 4816,3577 L 4817,3578 L 4817,3578 L 4826,3593 L 4826,3593 L 4826,3594 L 4831,3610 L 4832,3611 L 4832,3612 L 4833,3628 L 4834,3629 L 4834,4015 L 4833,4015 L 4832,4031 L 4832,4032 L 4827,4047 L 4827,4048 L 4819,4062 L 4818,4063 L 4809,4075 L 4808,4076 L 4386,4498 L 4386,4498 L 4374,4508 L 4372,4509 L 4359,4516 L 4357,4517 L 4343,4521 L 4341,4522 L 4326,4523 L 4324,4523 L 4309,4522 L 4307,4521 L 4293,4517 L 4291,4516 L 4278,4509 L 4276,4508 L 4264,4498 L 4263,4497 L 4253,4485 L 4253,4484 L 4245,4470 L 4245,4469 L 4240,4454 L 4240,4453 L 4238,4437 L 4238,4437 L 4238,4385 L 4238,4384 L 4240,4367 L 4241,4366 L 4246,4350 L 4246,4349 L 4246,4349 L 4254,4334 L 4255,4334 L 4255,4333 L 4266,4321 L 4268,4320 L 4281,4310 L 4282,4309 L 4297,4303 L 4298,4302 L 4299,4302 L 4315,4299 L 4316,4298 L 4317,4298 L 4333,4298 L 4335,4299 L 4340,4300 z " style="fill-opacity:1.000000;fill:rgb(132,225,108);stroke:rgb(0,0,0);stroke-width:2"/></g>
<g fill-rule="evenodd"><path d="M 1443,4184 L 2983,4184 L 3174,3993 L 3175,3993 L 3186,3983 L 3188,3982 L 3201,3975 L 3203,3974 L 3218,3970 L 3219,3970 L 3234,3968 L 3235,3968 L 3517,3968 L 3518,3968 L 3534,3970 L 3535,3970 L 3536,3970 L 3552,3975 L 3552,3976 L 3553,3976 L 3567,3984 L 3568,3985 L 3569,3985 L 3581,3996 L 3582,3997 L 3592,4011 L 3592,4011 L 3592,4012 L 3599,4027 L 3599,4028 L 3600,4029 L 3603,4045 L 3603,4046 L 3603,4063 L 3603,4064 L 3603,4064 L 3600,4081 L 3599,4081 L 3599,4082 L 3592,4097 L 3592,4099 L 3582,4112 L 3581,4113 L 3569,4124 L 3568,4125 L 3567,4125 L 3553,4133 L 3552,4134 L 3552,4134 L 3536,4139 L 3534,4139 L 3518,4141 L 3517,4141 L 3271,4141 L 3080,4332 L 3080,4332 L 3068,4342 L 3067,4343 L 3053,4350 L 3052,4351 L 3037,4355 L 3035,4356 L 3020,4357 L 3019,4357 L 1407,4357 L 1407,4357 L 1391,4356 L 1390,4355 L 1375,4351 L 1374,4350 L 1360,4343 L 1359,4342 L 1347,4332 L 1346,4332 L 1200,4186 L 1200,4185 L 1189,4172 L 1188,4171 L 1181,4156 L 1181,4156 L 1180,4155 L 1176,4139 L 1176,4137 L 1175,4121 L 1175,4120 L 1175,4119 L 1178,4103 L 1178,4101 L 1184,4086 L 1185,4085 L 1194,4071 L 1194,4070 L 1195,4070 L 1206,4058 L 1207,4057 L 1208,4057 L 1221,4048 L 1223,4047 L 1238,4041 L 1239,4041 L 1240,4041 L 1256,4038 L 1257,4038 L 1258,4038 L 1274,4039 L 1276,4039 L 1292,4044 L 1293,4044 L 1293,4044 L 1308,4052 L 1309,4052 L 1322,4063 L 1323,4063 L 1443,4184 z " style="fill-opacity:1.000000;fill:rgb(214,174,82);stroke:rgb(0,0,0);stroke-width:2"/></g>
<g fill-rule="evenodd"><path d="M 4606,3230 L 4611,3233 L 4612,3234 L 4624,3246 L 4625,3247 L 4634,3261 L 4634,3262 L 4640,3278 L 4641,3278 L 4641,3279 L 4643,3295 L 4643,3296 L 4643,3297 L 4643,3313 L 4642,3315 L 4638,3331 L 4638,3332 L 4637,3333 L 4630,3347 L 4629,3349 L 4619,3361 L 4618,3362 L 4588,3392 L 4588,3392 L 4576,3402 L 4574,3403 L 4561,3410 L 4559,3411 L 4545,3415 L 4543,3416 L 4528,3417 L 4527,3417 L 4519,3417 L 4518,3417 L 4503,3416 L 4501,3415 L 4487,3411 L 4485,3410 L 4472,3403 L 4470,3402 L 4458,3392 L 4457,3391 L 4447,3379 L 4447,3378 L 4439,3365 L 4439,3363 L 4434,3348 L 4434,3347 L 4432,3332 L 4432,3331 L 4432,2263 L 4432,2262 L 4434,2247 L 4434,2245 L 4439,2231 L 4439,2229 L 4447,2215 L 4447,2214 L 4457,2202 L 4458,2202 L 4586,2074 L 4586,2073 L 4598,2063 L 4599,2063 L 4613,2055 L 4615,2055 L 4629,2050 L 4631,2050 L 4646,2048 L 4648,2048 L 4663,2050 L 4665,2050 L 4679,2055 L 4681,2055 L 4694,2063 L 4696,2063 L 4708,2073 L 4709,2074 L 4718,2086 L 4719,2087 L 4727,2101 L 4727,2103 L 4732,2117 L 4732,2119 L 4734,2134 L 4734,2135 L 4734,2181 L 4734,2182 L 4732,2197 L 4732,2199 L 4727,2213 L 4727,2215 L 4719,2228 L 4718,2230 L 4709,2242 L 4708,2242 L 4706,2244 L 4706,2245 L 4693,2255 L 4691,2256 L 4677,2263 L 4676,2264 L 4675,2264 L 4659,2268 L 4658,2269 L 4641,2269 L 4640,2269 L 4640,2269 L 4636,2269 L 4606,2299 L 4606,3230 z " style="fill-opacity:1.000000;fill:rgb(144,73,241);stroke:rgb(0,0,0);stroke-width:2"/></g>
<g fill-rule="evenodd"><path d="M 7186,784 L 7180,786 L 7178,786 L 7163,789 L 7162,790 L 7161,789 L 7144,788 L 7144,788 L 7127,785 L 7127,785 L 7124,784 L 7112,778 L 7111,778 L 7098,769 L 7097,768 L 7090,763 L 7085,757 L 7085,757 L 7076,743 L 7076,742 L 7073,737 L 7072,736 L 7070,733 L 7068,731 L 7065,729 L 7065,728 L 7065,728 L 7065,727 L 7062,711 L 7062,710 L 7062,710 L 7063,693 L 7063,692 L 7063,691 L 7067,676 L 7068,674 L 7075,659 L 7076,659 L 7076,658 L 7087,645 L 7087,645 L 7090,642 L 7093,637 L 7093,636 L 7094,635 L 7105,623 L 7106,622 L 7119,612 L 7121,612 L 7136,605 L 7137,605 L 7137,604 L 7153,601 L 7154,601 L 7155,601 L 7172,601 L 7173,601 L 7189,604 L 7190,605 L 7191,605 L 7206,612 L 7207,612 L 7207,612 L 7221,622 L 7222,623 L 7233,635 L 7233,636 L 7234,637 L 7242,651 L 7242,652 L 7243,653 L 7248,668 L 7248,669 L 7248,670 L 7250,686 L 7250,687 L 7250,691 L 7250,692 L 7248,707 L 7248,709 L 7244,723 L 7243,725 L 7236,738 L 7235,740 L 7225,752 L 7225,752 L 7210,767 L 7209,768 L 7196,778 L 7195,779 L 7186,784 z " style="fill-opacity:1.000000;fill:rgb(241,187,233);stroke:rgb(0,0,0);stroke-width:2"/></g>
<g fill-rule="evenodd"><path d="M 5154,1490 L 5153,1488 L 5152,1486 L 5149,1474 L 5149,1474 L 5149,1473 L 5148,1460 L 5148,1459 L 5150,1447 L 5150,1445 L 5155,1433 L 5155,1433 L 5156,1432 L 5162,1422 L 5163,1420 L 5172,1412 L 5173,1411 L 5184,1404 L 5184,1403 L 5185,1403 L 5197,1399 L 5198,1398 L 5211,1396 L 5211,1396 L 5212,1396 L 5225,1397 L 5225,1397 L 5226,1397 L 5238,1400 L 5240,1401 L 5251,1407 L 5252,1407 L 5262,1415 L 5262,1416 L 5268,1422 L 5269,1422 L 5276,1431 L 5277,1433 L 5282,1443 L 5283,1444 L 5286,1455 L 5287,1457 L 5288,1468 L 5288,1469 L 5288,4037 L 5288,4037 L 5286,4050 L 5286,4051 L 5282,4063 L 5282,4064 L 5282,4065 L 5275,4075 L 5275,4076 L 5274,4077 L 5266,4086 L 5265,4087 L 5255,4094 L 5254,4095 L 5254,4095 L 5242,4100 L 5241,4100 L 5229,4103 L 5227,4103 L 5215,4103 L 5214,4103 L 5213,4103 L 5201,4100 L 5199,4100 L 5188,4095 L 5187,4095 L 5187,4094 L 5177,4087 L 5175,4086 L 5167,4077 L 5167,4076 L 5166,4075 L 5160,4065 L 5160,4064 L 5159,4063 L 5156,4051 L 5155,4050 L 5154,4037 L 5154,4037 L 5154,1490 z " style="fill-opacity:1.000000;fill:rgb(235,179,166);stroke:rgb(0,0,0);stroke-width:2"/></g>
<g fill-rule="evenodd"><path d="M 8287,4645 L 16,4644 L 14,4644 L 13,4644 L 9,4642 L 8,4641 L 6,4641 L 4,4638 L 3,4637 L 2,4636 L 1,4634 L 1,4633 L 1,4632 L 0,4628 L 0,4627 L 0,2127 L 0,17 L 0,16 L 1,12 L 1,10 L 2,9 L 4,6 L 5,5 L 6,4 L 9,1 L 10,1 L 11,0 L 13,0 L 14,0 L 16,0 L 8318,0 L 8319,0 L 8320,0 L 8322,0 L 8323,1 L 8324,1 L 8327,4 L 8328,5 L 8329,6 L 8332,9 L 8332,10 L 8332,11 L 8333,13 L 8333,14 L 8333,15 L 8333,19 L 8333,21 L 8333,22 L 8331,26 L 8331,27 L 8330,28 L 8329,29 L 8328,30 L 8327,31 L 8324,33 L 8323,34 L 8276,53 L 8224,104 L 8197,171 L 8197,243 L 8224,310 L 8275,361 L 8342,389 L 8414,389 L 8481,361 L 8532,310 L 8552,263 L 8553,262 L 8555,258 L 8556,258 L 8556,257 L 8558,256 L 8559,255 L 8560,254 L 8563,253 L 8565,252 L 8566,252 L 8570,252 L 8572,252 L 8573,253 L 8575,253 L 8576,254 L 8577,254 L 8580,256 L 8581,257 L 8582,258 L 8583,259 L 8584,261 L 8585,262 L 8585,263 L 8585,265 L 8586,268 L 8586,270 L 8586,4368 L 8586,4369 L 8586,4370 L 8585,4372 L 8585,4373 L 8584,4374 L 8582,4377 L 8581,4378 L 8580,4379 L 8577,4382 L 8576,4382 L 8575,4383 L 8573,4383 L 8572,4383 L 8570,4383 L 8566,4383 L 8565,4383 L 8564,4383 L 8562,4383 L 8561,4382 L 8560,4382 L 8557,4379 L 8556,4378 L 8555,4377 L 8553,4374 L 8552,4373 L 8542,4350 L 8491,4299 L 8425,4271 L 8352,4271 L 8286,4298 L 8234,4350 L 8207,4416 L 8207,4489 L 8234,4555 L 8285,4607 L 8296,4611 L 8297,4612 L 8298,4613 L 8301,4616 L 8302,4617 L 8303,4618 L 8304,4622 L 8305,4623 L 8305,4624 L 8305,4626 L 8305,4627 L 8305,4629 L 8305,4631 L 8304,4632 L 8303,4635 L 8302,4637 L 8301,4638 L 8298,4641 L 8297,4641 L 8296,4642 L 8295,4643 L 8294,4643 L 8292,4644 L 8289,4644 L 8287,4645M 4283,4282 L 4247,4306 L 4223,4342 L 4214,4386 L 4214,4435 L 4223,4479 L 4247,4515 L 4283,4539 L 4324,4547 L 4326,4547 L 4367,4539 L 4402,4515 L 4411,4507 L 4411,4506 L 4416,4503 L 4824,4094 L 4849,4057 L 4858,4013 L 4858,3630 L 4849,3586 L 4825,3551 L 4789,3527 L 4747,3518 L 4705,3527 L 4669,3551 L 4645,3586 L 4636,3630 L 4636,3961 L 4636,3963 L 4635,3967 L 4635,3968 L 4634,3969 L 4633,3971 L 4633,3972 L 4632,3972 L 4336,4269 L 4335,4269 L 4334,4271 L 4333,4271 L 4332,4272 L 4328,4273 L 4327,4274 L 4283,4282M 4291,2025 L 4267,2061 L 4263,2079 L 4263,2081 L 4261,2084 L 4261,2086 L 4260,2087 L 4245,2102 L 4220,2139 L 4211,2183 L 4211,3411 L 4220,3455 L 4245,3492 L 4253,3500 L 4254,3501 L 4256,3504 L 4257,3505 L 4257,3506 L 4258,3508 L 4258,3509 L 4258,3510 L 4258,3575 L 4267,3619 L 4291,3655 L 4327,3679 L 4368,3687 L 4370,3687 L 4411,3679 L 4446,3656 L 4448,3654 L 4471,3619 L 4480,3575 L 4480,3461 L 4479,3456 L 4479,3455 L 4479,3454 L 4480,3450 L 4480,3448 L 4481,3447 L 4483,3444 L 4484,3442 L 4485,3441 L 4489,3439 L 4490,3439 L 4492,3438 L 4495,3437 L 4497,3437 L 4498,3437 L 4521,3442 L 4525,3442 L 4569,3433 L 4607,3408 L 4634,3380 L 4659,3343 L 4667,3301 L 4659,3258 L 4633,3219 L 4632,3219 L 4631,3217 L 4631,3216 L 4631,3215 L 4630,3211 L 4630,3210 L 4630,2316 L 4630,2315 L 4631,2311 L 4631,2310 L 4632,2309 L 4632,2307 L 4633,2306 L 4634,2305 L 4643,2296 L 4644,2295 L 4646,2294 L 4649,2293 L 4651,2292 L 4687,2285 L 4725,2260 L 4749,2223 L 4758,2179 L 4758,2137 L 4749,2093 L 4725,2057 L 4689,2033 L 4647,2024 L 4605,2033 L 4567,2058 L 4519,2107 L 4517,2108 L 4514,2110 L 4513,2110 L 4511,2111 L 4507,2112 L 4506,2112 L 4505,2112 L 4503,2112 L 4502,2111 L 4501,2111 L 4497,2110 L 4496,2109 L 4495,2108 L 4492,2105 L 4491,2104 L 4491,2103 L 4490,2101 L 4489,2100 L 4489,2099 L 4481,2061 L 4457,2025 L 4421,2001 L 4377,1992 L 4371,1992 L 4327,2001 L 4291,2025M 2144,3777 L 2133,3770 L 2118,3767 L 1988,3767 L 1975,3769 L 1964,3776 L 1956,3787 L 1953,3802 L 1953,3932 L 1956,3945 L 1963,3956 L 1974,3964 L 1976,3964 L 1978,3965 L 1981,3966 L 1982,3967 L 1983,3967 L 1985,3969 L 1986,3969 L 1986,3970 L 1989,3974 L 1989,3975 L 1990,3976 L 1991,3980 L 1991,3982 L 1991,3983 L 1990,3987 L 1989,3989 L 1989,3990 L 1986,3993 L 1985,3994 L 1969,4010 L 1954,4047 L 1954,4086 L 1969,4123 L 1977,4131 L 1978,4132 L 1979,4133 L 1980,4137 L 1981,4138 L 1981,4140 L 1981,4144 L 1981,4145 L 1980,4147 L 1979,4150 L 1978,4152 L 1977,4153 L 1974,4156 L 1973,4157 L 1972,4157 L 1968,4159 L 1967,4159 L 1965,4160 L 1459,4160 L 1458,4159 L 1457,4159 L 1455,4159 L 1454,4158 L 1453,4158 L 1449,4155 L 1448,4155 L 1341,4047 L 1304,4023 L 1261,4014 L 1219,4023 L 1183,4046 L 1159,4082 L 1151,4125 L 1159,4167 L 1184,4204 L 1328,4348 L 1365,4373 L 1409,4381 L 3017,4381 L 3061,4373 L 3099,4348 L 3277,4169 L 3278,4169 L 3279,4168 L 3281,4167 L 3282,4167 L 3283,4166 L 3287,4166 L 3288,4165 L 3515,4165 L 3559,4157 L 3595,4133 L 3619,4097 L 3628,4055 L 3619,4012 L 3595,3976 L 3559,3953 L 3515,3944 L 3237,3944 L 3193,3953 L 3156,3977 L 2979,4155 L 2977,4155 L 2974,4158 L 2973,4158 L 2971,4159 L 2967,4160 L 2966,4160 L 2941,4160 L 2940,4159 L 2938,4159 L 2935,4157 L 2933,4157 L 2932,4156 L 2929,4153 L 2928,4152 L 2928,4150 L 2926,4147 L 2926,4145 L 2926,4144 L 2926,4140 L 2926,4138 L 2926,4137 L 2928,4133 L 2928,4132 L 2929,4131 L 2937,4123 L 2952,4086 L 2952,4047 L 2942,4022 L 2942,4021 L 2941,4017 L 2941,4016 L 2941,4014 L 2944,3995 L 2944,3909 L 2945,3907 L 2945,3904 L 2946,3902 L 2952,3886 L 2952,3847 L 2937,3811 L 2909,3783 L 2873,3768 L 2834,3768 L 2797,3783 L 2769,3811 L 2769,3812 L 2768,3812 L 2768,3813 L 2766,3815 L 2766,3815 L 2765,3816 L 2761,3818 L 2760,3819 L 2759,3820 L 2755,3820 L 2753,3820 L 2752,3820 L 2748,3819 L 2746,3819 L 2745,3818 L 2742,3816 L 2741,3815 L 2740,3815 L 2739,3813 L 2738,3812 L 2738,3811 L 2709,3783 L 2673,3768 L 2634,3768 L 2597,3783 L 2569,3811 L 2569,3812 L 2568,3812 L 2568,3813 L 2566,3815 L 2566,3815 L 2565,3816 L 2561,3818 L 2560,3819 L 2559,3820 L 2555,3820 L 2553,3820 L 2552,3820 L 2548,3819 L 2546,3819 L 2545,3818 L 2542,3816 L 2541,3815 L 2540,3815 L 2539,3813 L 2538,3812 L 2538,3811 L 2509,3783 L 2473,3768 L 2434,3768 L 2397,3783 L 2369,3811 L 2368,3813 L 2368,3814 L 2367,3814 L 2366,3816 L 2365,3817 L 2364,3817 L 2361,3820 L 2360,3820 L 2359,3821 L 2355,3822 L 2354,3822 L 2353,3822 L 2351,3822 L 2350,3822 L 2349,3822 L 2340,3819 L 2322,3837 L 2326,3850 L 2326,3851 L 2327,3852 L 2328,3866 L 2328,3867 L 2328,3867 L 2327,3881 L 2326,3883 L 2322,3896 L 2341,3915 L 2341,3914 L 2342,3914 L 2343,3914 L 2345,3914 L 2347,3914 L 2349,3915 L 2350,3915 L 2351,3915 L 2353,3916 L 2354,3917 L 2356,3918 L 2357,3919 L 2358,3921 L 2359,3921 L 2359,3922 L 2360,3924 L 2361,3925 L 2362,3927 L 2362,3929 L 2362,3931 L 2362,3932 L 2362,3996 L 2363,4001 L 2363,4002 L 2363,4003 L 2363,4005 L 2362,4006 L 2362,4008 L 2361,4010 L 2360,4012 L 2359,4013 L 2358,4014 L 2356,4015 L 2355,4017 L 2353,4018 L 2351,4018 L 2350,4019 L 2348,4019 L 2346,4019 L 2344,4019 L 2343,4019 L 2342,4019 L 2341,4019 L 2322,4037 L 2326,4050 L 2326,4051 L 2327,4052 L 2328,4066 L 2328,4067 L 2328,4067 L 2327,4081 L 2326,4083 L 2322,4096 L 2322,4097 L 2321,4098 L 2314,4110 L 2314,4111 L 2313,4111 L 2304,4122 L 2303,4123 L 2291,4131 L 2291,4131 L 2290,4132 L 2277,4137 L 2276,4138 L 2276,4138 L 2262,4141 L 2260,4141 L 2246,4141 L 2246,4141 L 2245,4141 L 2231,4138 L 2230,4138 L 2229,4137 L 2217,4132 L 2216,4131 L 2215,4131 L 2204,4123 L 2203,4122 L 2193,4111 L 2193,4111 L 2192,4110 L 2185,4098 L 2185,4097 L 2185,4096 L 2180,4083 L 2180,4081 L 2179,4067 L 2179,4066 L 2180,4052 L 2180,4050 L 2185,4037 L 2166,4019 L 2158,4022 L 2156,4022 L 2155,4022 L 2151,4022 L 2150,4021 L 2148,4021 L 2145,4019 L 2144,4019 L 2143,4018 L 2140,4015 L 2139,4014 L 2138,4013 L 2138,4011 L 2121,3995 L 2121,3994 L 2120,3992 L 2119,3992 L 2118,3990 L 2117,3987 L 2116,3985 L 2116,3984 L 2116,3980 L 2117,3978 L 2117,3977 L 2119,3973 L 2119,3972 L 2120,3971 L 2121,3970 L 2122,3969 L 2123,3968 L 2126,3966 L 2127,3965 L 2129,3965 L 2132,3964 L 2143,3957 L 2150,3946 L 2154,3931 L 2154,3930 L 2155,3926 L 2156,3925 L 2156,3924 L 2158,3923 L 2158,3922 L 2185,3896 L 2180,3883 L 2180,3881 L 2179,3867 L 2179,3866 L 2180,3852 L 2180,3850 L 2185,3837 L 2158,3811 L 2158,3810 L 2157,3810 L 2155,3806 L 2155,3805 L 2154,3804 L 2154,3803 L 2153,3802 L 2151,3788 L 2144,3777M 467,4415 L 467,4343 L 440,4276 L 389,4225 L 322,4197 L 250,4197 L 183,4224 L 132,4276 L 104,4342 L 104,4415 L 132,4481 L 183,4533 L 249,4560 L 322,4560 L 388,4533 L 440,4482 L 467,4415M 514,3565 L 501,3567 L 490,3574 L 482,3585 L 480,3599 L 480,3659 L 479,3660 L 477,3674 L 477,3727 L 477,3728 L 473,3749 L 481,3791 L 505,3827 L 541,3851 L 583,3859 L 626,3851 L 663,3826 L 665,3824 L 690,3787 L 696,3756 L 696,3755 L 697,3754 L 698,3752 L 698,3751 L 699,3751 L 701,3748 L 702,3748 L 703,3746 L 705,3745 L 706,3744 L 708,3744 L 710,3743 L 711,3743 L 713,3743 L 715,3743 L 717,3743 L 718,3744 L 720,3744 L 722,3745 L 723,3746 L 725,3747 L 726,3748 L 727,3749 L 729,3751 L 729,3752 L 730,3754 L 731,3755 L 735,3767 L 770,3781 L 813,3779 L 840,3768 L 841,3765 L 835,3759 L 788,3759 L 787,3759 L 770,3758 L 769,3757 L 753,3752 L 752,3752 L 752,3751 L 737,3743 L 737,3743 L 736,3742 L 724,3731 L 723,3730 L 713,3717 L 712,3715 L 705,3700 L 705,3699 L 705,3699 L 702,3683 L 701,3682 L 701,3681 L 701,3664 L 702,3663 L 705,3647 L 705,3646 L 705,3645 L 712,3630 L 713,3629 L 713,3629 L 723,3615 L 724,3614 L 736,3603 L 737,3603 L 737,3602 L 752,3594 L 752,3594 L 753,3593 L 769,3588 L 770,3588 L 787,3586 L 788,3586 L 835,3586 L 841,3580 L 840,3578 L 805,3565 L 762,3567 L 735,3578 L 730,3593 L 729,3594 L 729,3595 L 727,3596 L 726,3597 L 725,3599 L 723,3600 L 722,3601 L 720,3601 L 718,3602 L 717,3602 L 715,3602 L 713,3603 L 711,3602 L 710,3602 L 708,3601 L 706,3601 L 705,3600 L 703,3599 L 702,3598 L 701,3597 L 696,3592 L 696,3592 L 695,3591 L 694,3589 L 694,3588 L 694,3587 L 693,3586 L 686,3575 L 675,3568 L 661,3565 L 601,3565 L 600,3564 L 588,3562 L 575,3564 L 574,3565 L 514,3565M 1068,3374 L 1107,3374 L 1144,3359 L 1171,3331 L 1187,3295 L 1187,3255 L 1172,3219 L 1142,3189 L 1141,3188 L 1139,3185 L 1138,3183 L 1138,3182 L 1137,3178 L 1137,3177 L 1137,3175 L 1138,3171 L 1138,3170 L 1139,3168 L 1141,3165 L 1142,3164 L 1143,3163 L 1158,3153 L 1182,3117 L 1191,3075 L 1182,3032 L 1158,2997 L 1122,2973 L 1079,2964 L 1041,2964 L 1039,2964 L 1038,2963 L 1012,2953 L 963,2953 L 918,2971 L 884,3006 L 865,3050 L 865,3099 L 884,3144 L 918,3178 L 963,3197 L 988,3197 L 989,3197 L 991,3198 L 994,3199 L 996,3200 L 997,3201 L 1000,3204 L 1001,3205 L 1001,3206 L 1003,3210 L 1003,3211 L 1003,3212 L 1004,3214 L 1004,3215 L 1003,3216 L 1003,3220 L 1002,3222 L 988,3255 L 988,3294 L 1003,3331 L 1031,3359 L 1068,3374M 366,2903 L 380,2937 L 385,2938 L 402,2921 L 399,2915 L 398,2915 L 398,2914 L 392,2896 L 392,2894 L 390,2876 L 390,2874 L 392,2855 L 392,2854 L 398,2836 L 398,2835 L 399,2834 L 401,2830 L 401,2828 L 385,2811 L 381,2813 L 365,2854 L 366,2903M 595,2937 L 610,2895 L 609,2846 L 595,2813 L 591,2811 L 574,2828 L 574,2830 L 577,2834 L 577,2835 L 577,2836 L 583,2854 L 583,2854 L 583,2855 L 585,2874 L 585,2875 L 585,2876 L 583,2894 L 583,2896 L 577,2914 L 577,2915 L 577,2915 L 573,2921 L 591,2938 L 595,2937M 527,3382 L 580,3435 L 650,3464 L 725,3464 L 795,3435 L 848,3382 L 877,3313 L 877,3237 L 848,3168 L 795,3115 L 725,3086 L 650,3086 L 581,3114 L 527,3167 L 499,3237 L 498,3312 L 527,3382M 516,2996 L 550,2982 L 551,2978 L 534,2961 L 519,2968 L 518,2968 L 517,2968 L 499,2972 L 497,2972 L 478,2972 L 477,2972 L 477,2972 L 458,2968 L 457,2968 L 457,2968 L 441,2961 L 424,2978 L 426,2982 L 467,2998 L 516,2996M 372,3219 L 344,3191 L 307,3176 L 268,3176 L 232,3191 L 204,3219 L 189,3255 L 189,3294 L 204,3331 L 231,3359 L 268,3374 L 307,3374 L 344,3359 L 372,3331 L 387,3295 L 387,3255 L 372,3219M 2301,3778 L 2269,3767 L 2229,3769 L 2206,3778 L 2206,3780 L 2224,3798 L 2229,3796 L 2230,3796 L 2231,3795 L 2245,3792 L 2246,3792 L 2246,3792 L 2260,3792 L 2262,3792 L 2276,3795 L 2276,3796 L 2277,3796 L 2282,3798 L 2301,3780 L 2301,3778M 1030,1677 L 1089,1717 L 1160,1731 L 1164,1731 L 1235,1717 L 1294,1677 L 1333,1618 L 1347,1549 L 1333,1480 L 1294,1421 L 1235,1381 L 1164,1367 L 1160,1367 L 1089,1381 L 1030,1421 L 990,1480 L 977,1549 L 990,1618 L 1030,1677M 516,2219 L 560,2201 L 593,2167 L 611,2124 L 612,2077 L 593,2033 L 560,2000 L 516,1981 L 469,1981 L 426,1999 L 392,2033 L 374,2076 L 374,2124 L 392,2167 L 425,2201 L 469,2219 L 516,2219M 803,2056 L 786,2039 L 782,2040 L 767,2080 L 769,2128 L 782,2160 L 786,2161 L 803,2144 L 800,2139 L 800,2138 L 794,2121 L 794,2119 L 792,2101 L 792,2099 L 794,2081 L 794,2080 L 800,2062 L 800,2062 L 800,2061 L 803,2056M 931,2211 L 911,2191 L 897,2194 L 895,2194 L 877,2194 L 877,2194 L 876,2194 L 858,2190 L 857,2190 L 856,2190 L 842,2183 L 825,2201 L 827,2204 L 867,2220 L 914,2218 L 931,2211M 1006,2120 L 1004,2072 L 991,2040 L 987,2039 L 970,2056 L 972,2061 L 973,2062 L 979,2080 L 979,2080 L 979,2081 L 981,2099 L 981,2100 L 981,2101 L 979,2119 L 979,2120 L 979,2121 L 977,2124 L 997,2144 L 1006,2120M 930,2017 L 948,1999 L 946,1996 L 906,1981 L 859,1982 L 827,1995 L 825,1999 L 842,2017 L 856,2011 L 857,2010 L 858,2010 L 876,2006 L 877,2006 L 877,2006 L 895,2006 L 897,2006 L 915,2010 L 916,2010 L 916,2011 L 930,2017M 381,1483 L 344,1426 L 287,1389 L 219,1375 L 215,1375 L 147,1389 L 91,1426 L 53,1483 L 40,1549 L 53,1615 L 91,1672 L 147,1709 L 215,1723 L 219,1723 L 287,1709 L 344,1672 L 381,1615 L 394,1549 L 381,1483M 631,354 L 603,359 L 580,375 L 446,509 L 431,532 L 425,560 L 425,795 L 425,796 L 425,797 L 424,799 L 424,800 L 423,801 L 421,804 L 420,805 L 419,806 L 415,809 L 391,845 L 382,889 L 382,957 L 391,1001 L 415,1037 L 450,1061 L 493,1069 L 535,1061 L 571,1037 L 585,1016 L 586,1015 L 586,1014 L 588,1013 L 589,1013 L 590,1012 L 593,1011 L 594,1010 L 596,1010 L 599,1010 L 618,991 L 617,990 L 613,976 L 612,974 L 611,959 L 611,958 L 612,943 L 613,941 L 617,927 L 618,927 L 618,926 L 625,913 L 626,912 L 626,912 L 636,901 L 638,900 L 644,895 L 644,865 L 640,867 L 636,879 L 635,880 L 634,882 L 634,883 L 633,885 L 631,886 L 630,887 L 629,888 L 627,889 L 626,890 L 624,891 L 622,891 L 620,891 L 619,891 L 617,891 L 615,891 L 613,890 L 612,890 L 610,889 L 608,888 L 607,887 L 606,886 L 604,884 L 604,883 L 603,881 L 602,880 L 601,878 L 601,877 L 595,845 L 571,809 L 567,806 L 565,805 L 565,804 L 562,801 L 562,800 L 561,799 L 561,797 L 561,796 L 560,795 L 560,593 L 560,592 L 561,588 L 562,586 L 562,585 L 565,582 L 566,581 L 652,494 L 653,493 L 656,491 L 657,490 L 659,490 L 663,489 L 664,489 L 1450,489 L 1452,489 L 1455,490 L 1457,490 L 1458,491 L 1462,493 L 1463,494 L 1509,540 L 1510,542 L 1512,545 L 1513,546 L 1513,548 L 1514,551 L 1514,553 L 1514,771 L 1514,772 L 1513,773 L 1513,775 L 1512,776 L 1512,777 L 1510,781 L 1509,782 L 1508,783 L 1503,786 L 1479,822 L 1471,864 L 1479,906 L 1503,942 L 1539,966 L 1583,975 L 1617,975 L 1618,975 L 1629,977 L 1671,968 L 1707,945 L 1731,909 L 1739,866 L 1731,824 L 1706,787 L 1669,762 L 1663,761 L 1662,760 L 1658,759 L 1657,758 L 1656,757 L 1653,754 L 1652,753 L 1651,752 L 1650,748 L 1649,747 L 1649,745 L 1649,519 L 1644,492 L 1628,469 L 1535,375 L 1511,359 L 1484,354 L 631,354M 945,871 L 907,856 L 866,856 L 828,871 L 795,904 L 794,905 L 793,906 L 789,908 L 788,908 L 787,908 L 785,909 L 784,909 L 782,909 L 781,908 L 780,908 L 780,908 L 761,926 L 761,927 L 762,927 L 766,941 L 767,942 L 767,943 L 768,958 L 768,959 L 768,959 L 767,974 L 766,976 L 762,990 L 761,991 L 761,991 L 780,1009 L 780,1009 L 781,1009 L 782,1009 L 784,1009 L 785,1009 L 786,1009 L 790,1010 L 791,1010 L 792,1010 L 793,1011 L 794,1012 L 795,1013 L 828,1046 L 866,1062 L 907,1062 L 945,1046 L 974,1017 L 989,979 L 989,938 L 974,900 L 945,871M 740,869 L 739,867 L 739,867 L 739,870 L 740,869M 640,1050 L 673,1062 L 715,1061 L 739,1050 L 740,1048 L 722,1030 L 715,1033 L 714,1033 L 713,1034 L 699,1037 L 697,1037 L 682,1037 L 681,1037 L 681,1037 L 666,1034 L 665,1033 L 664,1033 L 658,1030 L 639,1048 L 640,1050M 398,334 L 425,268 L 425,195 L 398,128 L 347,77 L 280,50 L 208,49 L 141,77 L 90,128 L 62,195 L 62,267 L 90,334 L 141,385 L 207,413 L 280,413 L 346,385 L 398,334M 5312,4035 L 5312,1471 L 5305,1434 L 5284,1403 L 5281,1400 L 5250,1379 L 5215,1372 L 5180,1379 L 5151,1399 L 5131,1428 L 5124,1463 L 5130,1492 L 5130,1493 L 5130,4035 L 5137,4071 L 5157,4101 L 5186,4121 L 5221,4127 L 5256,4121 L 5285,4101 L 5305,4071 L 5312,4035M 5270,658 L 5270,659 L 5295,659 L 5296,655 L 5297,653 L 5304,642 L 5305,641 L 5314,631 L 5315,630 L 5327,622 L 5328,621 L 5336,618 L 5336,594 L 5335,593 L 5313,602 L 5284,628 L 5270,658M 8462,760 L 8462,717 L 8460,715 L 8450,715 L 8450,751 L 8450,752 L 8448,768 L 8448,769 L 8444,783 L 8448,781 L 8457,772 L 8462,760M 8445,659 L 8460,659 L 8462,657 L 8462,614 L 8457,602 L 8448,593 L 8436,588 L 8393,588 L 8391,590 L 8391,605 L 8406,612 L 8406,612 L 8407,612 L 8430,612 L 8432,612 L 8433,613 L 8434,614 L 8436,614 L 8437,616 L 8437,617 L 8438,619 L 8438,620 L 8438,644 L 8442,651 L 8442,652 L 8443,653 L 8445,659M 5463,727 L 5465,728 L 5467,731 L 5468,732 L 5468,732 L 5469,733 L 5471,736 L 5472,737 L 5475,743 L 5475,743 L 5482,753 L 5482,753 L 5490,763 L 5490,763 L 5490,763 L 5501,770 L 5501,770 L 5512,776 L 5513,776 L 5525,781 L 5525,781 L 5526,781 L 5532,782 L 5564,788 L 5601,780 L 5633,759 L 5649,736 L 5650,735 L 5652,732 L 5654,731 L 5655,730 L 5659,729 L 5660,728 L 5662,728 L 5662,728 L 5662,727 L 5662,726 L 5663,713 L 5663,713 L 5663,712 L 5666,700 L 5667,698 L 5672,687 L 5673,687 L 5673,686 L 5681,676 L 5682,676 L 5692,665 L 5696,655 L 5697,653 L 5704,642 L 5705,641 L 5714,631 L 5715,630 L 5727,622 L 5728,621 L 5740,616 L 5742,615 L 5755,613 L 5756,613 L 5763,612 L 5764,612 L 5778,614 L 5779,614 L 5792,618 L 5794,619 L 5806,625 L 5807,626 L 5817,635 L 5818,636 L 5827,647 L 5827,648 L 5833,660 L 5834,662 L 5837,675 L 5838,676 L 5838,690 L 5838,692 L 5836,705 L 5836,706 L 5831,719 L 5830,721 L 5823,732 L 5822,733 L 5813,743 L 5812,744 L 5800,752 L 5799,753 L 5790,757 L 5776,770 L 5776,771 L 5766,779 L 5765,780 L 5754,785 L 5753,786 L 5752,786 L 5764,788 L 5801,780 L 5833,759 L 5849,736 L 5849,735 L 5850,734 L 5851,733 L 5852,732 L 5855,730 L 5856,730 L 5857,729 L 5859,729 L 5860,728 L 5862,728 L 5863,728 L 5862,724 L 5862,723 L 5863,710 L 5863,710 L 5863,709 L 5866,697 L 5867,695 L 5872,684 L 5873,683 L 5881,673 L 5882,673 L 5894,660 L 5896,655 L 5897,653 L 5904,642 L 5905,641 L 5914,631 L 5915,630 L 5927,622 L 5928,621 L 5940,616 L 5942,615 L 5955,613 L 5956,613 L 5963,612 L 5964,612 L 5978,614 L 5979,614 L 5992,618 L 5994,619 L 6006,625 L 6007,626 L 6017,635 L 6018,636 L 6026,647 L 6027,648 L 6033,660 L 6034,662 L 6037,675 L 6037,676 L 6038,690 L 6038,692 L 6036,705 L 6036,706 L 6031,719 L 6030,721 L 6023,732 L 6022,733 L 6013,743 L 6012,744 L 6000,752 L 5999,753 L 5987,758 L 5985,759 L 5985,759 L 5976,767 L 5976,768 L 5966,776 L 5965,777 L 5954,782 L 5953,782 L 5952,783 L 5946,784 L 5963,788 L 6001,780 L 6033,759 L 6050,735 L 6051,733 L 6052,732 L 6055,730 L 6057,730 L 6058,729 L 6062,728 L 6063,728 L 6065,729 L 6067,731 L 6068,732 L 6068,733 L 6069,734 L 6072,737 L 6072,738 L 6075,743 L 6075,743 L 6082,753 L 6082,753 L 6090,763 L 6090,763 L 6090,763 L 6101,770 L 6101,770 L 6112,776 L 6113,776 L 6125,781 L 6125,781 L 6126,781 L 6132,782 L 6163,788 L 6201,780 L 6233,759 L 6250,735 L 6251,733 L 6252,732 L 6255,730 L 6257,730 L 6258,729 L 6262,728 L 6263,728 L 6265,730 L 6268,733 L 6268,733 L 6269,734 L 6269,734 L 6272,737 L 6272,738 L 6275,745 L 6275,745 L 6282,755 L 6282,755 L 6289,763 L 6291,765 L 6291,765 L 6301,772 L 6301,772 L 6312,777 L 6313,778 L 6325,782 L 6325,782 L 6326,783 L 6338,783 L 6340,783 L 6341,783 L 6363,788 L 6401,780 L 6433,759 L 6449,736 L 6450,735 L 6452,732 L 6453,731 L 6455,730 L 6458,729 L 6460,728 L 6461,728 L 6462,728 L 6462,727 L 6462,726 L 6463,713 L 6463,713 L 6463,712 L 6466,700 L 6467,698 L 6472,687 L 6473,687 L 6473,686 L 6481,676 L 6481,676 L 6492,665 L 6496,655 L 6497,653 L 6504,642 L 6505,641 L 6514,631 L 6515,630 L 6526,622 L 6528,621 L 6540,616 L 6542,615 L 6555,613 L 6556,613 L 6563,612 L 6564,612 L 6578,614 L 6579,614 L 6592,618 L 6594,619 L 6605,625 L 6607,626 L 6617,635 L 6618,636 L 6626,647 L 6627,648 L 6633,660 L 6634,662 L 6637,675 L 6637,676 L 6638,690 L 6638,692 L 6636,705 L 6636,706 L 6631,719 L 6630,721 L 6623,732 L 6622,733 L 6613,743 L 6611,744 L 6600,752 L 6599,753 L 6590,757 L 6576,770 L 6575,771 L 6566,779 L 6564,780 L 6553,785 L 6553,786 L 6552,786 L 6563,788 L 6601,780 L 6633,759 L 6649,736 L 6649,735 L 6650,734 L 6651,733 L 6652,732 L 6655,730 L 6657,730 L 6658,729 L 6662,728 L 6662,728 L 6662,727 L 6662,726 L 6663,713 L 6663,713 L 6663,712 L 6666,700 L 6667,698 L 6672,687 L 6673,687 L 6673,686 L 6681,676 L 6681,676 L 6692,665 L 6696,655 L 6697,653 L 6704,642 L 6705,641 L 6714,631 L 6715,630 L 6726,622 L 6728,621 L 6740,616 L 6742,615 L 6755,613 L 6756,613 L 6763,612 L 6764,612 L 6778,614 L 6779,614 L 6792,618 L 6794,619 L 6805,625 L 6807,626 L 6817,635 L 6818,636 L 6826,647 L 6827,648 L 6833,660 L 6834,662 L 6837,675 L 6837,676 L 6838,690 L 6838,692 L 6836,705 L 6836,706 L 6831,719 L 6830,721 L 6823,732 L 6822,733 L 6813,743 L 6811,744 L 6800,752 L 6799,753 L 6790,757 L 6776,770 L 6775,771 L 6766,779 L 6764,780 L 6753,785 L 6753,786 L 6752,786 L 6763,788 L 6801,780 L 6833,759 L 6848,736 L 6849,735 L 6852,732 L 6853,731 L 6855,730 L 6858,729 L 6860,728 L 6861,728 L 6862,728 L 6863,717 L 6863,716 L 6863,715 L 6866,703 L 6867,702 L 6872,691 L 6873,690 L 6873,689 L 6881,680 L 6881,679 L 6891,670 L 6891,669 L 6891,667 L 6896,655 L 6897,653 L 6904,642 L 6905,641 L 6914,631 L 6915,630 L 6926,622 L 6928,621 L 6940,616 L 6942,615 L 6955,613 L 6956,613 L 6963,612 L 6964,612 L 6978,614 L 6979,614 L 6992,618 L 6994,619 L 7005,625 L 7007,626 L 7017,635 L 7018,636 L 7026,647 L 7027,648 L 7033,660 L 7034,662 L 7037,675 L 7037,676 L 7038,690 L 7038,692 L 7036,705 L 7035,706 L 7031,719 L 7030,721 L 7023,732 L 7022,733 L 7013,743 L 7011,744 L 7000,752 L 6999,753 L 6995,754 L 6976,774 L 6975,774 L 6966,782 L 6964,783 L 6957,787 L 6963,788 L 7001,780 L 7033,759 L 7050,735 L 7051,733 L 7052,732 L 7055,730 L 7056,730 L 7058,729 L 7062,728 L 7063,728 L 7065,728 L 7065,728 L 7065,729 L 7068,731 L 7070,733 L 7072,736 L 7073,737 L 7076,742 L 7076,743 L 7085,757 L 7085,757 L 7090,763 L 7097,768 L 7098,769 L 7111,778 L 7112,778 L 7124,784 L 7127,785 L 7127,785 L 7144,788 L 7144,788 L 7161,789 L 7162,790 L 7163,789 L 7178,786 L 7180,786 L 7186,784 L 7201,780 L 7233,759 L 7248,736 L 7249,735 L 7252,732 L 7253,731 L 7255,730 L 7258,729 L 7260,728 L 7261,728 L 7265,728 L 7267,728 L 7268,729 L 7272,730 L 7273,731 L 7274,732 L 7275,733 L 7276,734 L 7277,734 L 7277,687 L 7277,686 L 7278,670 L 7279,668 L 7284,653 L 7284,652 L 7285,651 L 7293,637 L 7293,636 L 7294,635 L 7305,623 L 7306,622 L 7319,612 L 7321,612 L 7336,605 L 7336,605 L 7337,604 L 7353,601 L 7354,601 L 7355,601 L 7371,601 L 7373,601 L 7389,604 L 7390,605 L 7391,605 L 7406,612 L 7407,612 L 7407,612 L 7421,622 L 7422,623 L 7433,635 L 7433,636 L 7434,637 L 7442,651 L 7442,652 L 7443,653 L 7448,668 L 7448,669 L 7448,670 L 7450,686 L 7450,687 L 7450,734 L 7451,733 L 7452,732 L 7455,730 L 7456,730 L 7458,729 L 7462,728 L 7463,728 L 7465,728 L 7469,729 L 7470,730 L 7471,730 L 7475,732 L 7476,733 L 7477,734 L 7477,687 L 7477,686 L 7478,670 L 7479,668 L 7484,653 L 7484,652 L 7484,651 L 7493,637 L 7493,636 L 7494,635 L 7505,623 L 7506,622 L 7519,612 L 7521,612 L 7536,605 L 7536,605 L 7537,604 L 7553,601 L 7554,601 L 7555,601 L 7571,601 L 7573,601 L 7589,604 L 7590,605 L 7591,605 L 7606,612 L 7607,612 L 7607,612 L 7621,622 L 7622,623 L 7633,635 L 7633,636 L 7634,637 L 7642,651 L 7642,652 L 7643,653 L 7648,668 L 7648,669 L 7648,670 L 7650,686 L 7650,687 L 7650,734 L 7651,733 L 7652,732 L 7655,730 L 7656,730 L 7658,729 L 7662,728 L 7663,728 L 7665,728 L 7669,729 L 7670,730 L 7671,730 L 7675,732 L 7676,733 L 7677,734 L 7677,687 L 7677,686 L 7678,670 L 7679,668 L 7684,653 L 7684,652 L 7684,651 L 7693,637 L 7693,636 L 7694,635 L 7705,623 L 7706,622 L 7719,612 L 7721,612 L 7736,605 L 7736,605 L 7737,604 L 7753,601 L 7754,601 L 7755,601 L 7771,601 L 7773,601 L 7789,604 L 7790,605 L 7791,605 L 7806,612 L 7806,612 L 7807,612 L 7820,622 L 7822,623 L 7833,635 L 7833,636 L 7834,637 L 7842,651 L 7842,652 L 7843,653 L 7848,668 L 7848,669 L 7848,670 L 7850,686 L 7850,687 L 7850,734 L 7851,733 L 7852,732 L 7855,730 L 7856,730 L 7857,729 L 7859,729 L 7860,728 L 7861,728 L 7865,728 L 7867,728 L 7868,729 L 7872,730 L 7873,731 L 7874,732 L 7877,735 L 7878,736 L 7893,759 L 7896,761 L 7896,720 L 7893,714 L 7893,712 L 7889,699 L 7889,698 L 7888,684 L 7889,682 L 7891,669 L 7891,667 L 7896,655 L 7896,653 L 7904,642 L 7905,641 L 7914,631 L 7915,630 L 7926,622 L 7928,621 L 7940,616 L 7942,615 L 7955,613 L 7956,613 L 7963,612 L 7964,612 L 7977,614 L 7979,614 L 7992,618 L 7993,619 L 8005,625 L 8007,626 L 8017,635 L 8018,636 L 8026,647 L 8027,648 L 8033,660 L 8034,662 L 8037,675 L 8037,676 L 8038,690 L 8038,692 L 8036,705 L 8035,706 L 8031,719 L 8030,720 L 8030,761 L 8033,759 L 8050,735 L 8051,733 L 8052,732 L 8055,730 L 8056,730 L 8058,729 L 8062,728 L 8063,728 L 8065,728 L 8069,729 L 8070,730 L 8071,730 L 8075,732 L 8076,733 L 8077,735 L 8093,759 L 8125,780 L 8163,788 L 8201,780 L 8233,759 L 8235,757 L 8235,756 L 8236,755 L 8238,754 L 8239,753 L 8241,752 L 8242,752 L 8243,752 L 8247,751 L 8248,751 L 8250,751 L 8253,752 L 8255,752 L 8256,753 L 8260,755 L 8261,756 L 8262,757 L 8264,760 L 8265,762 L 8269,772 L 8278,781 L 8277,778 L 8276,776 L 8274,760 L 8274,759 L 8274,758 L 8274,742 L 8274,741 L 8275,740 L 8276,733 L 8276,687 L 8277,686 L 8278,670 L 8279,668 L 8284,653 L 8284,652 L 8284,651 L 8288,644 L 8288,620 L 8288,619 L 8289,617 L 8290,616 L 8291,614 L 8292,614 L 8293,613 L 8295,612 L 8296,612 L 8320,612 L 8321,612 L 8335,605 L 8335,590 L 8333,588 L 8290,588 L 8278,593 L 8269,602 L 8265,612 L 8264,614 L 8262,617 L 8261,618 L 8260,619 L 8256,621 L 8255,622 L 8253,622 L 8250,623 L 8248,623 L 8247,623 L 8243,622 L 8242,622 L 8241,622 L 8239,621 L 8238,620 L 8236,619 L 8235,618 L 8235,617 L 8233,615 L 8201,594 L 8163,586 L 8154,588 L 8164,593 L 8166,594 L 8175,602 L 8176,602 L 8191,618 L 8192,618 L 8193,619 L 8205,625 L 8206,626 L 8217,635 L 8218,636 L 8226,647 L 8227,648 L 8233,660 L 8234,662 L 8237,675 L 8237,676 L 8238,690 L 8238,692 L 8236,705 L 8235,706 L 8231,719 L 8230,721 L 8223,732 L 8222,733 L 8212,743 L 8211,744 L 8200,752 L 8199,753 L 8186,758 L 8185,759 L 8171,761 L 8170,761 L 8164,762 L 8162,762 L 8149,760 L 8147,760 L 8134,756 L 8133,755 L 8121,749 L 8120,748 L 8110,739 L 8108,738 L 8100,727 L 8099,726 L 8093,714 L 8093,712 L 8092,708 L 8081,697 L 8081,697 L 8073,687 L 8072,686 L 8066,675 L 8066,673 L 8063,661 L 8062,660 L 8062,659 L 8062,647 L 8062,646 L 8061,646 L 8060,645 L 8058,645 L 8055,644 L 8053,643 L 8052,642 L 8049,639 L 8048,638 L 8033,615 L 8001,594 L 7963,586 L 7925,594 L 7893,615 L 7877,639 L 7876,641 L 7875,642 L 7871,644 L 7870,644 L 7869,645 L 7865,646 L 7863,646 L 7862,646 L 7858,645 L 7856,644 L 7855,644 L 7852,642 L 7851,641 L 7850,639 L 7833,615 L 7801,594 L 7763,586 L 7725,594 L 7693,615 L 7677,639 L 7676,641 L 7675,642 L 7671,644 L 7670,644 L 7669,645 L 7665,646 L 7663,646 L 7662,646 L 7658,645 L 7656,644 L 7655,644 L 7652,642 L 7651,641 L 7650,639 L 7633,615 L 7601,594 L 7563,586 L 7525,594 L 7493,615 L 7477,639 L 7476,641 L 7475,642 L 7471,644 L 7470,644 L 7469,645 L 7465,646 L 7463,646 L 7462,646 L 7458,645 L 7456,644 L 7455,644 L 7452,642 L 7451,641 L 7450,639 L 7433,615 L 7401,594 L 7363,586 L 7325,594 L 7293,615 L 7277,639 L 7276,641 L 7275,642 L 7271,644 L 7270,644 L 7269,645 L 7265,646 L 7263,646 L 7262,646 L 7258,645 L 7256,644 L 7255,644 L 7252,642 L 7251,641 L 7250,639 L 7233,615 L 7201,594 L 7163,586 L 7126,594 L 7093,615 L 7077,639 L 7076,641 L 7075,642 L 7072,644 L 7070,644 L 7069,645 L 7065,646 L 7063,646 L 7062,646 L 7058,645 L 7056,644 L 7055,644 L 7052,642 L 7051,641 L 7050,639 L 7033,615 L 7001,594 L 6963,586 L 6926,594 L 6894,615 L 6877,639 L 6876,641 L 6875,642 L 6872,644 L 6870,644 L 6869,645 L 6865,646 L 6863,646 L 6862,646 L 6858,645 L 6856,644 L 6855,644 L 6852,642 L 6851,641 L 6850,639 L 6833,615 L 6801,594 L 6763,586 L 6726,594 L 6694,615 L 6677,639 L 6676,641 L 6675,642 L 6672,644 L 6670,644 L 6669,645 L 6665,646 L 6663,646 L 6662,646 L 6658,645 L 6657,644 L 6655,644 L 6652,642 L 6651,641 L 6650,639 L 6633,615 L 6601,594 L 6563,586 L 6526,594 L 6494,615 L 6477,639 L 6476,641 L 6475,642 L 6472,644 L 6470,644 L 6469,645 L 6465,646 L 6463,646 L 6462,646 L 6458,645 L 6457,644 L 6455,644 L 6452,642 L 6451,641 L 6450,639 L 6433,615 L 6401,594 L 6363,586 L 6326,594 L 6294,615 L 6277,639 L 6276,641 L 6275,642 L 6272,644 L 6270,644 L 6269,645 L 6265,646 L 6263,646 L 6262,646 L 6258,645 L 6257,644 L 6255,644 L 6252,642 L 6251,641 L 6250,639 L 6233,615 L 6201,594 L 6163,586 L 6126,594 L 6094,615 L 6077,639 L 6076,641 L 6075,642 L 6072,644 L 6070,644 L 6069,645 L 6065,646 L 6063,646 L 6062,646 L 6058,645 L 6057,644 L 6055,644 L 6052,642 L 6051,641 L 6050,639 L 6033,615 L 6001,594 L 5963,586 L 5926,594 L 5894,615 L 5877,639 L 5876,641 L 5875,642 L 5872,644 L 5870,644 L 5869,645 L 5865,646 L 5863,646 L 5862,646 L 5858,645 L 5857,644 L 5855,644 L 5852,642 L 5851,641 L 5850,639 L 5833,615 L 5801,594 L 5764,586 L 5726,594 L 5694,615 L 5677,639 L 5676,641 L 5675,642 L 5672,644 L 5670,644 L 5669,645 L 5665,646 L 5664,646 L 5662,646 L 5658,645 L 5657,644 L 5655,644 L 5652,642 L 5651,641 L 5650,639 L 5633,615 L 5601,594 L 5564,586 L 5526,594 L 5494,615 L 5477,640 L 5476,641 L 5474,642 L 5471,645 L 5470,645 L 5469,646 L 5465,647 L 5463,647 L 5462,647 L 5458,646 L 5457,646 L 5455,645 L 5452,643 L 5451,642 L 5450,641 L 5448,638 L 5447,636 L 5443,628 L 5414,602 L 5393,593 L 5391,594 L 5391,618 L 5392,618 L 5394,619 L 5406,625 L 5407,626 L 5417,635 L 5418,636 L 5427,647 L 5427,648 L 5433,660 L 5434,662 L 5437,675 L 5438,676 L 5438,690 L 5438,692 L 5436,705 L 5436,706 L 5431,719 L 5430,721 L 5423,732 L 5422,733 L 5413,743 L 5412,744 L 5401,752 L 5399,753 L 5393,755 L 5391,757 L 5391,780 L 5393,781 L 5414,772 L 5443,746 L 5447,738 L 5448,736 L 5450,733 L 5451,732 L 5452,731 L 5455,729 L 5457,728 L 5458,728 L 5462,727 L 5463,727 z " style="fill-opacity:1.000000;fill:rgb(219,60,135);stroke:rgb(0,0,0);stroke-width:2"/></g>
<g fill-rule="evenodd"><path d="M 216,1699 L 188,1696 L 186,1695 L 159,1687 L 158,1686 L 132,1672 L 131,1671 L 109,1653 L 108,1651 L 91,1629 L 90,1627 L 77,1602 L 77,1600 L 70,1572 L 69,1571 L 68,1542 L 68,1541 L 72,1512 L 73,1511 L 83,1484 L 83,1482 L 98,1458 L 99,1457 L 119,1436 L 120,1435 L 144,1419 L 145,1418 L 172,1407 L 173,1406 L 201,1400 L 202,1400 L 217,1399 L 218,1399 L 247,1402 L 248,1403 L 275,1411 L 277,1412 L 302,1426 L 303,1427 L 325,1445 L 326,1447 L 344,1469 L 345,1471 L 357,1496 L 358,1498 L 365,1526 L 365,1527 L 367,1556 L 367,1557 L 362,1586 L 362,1587 L 352,1614 L 351,1616 L 336,1640 L 335,1641 L 315,1662 L 314,1663 L 290,1679 L 289,1680 L 263,1691 L 261,1692 L 233,1698 L 232,1698 L 218,1699 L 216,1699 z " style="fill-opacity:1.000000;fill:rgb(12,62,153);stroke:rgb(0,0,0);stroke-width:2"/></g>
<g fill-rule="evenodd"><path d="M 1161,1706 L 1131,1703 L 1129,1703 L 1101,1694 L 1099,1693 L 1073,1679 L 1071,1678 L 1048,1658 L 1047,1657 L 1029,1633 L 1028,1632 L 1015,1604 L 1014,1603 L 1006,1574 L 1006,1572 L 1005,1542 L 1005,1540 L 1009,1510 L 1010,1509 L 1020,1480 L 1021,1479 L 1037,1453 L 1038,1452 L 1059,1430 L 1060,1429 L 1085,1412 L 1086,1411 L 1114,1399 L 1116,1399 L 1145,1393 L 1146,1392 L 1162,1392 L 1163,1392 L 1193,1395 L 1194,1395 L 1223,1404 L 1225,1405 L 1251,1419 L 1253,1420 L 1275,1440 L 1277,1441 L 1295,1465 L 1296,1466 L 1309,1494 L 1310,1495 L 1317,1524 L 1318,1526 L 1319,1556 L 1319,1558 L 1315,1588 L 1314,1589 L 1304,1618 L 1303,1619 L 1287,1645 L 1286,1646 L 1265,1668 L 1264,1669 L 1239,1686 L 1238,1687 L 1210,1699 L 1208,1699 L 1179,1706 L 1177,1706 L 1162,1706 L 1161,1706 z " style="fill-opacity:1.000000;fill:rgb(36,94,13);stroke:rgb(0,0,0);stroke-width:2"/></g>
<g fill-rule="evenodd"><path d="M 587,2101 L 585,2119 L 585,2121 L 579,2138 L 579,2139 L 579,2139 L 570,2155 L 569,2156 L 569,2156 L 557,2170 L 556,2170 L 555,2171 L 541,2181 L 539,2182 L 523,2190 L 522,2190 L 521,2190 L 503,2194 L 502,2194 L 484,2194 L 483,2194 L 482,2194 L 464,2190 L 464,2190 L 463,2190 L 446,2182 L 445,2181 L 430,2171 L 430,2170 L 429,2170 L 417,2156 L 416,2156 L 416,2155 L 407,2139 L 406,2139 L 406,2138 L 401,2121 L 400,2119 L 398,2101 L 398,2099 L 400,2081 L 401,2080 L 406,2062 L 406,2062 L 407,2061 L 416,2045 L 416,2045 L 417,2044 L 429,2030 L 430,2030 L 430,2029 L 445,2019 L 446,2018 L 463,2011 L 464,2010 L 464,2010 L 482,2006 L 483,2006 L 484,2006 L 502,2006 L 503,2006 L 521,2010 L 522,2010 L 523,2011 L 539,2018 L 541,2019 L 555,2029 L 556,2030 L 557,2030 L 569,2044 L 569,2045 L 570,2045 L 579,2061 L 579,2062 L 579,2062 L 585,2080 L 585,2080 L 585,2081 L 587,2099 L 587,2100 L 587,2101 z " style="fill-opacity:1.000000;fill:rgb(28,6,183);stroke:rgb(0,0,0);stroke-width:2"/></g>
<g fill-rule="evenodd"><path d="M 965,959 L 964,974 L 963,976 L 959,990 L 958,991 L 958,991 L 951,1004 L 950,1005 L 950,1005 L 940,1016 L 938,1018 L 926,1026 L 925,1027 L 911,1033 L 911,1033 L 910,1034 L 895,1037 L 894,1037 L 879,1037 L 878,1037 L 877,1037 L 863,1034 L 862,1033 L 861,1033 L 848,1027 L 846,1026 L 834,1018 L 833,1016 L 823,1005 L 823,1005 L 822,1004 L 815,991 L 814,991 L 814,990 L 810,976 L 809,974 L 808,959 L 808,958 L 809,943 L 810,941 L 814,927 L 814,927 L 815,926 L 822,913 L 823,912 L 823,912 L 833,901 L 834,900 L 846,891 L 848,890 L 861,884 L 862,884 L 863,883 L 877,880 L 878,880 L 879,880 L 894,880 L 895,880 L 910,883 L 911,884 L 911,884 L 925,890 L 926,890 L 926,891 L 938,900 L 940,901 L 950,912 L 950,912 L 951,913 L 958,926 L 958,927 L 959,927 L 963,941 L 963,942 L 964,943 L 965,958 L 965,959 L 965,959 z " style="fill-opacity:1.000000;fill:rgb(71,222,179);stroke:rgb(0,0,0);stroke-width:2"/></g>
<g fill-rule="evenodd"><path d="M 1979,3934 L 1979,3800 L 1979,3798 L 1979,3797 L 1980,3795 L 1981,3794 L 1982,3793 L 1983,3792 L 1985,3792 L 1986,3792 L 2120,3792 L 2122,3792 L 2123,3792 L 2125,3793 L 2126,3794 L 2127,3795 L 2128,3797 L 2128,3798 L 2128,3800 L 2128,3934 L 2128,3935 L 2128,3937 L 2127,3938 L 2126,3939 L 2125,3940 L 2123,3941 L 2122,3941 L 2120,3941 L 1986,3941 L 1985,3941 L 1983,3941 L 1982,3940 L 1981,3939 L 1980,3938 L 1979,3937 L 1979,3935 L 1979,3934 z " style="fill-opacity:1.000000;fill:rgb(18,77,200);stroke:rgb(0,0,0);stroke-width:2"/></g>
<g fill-rule="evenodd"><path d="M 2128,4067 L 2127,4081 L 2126,4083 L 2122,4096 L 2122,4097 L 2121,4098 L 2114,4110 L 2114,4111 L 2113,4111 L 2104,4122 L 2103,4123 L 2091,4131 L 2091,4131 L 2090,4132 L 2077,4137 L 2076,4138 L 2076,4138 L 2062,4141 L 2060,4141 L 2046,4141 L 2046,4141 L 2045,4141 L 2031,4138 L 2030,4138 L 2029,4137 L 2017,4132 L 2016,4131 L 2015,4131 L 2004,4123 L 2003,4122 L 1993,4111 L 1993,4111 L 1992,4110 L 1985,4098 L 1985,4097 L 1985,4096 L 1980,4083 L 1980,4081 L 1979,4067 L 1979,4066 L 1980,4052 L 1980,4050 L 1985,4037 L 1985,4036 L 1985,4035 L 1992,4023 L 1993,4023 L 1993,4022 L 2003,4012 L 2004,4011 L 2015,4002 L 2016,4002 L 2017,4001 L 2029,3996 L 2030,3995 L 2031,3995 L 2045,3992 L 2046,3992 L 2046,3992 L 2060,3992 L 2062,3992 L 2076,3995 L 2076,3995 L 2077,3996 L 2090,4001 L 2091,4002 L 2091,4002 L 2103,4011 L 2104,4012 L 2113,4022 L 2114,4023 L 2114,4023 L 2121,4035 L 2122,4036 L 2122,4037 L 2126,4050 L 2127,4051 L 2127,4052 L 2128,4066 L 2128,4067 L 2128,4067 z " style="fill-opacity:1.000000;fill:rgb(67,187,139);stroke:rgb(0,0,0);stroke-width:2"/></g>
<g fill-rule="evenodd"><path d="M 401,232 L 398,263 L 397,265 L 388,295 L 387,295 L 387,296 L 371,323 L 371,324 L 371,324 L 350,348 L 348,349 L 323,367 L 322,368 L 293,381 L 292,381 L 292,381 L 261,388 L 259,388 L 228,388 L 227,388 L 226,388 L 196,381 L 195,381 L 194,381 L 166,368 L 164,367 L 139,349 L 138,348 L 117,324 L 116,324 L 116,323 L 100,296 L 100,295 L 100,295 L 90,265 L 90,263 L 86,232 L 86,230 L 90,199 L 90,198 L 100,168 L 100,167 L 100,166 L 116,139 L 116,139 L 117,138 L 138,115 L 139,114 L 164,95 L 166,95 L 194,82 L 195,81 L 196,81 L 226,75 L 227,75 L 228,75 L 259,75 L 261,75 L 292,81 L 292,81 L 293,82 L 322,95 L 322,95 L 323,95 L 348,114 L 350,115 L 371,138 L 371,139 L 371,139 L 387,166 L 387,167 L 388,168 L 397,198 L 398,199 L 398,199 L 401,230 L 401,231 L 401,232 z " style="fill-opacity:1.000000;fill:rgb(166,31,3);stroke:rgb(0,0,0);stroke-width:2"/></g>
<g fill-rule="evenodd"><path d="M 8536,208 L 8532,239 L 8532,241 L 8522,271 L 8522,271 L 8522,272 L 8506,299 L 8506,300 L 8505,300 L 8484,324 L 8483,325 L 8458,343 L 8456,344 L 8428,357 L 8427,357 L 8426,357 L 8396,364 L 8394,364 L 8363,364 L 8362,364 L 8361,364 L 8330,357 L 8330,357 L 8329,357 L 8300,344 L 8299,343 L 8274,325 L 8272,324 L 8251,300 L 8251,300 L 8251,299 L 8235,272 L 8235,271 L 8234,271 L 8225,241 L 8224,239 L 8221,208 L 8221,206 L 8224,175 L 8225,174 L 8234,144 L 8235,143 L 8235,142 L 8251,115 L 8251,115 L 8251,114 L 8272,91 L 8274,90 L 8299,71 L 8300,71 L 8329,58 L 8330,57 L 8330,57 L 8361,51 L 8362,51 L 8363,51 L 8394,51 L 8396,51 L 8426,57 L 8427,57 L 8428,58 L 8456,71 L 8457,71 L 8458,71 L 8483,90 L 8484,91 L 8505,114 L 8506,115 L 8506,115 L 8522,142 L 8522,143 L 8522,144 L 8532,174 L 8532,175 L 8532,175 L 8536,206 L 8536,207 L 8536,208 z " style="fill-opacity:1.000000;fill:rgb(90,125,9);stroke:rgb(0,0,0);stroke-width:2"/></g>
<g fill-rule="evenodd"><path d="M 8546,4453 L 8542,4484 L 8542,4486 L 8532,4516 L 8532,4517 L 8532,4517 L 8516,4544 L 8516,4545 L 8515,4546 L 8494,4569 L 8493,4570 L 8468,4588 L 8466,4589 L 8438,4602 L 8437,4602 L 8436,4603 L 8406,4609 L 8404,4609 L 8373,4609 L 8372,4609 L 8371,4609 L 8340,4603 L 8340,4602 L 8339,4602 L 8310,4589 L 8309,4588 L 8284,4570 L 8282,4569 L 8261,4546 L 8261,4545 L 8261,4544 L 8245,4517 L 8245,4517 L 8244,4516 L 8235,4486 L 8234,4484 L 8231,4453 L 8231,4452 L 8234,4421 L 8235,4419 L 8244,4389 L 8245,4389 L 8245,4388 L 8261,4361 L 8261,4360 L 8261,4359 L 8282,4336 L 8284,4335 L 8309,4317 L 8310,4316 L 8339,4303 L 8340,4303 L 8340,4303 L 8371,4296 L 8372,4296 L 8373,4296 L 8404,4296 L 8406,4296 L 8436,4303 L 8437,4303 L 8438,4303 L 8466,4316 L 8467,4316 L 8468,4317 L 8493,4335 L 8494,4336 L 8515,4359 L 8516,4360 L 8516,4361 L 8532,4388 L 8532,4389 L 8532,4389 L 8542,4419 L 8542,4420 L 8542,4421 L 8546,4452 L 8546,4453 L 8546,4453 z " style="fill-opacity:1.000000;fill:rgb(56,37,31);stroke:rgb(0,0,0);stroke-width:2"/></g>
<g fill-rule="evenodd"><path d="M 443,4379 L 440,4410 L 439,4412 L 430,4442 L 429,4443 L 429,4443 L 413,4470 L 413,4471 L 413,4472 L 392,4495 L 390,4496 L 365,4514 L 364,4515 L 335,4528 L 334,4528 L 334,4529 L 303,4535 L 301,4535 L 270,4535 L 269,4535 L 268,4535 L 238,4529 L 237,4528 L 236,4528 L 208,4515 L 206,4514 L 181,4496 L 180,4495 L 159,4472 L 158,4471 L 158,4470 L 142,4443 L 142,4443 L 142,4442 L 132,4412 L 132,4410 L 128,4379 L 128,4378 L 132,4347 L 132,4345 L 142,4315 L 142,4315 L 142,4314 L 158,4287 L 158,4286 L 159,4285 L 180,4262 L 181,4261 L 206,4243 L 208,4242 L 236,4229 L 237,4229 L 238,4229 L 268,4222 L 269,4222 L 270,4222 L 301,4222 L 303,4222 L 334,4229 L 334,4229 L 335,4229 L 364,4242 L 364,4242 L 365,4243 L 390,4261 L 392,4262 L 413,4285 L 413,4286 L 413,4287 L 429,4314 L 429,4315 L 430,4315 L 439,4345 L 440,4346 L 440,4347 L 443,4378 L 443,4379 L 443,4379 z " style="fill-opacity:1.000000;fill:rgb(93,212,203);stroke:rgb(0,0,0);stroke-width:2"/></g>
<g fill-rule="evenodd"><path d="M 2586,3900 L 2585,3898 L 2585,3896 L 2580,3883 L 2580,3881 L 2579,3867 L 2579,3866 L 2580,3852 L 2580,3850 L 2585,3837 L 2585,3836 L 2585,3836 L 2592,3823 L 2593,3823 L 2593,3822 L 2603,3812 L 2604,3811 L 2615,3802 L 2616,3802 L 2617,3802 L 2629,3796 L 2630,3796 L 2631,3795 L 2645,3792 L 2645,3792 L 2646,3792 L 2660,3792 L 2662,3792 L 2676,3795 L 2676,3796 L 2677,3796 L 2690,3802 L 2691,3802 L 2691,3802 L 2703,3811 L 2704,3812 L 2713,3822 L 2714,3823 L 2714,3823 L 2721,3836 L 2722,3836 L 2722,3837 L 2726,3850 L 2726,3851 L 2727,3852 L 2728,3866 L 2728,3867 L 2728,3867 L 2727,3881 L 2726,3883 L 2722,3896 L 2722,3897 L 2721,3898 L 2720,3900 L 2720,3993 L 2720,3994 L 2719,4006 L 2719,4008 L 2715,4020 L 2714,4020 L 2714,4021 L 2713,4022 L 2714,4023 L 2721,4035 L 2722,4036 L 2722,4037 L 2726,4050 L 2726,4051 L 2727,4052 L 2728,4066 L 2728,4067 L 2728,4067 L 2727,4081 L 2726,4083 L 2722,4096 L 2722,4097 L 2721,4098 L 2714,4110 L 2714,4111 L 2713,4111 L 2704,4122 L 2703,4123 L 2691,4131 L 2691,4131 L 2690,4132 L 2677,4137 L 2676,4138 L 2676,4138 L 2662,4141 L 2660,4141 L 2646,4141 L 2645,4141 L 2645,4141 L 2631,4138 L 2630,4138 L 2629,4137 L 2617,4132 L 2616,4131 L 2615,4131 L 2604,4123 L 2603,4122 L 2593,4111 L 2593,4111 L 2592,4110 L 2585,4098 L 2585,4097 L 2585,4096 L 2580,4083 L 2580,4081 L 2579,4067 L 2579,4066 L 2580,4052 L 2580,4050 L 2585,4037 L 2585,4036 L 2585,4035 L 2592,4023 L 2593,4022 L 2593,4021 L 2592,4020 L 2588,4008 L 2588,4006 L 2586,3994 L 2586,3993 L 2586,3900 z " style="fill-opacity:1.000000;fill:rgb(252,150,245);stroke:rgb(0,0,0);stroke-width:2"/></g>
<g fill-rule="evenodd"><path d="M 2386,3900 L 2385,3898 L 2385,3896 L 2380,3883 L 2380,3881 L 2379,3867 L 2379,3866 L 2380,3852 L 2380,3850 L 2385,3837 L 2385,3836 L 2385,3836 L 2392,3823 L 2393,3823 L 2393,3822 L 2403,3812 L 2404,3811 L 2415,3802 L 2416,3802 L 2417,3802 L 2429,3796 L 2430,3796 L 2431,3795 L 2445,3792 L 2445,3792 L 2446,3792 L 2460,3792 L 2462,3792 L 2476,3795 L 2476,3796 L 2477,3796 L 2490,3802 L 2491,3802 L 2491,3802 L 2503,3811 L 2504,3812 L 2513,3822 L 2514,3823 L 2514,3823 L 2521,3836 L 2522,3836 L 2522,3837 L 2526,3850 L 2526,3851 L 2527,3852 L 2528,3866 L 2528,3867 L 2528,3867 L 2527,3881 L 2526,3883 L 2522,3896 L 2522,3897 L 2521,3898 L 2520,3900 L 2520,3997 L 2520,3998 L 2519,4010 L 2519,4012 L 2515,4024 L 2515,4024 L 2521,4035 L 2522,4036 L 2522,4037 L 2526,4050 L 2526,4051 L 2527,4052 L 2528,4066 L 2528,4067 L 2528,4067 L 2527,4081 L 2526,4083 L 2522,4096 L 2522,4097 L 2521,4098 L 2514,4110 L 2514,4111 L 2513,4111 L 2504,4122 L 2503,4123 L 2491,4131 L 2491,4131 L 2490,4132 L 2477,4137 L 2476,4138 L 2476,4138 L 2462,4141 L 2460,4141 L 2446,4141 L 2445,4141 L 2445,4141 L 2431,4138 L 2430,4138 L 2429,4137 L 2417,4132 L 2416,4131 L 2415,4131 L 2404,4123 L 2403,4122 L 2393,4111 L 2393,4111 L 2392,4110 L 2385,4098 L 2385,4097 L 2385,4096 L 2380,4083 L 2380,4081 L 2379,4067 L 2379,4066 L 2380,4052 L 2380,4050 L 2385,4037 L 2385,4036 L 2385,4035 L 2392,4024 L 2392,4024 L 2388,4012 L 2388,4010 L 2386,3998 L 2386,3997 L 2386,3900 z " style="fill-opacity:1.000000;fill:rgb(69,59,19);stroke:rgb(0,0,0);stroke-width:2"/></g>
<g fill-rule="evenodd"><path d="M 2786,3900 L 2785,3898 L 2785,3896 L 2780,3883 L 2780,3881 L 2778,3867 L 2778,3866 L 2780,3852 L 2780,3850 L 2785,3837 L 2785,3836 L 2785,3836 L 2792,3823 L 2793,3823 L 2793,3822 L 2803,3812 L 2804,3811 L 2815,3802 L 2816,3802 L 2817,3802 L 2829,3796 L 2830,3796 L 2831,3795 L 2845,3792 L 2845,3792 L 2846,3792 L 2860,3792 L 2862,3792 L 2876,3795 L 2876,3796 L 2877,3796 L 2890,3802 L 2891,3802 L 2891,3802 L 2903,3811 L 2904,3812 L 2913,3822 L 2914,3823 L 2914,3823 L 2921,3836 L 2922,3836 L 2922,3837 L 2926,3850 L 2926,3851 L 2927,3852 L 2928,3866 L 2928,3867 L 2928,3867 L 2927,3881 L 2926,3883 L 2922,3896 L 2922,3897 L 2921,3898 L 2920,3900 L 2920,3997 L 2920,3998 L 2919,4010 L 2918,4012 L 2915,4024 L 2915,4024 L 2921,4035 L 2922,4036 L 2922,4037 L 2926,4050 L 2926,4051 L 2927,4052 L 2928,4066 L 2928,4067 L 2928,4067 L 2927,4081 L 2926,4083 L 2922,4096 L 2922,4097 L 2921,4098 L 2914,4110 L 2914,4111 L 2913,4111 L 2904,4122 L 2903,4123 L 2891,4131 L 2891,4131 L 2890,4132 L 2877,4137 L 2876,4138 L 2876,4138 L 2862,4141 L 2860,4141 L 2846,4141 L 2845,4141 L 2845,4141 L 2831,4138 L 2830,4138 L 2829,4137 L 2817,4132 L 2816,4131 L 2815,4131 L 2804,4123 L 2803,4122 L 2793,4111 L 2793,4111 L 2792,4110 L 2785,4098 L 2785,4097 L 2785,4096 L 2780,4083 L 2780,4081 L 2778,4067 L 2778,4066 L 2780,4052 L 2780,4050 L 2785,4037 L 2785,4036 L 2785,4035 L 2792,4024 L 2792,4024 L 2788,4012 L 2788,4010 L 2786,3998 L 2786,3997 L 2786,3900 z " style="fill-opacity:1.000000;fill:rgb(13,137,10);stroke:rgb(0,0,0);stroke-width:2"/></g>
<g fill-rule="evenodd"><path d="M 5532,782 L 5526,781 L 5525,781 L 5525,781 L 5513,776 L 5512,776 L 5501,770 L 5501,770 L 5490,763 L 5490,763 L 5490,763 L 5482,753 L 5482,753 L 5475,743 L 5475,743 L 5472,737 L 5471,736 L 5469,733 L 5468,732 L 5468,732 L 5467,731 L 5465,728 L 5463,727 L 5462,720 L 5462,718 L 5463,706 L 5463,705 L 5463,704 L 5466,692 L 5467,691 L 5472,680 L 5473,679 L 5473,678 L 5481,669 L 5482,668 L 5498,652 L 5504,642 L 5505,641 L 5514,631 L 5515,630 L 5527,622 L 5528,621 L 5540,616 L 5542,615 L 5555,613 L 5556,613 L 5563,612 L 5564,612 L 5578,614 L 5579,614 L 5592,618 L 5594,619 L 5606,625 L 5607,626 L 5617,635 L 5618,636 L 5627,647 L 5627,648 L 5633,660 L 5634,662 L 5637,675 L 5638,676 L 5638,690 L 5638,692 L 5636,705 L 5636,706 L 5631,719 L 5630,721 L 5623,732 L 5622,733 L 5613,743 L 5612,744 L 5601,752 L 5599,753 L 5587,758 L 5585,759 L 5579,760 L 5576,763 L 5576,763 L 5566,771 L 5565,772 L 5554,777 L 5553,778 L 5552,778 L 5540,781 L 5539,781 L 5539,781 L 5532,782 z " style="fill-opacity:1.000000;fill:rgb(28,219,174);stroke:rgb(0,0,0);stroke-width:2"/></g>
<g fill-rule="evenodd"><path d="M 6132,782 L 6126,781 L 6125,781 L 6125,781 L 6113,776 L 6112,776 L 6101,770 L 6101,770 L 6090,763 L 6090,763 L 6090,763 L 6082,753 L 6082,753 L 6075,743 L 6075,743 L 6072,738 L 6072,737 L 6069,734 L 6068,733 L 6068,732 L 6067,731 L 6065,729 L 6063,728 L 6062,720 L 6062,718 L 6063,706 L 6063,705 L 6063,704 L 6066,692 L 6067,691 L 6072,680 L 6073,679 L 6073,678 L 6081,669 L 6081,668 L 6098,652 L 6104,642 L 6105,641 L 6114,631 L 6115,630 L 6126,622 L 6128,621 L 6140,616 L 6142,615 L 6155,613 L 6156,613 L 6163,612 L 6164,612 L 6178,614 L 6179,614 L 6192,618 L 6194,619 L 6205,625 L 6207,626 L 6217,635 L 6218,636 L 6226,647 L 6227,648 L 6233,660 L 6234,662 L 6237,675 L 6237,676 L 6238,690 L 6238,692 L 6236,705 L 6236,706 L 6231,719 L 6230,721 L 6223,732 L 6222,733 L 6213,743 L 6212,744 L 6200,752 L 6199,753 L 6187,758 L 6185,759 L 6179,760 L 6176,763 L 6176,763 L 6166,771 L 6165,772 L 6154,777 L 6153,778 L 6152,778 L 6140,781 L 6139,781 L 6138,781 L 6132,782 z " style="fill-opacity:1.000000;fill:rgb(50,32,154);stroke:rgb(0,0,0);stroke-width:2"/></g>
<g fill-rule="evenodd"><path d="M 6341,783 L 6340,783 L 6338,783 L 6326,783 L 6325,782 L 6325,782 L 6313,778 L 6312,777 L 6301,772 L 6301,772 L 6291,765 L 6291,765 L 6289,763 L 6282,755 L 6282,755 L 6275,745 L 6275,745 L 6272,738 L 6272,737 L 6269,734 L 6269,734 L 6268,733 L 6268,733 L 6265,730 L 6263,728 L 6262,722 L 6262,720 L 6263,708 L 6263,707 L 6263,706 L 6266,694 L 6267,693 L 6272,682 L 6273,681 L 6273,681 L 6281,671 L 6281,670 L 6295,656 L 6296,655 L 6297,653 L 6304,642 L 6305,641 L 6314,631 L 6315,630 L 6326,622 L 6328,621 L 6340,616 L 6342,615 L 6355,613 L 6356,613 L 6363,612 L 6364,612 L 6378,614 L 6379,614 L 6392,618 L 6394,619 L 6405,625 L 6407,626 L 6417,635 L 6418,636 L 6426,647 L 6427,648 L 6433,660 L 6434,662 L 6437,675 L 6437,676 L 6438,690 L 6438,692 L 6436,705 L 6436,706 L 6431,719 L 6430,721 L 6423,732 L 6422,733 L 6413,743 L 6412,744 L 6400,752 L 6399,753 L 6387,758 L 6385,759 L 6382,759 L 6376,765 L 6375,765 L 6366,773 L 6365,774 L 6354,780 L 6353,780 L 6352,780 L 6341,783 z " style="fill-opacity:1.000000;fill:rgb(80,238,64);stroke:rgb(0,0,0);stroke-width:2"/></g>
<g fill-rule="evenodd"><path d="M 501,3723 L 501,3673 L 501,3672 L 503,3655 L 503,3654 L 505,3649 L 505,3598 L 505,3596 L 505,3595 L 506,3593 L 507,3592 L 508,3591 L 510,3590 L 511,3590 L 513,3590 L 563,3590 L 578,3587 L 579,3587 L 579,3587 L 596,3587 L 597,3587 L 612,3590 L 663,3590 L 664,3590 L 666,3590 L 667,3591 L 668,3592 L 669,3593 L 670,3595 L 670,3596 L 670,3598 L 670,3649 L 672,3654 L 672,3655 L 672,3655 L 674,3672 L 674,3673 L 674,3744 L 674,3745 L 673,3760 L 672,3762 L 668,3777 L 667,3778 L 660,3792 L 659,3793 L 649,3805 L 649,3806 L 645,3810 L 644,3810 L 631,3821 L 630,3822 L 615,3829 L 614,3829 L 614,3830 L 598,3834 L 596,3834 L 580,3835 L 579,3835 L 578,3835 L 562,3832 L 560,3832 L 545,3826 L 543,3825 L 529,3816 L 529,3816 L 528,3815 L 517,3804 L 515,3802 L 507,3789 L 506,3787 L 500,3772 L 500,3771 L 499,3770 L 497,3754 L 497,3752 L 498,3736 L 498,3734 L 501,3723 z " style="fill-opacity:1.000000;fill:rgb(120,54,253);stroke:rgb(0,0,0);stroke-width:2"/></g>
<g fill-rule="evenodd"><path d="M 1032,3161 L 1019,3168 L 1018,3168 L 1017,3168 L 999,3172 L 997,3172 L 978,3172 L 977,3172 L 976,3172 L 958,3168 L 957,3168 L 957,3168 L 939,3160 L 938,3159 L 923,3148 L 921,3147 L 909,3133 L 908,3132 L 908,3132 L 899,3115 L 898,3115 L 898,3114 L 892,3096 L 892,3094 L 890,3076 L 890,3074 L 892,3055 L 892,3054 L 898,3036 L 898,3035 L 899,3034 L 908,3018 L 908,3017 L 909,3017 L 921,3003 L 923,3002 L 938,2990 L 939,2990 L 939,2990 L 957,2982 L 957,2982 L 958,2982 L 976,2978 L 977,2977 L 978,2977 L 997,2977 L 999,2978 L 1017,2982 L 1018,2982 L 1019,2982 L 1032,2988 L 1080,2988 L 1081,2988 L 1084,2988 L 1085,2988 L 1102,2991 L 1103,2991 L 1119,2997 L 1119,2998 L 1120,2998 L 1134,3007 L 1135,3008 L 1147,3020 L 1148,3021 L 1157,3035 L 1158,3036 L 1163,3051 L 1164,3052 L 1164,3053 L 1166,3069 L 1167,3070 L 1167,3071 L 1166,3087 L 1165,3089 L 1161,3105 L 1161,3106 L 1161,3106 L 1153,3121 L 1153,3122 L 1152,3123 L 1142,3135 L 1141,3137 L 1129,3146 L 1127,3147 L 1114,3154 L 1112,3155 L 1098,3160 L 1096,3160 L 1081,3161 L 1080,3161 L 1032,3161 z " style="fill-opacity:1.000000;fill:rgb(18,73,50);stroke:rgb(0,0,0);stroke-width:2"/></g>
<g fill-rule="evenodd"><path d="M 647,465 L 536,576 L 536,813 L 537,813 L 550,823 L 551,824 L 562,836 L 563,837 L 563,837 L 571,852 L 572,852 L 572,853 L 577,869 L 577,870 L 578,870 L 579,887 L 579,888 L 579,959 L 579,959 L 578,976 L 577,977 L 572,993 L 572,994 L 571,995 L 563,1009 L 563,1009 L 562,1010 L 551,1022 L 550,1023 L 537,1033 L 536,1034 L 535,1034 L 520,1041 L 520,1041 L 519,1041 L 503,1045 L 501,1045 L 485,1045 L 484,1045 L 483,1045 L 467,1041 L 466,1041 L 465,1041 L 450,1034 L 449,1033 L 435,1023 L 434,1022 L 423,1010 L 423,1009 L 422,1009 L 414,995 L 414,994 L 413,993 L 408,977 L 408,976 L 406,959 L 406,959 L 406,888 L 406,887 L 408,870 L 408,869 L 413,853 L 414,852 L 414,852 L 422,837 L 423,837 L 423,836 L 434,824 L 435,823 L 449,813 L 449,813 L 449,813 L 449,558 L 449,557 L 450,550 L 450,549 L 452,542 L 453,540 L 456,534 L 457,533 L 462,528 L 462,527 L 598,391 L 599,390 L 604,386 L 606,385 L 612,382 L 613,381 L 620,379 L 621,379 L 628,378 L 629,378 L 1486,378 L 1486,378 L 1493,379 L 1495,379 L 1501,381 L 1503,382 L 1509,385 L 1510,386 L 1516,390 L 1516,391 L 1612,487 L 1613,488 L 1617,493 L 1618,494 L 1621,500 L 1622,502 L 1624,508 L 1624,510 L 1625,517 L 1625,518 L 1625,777 L 1626,777 L 1627,777 L 1643,779 L 1644,779 L 1659,784 L 1660,784 L 1674,792 L 1675,792 L 1687,802 L 1688,803 L 1690,805 L 1691,806 L 1701,819 L 1701,819 L 1702,820 L 1709,835 L 1710,836 L 1714,852 L 1714,853 L 1714,854 L 1715,870 L 1715,871 L 1715,872 L 1713,888 L 1712,890 L 1706,905 L 1706,906 L 1706,906 L 1697,920 L 1696,921 L 1684,933 L 1683,934 L 1669,943 L 1667,944 L 1652,950 L 1651,950 L 1650,950 L 1634,953 L 1633,953 L 1616,952 L 1614,952 L 1610,951 L 1582,951 L 1581,951 L 1564,949 L 1563,948 L 1547,943 L 1546,943 L 1546,943 L 1531,935 L 1531,934 L 1530,934 L 1518,923 L 1517,921 L 1507,908 L 1506,907 L 1499,892 L 1499,891 L 1499,890 L 1496,874 L 1495,873 L 1495,872 L 1495,856 L 1496,854 L 1499,838 L 1499,837 L 1499,836 L 1506,821 L 1507,821 L 1507,820 L 1517,807 L 1518,805 L 1530,794 L 1531,794 L 1531,793 L 1538,790 L 1538,536 L 1468,465 L 647,465 z " style="fill-opacity:1.000000;fill:rgb(246,158,125);stroke:rgb(0,0,0);stroke-width:2"/></g>
</svg>
