<?xml version="1.0" standalone="no"?>
<!DOCTYPE svg PUBLIC "-//W3C//DTD SVG 1.1//EN"
"http://www.w3.org/Graphics/SVG/1.1/DTD/svg11.dtd">
<svg width="8572" height="4630" viewBox="0 0 8572 4630" version="1.1"
xmlns="http://www.w3.org/2000/svg"
xmlns:xlink="http://www.w3.org/1999/xlink">
<g fill-rule="evenodd"><path d="M 5865,3941 L 5874,3958 L 5879,3962 L 5902,3972 L 5970,3982 L 5976,3983 L 5981,3985 L 6018,4000 L 6026,4004 L 6033,4009 L 6052,4026 L 6057,4033 L 6062,4041 L 6080,4076 L 6083,4084 L 6085,4091 L 6085,4099 L 6084,4137 L 6084,4144 L 6082,4151 L 6079,4158 L 6060,4197 L 6057,4204 L 6052,4209 L 6033,4230 L 6028,4235 L 6022,4239 L 5985,4262 L 5978,4265 L 5971,4267 L 5964,4268 L 5871,4278 L 5863,4278 L 5855,4277 L 5799,4264 L 5789,4261 L 5781,4256 L 5773,4248 L 5767,4240 L 5763,4231 L 5761,4220 L 5762,4210 L 5764,4200 L 5768,4191 L 5775,4183 L 5782,4176 L 5791,4171 L 5801,4168 L 5811,4167 L 5822,4168 L 5869,4180 L 5943,4172 L 5965,4158 L 5975,4148 L 5986,4124 L 5987,4110 L 5978,4093 L 5973,4088 L 5950,4078 L 5881,4068 L 5876,4067 L 5870,4065 L 5833,4050 L 5825,4046 L 5818,4041 L 5800,4024 L 5794,4017 L 5789,4010 L 5772,3974 L 5769,3967 L 5767,3959 L 5766,3951 L 5767,3913 L 5768,3906 L 5769,3899 L 5772,3893 L 5791,3853 L 5795,3847 L 5799,3841 L 5818,3820 L 5823,3815 L 5829,3811 L 5867,3789 L 5873,3785 L 5880,3783 L 5887,3782 L 5980,3772 L 5989,3772 L 5997,3773 L 6052,3786 L 6062,3789 L 6071,3795 L 6078,3802 L 6084,3810 L 6088,3820 L 6090,3830 L 6090,3840 L 6088,3850 L 6083,3859 L 6077,3868 L 6069,3874 L 6060,3879 L 6050,3882 L 6040,3883 L 6030,3882 L 5982,3871 L 5908,3878 L 5886,3892 L 5877,3902 L 5865,3926 L 5865,3941 z " style="fill-opacity:1.000000;fill:rgb(41,35,190);stroke:rgb(0,0,0);stroke-width:2"/></g>
<g fill-rule="evenodd"><path d="M 6678,3943 L 6674,3934 L 6666,3931 L 6633,3934 L 6611,3948 L 6609,3950 L 6605,4158 L 6604,4168 L 6600,4178 L 6595,4187 L 6588,4194 L 6580,4200 L 6570,4204 L 6560,4206 L 6550,4206 L 6540,4203 L 6530,4199 L 6522,4193 L 6515,4185 L 6510,4176 L 6507,4166 L 6507,4156 L 6512,3891 L 6513,3881 L 6516,3871 L 6522,3863 L 6529,3855 L 6537,3849 L 6547,3845 L 6557,3843 L 6567,3844 L 6577,3846 L 6584,3849 L 6591,3844 L 6598,3841 L 6605,3839 L 6612,3838 L 6668,3832 L 6676,3831 L 6684,3833 L 6691,3835 L 6728,3850 L 6736,3854 L 6743,3859 L 6749,3866 L 6754,3874 L 6772,3909 L 6775,3917 L 6776,3924 L 6777,3932 L 6773,4140 L 6772,4150 L 6768,4160 L 6763,4169 L 6756,4176 L 6747,4182 L 6738,4186 L 6728,4188 L 6717,4188 L 6707,4186 L 6698,4181 L 6690,4175 L 6683,4167 L 6678,4158 L 6675,4148 L 6674,4138 L 6678,3943 z " style="fill-opacity:1.000000;fill:rgb(132,225,108);stroke:rgb(0,0,0);stroke-width:2"/></g>
<g fill-rule="evenodd"><path d="M 6321,4119 L 6325,3911 L 6327,3901 L 6330,3891 L 6335,3882 L 6342,3875 L 6351,3869 L 6360,3865 L 6370,3863 L 6381,3863 L 6391,3865 L 6400,3870 L 6408,3876 L 6415,3884 L 6420,3893 L 6423,3903 L 6424,3913 L 6419,4177 L 6417,4188 L 6414,4197 L 6409,4206 L 6402,4214 L 6393,4219 L 6384,4223 L 6374,4225 L 6363,4225 L 6353,4223 L 6347,4220 L 6339,4224 L 6332,4228 L 6326,4230 L 6319,4231 L 6263,4237 L 6255,4237 L 6247,4236 L 6239,4234 L 6202,4219 L 6194,4215 L 6187,4209 L 6181,4203 L 6177,4195 L 6159,4159 L 6156,4152 L 6154,4144 L 6153,4136 L 6158,3929 L 6159,3918 L 6162,3909 L 6168,3900 L 6175,3892 L 6183,3887 L 6192,3883 L 6203,3881 L 6213,3881 L 6223,3883 L 6232,3887 L 6240,3894 L 6247,3901 L 6252,3910 L 6255,3920 L 6256,3931 L 6252,4126 L 6256,4135 L 6265,4138 L 6297,4134 L 6320,4121 L 6321,4119 z " style="fill-opacity:1.000000;fill:rgb(214,174,82);stroke:rgb(0,0,0);stroke-width:2"/></g>
<g fill-rule="evenodd"><path d="M 6946,3923 L 6949,3930 L 6957,3933 L 7001,3929 L 7009,3928 L 7017,3930 L 7024,3932 L 7061,3947 L 7069,3951 L 7076,3956 L 7082,3963 L 7087,3971 L 7105,4006 L 7108,4014 L 7109,4021 L 7110,4029 L 7109,4048 L 7109,4055 L 7107,4062 L 7105,4069 L 7085,4109 L 7080,4117 L 7074,4123 L 7066,4129 L 7029,4152 L 7022,4155 L 7015,4157 L 7008,4159 L 6934,4167 L 6926,4167 L 6918,4166 L 6910,4163 L 6873,4148 L 6864,4143 L 6856,4137 L 6850,4129 L 6845,4119 L 6843,4109 L 6843,4099 L 6844,4089 L 6848,4079 L 6854,4071 L 6862,4064 L 6870,4058 L 6880,4055 L 6890,4053 L 6900,4054 L 6910,4057 L 6936,4067 L 6987,4062 L 7003,4052 L 7010,4038 L 7007,4031 L 6999,4028 L 6955,4032 L 6947,4033 L 6939,4031 L 6931,4029 L 6895,4014 L 6887,4010 L 6880,4005 L 6874,3998 L 6869,3990 L 6851,3955 L 6848,3947 L 6846,3940 L 6846,3932 L 6846,3913 L 6847,3906 L 6849,3899 L 6851,3892 L 6871,3852 L 6876,3844 L 6882,3838 L 6889,3832 L 6927,3809 L 6933,3806 L 6940,3804 L 6947,3802 L 7003,3796 L 7011,3796 L 7019,3797 L 7027,3800 L 7064,3815 L 7073,3820 L 7081,3826 L 7087,3834 L 7092,3844 L 7094,3854 L 7094,3864 L 7093,3874 L 7089,3883 L 7083,3892 L 7076,3899 L 7067,3905 L 7057,3908 L 7047,3909 L 7037,3909 L 7027,3906 L 7001,3896 L 6969,3899 L 6953,3909 L 6946,3923 z " style="fill-opacity:1.000000;fill:rgb(144,73,241);stroke:rgb(0,0,0);stroke-width:2"/></g>
<g fill-rule="evenodd"><path d="M 8158,3935 L 8166,3938 L 8218,3933 L 8246,3916 L 8255,3911 L 8265,3909 L 8276,3909 L 8286,3911 L 8295,3915 L 8304,3920 L 8311,3928 L 8316,3937 L 8319,3946 L 8321,3957 L 8320,3967 L 8317,3977 L 8312,3986 L 8305,3994 L 8297,4000 L 8259,4023 L 8253,4026 L 8246,4028 L 8239,4029 L 8164,4037 L 8156,4037 L 8148,4036 L 8141,4034 L 8104,4019 L 8096,4015 L 8089,4009 L 8083,4003 L 8078,3995 L 8060,3959 L 8057,3952 L 8056,3944 L 8055,3937 L 8058,3785 L 8059,3778 L 8060,3771 L 8063,3765 L 8082,3725 L 8087,3717 L 8094,3710 L 8101,3705 L 8139,3682 L 8145,3678 L 8152,3676 L 8159,3675 L 8234,3667 L 8242,3667 L 8250,3668 L 8257,3670 L 8294,3685 L 8302,3689 L 8309,3695 L 8315,3701 L 8320,3709 L 8338,3745 L 8341,3752 L 8342,3760 L 8343,3768 L 8342,3806 L 8341,3816 L 8338,3825 L 8332,3834 L 8325,3842 L 8317,3848 L 8307,3852 L 8154,3899 L 8154,3926 L 8158,3935M 8240,3769 L 8232,3766 L 8180,3772 L 8165,3781 L 8158,3794 L 8240,3769 z " style="fill-opacity:1.000000;fill:rgb(241,187,233);stroke:rgb(0,0,0);stroke-width:2"/></g>
<g fill-rule="evenodd"><path d="M 7280,3879 L 7276,4087 L 7275,4097 L 7272,4107 L 7266,4116 L 7259,4123 L 7251,4129 L 7241,4133 L 7231,4135 L 7221,4135 L 7211,4133 L 7202,4128 L 7193,4122 L 7187,4114 L 7182,4105 L 7179,4096 L 7178,4085 L 7186,3689 L 7187,3678 L 7190,3669 L 7196,3660 L 7203,3652 L 7211,3647 L 7220,3643 L 7231,3641 L 7241,3641 L 7251,3643 L 7260,3647 L 7268,3654 L 7275,3661 L 7280,3670 L 7283,3680 L 7284,3691 L 7282,3767 L 7339,3761 L 7347,3761 L 7355,3762 L 7363,3764 L 7399,3779 L 7407,3783 L 7414,3789 L 7420,3795 L 7425,3803 L 7443,3839 L 7446,3846 L 7448,3854 L 7448,3862 L 7444,4070 L 7443,4080 L 7439,4090 L 7434,4098 L 7427,4106 L 7419,4112 L 7409,4116 L 7399,4118 L 7389,4117 L 7379,4115 L 7369,4111 L 7361,4105 L 7354,4097 L 7349,4088 L 7346,4078 L 7346,4068 L 7349,3872 L 7345,3864 L 7337,3860 L 7304,3864 L 7282,3877 L 7280,3879 z " style="fill-opacity:1.000000;fill:rgb(235,179,166);stroke:rgb(0,0,0);stroke-width:2"/></g>
<g fill-rule="evenodd"><path d="M 7821,3822 L 7817,4030 L 7816,4041 L 7812,4050 L 7807,4059 L 7800,4067 L 7791,4073 L 7782,4077 L 7772,4078 L 7762,4078 L 7752,4076 L 7742,4072 L 7734,4065 L 7727,4058 L 7722,4049 L 7719,4039 L 7718,4028 L 7724,3764 L 7725,3754 L 7728,3744 L 7734,3735 L 7741,3728 L 7749,3722 L 7759,3718 L 7769,3716 L 7779,3716 L 7789,3718 L 7796,3722 L 7803,3717 L 7810,3714 L 7817,3711 L 7824,3710 L 7880,3704 L 7888,3704 L 7896,3705 L 7903,3708 L 7940,3723 L 7948,3727 L 7955,3732 L 7961,3739 L 7966,3746 L 7984,3782 L 7987,3789 L 7988,3797 L 7989,3805 L 7985,4013 L 7983,4023 L 7980,4033 L 7975,4042 L 7968,4049 L 7959,4055 L 7950,4059 L 7940,4061 L 7929,4061 L 7919,4058 L 7910,4054 L 7902,4048 L 7895,4040 L 7890,4031 L 7887,4021 L 7886,4011 L 7890,3815 L 7886,3807 L 7878,3803 L 7845,3807 L 7823,3820 L 7821,3822 z " style="fill-opacity:1.000000;fill:rgb(219,60,135);stroke:rgb(0,0,0);stroke-width:2"/></g>
<g fill-rule="evenodd"><path d="M 7574,3737 L 7571,3736 L 7563,3732 L 7555,3726 L 7537,3709 L 7530,3702 L 7525,3694 L 7522,3685 L 7521,3675 L 7521,3666 L 7524,3656 L 7528,3648 L 7534,3640 L 7553,3619 L 7557,3615 L 7560,3612 L 7565,3609 L 7569,3607 L 7575,3605 L 7579,3604 L 7585,3603 L 7589,3603 L 7595,3604 L 7600,3604 L 7605,3606 L 7609,3608 L 7614,3610 L 7618,3613 L 7622,3616 L 7641,3633 L 7647,3640 L 7652,3649 L 7655,3658 L 7656,3667 L 7656,3677 L 7654,3686 L 7649,3695 L 7644,3702 L 7625,3723 L 7620,3727 L 7617,3730 L 7612,3733 L 7609,3735 L 7601,3738 L 7603,3738 L 7612,3742 L 7620,3749 L 7627,3756 L 7632,3765 L 7635,3775 L 7636,3786 L 7630,4050 L 7629,4060 L 7626,4070 L 7620,4079 L 7613,4086 L 7605,4092 L 7596,4096 L 7585,4098 L 7575,4098 L 7565,4096 L 7556,4091 L 7548,4085 L 7541,4077 L 7536,4068 L 7533,4058 L 7532,4048 L 7537,3784 L 7538,3773 L 7542,3764 L 7547,3755 L 7554,3747 L 7563,3741 L 7572,3737 L 7574,3737 z " style="fill-opacity:1.000000;fill:rgb(12,62,153);stroke:rgb(0,0,0);stroke-width:2"/></g>
<g fill-rule="evenodd"><path d="M 2255,2535 L 2497,2293 L 2513,2269 L 2519,2241 L 2519,2066 L 2513,2037 L 2497,2013 L 2390,1906 L 2366,1890 L 2337,1884 L 2295,1884 L 2291,1883 L 2274,1879 L 2182,1879 L 2166,1882 L 2153,1891 L 2151,1892 L 2149,1892 L 2147,1892 L 2145,1892 L 2143,1891 L 2141,1890 L 2140,1889 L 2138,1887 L 2138,1885 L 2137,1883 L 2137,1881 L 2138,1879 L 2139,1877 L 2140,1875 L 2155,1861 L 2157,1860 L 2161,1859 L 2851,1859 L 2853,1860 L 2857,1862 L 3895,2901 L 3897,2903 L 3898,2905 L 3898,2908 L 3898,2911 L 3897,2913 L 3895,2916 L 3893,2917 L 3890,2918 L 3867,2918 L 3840,2923 L 3830,2929 L 3820,2932 L 3796,2948 L 3673,3071 L 3670,3073 L 3668,3074 L 2537,3074 L 2535,3074 L 2531,3073 L 2514,3069 L 2422,3069 L 2406,3072 L 2393,3081 L 2390,3085 L 2387,3087 L 2383,3089 L 2382,3089 L 2380,3089 L 2376,3087 L 2374,3086 L 2371,3082 L 2358,3072 L 2341,3069 L 2249,3069 L 2233,3072 L 2226,3076 L 2223,3078 L 2192,3078 L 2190,3078 L 2186,3076 L 2184,3073 L 2183,3072 L 2182,3070 L 2182,3066 L 2184,3062 L 2193,3049 L 2196,3032 L 2196,2963 L 2193,2947 L 2185,2934 L 2171,2924 L 2154,2921 L 2062,2921 L 2046,2924 L 2033,2933 L 2030,2937 L 2027,2939 L 2023,2941 L 2022,2941 L 2020,2941 L 2016,2939 L 2014,2938 L 2011,2934 L 1998,2924 L 1981,2921 L 1889,2921 L 1883,2922 L 1850,2922 L 1848,2921 L 1845,2919 L 1772,2846 L 1747,2830 L 1717,2824 L 1710,2824 L 1706,2823 L 1683,2808 L 1645,2800 L 1642,2798 L 1636,2791 L 1633,2788 L 1633,2784 L 1633,2567 L 1633,2563 L 1634,2561 L 1636,2560 L 1639,2558 L 1643,2557 L 2203,2557 L 2231,2551 L 2255,2535 z " style="fill-opacity:1.000000;fill:rgb(36,94,13);stroke:rgb(0,0,0);stroke-width:2"/></g>
<g fill-rule="evenodd"><path d="M 1154,1683 L 1126,1680 L 1098,1672 L 1073,1658 L 1051,1639 L 1034,1616 L 1021,1591 L 1014,1563 L 1013,1534 L 1017,1506 L 1027,1479 L 1042,1455 L 1062,1434 L 1085,1418 L 1112,1406 L 1140,1401 L 1154,1400 L 1183,1403 L 1210,1411 L 1235,1425 L 1257,1444 L 1274,1467 L 1287,1492 L 1294,1520 L 1296,1549 L 1291,1577 L 1281,1604 L 1266,1628 L 1246,1649 L 1223,1665 L 1196,1677 L 1168,1683 L 1154,1683 z " style="fill-opacity:1.000000;fill:rgb(28,6,183);stroke:rgb(0,0,0);stroke-width:2"/></g>
<g fill-rule="evenodd"><path d="M 209,1691 L 179,1688 L 150,1679 L 124,1664 L 101,1645 L 82,1621 L 69,1593 L 61,1564 L 60,1534 L 64,1504 L 75,1476 L 91,1450 L 112,1428 L 137,1411 L 164,1399 L 194,1393 L 209,1392 L 239,1395 L 268,1404 L 295,1419 L 318,1438 L 336,1462 L 350,1490 L 357,1519 L 359,1549 L 354,1579 L 344,1607 L 328,1633 L 307,1655 L 282,1672 L 254,1684 L 224,1690 L 209,1691 z " style="fill-opacity:1.000000;fill:rgb(71,222,179);stroke:rgb(0,0,0);stroke-width:2"/></g>
<g fill-rule="evenodd"><path d="M 2513,4059 L 2511,4073 L 2507,4087 L 2500,4099 L 2490,4109 L 2479,4117 L 2466,4123 L 2453,4126 L 2439,4126 L 2425,4123 L 2412,4117 L 2401,4109 L 2391,4099 L 2384,4087 L 2380,4073 L 2379,4059 L 2380,4046 L 2384,4032 L 2391,4020 L 2401,4010 L 2412,4001 L 2425,3996 L 2439,3993 L 2453,3993 L 2466,3996 L 2479,4001 L 2490,4010 L 2500,4020 L 2507,4032 L 2511,4046 L 2513,4059 z " style="fill-opacity:1.000000;fill:rgb(18,77,200);stroke:rgb(0,0,0);stroke-width:2"/></g>
<g fill-rule="evenodd"><path d="M 2712,4059 L 2711,4073 L 2707,4087 L 2700,4099 L 2690,4109 L 2679,4117 L 2666,4123 L 2653,4126 L 2639,4126 L 2625,4123 L 2612,4117 L 2601,4109 L 2591,4099 L 2584,4087 L 2580,4073 L 2579,4059 L 2580,4046 L 2584,4032 L 2591,4020 L 2601,4010 L 2612,4001 L 2625,3996 L 2639,3993 L 2653,3993 L 2666,3996 L 2679,4001 L 2690,4010 L 2700,4020 L 2707,4032 L 2711,4046 L 2712,4059 z " style="fill-opacity:1.000000;fill:rgb(67,187,139);stroke:rgb(0,0,0);stroke-width:2"/></g>
<g fill-rule="evenodd"><path d="M 2912,4059 L 2911,4073 L 2907,4087 L 2900,4099 L 2890,4109 L 2879,4117 L 2866,4123 L 2853,4126 L 2839,4126 L 2825,4123 L 2812,4117 L 2801,4109 L 2791,4099 L 2784,4087 L 2780,4073 L 2779,4059 L 2780,4046 L 2784,4032 L 2791,4020 L 2801,4010 L 2812,4001 L 2825,3996 L 2839,3993 L 2853,3993 L 2866,3996 L 2879,4001 L 2890,4010 L 2900,4020 L 2907,4032 L 2911,4046 L 2912,4059 z " style="fill-opacity:1.000000;fill:rgb(166,31,3);stroke:rgb(0,0,0);stroke-width:2"/></g>
<g fill-rule="evenodd"><path d="M 5118,2474 L 5118,2317 L 5165,2317 L 5165,2474 L 5118,2474 z " style="fill-opacity:1.000000;fill:rgb(90,125,9);stroke:rgb(0,0,0);stroke-width:2"/></g>
<g fill-rule="evenodd"><path d="M 4818,2474 L 4818,2317 L 4865,2317 L 4865,2474 L 4818,2474 z " style="fill-opacity:1.000000;fill:rgb(56,37,31);stroke:rgb(0,0,0);stroke-width:2"/></g>
<g fill-rule="evenodd"><path d="M 5218,3214 L 5218,3057 L 5265,3057 L 5265,3214 L 5218,3214 z " style="fill-opacity:1.000000;fill:rgb(93,212,203);stroke:rgb(0,0,0);stroke-width:2"/></g>
<g fill-rule="evenodd"><path d="M 385,224 L 382,255 L 372,284 L 357,312 L 336,335 L 310,353 L 282,366 L 251,372 L 220,372 L 189,366 L 161,353 L 136,335 L 115,312 L 99,284 L 89,255 L 86,224 L 89,192 L 99,163 L 115,136 L 136,112 L 161,94 L 189,81 L 220,75 L 251,75 L 282,81 L 310,94 L 336,112 L 357,136 L 372,163 L 382,192 L 385,224 z " style="fill-opacity:1.000000;fill:rgb(252,150,245);stroke:rgb(0,0,0);stroke-width:2"/></g>
<g fill-rule="evenodd"><path d="M 8521,200 L 8518,231 L 8508,260 L 8492,288 L 8471,311 L 8446,329 L 8418,342 L 8387,348 L 8356,348 L 8325,342 L 8297,329 L 8271,311 L 8250,288 L 8235,260 L 8225,231 L 8222,200 L 8225,168 L 8235,139 L 8250,112 L 8271,88 L 8297,70 L 8325,57 L 8356,51 L 8387,51 L 8418,57 L 8446,70 L 8471,88 L 8492,112 L 8508,139 L 8518,168 L 8521,200 z " style="fill-opacity:1.000000;fill:rgb(69,59,19);stroke:rgb(0,0,0);stroke-width:2"/></g>
<g fill-rule="evenodd"><path d="M 8531,4445 L 8528,4477 L 8518,4506 L 8502,4533 L 8481,4557 L 8456,4575 L 8428,4588 L 8397,4594 L 8366,4594 L 8335,4588 L 8307,4575 L 8281,4557 L 8260,4533 L 8245,4506 L 8235,4477 L 8232,4445 L 8235,4414 L 8245,4385 L 8260,4357 L 8281,4334 L 8307,4316 L 8335,4303 L 8366,4297 L 8397,4297 L 8428,4303 L 8456,4316 L 8481,4334 L 8502,4357 L 8518,4385 L 8528,4414 L 8531,4445 z " style="fill-opacity:1.000000;fill:rgb(13,137,10);stroke:rgb(0,0,0);stroke-width:2"/></g>
<g fill-rule="evenodd"><path d="M 427,4371 L 424,4403 L 414,4432 L 399,4459 L 378,4483 L 352,4501 L 324,4514 L 293,4520 L 262,4520 L 231,4514 L 203,4501 L 178,4483 L 157,4459 L 141,4432 L 131,4403 L 128,4371 L 131,4340 L 141,4311 L 157,4283 L 178,4260 L 203,4242 L 231,4229 L 262,4223 L 293,4223 L 324,4229 L 352,4242 L 378,4260 L 399,4283 L 414,4311 L 424,4340 L 427,4371 z " style="fill-opacity:1.000000;fill:rgb(28,219,174);stroke:rgb(0,0,0);stroke-width:2"/></g>
<g fill-rule="evenodd"><path d="M 7956,746 L 7943,745 L 7930,741 L 7918,734 L 7908,725 L 7899,715 L 7893,703 L 7890,690 L 7889,676 L 7891,663 L 7896,650 L 7903,638 L 7913,629 L 7924,621 L 7936,616 L 7949,613 L 7956,612 L 7970,614 L 7982,618 L 7994,624 L 8005,633 L 8013,644 L 8019,656 L 8022,669 L 8023,683 L 8021,696 L 8016,709 L 8009,720 L 8000,730 L 7989,738 L 7976,743 L 7963,746 L 7956,746 z " style="fill-opacity:1.000000;fill:rgb(50,32,154);stroke:rgb(0,0,0);stroke-width:2"/></g>
<g fill-rule="evenodd"><path d="M 620,985 L 617,980 L 612,966 L 611,951 L 612,936 L 617,922 L 620,917 L 594,892 L 589,893 L 587,893 L 583,892 L 580,890 L 579,889 L 546,856 L 545,854 L 543,850 L 543,832 L 545,829 L 549,823 L 552,806 L 552,714 L 549,698 L 540,685 L 536,682 L 534,679 L 532,675 L 532,673 L 533,670 L 535,666 L 540,663 L 544,657 L 547,655 L 549,655 L 800,655 L 804,655 L 806,656 L 809,659 L 811,663 L 815,665 L 818,668 L 819,672 L 819,676 L 818,677 L 816,681 L 812,684 L 803,697 L 799,714 L 799,806 L 802,822 L 806,829 L 808,832 L 808,862 L 807,864 L 805,868 L 782,891 L 778,893 L 776,893 L 774,893 L 769,892 L 744,917 L 746,922 L 751,936 L 753,951 L 751,966 L 746,980 L 744,985 L 769,1010 L 774,1009 L 776,1009 L 780,1010 L 782,1011 L 816,1045 L 856,1062 L 900,1062 L 941,1045 L 972,1014 L 989,973 L 989,945 L 990,942 L 992,938 L 1000,931 L 1002,930 L 1006,929 L 1953,929 L 1955,929 L 1958,931 L 1975,934 L 2067,934 L 2083,931 L 2097,922 L 2099,918 L 2102,916 L 2106,914 L 2108,914 L 2110,914 L 2113,916 L 2115,917 L 2118,921 L 2131,931 L 2148,934 L 2241,934 L 2256,931 L 2258,930 L 2262,929 L 2307,929 L 2309,930 L 2312,932 L 2315,935 L 2315,937 L 2315,949 L 2321,977 L 2337,1001 L 2733,1397 L 2735,1400 L 2735,1404 L 2735,1406 L 2735,1408 L 2733,1411 L 2729,1413 L 2725,1414 L 2310,1414 L 2299,1416 L 2289,1416 L 2285,1414 L 2282,1412 L 2281,1408 L 2281,1406 L 2281,1404 L 2282,1400 L 2289,1391 L 2292,1374 L 2292,1305 L 2289,1289 L 2281,1276 L 2267,1267 L 2250,1263 L 2158,1263 L 2142,1266 L 2129,1275 L 2126,1279 L 2123,1281 L 2119,1283 L 2118,1283 L 2116,1283 L 2112,1281 L 2110,1280 L 2107,1276 L 2094,1267 L 2077,1263 L 1985,1263 L 1969,1266 L 1967,1267 L 1965,1268 L 1953,1268 L 1951,1267 L 1947,1265 L 1838,1156 L 1814,1140 L 1786,1134 L 671,1134 L 669,1133 L 666,1131 L 571,1036 L 569,1033 L 568,1031 L 568,1027 L 569,1023 L 579,1014 L 580,1012 L 583,1010 L 587,1009 L 589,1009 L 594,1010 L 620,985M 648,1013 L 622,1039 L 625,1049 L 664,1063 L 709,1061 L 738,1049 L 741,1039 L 715,1013 L 704,1018 L 689,1021 L 674,1021 L 660,1018 L 648,1013M 740,864 L 741,863 L 741,863 L 740,864M 625,854 L 622,863 L 629,870 L 626,861 L 625,854 z " style="fill-opacity:1.000000;fill:rgb(80,238,64);stroke:rgb(0,0,0);stroke-width:2"/></g>
<g fill-rule="evenodd"><path d="M 4852,1835 L 4857,1838 L 5226,2208 L 5249,2223 L 5252,2224 L 5254,2225 L 5272,2243 L 5273,2245 L 5274,2249 L 5274,2267 L 5273,2271 L 5272,2272 L 5269,2276 L 5269,2514 L 5273,2514 L 5288,2508 L 5292,2507 L 5296,2508 L 5302,2512 L 5319,2515 L 5364,2515 L 5380,2512 L 5388,2507 L 5392,2507 L 5395,2507 L 5402,2512 L 5419,2515 L 5464,2515 L 5480,2512 L 5488,2507 L 5492,2507 L 5495,2507 L 5502,2512 L 5519,2515 L 5564,2515 L 5580,2512 L 5588,2507 L 5592,2507 L 5595,2507 L 5602,2512 L 5619,2515 L 5664,2515 L 5680,2512 L 5688,2507 L 5692,2507 L 5695,2507 L 5702,2512 L 5719,2515 L 5764,2515 L 5780,2512 L 5788,2507 L 5792,2507 L 5795,2507 L 5802,2512 L 5819,2515 L 5864,2515 L 5880,2512 L 5888,2507 L 5892,2507 L 5895,2507 L 5902,2512 L 5919,2515 L 5964,2515 L 5980,2512 L 5988,2507 L 5992,2507 L 5995,2507 L 6002,2512 L 6019,2515 L 6064,2515 L 6080,2512 L 6088,2507 L 6092,2507 L 6095,2507 L 6102,2512 L 6119,2515 L 6164,2515 L 6180,2512 L 6193,2503 L 6203,2490 L 6206,2473 L 6206,2410 L 6209,2394 L 6209,1726 L 6210,1722 L 6211,1721 L 7141,790 L 7143,789 L 7146,787 L 7150,787 L 7156,788 L 7197,780 L 7232,757 L 7248,733 L 7251,730 L 7254,729 L 7258,729 L 7262,730 L 7263,731 L 7281,757 L 7286,761 L 7288,764 L 7289,768 L 7289,2151 L 7288,2155 L 7286,2158 L 6359,3084 L 6348,3102 L 6232,3217 L 6229,3219 L 6227,3220 L 6219,3220 L 6215,3219 L 6213,3218 L 6211,3215 L 6209,3212 L 6209,3137 L 6206,3121 L 6206,3058 L 6203,3042 L 6194,3028 L 6181,3019 L 6164,3016 L 6119,3016 L 6103,3019 L 6095,3024 L 6091,3024 L 6088,3024 L 6081,3019 L 6064,3016 L 6019,3016 L 6003,3019 L 5995,3024 L 5991,3024 L 5988,3024 L 5981,3019 L 5964,3016 L 5923,3016 L 5919,3015 L 5917,3014 L 5916,3013 L 5914,3010 L 5913,3006 L 5913,2907 L 5907,2879 L 5891,2855 L 5670,2634 L 5646,2618 L 5618,2612 L 4336,2612 L 4332,2611 L 4321,2604 L 4293,2599 L 4141,2599 L 4137,2598 L 4135,2597 L 2482,944 L 2480,941 L 2479,937 L 2479,935 L 2481,932 L 2483,929 L 2485,928 L 2489,927 L 2510,927 L 2516,920 L 2516,887 L 2489,887 L 2489,828 L 2516,828 L 2516,795 L 2510,788 L 2481,788 L 2465,795 L 2461,796 L 2457,795 L 2450,790 L 2433,787 L 2392,787 L 2386,786 L 2263,786 L 2261,786 L 2257,785 L 2240,781 L 2148,781 L 2132,784 L 2119,793 L 2116,797 L 2113,799 L 2109,801 L 2108,801 L 2106,801 L 2102,799 L 2100,798 L 2097,794 L 2084,785 L 2067,781 L 1975,781 L 1959,784 L 1957,785 L 1953,786 L 1005,786 L 1003,785 L 1000,783 L 954,737 L 953,735 L 952,731 L 952,714 L 949,698 L 940,685 L 935,681 L 934,679 L 932,675 L 932,672 L 934,668 L 935,666 L 940,663 L 949,650 L 952,633 L 952,602 L 955,586 L 955,498 L 956,494 L 958,491 L 1052,397 L 1055,395 L 1059,394 L 3496,394 L 3500,395 L 3504,397 L 3505,399 L 3506,400 L 3506,404 L 3506,1309 L 3506,1313 L 3505,1315 L 3496,1328 L 3487,1375 L 3487,1395 L 3496,1441 L 3522,1479 L 3560,1505 L 3569,1507 L 3575,1511 L 3579,1512 L 3617,1550 L 3619,1553 L 3620,1557 L 3619,1561 L 3610,1574 L 3607,1591 L 3607,1660 L 3610,1676 L 3618,1689 L 3621,1691 L 3622,1693 L 3623,1696 L 3623,1723 L 3629,1751 L 3645,1775 L 4352,2482 L 4376,2498 L 4404,2504 L 4551,2504 L 4554,2505 L 4557,2508 L 4570,2517 L 4587,2520 L 4656,2520 L 4672,2517 L 4685,2509 L 4694,2495 L 4698,2478 L 4698,2386 L 4695,2370 L 4686,2356 L 4682,2354 L 4680,2351 L 4678,2347 L 4678,2345 L 4678,2343 L 4680,2340 L 4681,2338 L 4685,2335 L 4694,2322 L 4698,2305 L 4698,2253 L 4699,2250 L 4701,2246 L 4704,2244 L 4738,2237 L 4761,2237 L 4779,2233 L 4789,2233 L 4793,2234 L 4796,2236 L 4820,2260 L 4822,2263 L 4823,2267 L 4823,2269 L 4821,2272 L 4818,2275 L 4815,2276 L 4803,2279 L 4789,2287 L 4780,2301 L 4777,2318 L 4777,2473 L 4780,2489 L 4789,2503 L 4802,2512 L 4819,2515 L 4864,2515 L 4880,2512 L 4888,2507 L 4892,2507 L 4895,2507 L 4902,2512 L 4919,2515 L 4964,2515 L 4980,2512 L 4988,2507 L 4992,2507 L 4995,2507 L 5002,2512 L 5019,2515 L 5064,2515 L 5080,2512 L 5088,2507 L 5092,2507 L 5095,2507 L 5102,2512 L 5119,2515 L 5164,2515 L 5180,2512 L 5187,2508 L 5191,2507 L 5195,2508 L 5210,2514 L 5214,2514 L 5214,2277 L 5210,2277 L 5195,2283 L 5191,2284 L 5187,2283 L 5181,2279 L 5164,2276 L 5119,2276 L 5115,2275 L 5112,2273 L 5110,2270 L 5109,2268 L 5109,2246 L 5104,2220 L 5089,2197 L 4810,1918 L 4787,1903 L 4760,1898 L 4439,1898 L 4435,1897 L 4432,1895 L 4431,1894 L 4414,1869 L 4380,1834 L 4354,1817 L 4352,1817 L 4349,1814 L 4113,1578 L 4090,1563 L 4063,1558 L 3942,1558 L 3938,1557 L 3931,1553 L 3914,1549 L 3822,1549 L 3806,1552 L 3792,1561 L 3790,1565 L 3787,1567 L 3783,1569 L 3781,1569 L 3779,1569 L 3776,1567 L 3774,1566 L 3771,1562 L 3769,1560 L 3768,1558 L 3767,1557 L 3766,1553 L 3766,1528 L 3761,1500 L 3745,1476 L 3718,1449 L 3716,1446 L 3715,1444 L 3715,1440 L 3724,1395 L 3724,1375 L 3715,1328 L 3706,1315 L 3705,1313 L 3705,1309 L 3705,404 L 3705,400 L 3708,397 L 3711,395 L 3715,394 L 3800,394 L 3804,395 L 3806,396 L 3808,399 L 3818,414 L 3941,536 L 3951,543 L 3952,544 L 3953,548 L 3953,914 L 3960,945 L 3977,971 L 4339,1332 L 4343,1336 L 4816,1809 L 4840,1825 L 4843,1826 L 4852,1835M 2584,885 L 2584,887 L 2556,887 L 2556,920 L 2563,927 L 2592,927 L 2606,921 L 2618,910 L 2624,895 L 2624,885 L 2584,885M 2584,830 L 2624,830 L 2624,820 L 2618,805 L 2606,794 L 2592,788 L 2563,788 L 2556,795 L 2556,828 L 2584,828 L 2584,830 z " style="fill-opacity:1.000000;fill:rgb(120,54,253);stroke:rgb(0,0,0);stroke-width:2"/></g>
<g fill-rule="evenodd"><path d="M 5865,2409 L 5865,2474 L 5818,2474 L 5818,2409 L 5816,2407 L 5814,2401 L 5814,2395 L 5814,1394 L 5814,1389 L 5816,1384 L 5819,1379 L 5822,1375 L 6494,703 L 6490,690 L 6489,676 L 6491,663 L 6496,650 L 6503,638 L 6513,629 L 6524,621 L 6536,616 L 6549,613 L 6556,612 L 6570,614 L 6583,618 L 6594,624 L 6605,633 L 6613,644 L 6619,656 L 6622,669 L 6623,683 L 6621,696 L 6616,709 L 6609,720 L 6600,730 L 6589,738 L 6576,743 L 6563,746 L 6556,746 L 6543,745 L 6533,742 L 5869,1406 L 5869,2395 L 5868,2401 L 5867,2407 L 5865,2409 z " style="fill-opacity:1.000000;fill:rgb(18,73,50);stroke:rgb(0,0,0);stroke-width:2"/></g>
<g fill-rule="evenodd"><path d="M 6165,2409 L 6165,2474 L 6118,2474 L 6118,2409 L 6116,2407 L 6114,2401 L 6114,2395 L 6114,1694 L 6114,1689 L 6116,1684 L 6119,1679 L 6122,1675 L 7094,703 L 7090,690 L 7089,676 L 7091,663 L 7096,650 L 7103,638 L 7113,629 L 7124,621 L 7136,616 L 7149,613 L 7156,612 L 7170,614 L 7183,618 L 7194,624 L 7205,633 L 7213,644 L 7219,656 L 7222,669 L 7223,683 L 7221,696 L 7216,709 L 7209,720 L 7200,730 L 7189,738 L 7176,743 L 7163,746 L 7156,746 L 7143,745 L 7133,742 L 6169,1705 L 6169,2395 L 6168,2401 L 6167,2407 L 6165,2409 z " style="fill-opacity:1.000000;fill:rgb(246,158,125);stroke:rgb(0,0,0);stroke-width:2"/></g>
<g fill-rule="evenodd"><path d="M 6065,2409 L 6065,2474 L 6018,2474 L 6018,2409 L 6016,2407 L 6014,2401 L 6014,2395 L 6014,1594 L 6014,1589 L 6016,1584 L 6019,1579 L 6022,1575 L 6894,703 L 6890,690 L 6889,676 L 6891,663 L 6896,650 L 6903,638 L 6913,629 L 6924,621 L 6936,616 L 6949,613 L 6956,612 L 6970,614 L 6983,618 L 6994,624 L 7005,633 L 7013,644 L 7019,656 L 7022,669 L 7023,683 L 7021,696 L 7016,709 L 7009,720 L 7000,730 L 6989,738 L 6976,743 L 6963,746 L 6956,746 L 6943,745 L 6933,742 L 6069,1606 L 6069,2395 L 6068,2401 L 6067,2407 L 6065,2409 z " style="fill-opacity:1.000000;fill:rgb(73,220,173);stroke:rgb(0,0,0);stroke-width:2"/></g>
<g fill-rule="evenodd"><path d="M 5965,2409 L 5965,2474 L 5918,2474 L 5918,2409 L 5916,2407 L 5914,2401 L 5914,2395 L 5914,1494 L 5914,1489 L 5916,1484 L 5919,1479 L 5922,1475 L 6694,703 L 6690,690 L 6689,676 L 6691,663 L 6696,650 L 6703,638 L 6713,629 L 6724,621 L 6736,616 L 6749,613 L 6756,612 L 6770,614 L 6783,618 L 6794,624 L 6805,633 L 6813,644 L 6819,656 L 6822,669 L 6823,683 L 6821,696 L 6816,709 L 6809,720 L 6800,730 L 6789,738 L 6776,743 L 6763,746 L 6756,746 L 6743,745 L 6733,742 L 5969,1506 L 5969,2395 L 5968,2401 L 5967,2407 L 5965,2409 z " style="fill-opacity:1.000000;fill:rgb(79,20,242);stroke:rgb(0,0,0);stroke-width:2"/></g>
<g fill-rule="evenodd"><path d="M 5303,772 L 5328,782 L 5331,780 L 5333,779 L 5335,779 L 5337,779 L 5339,779 L 5341,780 L 5343,781 L 5344,783 L 5345,784 L 5346,786 L 5346,788 L 5346,790 L 5345,792 L 5345,794 L 5343,796 L 5195,944 L 5192,946 L 5181,948 L 5155,966 L 5138,991 L 5132,1023 L 5132,1295 L 5130,1298 L 5129,1300 L 5127,1301 L 5124,1304 L 5098,1343 L 5089,1390 L 5089,1455 L 5098,1501 L 5124,1539 L 5162,1565 L 5207,1574 L 5253,1565 L 5291,1539 L 5317,1501 L 5326,1455 L 5326,1405 L 5330,1385 L 5321,1339 L 5295,1301 L 5293,1298 L 5291,1295 L 5291,1075 L 5292,1073 L 5294,1070 L 5353,1011 L 5356,1008 L 5358,1008 L 5362,1008 L 5366,1009 L 5368,1012 L 5369,1014 L 5370,1018 L 5370,2126 L 5369,2130 L 5367,2133 L 5364,2135 L 5360,2136 L 5356,2135 L 5354,2134 L 5350,2130 L 5348,2128 L 5347,2125 L 5330,2099 L 4943,1712 L 4931,1696 L 4915,1684 L 4114,883 L 4113,881 L 4112,878 L 4112,539 L 4113,537 L 4115,534 L 4253,396 L 4255,395 L 4259,394 L 7472,394 L 7519,385 L 7557,359 L 7561,354 L 7564,352 L 7566,351 L 7699,351 L 7703,352 L 7706,354 L 7768,416 L 7794,433 L 7823,439 L 7859,439 L 7863,440 L 7866,442 L 7868,445 L 7869,447 L 7869,463 L 7875,491 L 7891,515 L 7934,559 L 7937,562 L 7937,566 L 7937,570 L 7936,571 L 7933,574 L 7929,576 L 7915,578 L 7881,602 L 7863,627 L 7860,630 L 7856,630 L 7852,630 L 7849,627 L 7832,602 L 7797,578 L 7756,570 L 7715,578 L 7681,602 L 7663,627 L 7660,630 L 7656,630 L 7652,630 L 7649,627 L 7632,602 L 7597,578 L 7556,570 L 7515,578 L 7481,602 L 7463,627 L 7460,630 L 7456,630 L 7452,630 L 7449,627 L 7432,602 L 7397,578 L 7356,570 L 7315,578 L 7281,602 L 7263,627 L 7260,630 L 7256,630 L 7252,630 L 7249,627 L 7232,602 L 7197,578 L 7156,570 L 7115,578 L 7081,602 L 7063,627 L 7060,630 L 7056,630 L 7052,630 L 7049,627 L 7032,602 L 6997,578 L 6956,570 L 6915,578 L 6881,602 L 6863,627 L 6860,630 L 6856,630 L 6852,630 L 6849,627 L 6832,602 L 6797,578 L 6756,570 L 6715,578 L 6681,602 L 6663,627 L 6660,630 L 6656,630 L 6652,630 L 6649,627 L 6632,602 L 6597,578 L 6556,570 L 6515,578 L 6481,602 L 6463,627 L 6460,630 L 6456,630 L 6452,630 L 6449,627 L 6432,602 L 6397,578 L 6356,570 L 6315,578 L 6281,602 L 6263,627 L 6260,630 L 6256,630 L 6252,630 L 6249,627 L 6232,602 L 6197,578 L 6156,570 L 6115,578 L 6081,602 L 6063,627 L 6060,630 L 6056,630 L 6052,630 L 6049,627 L 6032,602 L 5997,578 L 5956,570 L 5915,578 L 5881,602 L 5863,627 L 5860,630 L 5856,630 L 5852,630 L 5849,627 L 5832,602 L 5797,578 L 5756,570 L 5715,578 L 5681,602 L 5663,627 L 5660,630 L 5656,630 L 5652,630 L 5649,627 L 5632,602 L 5597,578 L 5556,570 L 5515,578 L 5481,602 L 5463,628 L 5460,630 L 5456,631 L 5454,631 L 5450,630 L 5448,627 L 5442,616 L 5411,588 L 5385,577 L 5376,581 L 5376,616 L 5383,618 L 5394,624 L 5405,633 L 5413,644 L 5419,656 L 5422,669 L 5423,683 L 5421,696 L 5416,709 L 5409,720 L 5400,730 L 5389,738 L 5376,743 L 5363,746 L 5356,746 L 5343,745 L 5333,742 L 5303,772M 5293,659 L 5296,650 L 5303,638 L 5313,629 L 5324,621 L 5336,616 L 5336,581 L 5328,577 L 5301,588 L 5270,616 L 5254,651 L 5258,659 L 5293,659M 5265,732 L 5294,703 L 5293,699 L 5258,699 L 5254,708 L 5265,732 z " style="fill-opacity:1.000000;fill:rgb(68,64,102);stroke:rgb(0,0,0);stroke-width:2"/></g>
<g fill-rule="evenodd"><path d="M 2077,3260 L 2077,3181 L 2061,3181 L 2061,3110 L 2077,3110 L 2077,3033 L 2061,3033 L 2061,2962 L 2155,2962 L 2155,3033 L 2140,3033 L 2140,3110 L 2155,3110 L 2155,3118 L 2248,3118 L 2248,3110 L 2342,3110 L 2342,3181 L 2248,3181 L 2248,3173 L 2155,3173 L 2155,3181 L 2140,3181 L 2140,3260 L 2144,3260 L 2144,3319 L 2108,3319 L 2102,3321 L 2096,3321 L 2089,3320 L 2087,3319 L 2050,3319 L 2050,3260 L 2077,3260 z " style="fill-opacity:1.000000;fill:rgb(208,107,196);stroke:rgb(0,0,0);stroke-width:2"/></g>
<g fill-rule="evenodd"><path d="M 2909,3840 L 2911,3846 L 2912,3859 L 2911,3873 L 2907,3887 L 2900,3899 L 2890,3909 L 2879,3917 L 2866,3923 L 2853,3926 L 2839,3926 L 2825,3923 L 2812,3917 L 2801,3909 L 2791,3899 L 2784,3887 L 2780,3873 L 2779,3859 L 2780,3846 L 2784,3832 L 2791,3820 L 2801,3810 L 2812,3801 L 2825,3796 L 2839,3793 L 2853,3793 L 2865,3796 L 2890,3770 L 2894,3767 L 2901,3763 L 2908,3761 L 2912,3761 L 4801,3761 L 5310,3252 L 5310,3136 L 5311,3129 L 5313,3123 L 5316,3117 L 5318,3115 L 5318,3057 L 5365,3057 L 5365,3115 L 5367,3117 L 5370,3123 L 5372,3129 L 5373,3136 L 5373,3265 L 5372,3272 L 5371,3278 L 5368,3283 L 5364,3288 L 4837,3815 L 4832,3819 L 4826,3822 L 4821,3823 L 4814,3824 L 2926,3824 L 2909,3840 z " style="fill-opacity:1.000000;fill:rgb(48,183,50);stroke:rgb(0,0,0);stroke-width:2"/></g>
<g fill-rule="evenodd"><path d="M 3846,2966 L 3850,2963 L 3855,2960 L 3860,2958 L 3866,2958 L 5514,2958 L 5519,2958 L 5525,2960 L 5529,2962 L 5534,2966 L 5561,2993 L 5564,2997 L 5567,3002 L 5568,3007 L 5569,3013 L 5569,3136 L 5568,3141 L 5567,3147 L 5565,3149 L 5565,3214 L 5518,3214 L 5518,3149 L 5516,3147 L 5514,3141 L 5514,3136 L 5514,3024 L 5503,3013 L 3877,3013 L 3873,3017 L 3870,3019 L 3722,3168 L 3717,3172 L 3712,3175 L 3706,3176 L 3700,3177 L 2515,3177 L 2515,3181 L 2421,3181 L 2421,3110 L 2515,3110 L 2515,3114 L 3686,3114 L 3825,2975 L 3830,2971 L 3836,2968 L 3843,2966 L 3846,2966 z " style="fill-opacity:1.000000;fill:rgb(59,161,34);stroke:rgb(0,0,0);stroke-width:2"/></g>
<g fill-rule="evenodd"><path d="M 959,2124 L 958,2128 L 949,2144 L 936,2157 L 922,2168 L 905,2175 L 888,2179 L 869,2179 L 852,2175 L 835,2168 L 821,2157 L 808,2144 L 799,2128 L 794,2111 L 792,2093 L 794,2075 L 799,2057 L 808,2042 L 821,2028 L 835,2018 L 852,2010 L 869,2007 L 888,2007 L 905,2010 L 922,2018 L 936,2028 L 949,2042 L 958,2057 L 959,2061 L 1325,2061 L 1453,1933 L 1458,1929 L 1464,1926 L 1469,1925 L 1476,1924 L 2008,1924 L 2008,1920 L 2027,1920 L 2027,1865 L 2028,1860 L 2030,1854 L 2032,1850 L 2035,1845 L 2109,1772 L 2113,1769 L 2118,1766 L 2123,1764 L 2128,1764 L 2882,1764 L 2887,1764 L 2892,1766 L 2897,1769 L 2901,1772 L 3992,2863 L 5553,2863 L 5559,2864 L 5564,2866 L 5569,2868 L 5573,2872 L 5661,2960 L 5664,2964 L 5667,2969 L 5668,2974 L 5669,2979 L 5669,3136 L 5668,3141 L 5667,3147 L 5665,3149 L 5665,3214 L 5618,3214 L 5618,3149 L 5616,3147 L 5614,3141 L 5614,3136 L 5614,2991 L 5542,2919 L 3981,2919 L 3975,2918 L 3970,2916 L 3966,2914 L 3962,2910 L 2870,1819 L 2140,1819 L 2083,1876 L 2083,1920 L 2102,1920 L 2102,1991 L 2098,1991 L 2098,2068 L 2114,2068 L 2114,2127 L 2077,2127 L 2070,2129 L 2063,2129 L 2056,2127 L 2020,2127 L 2020,2068 L 2035,2068 L 2035,1991 L 2008,1991 L 2008,1987 L 1489,1987 L 1361,2115 L 1356,2119 L 1350,2122 L 1345,2124 L 1338,2124 L 959,2124 z " style="fill-opacity:1.000000;fill:rgb(246,34,145);stroke:rgb(0,0,0);stroke-width:2"/></g>
<g fill-rule="evenodd"><path d="M 1984,1308 L 1984,1304 L 2078,1304 L 2078,1375 L 1984,1375 L 1984,1371 L 1921,1371 L 1915,1370 L 1909,1369 L 1903,1366 L 1898,1362 L 1774,1237 L 639,1237 L 633,1236 L 627,1235 L 622,1232 L 617,1228 L 463,1073 L 459,1069 L 456,1063 L 454,1057 L 453,1051 L 453,1014 L 449,1012 L 437,1004 L 427,993 L 420,980 L 415,966 L 414,951 L 415,936 L 420,922 L 427,909 L 437,898 L 448,891 L 448,807 L 440,807 L 440,713 L 511,713 L 511,807 L 503,807 L 503,883 L 507,884 L 520,890 L 532,898 L 542,909 L 550,922 L 554,936 L 556,951 L 554,966 L 550,980 L 542,993 L 532,1004 L 520,1012 L 516,1014 L 516,1038 L 652,1174 L 1787,1174 L 1792,1174 L 1800,1177 L 1805,1180 L 1809,1183 L 1934,1308 L 1984,1308 z " style="fill-opacity:1.000000;fill:rgb(157,225,139);stroke:rgb(0,0,0);stroke-width:2"/></g>
<g fill-rule="evenodd"><path d="M 2036,1458 L 2043,1456 L 2050,1456 L 2057,1458 L 2094,1458 L 2094,1517 L 2078,1517 L 2078,1557 L 2102,1557 L 2119,1550 L 2123,1549 L 2126,1550 L 2133,1555 L 2150,1558 L 2191,1558 L 2197,1559 L 2306,1559 L 2317,1557 L 2700,1557 L 2704,1558 L 2707,1560 L 2854,1707 L 2856,1710 L 2857,1712 L 2857,1714 L 2856,1718 L 2854,1721 L 2852,1722 L 2851,1723 L 2847,1724 L 2129,1724 L 2103,1729 L 2080,1744 L 2008,1817 L 1993,1839 L 1987,1866 L 1987,1876 L 1986,1880 L 1984,1881 L 1981,1883 L 1977,1884 L 1477,1884 L 1448,1890 L 1424,1906 L 1312,2018 L 1309,2020 L 1307,2021 L 988,2021 L 986,2020 L 983,2018 L 950,1985 L 904,1966 L 853,1966 L 807,1985 L 771,2021 L 752,2067 L 752,2118 L 771,2164 L 807,2200 L 852,2219 L 905,2219 L 950,2200 L 983,2167 L 986,2165 L 988,2164 L 1337,2164 L 1366,2159 L 1390,2143 L 1502,2030 L 1504,2029 L 1507,2027 L 1980,2027 L 1984,2028 L 1987,2030 L 1989,2033 L 1990,2037 L 1989,2041 L 1982,2052 L 1979,2069 L 1979,2126 L 1982,2142 L 1990,2155 L 2004,2165 L 2021,2168 L 2062,2168 L 2067,2169 L 2072,2168 L 2113,2168 L 2129,2165 L 2137,2160 L 2141,2159 L 2145,2160 L 2161,2167 L 2185,2167 L 2185,2127 L 2169,2127 L 2169,2068 L 2206,2068 L 2213,2066 L 2220,2066 L 2227,2068 L 2264,2068 L 2264,2078 L 2297,2078 L 2304,2071 L 2304,2060 L 2298,2045 L 2295,2043 L 2294,2041 L 2294,2039 L 2294,2035 L 2295,2031 L 2298,2029 L 2300,2028 L 2303,2027 L 2307,2027 L 2309,2028 L 2312,2030 L 2373,2091 L 2375,2095 L 2376,2098 L 2376,2208 L 2375,2212 L 2373,2215 L 2177,2411 L 2174,2413 L 2170,2414 L 1604,2414 L 1603,2413 L 1599,2411 L 1558,2370 L 1525,2348 L 1487,2340 L 281,2340 L 278,2340 L 274,2338 L 208,2271 L 206,2268 L 205,2264 L 205,2019 L 206,2015 L 207,2013 L 209,2010 L 213,2009 L 259,2009 L 297,2001 L 330,1979 L 563,1746 L 585,1713 L 593,1675 L 593,1433 L 585,1394 L 563,1361 L 424,1222 L 391,1200 L 353,1192 L 293,1192 L 289,1192 L 286,1190 L 208,1111 L 205,1108 L 205,1106 L 205,803 L 205,799 L 208,796 L 296,707 L 300,705 L 302,704 L 317,701 L 356,675 L 362,669 L 365,667 L 388,662 L 410,663 L 413,664 L 416,667 L 418,669 L 419,671 L 419,673 L 419,676 L 418,679 L 415,681 L 412,684 L 403,697 L 399,714 L 399,806 L 402,822 L 407,829 L 408,832 L 408,869 L 407,871 L 405,874 L 391,888 L 374,929 L 374,973 L 391,1014 L 410,1033 L 413,1037 L 413,1040 L 413,1050 L 419,1079 L 435,1102 L 588,1255 L 612,1271 L 640,1277 L 1755,1277 L 1757,1278 L 1760,1280 L 1869,1389 L 1893,1405 L 1922,1411 L 1965,1411 L 1969,1413 L 1972,1415 L 1973,1417 L 1975,1420 L 1975,1424 L 1974,1426 L 1972,1429 L 1966,1435 L 1960,1450 L 1960,1461 L 1966,1468 L 2000,1468 L 2000,1458 L 2036,1458M 1022,1670 L 1081,1709 L 1151,1723 L 1157,1723 L 1227,1709 L 1286,1670 L 1326,1611 L 1339,1542 L 1326,1472 L 1286,1413 L 1227,1374 L 1157,1360 L 1151,1360 L 1081,1374 L 1022,1413 L 983,1472 L 969,1542 L 983,1611 L 1022,1670M 530,2019 L 555,1994 L 551,1982 L 506,1965 L 455,1967 L 419,1982 L 414,1994 L 440,2019 L 442,2018 L 458,2010 L 476,2007 L 494,2007 L 512,2010 L 528,2018 L 530,2019M 411,2048 L 386,2022 L 374,2027 L 357,2072 L 359,2122 L 374,2159 L 386,2163 L 411,2138 L 406,2128 L 400,2111 L 398,2093 L 400,2075 L 406,2057 L 411,2048M 523,2170 L 512,2175 L 494,2179 L 476,2179 L 458,2175 L 442,2168 L 440,2166 L 414,2192 L 419,2203 L 464,2220 L 514,2218 L 551,2203 L 552,2199 L 523,2170M 591,2160 L 595,2159 L 612,2114 L 611,2063 L 595,2027 L 584,2022 L 558,2048 L 564,2057 L 570,2075 L 571,2093 L 570,2111 L 564,2128 L 562,2131 L 591,2160M 2015,1557 L 2015,1517 L 2000,1517 L 2000,1508 L 1966,1508 L 1960,1514 L 1960,1525 L 1966,1540 L 1977,1551 L 1992,1557 L 2015,1557M 2248,2127 L 2248,2167 L 2272,2167 L 2286,2161 L 2298,2150 L 2304,2135 L 2304,2124 L 2297,2118 L 2264,2118 L 2264,2127 L 2248,2127 z " style="fill-opacity:1.000000;fill:rgb(31,218,176);stroke:rgb(0,0,0);stroke-width:2"/></g>
<g fill-rule="evenodd"><path d="M 1974,826 L 1974,822 L 2068,822 L 2068,893 L 1974,893 L 1974,889 L 985,889 L 945,929 L 948,936 L 949,951 L 948,966 L 943,980 L 936,993 L 926,1004 L 914,1012 L 900,1018 L 886,1021 L 871,1021 L 857,1018 L 843,1012 L 831,1004 L 821,993 L 814,980 L 809,966 L 808,951 L 809,936 L 814,922 L 821,909 L 831,898 L 843,890 L 848,887 L 848,807 L 840,807 L 840,713 L 911,713 L 911,751 L 986,826 L 1974,826M 903,882 L 928,857 L 903,832 L 903,882 z " style="fill-opacity:1.000000;fill:rgb(202,153,2);stroke:rgb(0,0,0);stroke-width:2"/></g>
<g fill-rule="evenodd"><path d="M 2173,1458 L 2173,1375 L 2157,1375 L 2157,1304 L 2251,1304 L 2251,1375 L 2236,1375 L 2236,1456 L 2298,1456 L 2304,1454 L 2309,1454 L 2734,1454 L 2740,1455 L 2746,1456 L 2751,1459 L 2756,1463 L 4034,2741 L 4251,2741 L 4256,2741 L 4263,2743 L 4269,2746 L 4274,2750 L 4283,2760 L 4316,2760 L 4322,2761 L 4328,2763 L 4330,2764 L 5587,2764 L 5593,2764 L 5598,2766 L 5603,2769 L 5607,2772 L 5761,2926 L 5764,2930 L 5767,2935 L 5768,2940 L 5769,2945 L 5769,3136 L 5768,3141 L 5767,3147 L 5765,3149 L 5765,3214 L 5718,3214 L 5718,3149 L 5716,3147 L 5714,3141 L 5714,3136 L 5714,2957 L 5576,2819 L 4330,2819 L 4328,2820 L 4322,2822 L 4316,2823 L 4270,2823 L 4264,2822 L 4258,2821 L 4253,2818 L 4248,2814 L 4238,2804 L 4021,2804 L 4014,2803 L 4008,2801 L 4002,2798 L 3998,2795 L 2721,1517 L 2317,1517 L 2313,1518 L 2307,1519 L 2196,1519 L 2190,1518 L 2186,1517 L 2149,1517 L 2149,1458 L 2173,1458 z " style="fill-opacity:1.000000;fill:rgb(185,114,157);stroke:rgb(0,0,0);stroke-width:2"/></g>
<g fill-rule="evenodd"><path d="M 2241,889 L 2241,893 L 2147,893 L 2147,822 L 2241,822 L 2241,826 L 2387,826 L 2393,827 L 2397,828 L 2434,828 L 2434,887 L 2418,887 L 2418,937 L 4120,2639 L 4294,2639 L 4300,2639 L 4307,2641 L 4312,2645 L 4316,2648 L 4320,2652 L 5619,2652 L 5625,2653 L 5631,2654 L 5636,2657 L 5641,2661 L 5864,2884 L 5868,2889 L 5871,2894 L 5872,2900 L 5873,2906 L 5873,3136 L 5872,3142 L 5870,3148 L 5867,3154 L 5865,3156 L 5865,3214 L 5818,3214 L 5818,3156 L 5816,3154 L 5813,3148 L 5811,3142 L 5810,3136 L 5810,2919 L 5606,2715 L 4307,2715 L 4301,2714 L 4295,2713 L 4290,2710 L 4285,2706 L 4281,2702 L 4107,2702 L 4101,2701 L 4095,2699 L 4089,2696 L 4085,2692 L 2365,972 L 2361,968 L 2358,962 L 2356,956 L 2355,950 L 2355,889 L 2241,889 z " style="fill-opacity:1.000000;fill:rgb(73,44,128);stroke:rgb(0,0,0);stroke-width:2"/></g>
<g fill-rule="evenodd"><path d="M 6418,3166 L 6277,3307 L 6273,3310 L 6268,3313 L 6263,3314 L 6257,3315 L 6183,3315 L 6178,3314 L 6173,3313 L 6168,3310 L 6164,3307 L 6122,3265 L 6119,3261 L 6116,3256 L 6114,3251 L 6114,3245 L 6114,3136 L 6114,3130 L 6116,3124 L 6118,3122 L 6118,3057 L 6165,3057 L 6165,3122 L 6167,3124 L 6168,3130 L 6169,3136 L 6169,3234 L 6195,3260 L 6246,3260 L 6379,3127 L 6380,3124 L 6383,3118 L 6387,3113 L 7325,2176 L 7325,2170 L 7327,2164 L 7329,2162 L 7329,740 L 7318,734 L 7308,725 L 7299,715 L 7293,703 L 7290,690 L 7289,676 L 7291,663 L 7296,650 L 7303,638 L 7313,629 L 7324,621 L 7336,616 L 7349,613 L 7356,612 L 7370,614 L 7383,618 L 7394,624 L 7405,633 L 7413,644 L 7419,656 L 7422,669 L 7423,683 L 7421,696 L 7416,709 L 7409,720 L 7400,730 L 7389,738 L 7384,740 L 7384,2162 L 7385,2164 L 7387,2170 L 7388,2177 L 7388,2189 L 7387,2195 L 7385,2201 L 7382,2206 L 7378,2211 L 6432,3158 L 6426,3162 L 6421,3165 L 6418,3166 z " style="fill-opacity:1.000000;fill:rgb(126,197,153);stroke:rgb(0,0,0);stroke-width:2"/></g>
<g fill-rule="evenodd"><path d="M 6020,3464 L 5925,3368 L 5922,3365 L 5920,3360 L 5918,3356 L 5918,3351 L 5918,3057 L 5965,3057 L 5965,3342 L 6054,3430 L 6056,3430 L 6063,3432 L 6069,3435 L 6074,3439 L 6091,3457 L 6448,3457 L 7725,2180 L 7725,738 L 7718,734 L 7708,725 L 7699,715 L 7693,703 L 7690,690 L 7689,676 L 7691,663 L 7696,650 L 7703,638 L 7713,629 L 7724,621 L 7736,616 L 7749,613 L 7756,612 L 7770,614 L 7782,618 L 7794,624 L 7805,633 L 7813,644 L 7819,656 L 7822,669 L 7823,683 L 7821,696 L 7816,709 L 7809,720 L 7800,730 L 7789,738 L 7788,738 L 7788,2193 L 7787,2199 L 7785,2205 L 7782,2210 L 7778,2215 L 6483,3511 L 6478,3514 L 6473,3517 L 6467,3519 L 6461,3520 L 6078,3520 L 6072,3519 L 6066,3517 L 6061,3514 L 6056,3511 L 6029,3484 L 6025,3479 L 6022,3473 L 6020,3466 L 6020,3464 z " style="fill-opacity:1.000000;fill:rgb(213,233,128);stroke:rgb(0,0,0);stroke-width:2"/></g>
<g fill-rule="evenodd"><path d="M 6018,3112 L 6018,3057 L 6065,3057 L 6065,3118 L 6068,3123 L 6070,3129 L 6071,3136 L 6071,3269 L 6156,3354 L 6327,3354 L 7525,2157 L 7525,738 L 7518,734 L 7508,725 L 7499,715 L 7493,703 L 7490,690 L 7489,676 L 7491,663 L 7496,650 L 7503,638 L 7513,629 L 7524,621 L 7536,616 L 7549,613 L 7556,612 L 7570,614 L 7583,618 L 7594,624 L 7605,633 L 7613,644 L 7619,656 L 7622,669 L 7623,683 L 7621,696 L 7616,709 L 7609,720 L 7600,730 L 7589,738 L 7588,738 L 7588,2170 L 7587,2176 L 7585,2182 L 7582,2187 L 7578,2192 L 6362,3408 L 6358,3412 L 6352,3415 L 6346,3417 L 6340,3417 L 6143,3417 L 6137,3417 L 6131,3415 L 6125,3412 L 6120,3408 L 6017,3305 L 6013,3300 L 6010,3294 L 6008,3288 L 6008,3282 L 6008,3136 L 6008,3129 L 6010,3123 L 6014,3117 L 6018,3112 z " style="fill-opacity:1.000000;fill:rgb(178,234,201);stroke:rgb(0,0,0);stroke-width:2"/></g>
<g fill-rule="evenodd"><path d="M 5665,2420 L 5665,2474 L 5618,2474 L 5618,2409 L 5615,2402 L 5615,2395 L 5615,1185 L 5615,1179 L 5617,1173 L 5620,1167 L 5624,1163 L 6062,724 L 6068,720 L 6072,718 L 6074,717 L 6092,699 L 6090,690 L 6089,676 L 6091,663 L 6096,650 L 6103,638 L 6113,629 L 6124,621 L 6136,616 L 6149,613 L 6156,612 L 6170,614 L 6183,618 L 6194,624 L 6205,633 L 6213,644 L 6219,656 L 6222,669 L 6223,683 L 6221,696 L 6216,709 L 6209,720 L 6200,730 L 6189,738 L 6176,743 L 6163,746 L 6156,746 L 6143,745 L 6137,743 L 6112,769 L 6107,772 L 6101,775 L 6100,776 L 5678,1198 L 5678,2395 L 5677,2402 L 5675,2408 L 5672,2414 L 5667,2419 L 5665,2420 z " style="fill-opacity:1.000000;fill:rgb(204,83,191);stroke:rgb(0,0,0);stroke-width:2"/></g>
<g fill-rule="evenodd"><path d="M 5565,2419 L 5565,2474 L 5518,2474 L 5518,2413 L 5515,2408 L 5513,2402 L 5512,2395 L 5512,1089 L 5513,1083 L 5515,1077 L 5518,1072 L 5522,1067 L 5864,724 L 5868,721 L 5873,718 L 5892,699 L 5890,690 L 5889,676 L 5891,663 L 5896,650 L 5903,638 L 5913,629 L 5924,621 L 5936,616 L 5949,613 L 5956,612 L 5970,614 L 5983,618 L 5994,624 L 6005,633 L 6013,644 L 6019,656 L 6022,669 L 6023,683 L 6021,696 L 6016,709 L 6009,720 L 6000,730 L 5989,738 L 5976,743 L 5963,746 L 5956,746 L 5943,745 L 5937,743 L 5912,769 L 5907,772 L 5903,774 L 5575,1102 L 5575,2395 L 5575,2402 L 5573,2408 L 5569,2414 L 5565,2419 z " style="fill-opacity:1.000000;fill:rgb(103,214,191);stroke:rgb(0,0,0);stroke-width:2"/></g>
<g fill-rule="evenodd"><path d="M 5465,2416 L 5465,2474 L 5418,2474 L 5418,2416 L 5416,2414 L 5413,2408 L 5411,2402 L 5410,2395 L 5410,1002 L 5411,996 L 5412,990 L 5415,985 L 5419,980 L 5658,741 L 5660,734 L 5663,729 L 5667,724 L 5692,699 L 5690,690 L 5689,676 L 5691,663 L 5696,650 L 5703,638 L 5713,629 L 5724,621 L 5736,616 L 5749,613 L 5756,612 L 5770,614 L 5783,618 L 5794,624 L 5805,633 L 5813,644 L 5819,656 L 5822,669 L 5823,683 L 5821,696 L 5816,709 L 5809,720 L 5800,730 L 5789,738 L 5776,743 L 5763,746 L 5756,746 L 5743,745 L 5737,743 L 5720,760 L 5718,767 L 5715,772 L 5712,777 L 5473,1015 L 5473,2395 L 5472,2402 L 5470,2408 L 5467,2414 L 5465,2416 z " style="fill-opacity:1.000000;fill:rgb(20,214,126);stroke:rgb(0,0,0);stroke-width:2"/></g>
<g fill-rule="evenodd"><path d="M 6121,950 L 5772,1300 L 5772,2395 L 5772,2401 L 5770,2407 L 5767,2412 L 5765,2414 L 5765,2474 L 5718,2474 L 5718,2402 L 5717,2395 L 5717,1288 L 5718,1283 L 5719,1278 L 5722,1273 L 5725,1269 L 6083,911 L 6086,904 L 6090,898 L 6095,894 L 6100,891 L 6292,699 L 6290,690 L 6289,676 L 6291,663 L 6296,650 L 6303,638 L 6313,629 L 6324,621 L 6336,616 L 6349,613 L 6356,612 L 6370,614 L 6383,618 L 6394,624 L 6405,633 L 6413,644 L 6419,656 L 6422,669 L 6423,683 L 6421,696 L 6416,709 L 6409,720 L 6400,730 L 6389,738 L 6376,743 L 6363,746 L 6356,746 L 6343,745 L 6337,743 L 6138,942 L 6134,946 L 6128,949 L 6121,950 z " style="fill-opacity:1.000000;fill:rgb(45,220,142);stroke:rgb(0,0,0);stroke-width:2"/></g>
<g fill-rule="evenodd"><path d="M 874,3948 L 968,3948 L 968,4019 L 752,4019 L 745,4018 L 738,4016 L 732,4013 L 727,4008 L 555,3836 L 550,3831 L 547,3825 L 545,3818 L 544,3811 L 544,3740 L 505,3740 L 505,3590 L 655,3590 L 655,3740 L 615,3740 L 615,3797 L 766,3948 L 874,3948 z " style="fill-opacity:1.000000;fill:rgb(102,131,239);stroke:rgb(0,0,0);stroke-width:2"/></g>
<g fill-rule="evenodd"><path d="M 2010,4116 L 2001,4109 L 1991,4099 L 1984,4087 L 1980,4073 L 1979,4059 L 1980,4046 L 1984,4032 L 1991,4020 L 2001,4010 L 2012,4001 L 2025,3996 L 2039,3993 L 2053,3993 L 2066,3996 L 2079,4001 L 2090,4010 L 2100,4020 L 2107,4032 L 2111,4046 L 2113,4059 L 2111,4073 L 2107,4087 L 2100,4099 L 2090,4109 L 2081,4116 L 2081,4139 L 2141,4200 L 4671,4200 L 4678,4200 L 4684,4202 L 4690,4206 L 4696,4210 L 4792,4306 L 4836,4306 L 4836,4377 L 4742,4377 L 4742,4356 L 4656,4271 L 2127,4271 L 2120,4270 L 2113,4268 L 2107,4265 L 2102,4260 L 2021,4179 L 2016,4174 L 2013,4168 L 2011,4161 L 2010,4154 L 2010,4116 z " style="fill-opacity:1.000000;fill:rgb(87,73,97);stroke:rgb(0,0,0);stroke-width:2"/></g>
<g fill-rule="evenodd"><path d="M 1062,3103 L 1062,3104 L 1052,3120 L 1040,3134 L 1025,3145 L 1007,3153 L 989,3157 L 970,3157 L 952,3153 L 935,3145 L 919,3134 L 907,3120 L 897,3104 L 892,3086 L 890,3067 L 892,3049 L 897,3031 L 907,3015 L 919,3001 L 935,2990 L 952,2982 L 970,2978 L 989,2978 L 1007,2982 L 1025,2990 L 1040,3001 L 1052,3015 L 1062,3031 L 1062,3032 L 1696,3032 L 1702,3030 L 1709,3030 L 1717,3031 L 1724,3034 L 1730,3038 L 1735,3043 L 1739,3049 L 1742,3056 L 1743,3062 L 1773,3092 L 1909,3092 L 1914,3092 L 1920,3094 L 1924,3097 L 1928,3100 L 1939,3110 L 1982,3110 L 1982,3181 L 1888,3181 L 1888,3147 L 1762,3147 L 1756,3146 L 1751,3145 L 1746,3142 L 1742,3139 L 1706,3103 L 1062,3103 z " style="fill-opacity:1.000000;fill:rgb(255,105,143);stroke:rgb(0,0,0);stroke-width:2"/></g>
<g fill-rule="evenodd"><path d="M 0,709 L 0,9 L 0,6 L 3,2 L 6,0 L 10,0 L 8309,0 L 8313,0 L 8314,1 L 8317,4 L 8318,6 L 8319,8 L 8319,11 L 8317,15 L 8316,17 L 8313,19 L 8264,39 L 8211,92 L 8182,162 L 8182,237 L 8211,307 L 8264,360 L 8333,389 L 8409,389 L 8479,360 L 8532,307 L 8552,258 L 8554,255 L 8558,253 L 8561,252 L 8565,253 L 8568,255 L 8571,258 L 8571,262 L 8571,4359 L 8571,4362 L 8568,4366 L 8565,4368 L 8561,4369 L 8558,4368 L 8554,4366 L 8552,4362 L 8542,4338 L 8489,4285 L 8419,4256 L 8344,4256 L 8274,4285 L 8221,4338 L 8192,4408 L 8192,4483 L 8221,4553 L 8274,4606 L 8286,4611 L 8288,4614 L 8290,4618 L 8290,4620 L 8290,4621 L 8288,4625 L 8286,4628 L 8284,4629 L 8280,4629 L 4298,4629 L 4294,4629 L 4292,4628 L 4291,4627 L 4289,4623 L 4288,4620 L 4288,4618 L 4289,4616 L 4291,4612 L 4326,4589 L 4401,4514 L 4427,4475 L 4436,4429 L 4427,4384 L 4401,4346 L 4376,4329 L 4374,4326 L 4372,4323 L 4372,4321 L 4373,4317 L 4375,4313 L 4376,4312 L 4380,4311 L 4637,4311 L 4639,4311 L 4642,4313 L 4699,4370 L 4700,4374 L 4704,4392 L 4712,4405 L 4726,4414 L 4743,4418 L 4835,4418 L 4851,4415 L 4865,4406 L 4867,4402 L 4870,4400 L 4874,4398 L 4876,4398 L 4877,4398 L 4881,4400 L 4883,4401 L 4886,4405 L 4899,4414 L 4916,4418 L 5008,4418 L 5015,4417 L 5079,4417 L 5109,4411 L 5134,4394 L 5203,4325 L 5205,4324 L 5209,4324 L 5215,4325 L 5261,4316 L 5299,4290 L 5325,4252 L 5334,4205 L 5334,4032 L 5325,3986 L 5299,3947 L 5259,3920 L 5213,3911 L 5168,3920 L 5130,3946 L 5104,3984 L 5095,4029 L 5097,4039 L 5097,4205 L 5098,4213 L 5097,4217 L 5096,4218 L 5052,4263 L 5049,4265 L 5045,4266 L 5014,4266 L 5008,4265 L 4916,4265 L 4900,4268 L 4886,4277 L 4883,4282 L 4881,4283 L 4877,4285 L 4873,4285 L 4870,4283 L 4868,4282 L 4865,4278 L 4852,4268 L 4835,4265 L 4811,4265 L 4808,4264 L 4806,4263 L 4725,4182 L 4700,4166 L 4670,4160 L 3588,4160 L 3584,4159 L 3582,4158 L 3581,4157 L 3579,4154 L 3578,4150 L 3578,4148 L 3579,4144 L 3582,4141 L 3598,4131 L 3629,4100 L 3655,4061 L 3657,4049 L 3659,4045 L 3662,4042 L 3663,4042 L 3667,4041 L 4784,4041 L 4815,4035 L 4841,4017 L 4858,3992 L 4860,3983 L 4862,3980 L 5489,3353 L 5504,3330 L 5509,3304 L 5509,3263 L 5510,3261 L 5512,3258 L 5515,3256 L 5517,3255 L 5564,3255 L 5580,3252 L 5588,3247 L 5592,3247 L 5595,3248 L 5602,3252 L 5619,3255 L 5664,3255 L 5680,3252 L 5688,3247 L 5692,3247 L 5695,3248 L 5702,3252 L 5719,3255 L 5764,3255 L 5780,3252 L 5788,3247 L 5792,3247 L 5795,3248 L 5802,3252 L 5819,3255 L 5864,3255 L 5868,3255 L 5870,3255 L 5873,3256 L 5876,3259 L 5877,3261 L 5878,3265 L 5878,3350 L 5883,3376 L 5897,3397 L 5983,3483 L 5985,3486 L 5986,3489 L 6002,3513 L 6027,3538 L 6051,3554 L 6079,3560 L 6460,3560 L 6488,3554 L 6512,3538 L 7806,2244 L 7822,2220 L 7828,2192 L 7828,765 L 7828,761 L 7829,760 L 7831,757 L 7849,731 L 7852,729 L 7854,729 L 7858,729 L 7862,730 L 7864,733 L 7881,757 L 7915,780 L 7956,788 L 7997,780 L 8032,757 L 8049,731 L 8052,729 L 8056,728 L 8060,729 L 8063,731 L 8081,757 L 8115,780 L 8156,788 L 8197,780 L 8232,757 L 8234,754 L 8236,753 L 8237,752 L 8241,751 L 8245,752 L 8248,754 L 8250,757 L 8255,769 L 8266,780 L 8281,786 L 8321,786 L 8321,746 L 8289,746 L 8289,657 L 8240,608 L 8237,607 L 8236,606 L 8234,605 L 8232,602 L 8197,578 L 8156,570 L 8153,571 L 8151,571 L 8147,569 L 8028,450 L 8026,447 L 8025,443 L 8026,439 L 8028,436 L 8031,434 L 8035,433 L 8064,433 L 8065,432 L 8061,425 L 8059,420 L 8059,413 L 8059,393 L 8043,393 L 8043,334 L 8070,334 L 8070,301 L 8064,294 L 8035,294 L 8018,301 L 8014,302 L 8011,301 L 8004,296 L 7987,293 L 7963,293 L 7940,288 L 7856,288 L 7854,287 L 7851,285 L 7788,223 L 7763,206 L 7733,200 L 7566,200 L 7564,199 L 7561,197 L 7557,192 L 7519,166 L 7472,157 L 589,157 L 542,166 L 503,192 L 442,253 L 439,255 L 435,256 L 433,256 L 430,254 L 427,251 L 425,248 L 425,186 L 396,116 L 343,63 L 274,34 L 198,34 L 128,63 L 75,116 L 46,186 L 46,261 L 75,331 L 128,384 L 198,413 L 260,413 L 262,414 L 265,416 L 267,419 L 268,423 L 267,427 L 265,430 L 188,507 L 162,546 L 159,562 L 158,564 L 156,567 L 36,687 L 17,716 L 13,718 L 10,719 L 6,718 L 3,716 L 0,713 L 0,709M 5717,4472 L 8474,4182 L 8394,3418 L 5637,3708 L 5717,4472M 8376,612 L 8423,612 L 8423,659 L 8456,659 L 8463,653 L 8463,605 L 8457,590 L 8446,579 L 8431,572 L 8383,572 L 8376,579 L 8376,612M 8137,344 L 8171,344 L 8177,337 L 8177,326 L 8171,311 L 8160,300 L 8145,294 L 8117,294 L 8110,301 L 8110,334 L 8137,334 L 8137,344M 8334,612 L 8336,612 L 8336,579 L 8329,572 L 8294,572 L 8334,612M 8152,430 L 8160,427 L 8171,416 L 8177,401 L 8177,390 L 8171,384 L 8137,384 L 8137,393 L 8122,393 L 8122,400 L 8152,430M 8392,786 L 8431,786 L 8446,780 L 8457,769 L 8463,754 L 8463,706 L 8456,699 L 8423,699 L 8423,746 L 8392,746 L 8392,786 z " style="fill-opacity:1.000000;fill:rgb(97,205,209);stroke:rgb(0,0,0);stroke-width:2"/></g>
<g fill-rule="evenodd"><path d="M 1923,3259 L 1928,3255 L 1935,3252 L 1943,3250 L 1952,3250 L 1960,3252 L 1967,3255 L 1974,3260 L 1995,3260 L 1995,3319 L 1987,3319 L 1987,3359 L 2003,3359 L 2019,3352 L 2023,3351 L 2027,3352 L 2034,3357 L 2051,3360 L 2092,3360 L 2097,3361 L 2102,3360 L 2144,3360 L 2159,3357 L 2173,3348 L 2182,3335 L 2185,3318 L 2185,3261 L 2182,3245 L 2180,3242 L 2180,3240 L 2180,3223 L 2180,3219 L 2183,3216 L 2186,3214 L 2188,3213 L 2223,3213 L 2226,3215 L 2232,3218 L 2249,3222 L 2341,3222 L 2357,3219 L 2371,3210 L 2373,3206 L 2376,3204 L 2380,3202 L 2382,3202 L 2384,3202 L 2387,3204 L 2389,3205 L 2392,3209 L 2405,3218 L 2422,3222 L 2515,3222 L 2530,3219 L 2532,3218 L 2536,3217 L 3699,3217 L 3727,3211 L 3751,3195 L 3890,3056 L 3892,3055 L 3895,3053 L 4768,3053 L 4772,3054 L 4775,3056 L 4777,3059 L 4778,3061 L 4778,3109 L 4784,3116 L 4818,3116 L 4818,3057 L 4865,3057 L 4865,3108 L 4918,3108 L 4918,3057 L 4965,3057 L 4965,3108 L 5018,3108 L 5018,3057 L 5065,3057 L 5065,3121 L 5068,3127 L 5069,3133 L 5069,3138 L 5068,3144 L 5065,3150 L 5065,3214 L 5018,3214 L 5018,3163 L 4969,3163 L 4969,3254 L 4973,3254 L 4988,3248 L 4991,3247 L 4995,3248 L 5010,3254 L 5015,3254 L 5026,3243 L 5030,3242 L 5033,3242 L 5037,3243 L 5040,3246 L 5041,3250 L 5041,3255 L 5044,3257 L 5046,3260 L 5047,3262 L 5047,3266 L 5045,3270 L 4931,3384 L 4928,3386 L 4919,3388 L 4893,3406 L 4805,3493 L 4803,3494 L 4800,3495 L 4788,3495 L 4756,3501 L 4753,3503 L 4751,3504 L 4747,3504 L 4740,3503 L 4694,3512 L 4656,3538 L 4630,3576 L 4621,3621 L 4630,3667 L 4657,3707 L 4657,3711 L 4657,3715 L 4655,3718 L 4651,3720 L 4647,3721 L 2913,3721 L 2908,3722 L 2906,3722 L 2903,3720 L 2900,3717 L 2899,3714 L 2899,3710 L 2900,3706 L 2901,3705 L 2952,3654 L 2963,3647 L 2965,3646 L 2968,3645 L 4267,3645 L 4271,3646 L 4272,3647 L 4275,3649 L 4278,3653 L 4316,3679 L 4362,3688 L 4423,3688 L 4469,3679 L 4507,3653 L 4533,3615 L 4542,3569 L 4533,3524 L 4507,3486 L 4469,3460 L 4442,3455 L 4439,3453 L 4436,3450 L 4434,3447 L 4434,3443 L 4436,3439 L 4447,3428 L 4449,3427 L 4453,3426 L 4457,3427 L 4466,3433 L 4512,3442 L 4545,3442 L 4591,3433 L 4629,3407 L 4655,3369 L 4664,3323 L 4655,3278 L 4629,3240 L 4591,3214 L 4545,3205 L 4512,3205 L 4466,3214 L 4428,3240 L 4420,3252 L 4391,3271 L 4330,3331 L 4327,3333 L 4323,3334 L 2817,3334 L 2787,3340 L 2762,3357 L 2689,3429 L 2677,3447 L 2463,3661 L 2447,3685 L 2441,3713 L 2441,3744 L 2439,3748 L 2438,3750 L 2437,3751 L 2433,3752 L 2424,3752 L 2385,3769 L 2355,3799 L 2353,3802 L 2351,3805 L 2347,3807 L 2344,3807 L 2331,3803 L 2305,3829 L 2307,3832 L 2311,3846 L 2313,3859 L 2311,3873 L 2307,3887 L 2305,3890 L 2331,3916 L 2344,3912 L 2347,3912 L 2351,3914 L 2353,3917 L 2355,3920 L 2385,3950 L 2387,3951 L 2389,3952 L 2391,3956 L 2391,3957 L 2391,3961 L 2390,3965 L 2389,3966 L 2387,3968 L 2385,3969 L 2355,3999 L 2353,4002 L 2351,4005 L 2347,4007 L 2344,4007 L 2331,4003 L 2305,4029 L 2307,4032 L 2311,4046 L 2313,4059 L 2311,4073 L 2307,4087 L 2305,4090 L 2331,4116 L 2344,4112 L 2347,4112 L 2351,4114 L 2352,4115 L 2353,4117 L 2355,4120 L 2378,4143 L 2380,4146 L 2380,4150 L 2380,4154 L 2378,4157 L 2374,4159 L 2370,4160 L 2311,4160 L 2309,4159 L 2307,4159 L 2305,4158 L 2304,4156 L 2302,4155 L 2302,4153 L 2301,4151 L 2301,4149 L 2302,4144 L 2276,4119 L 2266,4123 L 2253,4126 L 2239,4126 L 2225,4123 L 2215,4119 L 2189,4144 L 2190,4149 L 2190,4151 L 2190,4153 L 2189,4155 L 2188,4156 L 2186,4158 L 2184,4159 L 2182,4159 L 2180,4160 L 2162,4160 L 2158,4159 L 2155,4157 L 2133,4135 L 2132,4131 L 2132,4127 L 2133,4123 L 2136,4120 L 2138,4117 L 2139,4115 L 2142,4113 L 2146,4112 L 2147,4112 L 2161,4116 L 2187,4090 L 2184,4087 L 2180,4073 L 2179,4059 L 2180,4046 L 2184,4032 L 2187,4029 L 2161,4003 L 2147,4007 L 2144,4007 L 2140,4005 L 2138,4002 L 2136,3999 L 2118,3980 L 2116,3977 L 2116,3975 L 2116,3973 L 2118,3969 L 2121,3966 L 2123,3965 L 2127,3964 L 2141,3956 L 2150,3942 L 2153,3925 L 2155,3922 L 2156,3921 L 2187,3890 L 2184,3887 L 2180,3873 L 2179,3859 L 2180,3846 L 2184,3832 L 2187,3829 L 2156,3798 L 2154,3795 L 2153,3793 L 2151,3778 L 2142,3764 L 2128,3755 L 2112,3752 L 2094,3751 L 2091,3750 L 2045,3741 L 1907,3741 L 1861,3750 L 1822,3776 L 1263,4335 L 1261,4336 L 1257,4337 L 859,4337 L 855,4336 L 852,4334 L 404,3886 L 365,3860 L 319,3851 L 233,3851 L 229,3849 L 228,3848 L 225,3845 L 225,3841 L 225,3513 L 215,3466 L 207,3453 L 205,3450 L 205,3365 L 207,3362 L 209,3359 L 211,3358 L 215,3357 L 219,3358 L 258,3374 L 301,3374 L 340,3358 L 370,3328 L 387,3289 L 387,3246 L 370,3207 L 340,3177 L 301,3160 L 258,3160 L 219,3177 L 215,3178 L 211,3177 L 208,3175 L 207,3173 L 205,3170 L 205,2604 L 206,2600 L 208,2597 L 263,2541 L 266,2539 L 270,2539 L 1425,2539 L 1428,2539 L 1432,2541 L 1433,2543 L 1434,2545 L 1435,2549 L 1435,2829 L 1442,2867 L 1464,2900 L 1532,2968 L 1542,2975 L 1543,2976 L 1545,2980 L 1545,2984 L 1543,2988 L 1542,2989 L 1539,2991 L 1535,2992 L 1092,2992 L 1088,2991 L 1085,2989 L 1053,2957 L 1006,2937 L 954,2937 L 906,2957 L 869,2994 L 850,3042 L 850,3093 L 869,3141 L 906,3178 L 954,3197 L 980,3198 L 983,3199 L 986,3202 L 988,3206 L 988,3207 L 987,3211 L 973,3246 L 973,3289 L 989,3328 L 1019,3358 L 1058,3374 L 1101,3374 L 1140,3358 L 1170,3328 L 1187,3289 L 1187,3246 L 1170,3207 L 1140,3177 L 1105,3162 L 1102,3160 L 1100,3158 L 1099,3155 L 1099,3153 L 1099,3151 L 1101,3147 L 1103,3145 L 1105,3144 L 1109,3143 L 1687,3143 L 1689,3144 L 1692,3146 L 1713,3167 L 1736,3182 L 1763,3187 L 1840,3187 L 1844,3188 L 1845,3189 L 1848,3192 L 1849,3193 L 1850,3196 L 1859,3209 L 1871,3218 L 1873,3220 L 1874,3223 L 1874,3227 L 1873,3229 L 1871,3232 L 1866,3237 L 1860,3252 L 1860,3263 L 1867,3269 L 1900,3269 L 1900,3260 L 1919,3260 L 1923,3259M 513,3379 L 568,3434 L 640,3464 L 719,3464 L 791,3435 L 847,3379 L 877,3307 L 877,3228 L 847,3156 L 791,3101 L 719,3071 L 641,3070 L 568,3100 L 513,3156 L 483,3228 L 483,3306 L 513,3379M 817,3731 L 803,3737 L 787,3740 L 772,3740 L 756,3737 L 742,3730 L 729,3721 L 719,3710 L 711,3696 L 706,3681 L 705,3665 L 706,3650 L 711,3635 L 719,3621 L 729,3610 L 742,3600 L 756,3594 L 772,3591 L 787,3591 L 803,3594 L 817,3600 L 842,3575 L 838,3565 L 798,3550 L 752,3551 L 721,3564 L 714,3583 L 713,3584 L 712,3586 L 710,3587 L 708,3587 L 706,3587 L 704,3587 L 702,3587 L 700,3586 L 696,3581 L 693,3578 L 693,3576 L 684,3562 L 671,3553 L 654,3549 L 506,3549 L 490,3552 L 476,3561 L 467,3575 L 464,3591 L 464,3740 L 467,3755 L 475,3769 L 489,3778 L 498,3780 L 501,3782 L 503,3784 L 503,3785 L 504,3789 L 504,3810 L 510,3840 L 527,3865 L 698,4036 L 723,4053 L 753,4059 L 869,4059 L 875,4060 L 967,4060 L 983,4057 L 997,4048 L 999,4044 L 1002,4042 L 1006,4040 L 1010,4040 L 1013,4042 L 1015,4043 L 1018,4047 L 1031,4056 L 1048,4060 L 1086,4060 L 1090,4062 L 1091,4063 L 1092,4064 L 1094,4068 L 1094,4070 L 1093,4075 L 1102,4121 L 1128,4160 L 1169,4201 L 1208,4227 L 1254,4236 L 1299,4227 L 1337,4201 L 1363,4163 L 1372,4117 L 1363,4072 L 1337,4033 L 1296,3992 L 1257,3966 L 1212,3957 L 1205,3958 L 1201,3957 L 1198,3955 L 1181,3938 L 1180,3936 L 1180,3933 L 1171,3920 L 1157,3910 L 1140,3907 L 1048,3907 L 1032,3910 L 1019,3919 L 1016,3923 L 1013,3925 L 1010,3927 L 1008,3927 L 1006,3927 L 1002,3925 L 1001,3924 L 997,3920 L 984,3910 L 967,3907 L 875,3907 L 869,3908 L 785,3908 L 783,3907 L 780,3905 L 668,3793 L 666,3790 L 666,3788 L 666,3784 L 667,3781 L 670,3778 L 683,3770 L 692,3756 L 693,3753 L 694,3751 L 700,3745 L 702,3744 L 704,3744 L 706,3743 L 708,3744 L 710,3744 L 712,3745 L 713,3747 L 714,3748 L 721,3766 L 761,3781 L 807,3779 L 838,3767 L 842,3756 L 817,3731M 845,3702 L 870,3728 L 881,3724 L 895,3684 L 894,3638 L 881,3607 L 870,3603 L 845,3629 L 848,3635 L 853,3650 L 855,3665 L 853,3681 L 848,3696 L 845,3702M 404,2915 L 397,2904 L 392,2886 L 390,2867 L 392,2849 L 397,2831 L 404,2820 L 378,2795 L 366,2799 L 349,2846 L 351,2897 L 366,2935 L 378,2940 L 404,2915M 556,2915 L 581,2940 L 593,2935 L 610,2889 L 609,2837 L 593,2800 L 581,2795 L 556,2820 L 562,2831 L 568,2849 L 570,2867 L 568,2886 L 562,2904 L 556,2915M 527,2943 L 525,2945 L 507,2953 L 489,2957 L 470,2957 L 452,2953 L 435,2945 L 432,2943 L 407,2969 L 412,2981 L 458,2998 L 510,2997 L 548,2981 L 553,2969 L 527,2943M 527,2791 L 553,2766 L 548,2754 L 501,2737 L 450,2738 L 412,2754 L 407,2766 L 432,2791 L 435,2790 L 452,2782 L 470,2778 L 489,2778 L 507,2782 L 525,2790 L 527,2791M 2215,3919 L 2189,3944 L 2193,3958 L 2193,3960 L 2193,3962 L 2189,3974 L 2215,4000 L 2225,3996 L 2239,3993 L 2253,3993 L 2266,3996 L 2276,4000 L 2302,3974 L 2298,3960 L 2298,3958 L 2298,3956 L 2302,3944 L 2276,3919 L 2266,3923 L 2253,3926 L 2239,3926 L 2225,3923 L 2215,3919M 4818,3156 L 4784,3156 L 4778,3162 L 4778,3222 L 4784,3237 L 4795,3248 L 4810,3254 L 4815,3254 L 4821,3248 L 4821,3214 L 4818,3214 L 4818,3156M 2271,3755 L 2273,3759 L 2273,3765 L 2273,3799 L 2276,3800 L 2302,3774 L 2299,3765 L 2271,3755M 2202,3761 L 2192,3765 L 2189,3774 L 2215,3800 L 2218,3799 L 2218,3776 L 2202,3761M 4914,3254 L 4914,3163 L 4865,3163 L 4865,3214 L 4861,3214 L 4861,3248 L 4868,3254 L 4873,3254 L 4888,3248 L 4891,3247 L 4895,3248 L 4910,3254 L 4914,3254M 1908,3319 L 1900,3319 L 1900,3309 L 1867,3309 L 1860,3316 L 1860,3327 L 1866,3342 L 1878,3353 L 1892,3359 L 1908,3359 L 1908,3319 z " style="fill-opacity:1.000000;fill:rgb(30,157,156);stroke:rgb(0,0,0);stroke-width:2"/></g>
<g fill-rule="evenodd"><path d="M 4292,3605 L 2950,3605 L 2941,3615 L 2935,3619 L 2928,3623 L 2927,3623 L 2709,3840 L 2711,3846 L 2712,3859 L 2711,3873 L 2707,3887 L 2700,3899 L 2690,3909 L 2679,3917 L 2666,3923 L 2653,3926 L 2639,3926 L 2625,3923 L 2612,3917 L 2601,3909 L 2591,3899 L 2584,3887 L 2580,3873 L 2579,3859 L 2580,3846 L 2584,3832 L 2591,3820 L 2601,3810 L 2612,3801 L 2625,3796 L 2639,3793 L 2653,3793 L 2665,3796 L 2882,3578 L 2882,3577 L 2886,3570 L 2891,3564 L 2911,3544 L 2916,3540 L 2922,3537 L 2929,3535 L 2936,3534 L 4292,3534 L 4293,3530 L 4303,3517 L 4315,3506 L 4329,3498 L 4345,3492 L 4361,3491 L 4423,3491 L 4440,3492 L 4456,3498 L 4470,3506 L 4482,3517 L 4492,3530 L 4498,3545 L 4502,3561 L 4502,3578 L 4498,3594 L 4492,3609 L 4482,3622 L 4470,3633 L 4456,3641 L 4440,3646 L 4423,3648 L 4361,3648 L 4345,3646 L 4329,3641 L 4315,3633 L 4303,3622 L 4293,3609 L 4292,3605 z " style="fill-opacity:1.000000;fill:rgb(22,114,114);stroke:rgb(0,0,0);stroke-width:2"/></g>
<g fill-rule="evenodd"><path d="M 4326,1982 L 4326,1937 L 4300,1912 L 4296,1906 L 4292,1899 L 4291,1892 L 4290,1891 L 4053,1653 L 3915,1653 L 3915,1661 L 3821,1661 L 3821,1590 L 3915,1590 L 3915,1598 L 4064,1598 L 4070,1598 L 4075,1600 L 4080,1603 L 4084,1606 L 4329,1852 L 4331,1852 L 4338,1854 L 4345,1857 L 4351,1862 L 4387,1898 L 4391,1903 L 4394,1909 L 4396,1916 L 4397,1919 L 4416,1938 L 4761,1938 L 4767,1938 L 4772,1940 L 4777,1943 L 4781,1946 L 5061,2226 L 5064,2230 L 5067,2235 L 5068,2240 L 5069,2246 L 5069,2395 L 5068,2401 L 5067,2407 L 5065,2409 L 5065,2474 L 5018,2474 L 5018,2409 L 5016,2407 L 5015,2401 L 5014,2395 L 5014,2257 L 4750,1993 L 4414,1993 L 4425,2005 L 4433,2019 L 4439,2035 L 4440,2052 L 4440,2096 L 4439,2112 L 4433,2128 L 4425,2142 L 4414,2154 L 4401,2164 L 4386,2170 L 4370,2174 L 4353,2174 L 4337,2170 L 4322,2164 L 4309,2154 L 4298,2142 L 4290,2128 L 4284,2112 L 4283,2096 L 4283,2052 L 4284,2035 L 4290,2019 L 4298,2005 L 4309,1993 L 4322,1983 L 4326,1982 z " style="fill-opacity:1.000000;fill:rgb(230,29,240);stroke:rgb(0,0,0);stroke-width:2"/></g>
<g fill-rule="evenodd"><path d="M 3622,4001 L 3624,4011 L 3623,4028 L 3619,4044 L 3612,4058 L 3601,4071 L 3569,4103 L 3557,4113 L 3544,4120 L 3529,4125 L 3514,4126 L 3510,4126 L 3493,4124 L 3478,4119 L 3463,4111 L 3451,4100 L 3441,4087 L 3435,4072 L 3431,4056 L 3431,4039 L 3435,4023 L 3441,4008 L 3451,3995 L 3463,3984 L 3469,3980 L 3490,3960 L 3503,3949 L 3517,3942 L 3533,3938 L 3550,3937 L 3562,3939 L 3568,3934 L 3574,3929 L 3580,3925 L 3588,3923 L 3596,3922 L 4785,3922 L 5414,3293 L 5414,3136 L 5414,3130 L 5416,3124 L 5418,3122 L 5418,3057 L 5465,3057 L 5465,3122 L 5467,3124 L 5468,3130 L 5469,3136 L 5469,3305 L 5468,3310 L 5467,3315 L 5464,3320 L 5461,3324 L 4824,3961 L 4824,3966 L 4822,3974 L 4819,3981 L 4814,3988 L 4808,3993 L 4801,3997 L 4793,4000 L 4785,4001 L 3622,4001 z " style="fill-opacity:1.000000;fill:rgb(132,79,74);stroke:rgb(0,0,0);stroke-width:2"/></g>
<g fill-rule="evenodd"><path d="M 47,3460 L 47,1943 L 48,1932 L 51,1921 L 57,1910 L 64,1902 L 98,1868 L 107,1860 L 117,1855 L 128,1852 L 140,1850 L 235,1850 L 435,1651 L 435,1456 L 329,1351 L 248,1351 L 236,1349 L 225,1346 L 215,1341 L 206,1333 L 64,1191 L 57,1182 L 51,1172 L 48,1161 L 47,1150 L 47,758 L 47,748 L 48,745 L 51,736 L 52,734 L 56,725 L 58,723 L 64,716 L 194,586 L 194,579 L 198,563 L 206,549 L 216,536 L 532,220 L 541,212 L 545,210 L 556,204 L 559,202 L 571,199 L 575,198 L 588,197 L 7473,197 L 7490,199 L 7505,204 L 7520,212 L 7532,223 L 7542,236 L 7543,240 L 7734,240 L 7741,241 L 7748,243 L 7754,246 L 7759,251 L 7837,328 L 7941,328 L 7948,329 L 7955,331 L 7960,334 L 7988,334 L 7988,393 L 7972,393 L 7972,451 L 8137,615 L 8149,613 L 8156,612 L 8170,614 L 8182,618 L 8194,624 L 8205,633 L 8213,644 L 8219,656 L 8222,669 L 8223,683 L 8221,696 L 8216,709 L 8209,720 L 8200,730 L 8189,738 L 8176,743 L 8163,746 L 8156,746 L 8143,745 L 8130,741 L 8118,734 L 8108,725 L 8099,715 L 8093,703 L 8090,690 L 8089,676 L 8091,663 L 8092,660 L 7918,486 L 7914,481 L 7911,476 L 7910,470 L 7909,464 L 7909,399 L 7822,399 L 7816,398 L 7809,396 L 7803,393 L 7797,389 L 7720,311 L 7543,311 L 7542,315 L 7532,328 L 7520,339 L 7505,348 L 7490,353 L 7473,354 L 4238,354 L 4084,508 L 4072,518 L 4072,898 L 4889,1715 L 4891,1716 L 4899,1720 L 4905,1725 L 4910,1732 L 4913,1738 L 5303,2128 L 5307,2134 L 5311,2141 L 5313,2149 L 5361,2197 L 5364,2201 L 5367,2207 L 5369,2213 L 5369,2217 L 5369,2395 L 5368,2401 L 5367,2407 L 5365,2409 L 5365,2474 L 5318,2474 L 5318,2409 L 5316,2407 L 5315,2401 L 5314,2395 L 5314,2228 L 5274,2189 L 5272,2188 L 5265,2187 L 5258,2183 L 5252,2179 L 4864,1790 L 4862,1790 L 4855,1788 L 4848,1784 L 4842,1779 L 4005,942 L 4000,936 L 3996,930 L 3994,922 L 3993,915 L 3993,525 L 3982,519 L 3979,516 L 3970,508 L 3846,385 L 3836,373 L 3829,359 L 3827,354 L 3665,354 L 3665,1322 L 3669,1327 L 3677,1342 L 3683,1357 L 3684,1374 L 3684,1396 L 3683,1412 L 3677,1428 L 3669,1442 L 3662,1450 L 3717,1505 L 3721,1510 L 3724,1515 L 3726,1521 L 3726,1527 L 3726,1590 L 3742,1590 L 3742,1661 L 3726,1661 L 3726,1711 L 4416,2401 L 4586,2401 L 4586,2385 L 4657,2385 L 4657,2479 L 4586,2479 L 4586,2464 L 4403,2464 L 4397,2463 L 4391,2461 L 4386,2458 L 4381,2454 L 3673,1746 L 3669,1741 L 3666,1736 L 3664,1730 L 3663,1724 L 3663,1661 L 3648,1661 L 3648,1590 L 3663,1590 L 3663,1540 L 3600,1477 L 3593,1475 L 3585,1471 L 3581,1470 L 3566,1464 L 3553,1454 L 3542,1442 L 3534,1428 L 3529,1412 L 3527,1396 L 3527,1374 L 3529,1357 L 3534,1342 L 3542,1327 L 3546,1322 L 3546,354 L 1038,354 L 915,477 L 915,587 L 914,595 L 911,604 L 911,634 L 840,634 L 840,615 L 511,615 L 511,634 L 440,634 L 440,622 L 382,622 L 378,624 L 372,626 L 365,627 L 348,627 L 327,647 L 315,658 L 300,665 L 284,669 L 277,670 L 165,782 L 165,1125 L 272,1232 L 354,1232 L 365,1234 L 376,1237 L 386,1242 L 395,1250 L 535,1390 L 541,1397 L 543,1399 L 548,1408 L 549,1410 L 551,1419 L 552,1422 L 553,1432 L 553,1676 L 552,1687 L 548,1698 L 543,1708 L 535,1717 L 301,1951 L 292,1959 L 282,1964 L 271,1967 L 260,1969 L 165,1969 L 165,2285 L 261,2380 L 1488,2380 L 1499,2382 L 1510,2385 L 1520,2390 L 1529,2398 L 1575,2444 L 1583,2453 L 1583,2454 L 2191,2454 L 2416,2228 L 2416,2078 L 2325,1987 L 2275,1987 L 2275,1991 L 2181,1991 L 2181,1920 L 2275,1920 L 2275,1924 L 2338,1924 L 2345,1925 L 2350,1926 L 2356,1929 L 2361,1933 L 2470,2042 L 2474,2048 L 2477,2053 L 2479,2060 L 2479,2065 L 2479,2242 L 2478,2248 L 2477,2254 L 2474,2259 L 2470,2264 L 2226,2508 L 2221,2512 L 2216,2515 L 2210,2516 L 2204,2517 L 1593,2517 L 1593,2805 L 1628,2840 L 1645,2840 L 1657,2841 L 1669,2845 L 1680,2851 L 1689,2860 L 1692,2864 L 1718,2864 L 1725,2864 L 1732,2866 L 1738,2870 L 1744,2874 L 1832,2962 L 1982,2962 L 1982,3033 L 1817,3033 L 1810,3032 L 1803,3030 L 1797,3027 L 1792,3023 L 1704,2934 L 1692,2934 L 1689,2939 L 1680,2947 L 1669,2953 L 1657,2957 L 1645,2958 L 1603,2958 L 1592,2957 L 1581,2954 L 1570,2948 L 1561,2941 L 1492,2871 L 1485,2862 L 1479,2852 L 1476,2841 L 1475,2829 L 1475,2510 L 1463,2499 L 250,2499 L 165,2583 L 165,3460 L 170,3465 L 178,3480 L 183,3495 L 185,3512 L 185,3891 L 320,3891 L 335,3892 L 350,3897 L 363,3904 L 375,3914 L 838,4377 L 1278,4377 L 1851,3804 L 1863,3794 L 1876,3787 L 1891,3782 L 1906,3781 L 2046,3781 L 2062,3782 L 2078,3788 L 2086,3793 L 2113,3793 L 2113,3818 L 2114,3820 L 2120,3835 L 2124,3851 L 2124,3868 L 2120,3884 L 2114,3899 L 2113,3901 L 2113,3926 L 2086,3926 L 2078,3931 L 2062,3936 L 2046,3938 L 1939,3938 L 1450,4427 L 4209,4427 L 4262,4374 L 4275,4363 L 4289,4356 L 4305,4352 L 4322,4351 L 4338,4353 L 4353,4359 L 4367,4368 L 4379,4380 L 4388,4394 L 4394,4409 L 4396,4425 L 4395,4442 L 4391,4458 L 4384,4472 L 4373,4485 L 4297,4561 L 4285,4571 L 4272,4578 L 4257,4583 L 4242,4584 L 1360,4584 L 1345,4583 L 1330,4578 L 1317,4571 L 1305,4561 L 1278,4534 L 806,4534 L 790,4533 L 776,4528 L 762,4521 L 750,4511 L 287,4048 L 138,4048 L 122,4047 L 108,4042 L 94,4035 L 82,4025 L 50,3993 L 40,3981 L 33,3968 L 29,3953 L 27,3938 L 27,3512 L 29,3495 L 34,3480 L 42,3465 L 47,3460M 713,354 L 620,354 L 511,464 L 511,469 L 511,559 L 836,559 L 836,477 L 713,354M 825,354 L 876,405 L 927,354 L 825,354M 423,552 L 440,552 L 440,534 L 423,552 z " style="fill-opacity:1.000000;fill:rgb(119,2,215);stroke:rgb(0,0,0);stroke-width:2"/></g>
<g fill-rule="evenodd"><path d="M 1187,4001 L 1191,3999 L 1208,3997 L 1224,3998 L 1240,4002 L 1255,4009 L 1267,4020 L 1309,4062 L 1320,4075 L 1327,4089 L 1331,4105 L 1332,4122 L 1330,4138 L 1324,4153 L 1315,4167 L 1303,4179 L 1289,4188 L 1274,4193 L 1258,4196 L 1241,4195 L 1225,4191 L 1211,4183 L 1198,4173 L 1156,4131 L 1146,4118 L 1138,4104 L 1134,4088 L 1133,4071 L 1136,4055 L 1137,4051 L 1105,4019 L 1047,4019 L 1047,3948 L 1141,3948 L 1141,3956 L 1145,3958 L 1187,4001 z " style="fill-opacity:1.000000;fill:rgb(232,57,44);stroke:rgb(0,0,0);stroke-width:2"/></g>
<g fill-rule="evenodd"><path d="M 5141,4230 L 5138,4223 L 5137,4206 L 5137,4046 L 5136,4042 L 5135,4025 L 5137,4009 L 5143,3994 L 5152,3980 L 5164,3968 L 5178,3959 L 5193,3953 L 5209,3951 L 5226,3952 L 5242,3956 L 5256,3963 L 5269,3974 L 5271,3976 L 5281,3988 L 5288,4001 L 5293,4016 L 5294,4031 L 5294,4206 L 5292,4223 L 5287,4238 L 5279,4252 L 5268,4265 L 5255,4274 L 5240,4281 L 5224,4284 L 5207,4284 L 5191,4281 L 5105,4366 L 5100,4371 L 5094,4374 L 5087,4376 L 5080,4377 L 4915,4377 L 4915,4306 L 5066,4306 L 5141,4230 z " style="fill-opacity:1.000000;fill:rgb(83,203,201);stroke:rgb(0,0,0);stroke-width:2"/></g>
<g fill-rule="evenodd"><path d="M 4820,3614 L 4820,3630 L 4816,3646 L 4810,3661 L 4800,3674 L 4788,3685 L 4774,3693 L 4758,3698 L 4741,3700 L 4723,3698 L 4707,3693 L 4693,3685 L 4681,3674 L 4671,3661 L 4665,3646 L 4661,3630 L 4661,3613 L 4665,3597 L 4671,3582 L 4681,3569 L 4693,3558 L 4707,3550 L 4723,3544 L 4741,3543 L 4758,3544 L 4760,3545 L 4765,3541 L 4771,3538 L 4773,3537 L 4781,3535 L 4787,3535 L 4820,3535 L 4922,3434 L 4928,3428 L 4935,3425 L 4943,3423 L 4950,3422 L 5114,3258 L 5114,3136 L 5114,3130 L 5116,3125 L 5118,3122 L 5118,3057 L 5165,3057 L 5165,3112 L 5167,3113 L 5171,3117 L 5175,3122 L 5177,3127 L 5178,3133 L 5178,3138 L 5177,3144 L 5175,3149 L 5171,3154 L 5169,3156 L 5169,3269 L 5168,3275 L 5167,3280 L 5164,3285 L 5161,3289 L 4989,3461 L 4988,3468 L 4986,3476 L 4982,3483 L 4977,3489 L 4864,3602 L 4859,3607 L 4852,3611 L 4844,3613 L 4837,3614 L 4820,3614 z " style="fill-opacity:1.000000;fill:rgb(18,30,51);stroke:rgb(0,0,0);stroke-width:2"/></g>
<g fill-rule="evenodd"><path d="M 4448,3370 L 4384,3435 L 4380,3438 L 4371,3443 L 4366,3444 L 4359,3445 L 2830,3445 L 2767,3509 L 2761,3513 L 2754,3517 L 2753,3517 L 2544,3726 L 2544,3793 L 2543,3799 L 2542,3805 L 2539,3810 L 2535,3815 L 2509,3840 L 2511,3846 L 2513,3859 L 2511,3873 L 2507,3887 L 2500,3899 L 2490,3909 L 2479,3917 L 2466,3923 L 2453,3926 L 2439,3926 L 2425,3923 L 2412,3917 L 2401,3909 L 2391,3899 L 2384,3887 L 2380,3873 L 2379,3859 L 2380,3846 L 2384,3832 L 2391,3820 L 2401,3810 L 2412,3801 L 2425,3796 L 2439,3793 L 2453,3793 L 2465,3796 L 2481,3779 L 2481,3713 L 2481,3708 L 2484,3700 L 2487,3694 L 2490,3690 L 2708,3472 L 2708,3471 L 2712,3464 L 2717,3458 L 2791,3384 L 2796,3380 L 2802,3377 L 2809,3375 L 2816,3374 L 4344,3374 L 4420,3298 L 4425,3294 L 4431,3291 L 4438,3289 L 4441,3288 L 4443,3284 L 4453,3271 L 4465,3260 L 4479,3252 L 4495,3246 L 4511,3245 L 4545,3245 L 4562,3246 L 4578,3252 L 4592,3260 L 4604,3271 L 4614,3284 L 4620,3299 L 4624,3315 L 4624,3332 L 4620,3348 L 4614,3363 L 4604,3376 L 4592,3387 L 4578,3395 L 4562,3400 L 4545,3402 L 4511,3402 L 4495,3400 L 4479,3395 L 4465,3387 L 4453,3376 L 4448,3370 z " style="fill-opacity:1.000000;fill:rgb(116,158,12);stroke:rgb(0,0,0);stroke-width:2"/></g>
<g fill-rule="evenodd"><path d="M 5172,1317 L 5172,1022 L 5173,1014 L 5175,1006 L 5179,1000 L 5184,994 L 5190,989 L 5196,985 L 5204,983 L 5213,982 L 5450,746 L 5451,739 L 5453,731 L 5457,724 L 5461,718 L 5490,690 L 5489,676 L 5491,663 L 5496,650 L 5503,638 L 5513,629 L 5524,621 L 5536,616 L 5549,613 L 5556,612 L 5570,614 L 5583,618 L 5594,624 L 5605,633 L 5613,644 L 5619,656 L 5622,669 L 5623,683 L 5621,696 L 5616,709 L 5609,720 L 5600,730 L 5589,738 L 5576,743 L 5563,746 L 5556,746 L 5546,745 L 5529,763 L 5528,770 L 5526,777 L 5522,784 L 5517,790 L 5257,1049 L 5251,1055 L 5251,1317 L 5261,1324 L 5273,1335 L 5282,1349 L 5288,1364 L 5290,1381 L 5289,1397 L 5286,1408 L 5286,1456 L 5284,1472 L 5279,1488 L 5271,1502 L 5260,1514 L 5247,1524 L 5232,1530 L 5216,1534 L 5199,1534 L 5183,1530 L 5168,1524 L 5155,1514 L 5144,1502 L 5136,1488 L 5130,1472 L 5129,1456 L 5129,1389 L 5130,1373 L 5135,1359 L 5142,1345 L 5152,1333 L 5156,1329 L 5169,1319 L 5172,1317 z " style="fill-opacity:1.000000;fill:rgb(244,213,212);stroke:rgb(0,0,0);stroke-width:2"/></g>
<g fill-rule="evenodd"><path d="M 4680,2206 L 4657,2229 L 4657,2306 L 4586,2306 L 4586,2212 L 4598,2212 L 4599,2210 L 4602,2206 L 4608,2200 L 4593,2191 L 4581,2180 L 4571,2167 L 4565,2152 L 4561,2136 L 4561,2119 L 4565,2103 L 4571,2088 L 4581,2075 L 4593,2064 L 4607,2056 L 4623,2050 L 4639,2049 L 4693,2049 L 4710,2050 L 4726,2056 L 4740,2064 L 4752,2075 L 4762,2088 L 4768,2103 L 4772,2119 L 4772,2136 L 4774,2137 L 4776,2138 L 4821,2138 L 4826,2138 L 4833,2140 L 4838,2143 L 4841,2146 L 4961,2266 L 4964,2270 L 4967,2275 L 4969,2280 L 4969,2285 L 4969,2395 L 4968,2401 L 4967,2407 L 4965,2409 L 4965,2474 L 4918,2474 L 4918,2409 L 4916,2407 L 4915,2401 L 4914,2395 L 4914,2297 L 4810,2193 L 4776,2193 L 4774,2194 L 4768,2196 L 4761,2197 L 4730,2197 L 4726,2199 L 4710,2205 L 4693,2206 L 4680,2206 z " style="fill-opacity:1.000000;fill:rgb(159,212,164);stroke:rgb(0,0,0);stroke-width:2"/></g>
</svg>
