<?xml version="1.0" standalone="no"?>
<!DOCTYPE svg PUBLIC "-//W3C//DTD SVG 1.1//EN"
"http://www.w3.org/Graphics/SVG/1.1/DTD/svg11.dtd">
<svg width="8912" height="4970" viewBox="0 0 8912 4970" version="1.1"
xmlns="http://www.w3.org/2000/svg"
xmlns:xlink="http://www.w3.org/1999/xlink">
<g fill-rule="evenodd"><path d="M 0,4969 L 0,0 L 8911,0 L 8911,4969 L 0,4969 z " style="fill-opacity:0.300000;fill:rgb(41,35,190);"/></g>
<g fill-rule="evenodd"><path d="M 7,4844 L 7,125 L 10,102 L 16,80 L 27,60 L 42,42 L 60,27 L 80,16 L 102,10 L 125,7 L 8786,7 L 8809,10 L 8831,16 L 8851,27 L 8869,42 L 8884,60 L 8895,80 L 8901,102 L 8904,125 L 8904,4844 L 8901,4867 L 8895,4889 L 8884,4909 L 8869,4927 L 8851,4942 L 8831,4953 L 8809,4959 L 8786,4962 L 126,4962 L 102,4959 L 80,4953 L 60,4942 L 42,4927 L 27,4909 L 16,4889 L 10,4867 L 7,4844 z " style="fill-opacity:0.600000;fill:rgb(41,35,190);stroke:rgb(0,0,0);stroke-width:2"/></g>
<g fill-rule="evenodd"><path d="M 126,4844 L 125,125 L 8786,125 L 8786,4844 L 126,4844 z " style="fill-opacity:1.000000;fill:rgb(41,35,190);stroke:rgb(0,0,0);stroke-width:2"/></g>
</svg>
