M48
;DRILL file {KiCad 4.0.4-stable} date 03/02/17 17:26:23
;FORMAT={-:-/ absolute / metric / decimal}
FMAT,2
METRIC,TZ
T1C1.000
T2C1.200
T3C1.700
T4C2.200
%
G90
G05
M71
T1
X33.648Y5.334
X33.648Y2.794
X36.188Y5.334
X36.188Y2.794
X38.728Y5.334
X38.728Y2.794
X41.268Y5.334
X41.268Y2.794
X43.808Y5.334
X43.808Y2.794
T2
X4.228Y81.442
X4.228Y7.942
X7.728Y7.942
X22.396Y81.45
X22.396Y7.95
X25.896Y7.95
X40.557Y81.458
X40.557Y7.958
X44.057Y7.958
X58.718Y81.509
X58.718Y8.009
X62.218Y8.009
T3
X1.778Y76.092
X1.778Y13.292
X10.178Y77.292
X10.178Y12.092
X19.946Y76.1
X19.946Y13.3
X28.346Y77.3
X28.346Y12.1
X38.107Y76.108
X38.107Y13.308
X46.507Y77.308
X46.507Y12.108
X56.268Y76.159
X56.268Y13.359
X64.668Y77.359
X64.668Y12.159
T4
X14.598Y15.833
X15.106Y71.12
X51.682Y71.374
X51.682Y15.748
T0
M30
