G04 #@! TF.FileFunction,Copper,L2,Bot,Signal*
%FSLAX46Y46*%
G04 Gerber Fmt 4.6, Leading zero omitted, Abs format (unit mm)*
G04 Created by KiCad (PCBNEW 4.0.4-stable) date 03/03/17 01:36:37*
%MOMM*%
%LPD*%
G01*
G04 APERTURE LIST*
%ADD10C,0.100000*%
%ADD11R,1.700000X1.700000*%
%ADD12C,1.700000*%
%ADD13C,1.524000*%
%ADD14C,3.800000*%
%ADD15C,2.000000*%
%ADD16C,1.500000*%
%ADD17C,1.200000*%
%ADD18C,0.254000*%
G04 APERTURE END LIST*
D10*
D11*
X33648000Y5334000D03*
D12*
X33648000Y2794000D03*
X36188000Y5334000D03*
X36188000Y2794000D03*
X38728000Y5334000D03*
X38728000Y2794000D03*
X41268000Y5334000D03*
X41268000Y2794000D03*
X43808000Y5334000D03*
X43808000Y2794000D03*
D13*
X7728400Y7942200D03*
X4228400Y7942200D03*
X4228400Y81442200D03*
D12*
X1778400Y13292200D03*
X10178400Y12092200D03*
X10178400Y77292200D03*
X1778400Y76092200D03*
D13*
X25895800Y7950200D03*
X22395800Y7950200D03*
X22395800Y81450200D03*
D12*
X19945800Y13300200D03*
X28345800Y12100200D03*
X28345800Y77300200D03*
X19945800Y76100200D03*
D13*
X44056800Y7957800D03*
X40556800Y7957800D03*
X40556800Y81457800D03*
D12*
X38106800Y13307800D03*
X46506800Y12107800D03*
X46506800Y77307800D03*
X38106800Y76107800D03*
D13*
X62217800Y8008600D03*
X58717800Y8008600D03*
X58717800Y81508600D03*
D12*
X56267800Y13358600D03*
X64667800Y12158600D03*
X64667800Y77358600D03*
X56267800Y76158600D03*
D14*
X15106000Y71120000D03*
X51682000Y71374000D03*
X51682000Y15748000D03*
X14598000Y15832999D03*
D15*
X33648000Y2794000D02*
X32800000Y2794000D01*
X58717800Y8008600D02*
X57955801Y8770599D01*
X57955801Y8770599D02*
X58186400Y8540000D01*
D16*
X40556800Y7957800D02*
X40556800Y9013200D01*
D15*
X22395800Y7950200D02*
X21318170Y7950200D01*
D17*
X4990399Y8704199D02*
X4228400Y7942200D01*
X6328411Y10042211D02*
X4990399Y8704199D01*
X19226159Y10042211D02*
X6328411Y10042211D01*
X19464169Y9804201D02*
X19226159Y10042211D01*
D15*
X4228400Y7942200D02*
X3492200Y7942200D01*
X3492200Y7942200D02*
X3460000Y7910000D01*
D17*
X38702399Y9812201D02*
X42411201Y9812201D01*
X42411201Y9812201D02*
X42418801Y9819801D01*
X19464169Y9804201D02*
X24249801Y9804201D01*
X24249801Y9804201D02*
X24257801Y9812201D01*
X21318170Y7950200D02*
X19464169Y9804201D01*
X22395800Y7950200D02*
X24257801Y9812201D01*
X24257801Y9812201D02*
X38702399Y9812201D01*
X38702399Y9812201D02*
X39794801Y8719799D01*
X39794801Y8719799D02*
X40556800Y7957800D01*
X58717800Y8008600D02*
X56906599Y9819801D01*
X56906599Y9819801D02*
X42418801Y9819801D01*
X42418801Y9819801D02*
X41318799Y8719799D01*
X41318799Y8719799D02*
X40556800Y7957800D01*
X27552000Y2794000D02*
X33648000Y2794000D01*
X33648000Y2794000D02*
X9376600Y2794000D01*
X9376600Y2794000D02*
X4228400Y7942200D01*
D16*
X32684010Y5044010D02*
X33358010Y5044010D01*
X33358010Y5044010D02*
X33648000Y5334000D01*
X36188000Y5334000D02*
X36188000Y3672000D01*
D15*
X36188000Y5334000D02*
X36188000Y6148000D01*
X36188000Y6148000D02*
X36220000Y6180000D01*
X7728400Y7942200D02*
X8477800Y7942200D01*
X8477800Y7942200D02*
X8510000Y7910000D01*
D16*
X38728000Y5334000D02*
X38728000Y3692000D01*
D15*
X38720009Y6089991D02*
X38720009Y5341991D01*
X38720009Y5341991D02*
X38728000Y5334000D01*
D16*
X25895800Y7950200D02*
X25600200Y7950200D01*
X25600200Y7950200D02*
X25220000Y7570000D01*
X41268000Y5334000D02*
X41268000Y3678000D01*
X44056800Y7957800D02*
X43397800Y7957800D01*
X43397800Y7957800D02*
X43300000Y7860000D01*
D15*
X41268000Y5334000D02*
X41268000Y5695799D01*
D16*
X43808000Y5334000D02*
X43808000Y3842000D01*
D15*
X43808000Y2794000D02*
X44644000Y2794000D01*
X44644000Y2794000D02*
X44670000Y2820000D01*
X62217800Y8008600D02*
X62217800Y7907800D01*
X62217800Y7907800D02*
X61720000Y7410000D01*
D18*
G36*
X22048432Y82831562D02*
X21664657Y82672597D01*
X21595192Y82430413D01*
X22395800Y81629805D01*
X23196408Y82430413D01*
X23126943Y82672597D01*
X22612871Y82856000D01*
X40545844Y82856000D01*
X40209432Y82839162D01*
X39825657Y82680197D01*
X39756192Y82438013D01*
X40556800Y81637405D01*
X41357408Y82438013D01*
X41287943Y82680197D01*
X40795174Y82856000D01*
X58288441Y82856000D01*
X57986657Y82730997D01*
X57917192Y82488813D01*
X58717800Y81688205D01*
X59518408Y82488813D01*
X59448943Y82730997D01*
X59098564Y82856000D01*
X66720000Y82856000D01*
X66720000Y710000D01*
X700000Y710000D01*
X700000Y7910000D01*
X1824999Y7910000D01*
X1949457Y7284312D01*
X2303880Y6753880D01*
X2834312Y6399457D01*
X3460000Y6274999D01*
X3621884Y6307200D01*
X4116846Y6307200D01*
X8503323Y1920723D01*
X8903986Y1653009D01*
X9376600Y1559000D01*
X31761933Y1559000D01*
X32174313Y1283457D01*
X32800000Y1159000D01*
X33648000Y1159000D01*
X34273687Y1283457D01*
X34804120Y1637880D01*
X34980426Y1901741D01*
X35345717Y1535812D01*
X35891319Y1309258D01*
X36482089Y1308743D01*
X37028086Y1534344D01*
X37446188Y1951717D01*
X37457748Y1979557D01*
X37468344Y1953914D01*
X37885717Y1535812D01*
X38431319Y1309258D01*
X39022089Y1308743D01*
X39568086Y1534344D01*
X39986188Y1951717D01*
X39997748Y1979557D01*
X40008344Y1953914D01*
X40425717Y1535812D01*
X40971319Y1309258D01*
X41562089Y1308743D01*
X42108086Y1534344D01*
X42475794Y1901411D01*
X42651880Y1637880D01*
X43182313Y1283457D01*
X43808000Y1159000D01*
X44643995Y1159000D01*
X44644000Y1158999D01*
X45269688Y1283457D01*
X45800120Y1637880D01*
X45826120Y1663881D01*
X46180543Y2194313D01*
X46305001Y2820000D01*
X46180543Y3445688D01*
X45826120Y3976120D01*
X45295688Y4330543D01*
X45193000Y4350969D01*
X45193000Y4797114D01*
X45292742Y5037319D01*
X45293257Y5628089D01*
X45067656Y6174086D01*
X44650283Y6592188D01*
X44530444Y6641950D01*
X44847103Y6772790D01*
X45240429Y7165430D01*
X45453557Y7678700D01*
X45454042Y8234461D01*
X45309285Y8584801D01*
X56357758Y8584801D01*
X56445258Y8144911D01*
X56799681Y7614479D01*
X57561680Y6852481D01*
X58092112Y6498058D01*
X58717800Y6373600D01*
X59343487Y6498058D01*
X59873919Y6852481D01*
X60122034Y7223812D01*
X60209457Y6784312D01*
X60563880Y6253880D01*
X61094312Y5899457D01*
X61720000Y5774999D01*
X62345688Y5899457D01*
X62876120Y6253880D01*
X63373917Y6751678D01*
X63373920Y6751680D01*
X63728343Y7282113D01*
X63728780Y7284312D01*
X63852801Y7907800D01*
X63852800Y7907805D01*
X63852800Y8008600D01*
X63728343Y8634287D01*
X63373920Y9164720D01*
X62843487Y9519143D01*
X62217800Y9643600D01*
X61592113Y9519143D01*
X61061680Y9164720D01*
X60858703Y8860942D01*
X60563880Y8566120D01*
X60315765Y8194789D01*
X60228342Y8634288D01*
X59873919Y9164720D01*
X59111921Y9926719D01*
X58581489Y10281142D01*
X58095053Y10377901D01*
X57779876Y10693078D01*
X57379213Y10960792D01*
X56906599Y11054801D01*
X47553904Y11054801D01*
X47764988Y11265517D01*
X47991542Y11811119D01*
X47991588Y11864511D01*
X63182543Y11864511D01*
X63408144Y11318514D01*
X63825517Y10900412D01*
X64371119Y10673858D01*
X64961889Y10673343D01*
X65507886Y10898944D01*
X65925988Y11316317D01*
X66152542Y11861919D01*
X66153057Y12452689D01*
X65927456Y12998686D01*
X65510083Y13416788D01*
X64964481Y13643342D01*
X64373711Y13643857D01*
X63827714Y13418256D01*
X63409612Y13000883D01*
X63183058Y12455281D01*
X63182543Y11864511D01*
X47991588Y11864511D01*
X47992057Y12401889D01*
X47766456Y12947886D01*
X47650035Y13064511D01*
X54782543Y13064511D01*
X55008144Y12518514D01*
X55425517Y12100412D01*
X55971119Y11873858D01*
X56561889Y11873343D01*
X57107886Y12098944D01*
X57525988Y12516317D01*
X57752542Y13061919D01*
X57753057Y13652689D01*
X57527456Y14198686D01*
X57110083Y14616788D01*
X56564481Y14843342D01*
X55973711Y14843857D01*
X55427714Y14618256D01*
X55009612Y14200883D01*
X54783058Y13655281D01*
X54782543Y13064511D01*
X47650035Y13064511D01*
X47349083Y13365988D01*
X46803481Y13592542D01*
X46212711Y13593057D01*
X45666714Y13367456D01*
X45248612Y12950083D01*
X45022058Y12404481D01*
X45021543Y11813711D01*
X45247144Y11267714D01*
X45459686Y11054801D01*
X42418801Y11054801D01*
X42380593Y11047201D01*
X29392904Y11047201D01*
X29603988Y11257917D01*
X29830542Y11803519D01*
X29831057Y12394289D01*
X29605456Y12940286D01*
X29532160Y13013711D01*
X36621543Y13013711D01*
X36847144Y12467714D01*
X37264517Y12049612D01*
X37810119Y11823058D01*
X38400889Y11822543D01*
X38946886Y12048144D01*
X39364988Y12465517D01*
X39591542Y13011119D01*
X39592057Y13601889D01*
X39366456Y14147886D01*
X38949083Y14565988D01*
X38403481Y14792542D01*
X37812711Y14793057D01*
X37266714Y14567456D01*
X36848612Y14150083D01*
X36622058Y13604481D01*
X36621543Y13013711D01*
X29532160Y13013711D01*
X29188083Y13358388D01*
X28642481Y13584942D01*
X28051711Y13585457D01*
X27505714Y13359856D01*
X27087612Y12942483D01*
X26861058Y12396881D01*
X26860543Y11806111D01*
X27086144Y11260114D01*
X27298686Y11047201D01*
X24257801Y11047201D01*
X24217582Y11039201D01*
X19914286Y11039201D01*
X19698773Y11183202D01*
X19226159Y11277211D01*
X11447921Y11277211D01*
X11663142Y11795519D01*
X11663657Y12386289D01*
X11438056Y12932286D01*
X11364360Y13006111D01*
X18460543Y13006111D01*
X18686144Y12460114D01*
X19103517Y12042012D01*
X19649119Y11815458D01*
X20239889Y11814943D01*
X20785886Y12040544D01*
X21203988Y12457917D01*
X21430542Y13003519D01*
X21431057Y13594289D01*
X21205456Y14140286D01*
X20788083Y14558388D01*
X20242481Y14784942D01*
X19651711Y14785457D01*
X19105714Y14559856D01*
X18687612Y14142483D01*
X18461058Y13596881D01*
X18460543Y13006111D01*
X11364360Y13006111D01*
X11020683Y13350388D01*
X10475081Y13576942D01*
X9884311Y13577457D01*
X9338314Y13351856D01*
X8920212Y12934483D01*
X8693658Y12388881D01*
X8693143Y11798111D01*
X8908374Y11277211D01*
X6328411Y11277211D01*
X5855797Y11183202D01*
X5455134Y10915488D01*
X4116846Y9577200D01*
X3492205Y9577200D01*
X3492200Y9577201D01*
X2866513Y9452743D01*
X2336080Y9098320D01*
X2336078Y9098317D01*
X2303880Y9066120D01*
X1949457Y8535688D01*
X1824999Y7910000D01*
X700000Y7910000D01*
X700000Y12270541D01*
X936117Y12034012D01*
X1481719Y11807458D01*
X2072489Y11806943D01*
X2618486Y12032544D01*
X3036588Y12449917D01*
X3263142Y12995519D01*
X3263657Y13586289D01*
X3038056Y14132286D01*
X2620683Y14550388D01*
X2075081Y14776942D01*
X1484311Y14777457D01*
X938314Y14551856D01*
X700000Y14313958D01*
X700000Y15330968D01*
X12062561Y15330968D01*
X12447678Y14398913D01*
X13160163Y13685183D01*
X14091545Y13298440D01*
X15100031Y13297560D01*
X16032086Y13682677D01*
X16745816Y14395162D01*
X17099101Y15245969D01*
X49146561Y15245969D01*
X49531678Y14313914D01*
X50244163Y13600184D01*
X51175545Y13213441D01*
X52184031Y13212561D01*
X53116086Y13597678D01*
X53829816Y14310163D01*
X54216559Y15241545D01*
X54217439Y16250031D01*
X53832322Y17182086D01*
X53119837Y17895816D01*
X52188455Y18282559D01*
X51179969Y18283439D01*
X50247914Y17898322D01*
X49534184Y17185837D01*
X49147441Y16254455D01*
X49146561Y15245969D01*
X17099101Y15245969D01*
X17132559Y15326544D01*
X17133439Y16335030D01*
X16748322Y17267085D01*
X16035837Y17980815D01*
X15104455Y18367558D01*
X14095969Y18368438D01*
X13163914Y17983321D01*
X12450184Y17270836D01*
X12063441Y16339454D01*
X12062561Y15330968D01*
X700000Y15330968D01*
X700000Y70617969D01*
X12570561Y70617969D01*
X12955678Y69685914D01*
X13668163Y68972184D01*
X14599545Y68585441D01*
X15608031Y68584561D01*
X16540086Y68969678D01*
X17253816Y69682163D01*
X17640559Y70613545D01*
X17640784Y70871969D01*
X49146561Y70871969D01*
X49531678Y69939914D01*
X50244163Y69226184D01*
X51175545Y68839441D01*
X52184031Y68838561D01*
X53116086Y69223678D01*
X53829816Y69936163D01*
X54216559Y70867545D01*
X54217439Y71876031D01*
X53832322Y72808086D01*
X53119837Y73521816D01*
X52188455Y73908559D01*
X51179969Y73909439D01*
X50247914Y73524322D01*
X49534184Y72811837D01*
X49147441Y71880455D01*
X49146561Y70871969D01*
X17640784Y70871969D01*
X17641439Y71622031D01*
X17256322Y72554086D01*
X16543837Y73267816D01*
X15612455Y73654559D01*
X14603969Y73655439D01*
X13671914Y73270322D01*
X12958184Y72557837D01*
X12571441Y71626455D01*
X12570561Y70617969D01*
X700000Y70617969D01*
X700000Y75070541D01*
X936117Y74834012D01*
X1481719Y74607458D01*
X2072489Y74606943D01*
X2618486Y74832544D01*
X3036588Y75249917D01*
X3263142Y75795519D01*
X3263151Y75806111D01*
X18460543Y75806111D01*
X18686144Y75260114D01*
X19103517Y74842012D01*
X19649119Y74615458D01*
X20239889Y74614943D01*
X20785886Y74840544D01*
X21203988Y75257917D01*
X21430542Y75803519D01*
X21430550Y75813711D01*
X36621543Y75813711D01*
X36847144Y75267714D01*
X37264517Y74849612D01*
X37810119Y74623058D01*
X38400889Y74622543D01*
X38946886Y74848144D01*
X39364988Y75265517D01*
X39591542Y75811119D01*
X39592057Y76401889D01*
X39366456Y76947886D01*
X39300746Y77013711D01*
X45021543Y77013711D01*
X45247144Y76467714D01*
X45664517Y76049612D01*
X46210119Y75823058D01*
X46800889Y75822543D01*
X46902459Y75864511D01*
X54782543Y75864511D01*
X55008144Y75318514D01*
X55425517Y74900412D01*
X55971119Y74673858D01*
X56561889Y74673343D01*
X57107886Y74898944D01*
X57525988Y75316317D01*
X57752542Y75861919D01*
X57753057Y76452689D01*
X57527456Y76998686D01*
X57461746Y77064511D01*
X63182543Y77064511D01*
X63408144Y76518514D01*
X63825517Y76100412D01*
X64371119Y75873858D01*
X64961889Y75873343D01*
X65507886Y76098944D01*
X65925988Y76516317D01*
X66152542Y77061919D01*
X66153057Y77652689D01*
X65927456Y78198686D01*
X65510083Y78616788D01*
X64964481Y78843342D01*
X64373711Y78843857D01*
X63827714Y78618256D01*
X63409612Y78200883D01*
X63183058Y77655281D01*
X63182543Y77064511D01*
X57461746Y77064511D01*
X57110083Y77416788D01*
X56564481Y77643342D01*
X55973711Y77643857D01*
X55427714Y77418256D01*
X55009612Y77000883D01*
X54783058Y76455281D01*
X54782543Y75864511D01*
X46902459Y75864511D01*
X47346886Y76048144D01*
X47764988Y76465517D01*
X47991542Y77011119D01*
X47992057Y77601889D01*
X47766456Y78147886D01*
X47349083Y78565988D01*
X46803481Y78792542D01*
X46212711Y78793057D01*
X45666714Y78567456D01*
X45248612Y78150083D01*
X45022058Y77604481D01*
X45021543Y77013711D01*
X39300746Y77013711D01*
X38949083Y77365988D01*
X38403481Y77592542D01*
X37812711Y77593057D01*
X37266714Y77367456D01*
X36848612Y76950083D01*
X36622058Y76404481D01*
X36621543Y75813711D01*
X21430550Y75813711D01*
X21431057Y76394289D01*
X21205456Y76940286D01*
X21139746Y77006111D01*
X26860543Y77006111D01*
X27086144Y76460114D01*
X27503517Y76042012D01*
X28049119Y75815458D01*
X28639889Y75814943D01*
X29185886Y76040544D01*
X29603988Y76457917D01*
X29830542Y77003519D01*
X29831057Y77594289D01*
X29605456Y78140286D01*
X29188083Y78558388D01*
X28642481Y78784942D01*
X28051711Y78785457D01*
X27505714Y78559856D01*
X27087612Y78142483D01*
X26861058Y77596881D01*
X26860543Y77006111D01*
X21139746Y77006111D01*
X20788083Y77358388D01*
X20242481Y77584942D01*
X19651711Y77585457D01*
X19105714Y77359856D01*
X18687612Y76942483D01*
X18461058Y76396881D01*
X18460543Y75806111D01*
X3263151Y75806111D01*
X3263657Y76386289D01*
X3038056Y76932286D01*
X2972346Y76998111D01*
X8693143Y76998111D01*
X8918744Y76452114D01*
X9336117Y76034012D01*
X9881719Y75807458D01*
X10472489Y75806943D01*
X11018486Y76032544D01*
X11436588Y76449917D01*
X11663142Y76995519D01*
X11663657Y77586289D01*
X11438056Y78132286D01*
X11020683Y78550388D01*
X10475081Y78776942D01*
X9884311Y78777457D01*
X9338314Y78551856D01*
X8920212Y78134483D01*
X8693658Y77588881D01*
X8693143Y76998111D01*
X2972346Y76998111D01*
X2620683Y77350388D01*
X2075081Y77576942D01*
X1484311Y77577457D01*
X938314Y77351856D01*
X700000Y77113958D01*
X700000Y80461987D01*
X3427792Y80461987D01*
X3497257Y80219803D01*
X4020702Y80033056D01*
X4575768Y80060838D01*
X4959543Y80219803D01*
X5029008Y80461987D01*
X5021008Y80469987D01*
X21595192Y80469987D01*
X21664657Y80227803D01*
X22188102Y80041056D01*
X22743168Y80068838D01*
X23126943Y80227803D01*
X23196408Y80469987D01*
X23188808Y80477587D01*
X39756192Y80477587D01*
X39825657Y80235403D01*
X40349102Y80048656D01*
X40904168Y80076438D01*
X41287943Y80235403D01*
X41357408Y80477587D01*
X41306608Y80528387D01*
X57917192Y80528387D01*
X57986657Y80286203D01*
X58510102Y80099456D01*
X59065168Y80127238D01*
X59448943Y80286203D01*
X59518408Y80528387D01*
X58717800Y81328995D01*
X57917192Y80528387D01*
X41306608Y80528387D01*
X40556800Y81278195D01*
X39756192Y80477587D01*
X23188808Y80477587D01*
X22395800Y81270595D01*
X21595192Y80469987D01*
X5021008Y80469987D01*
X4228400Y81262595D01*
X3427792Y80461987D01*
X700000Y80461987D01*
X700000Y81649898D01*
X2819256Y81649898D01*
X2847038Y81094832D01*
X3006003Y80711057D01*
X3248187Y80641592D01*
X4048795Y81442200D01*
X4408005Y81442200D01*
X5208613Y80641592D01*
X5450797Y80711057D01*
X5637544Y81234502D01*
X5616353Y81657898D01*
X20986656Y81657898D01*
X21014438Y81102832D01*
X21173403Y80719057D01*
X21415587Y80649592D01*
X22216195Y81450200D01*
X22575405Y81450200D01*
X23376013Y80649592D01*
X23618197Y80719057D01*
X23804944Y81242502D01*
X23783773Y81665498D01*
X39147656Y81665498D01*
X39175438Y81110432D01*
X39334403Y80726657D01*
X39576587Y80657192D01*
X40377195Y81457800D01*
X40736405Y81457800D01*
X41537013Y80657192D01*
X41779197Y80726657D01*
X41965944Y81250102D01*
X41942611Y81716298D01*
X57308656Y81716298D01*
X57336438Y81161232D01*
X57495403Y80777457D01*
X57737587Y80707992D01*
X58538195Y81508600D01*
X58897405Y81508600D01*
X59698013Y80707992D01*
X59940197Y80777457D01*
X60126944Y81300902D01*
X60099162Y81855968D01*
X59940197Y82239743D01*
X59698013Y82309208D01*
X58897405Y81508600D01*
X58538195Y81508600D01*
X57737587Y82309208D01*
X57495403Y82239743D01*
X57308656Y81716298D01*
X41942611Y81716298D01*
X41938162Y81805168D01*
X41779197Y82188943D01*
X41537013Y82258408D01*
X40736405Y81457800D01*
X40377195Y81457800D01*
X39576587Y82258408D01*
X39334403Y82188943D01*
X39147656Y81665498D01*
X23783773Y81665498D01*
X23777162Y81797568D01*
X23618197Y82181343D01*
X23376013Y82250808D01*
X22575405Y81450200D01*
X22216195Y81450200D01*
X21415587Y82250808D01*
X21173403Y82181343D01*
X20986656Y81657898D01*
X5616353Y81657898D01*
X5609762Y81789568D01*
X5450797Y82173343D01*
X5208613Y82242808D01*
X4408005Y81442200D01*
X4048795Y81442200D01*
X3248187Y82242808D01*
X3006003Y82173343D01*
X2819256Y81649898D01*
X700000Y81649898D01*
X700000Y82422413D01*
X3427792Y82422413D01*
X4228400Y81621805D01*
X5029008Y82422413D01*
X4959543Y82664597D01*
X4436098Y82851344D01*
X3881032Y82823562D01*
X3497257Y82664597D01*
X3427792Y82422413D01*
X700000Y82422413D01*
X700000Y82856000D01*
X22536687Y82856000D01*
X22048432Y82831562D01*
X22048432Y82831562D01*
G37*
X22048432Y82831562D02*
X21664657Y82672597D01*
X21595192Y82430413D01*
X22395800Y81629805D01*
X23196408Y82430413D01*
X23126943Y82672597D01*
X22612871Y82856000D01*
X40545844Y82856000D01*
X40209432Y82839162D01*
X39825657Y82680197D01*
X39756192Y82438013D01*
X40556800Y81637405D01*
X41357408Y82438013D01*
X41287943Y82680197D01*
X40795174Y82856000D01*
X58288441Y82856000D01*
X57986657Y82730997D01*
X57917192Y82488813D01*
X58717800Y81688205D01*
X59518408Y82488813D01*
X59448943Y82730997D01*
X59098564Y82856000D01*
X66720000Y82856000D01*
X66720000Y710000D01*
X700000Y710000D01*
X700000Y7910000D01*
X1824999Y7910000D01*
X1949457Y7284312D01*
X2303880Y6753880D01*
X2834312Y6399457D01*
X3460000Y6274999D01*
X3621884Y6307200D01*
X4116846Y6307200D01*
X8503323Y1920723D01*
X8903986Y1653009D01*
X9376600Y1559000D01*
X31761933Y1559000D01*
X32174313Y1283457D01*
X32800000Y1159000D01*
X33648000Y1159000D01*
X34273687Y1283457D01*
X34804120Y1637880D01*
X34980426Y1901741D01*
X35345717Y1535812D01*
X35891319Y1309258D01*
X36482089Y1308743D01*
X37028086Y1534344D01*
X37446188Y1951717D01*
X37457748Y1979557D01*
X37468344Y1953914D01*
X37885717Y1535812D01*
X38431319Y1309258D01*
X39022089Y1308743D01*
X39568086Y1534344D01*
X39986188Y1951717D01*
X39997748Y1979557D01*
X40008344Y1953914D01*
X40425717Y1535812D01*
X40971319Y1309258D01*
X41562089Y1308743D01*
X42108086Y1534344D01*
X42475794Y1901411D01*
X42651880Y1637880D01*
X43182313Y1283457D01*
X43808000Y1159000D01*
X44643995Y1159000D01*
X44644000Y1158999D01*
X45269688Y1283457D01*
X45800120Y1637880D01*
X45826120Y1663881D01*
X46180543Y2194313D01*
X46305001Y2820000D01*
X46180543Y3445688D01*
X45826120Y3976120D01*
X45295688Y4330543D01*
X45193000Y4350969D01*
X45193000Y4797114D01*
X45292742Y5037319D01*
X45293257Y5628089D01*
X45067656Y6174086D01*
X44650283Y6592188D01*
X44530444Y6641950D01*
X44847103Y6772790D01*
X45240429Y7165430D01*
X45453557Y7678700D01*
X45454042Y8234461D01*
X45309285Y8584801D01*
X56357758Y8584801D01*
X56445258Y8144911D01*
X56799681Y7614479D01*
X57561680Y6852481D01*
X58092112Y6498058D01*
X58717800Y6373600D01*
X59343487Y6498058D01*
X59873919Y6852481D01*
X60122034Y7223812D01*
X60209457Y6784312D01*
X60563880Y6253880D01*
X61094312Y5899457D01*
X61720000Y5774999D01*
X62345688Y5899457D01*
X62876120Y6253880D01*
X63373917Y6751678D01*
X63373920Y6751680D01*
X63728343Y7282113D01*
X63728780Y7284312D01*
X63852801Y7907800D01*
X63852800Y7907805D01*
X63852800Y8008600D01*
X63728343Y8634287D01*
X63373920Y9164720D01*
X62843487Y9519143D01*
X62217800Y9643600D01*
X61592113Y9519143D01*
X61061680Y9164720D01*
X60858703Y8860942D01*
X60563880Y8566120D01*
X60315765Y8194789D01*
X60228342Y8634288D01*
X59873919Y9164720D01*
X59111921Y9926719D01*
X58581489Y10281142D01*
X58095053Y10377901D01*
X57779876Y10693078D01*
X57379213Y10960792D01*
X56906599Y11054801D01*
X47553904Y11054801D01*
X47764988Y11265517D01*
X47991542Y11811119D01*
X47991588Y11864511D01*
X63182543Y11864511D01*
X63408144Y11318514D01*
X63825517Y10900412D01*
X64371119Y10673858D01*
X64961889Y10673343D01*
X65507886Y10898944D01*
X65925988Y11316317D01*
X66152542Y11861919D01*
X66153057Y12452689D01*
X65927456Y12998686D01*
X65510083Y13416788D01*
X64964481Y13643342D01*
X64373711Y13643857D01*
X63827714Y13418256D01*
X63409612Y13000883D01*
X63183058Y12455281D01*
X63182543Y11864511D01*
X47991588Y11864511D01*
X47992057Y12401889D01*
X47766456Y12947886D01*
X47650035Y13064511D01*
X54782543Y13064511D01*
X55008144Y12518514D01*
X55425517Y12100412D01*
X55971119Y11873858D01*
X56561889Y11873343D01*
X57107886Y12098944D01*
X57525988Y12516317D01*
X57752542Y13061919D01*
X57753057Y13652689D01*
X57527456Y14198686D01*
X57110083Y14616788D01*
X56564481Y14843342D01*
X55973711Y14843857D01*
X55427714Y14618256D01*
X55009612Y14200883D01*
X54783058Y13655281D01*
X54782543Y13064511D01*
X47650035Y13064511D01*
X47349083Y13365988D01*
X46803481Y13592542D01*
X46212711Y13593057D01*
X45666714Y13367456D01*
X45248612Y12950083D01*
X45022058Y12404481D01*
X45021543Y11813711D01*
X45247144Y11267714D01*
X45459686Y11054801D01*
X42418801Y11054801D01*
X42380593Y11047201D01*
X29392904Y11047201D01*
X29603988Y11257917D01*
X29830542Y11803519D01*
X29831057Y12394289D01*
X29605456Y12940286D01*
X29532160Y13013711D01*
X36621543Y13013711D01*
X36847144Y12467714D01*
X37264517Y12049612D01*
X37810119Y11823058D01*
X38400889Y11822543D01*
X38946886Y12048144D01*
X39364988Y12465517D01*
X39591542Y13011119D01*
X39592057Y13601889D01*
X39366456Y14147886D01*
X38949083Y14565988D01*
X38403481Y14792542D01*
X37812711Y14793057D01*
X37266714Y14567456D01*
X36848612Y14150083D01*
X36622058Y13604481D01*
X36621543Y13013711D01*
X29532160Y13013711D01*
X29188083Y13358388D01*
X28642481Y13584942D01*
X28051711Y13585457D01*
X27505714Y13359856D01*
X27087612Y12942483D01*
X26861058Y12396881D01*
X26860543Y11806111D01*
X27086144Y11260114D01*
X27298686Y11047201D01*
X24257801Y11047201D01*
X24217582Y11039201D01*
X19914286Y11039201D01*
X19698773Y11183202D01*
X19226159Y11277211D01*
X11447921Y11277211D01*
X11663142Y11795519D01*
X11663657Y12386289D01*
X11438056Y12932286D01*
X11364360Y13006111D01*
X18460543Y13006111D01*
X18686144Y12460114D01*
X19103517Y12042012D01*
X19649119Y11815458D01*
X20239889Y11814943D01*
X20785886Y12040544D01*
X21203988Y12457917D01*
X21430542Y13003519D01*
X21431057Y13594289D01*
X21205456Y14140286D01*
X20788083Y14558388D01*
X20242481Y14784942D01*
X19651711Y14785457D01*
X19105714Y14559856D01*
X18687612Y14142483D01*
X18461058Y13596881D01*
X18460543Y13006111D01*
X11364360Y13006111D01*
X11020683Y13350388D01*
X10475081Y13576942D01*
X9884311Y13577457D01*
X9338314Y13351856D01*
X8920212Y12934483D01*
X8693658Y12388881D01*
X8693143Y11798111D01*
X8908374Y11277211D01*
X6328411Y11277211D01*
X5855797Y11183202D01*
X5455134Y10915488D01*
X4116846Y9577200D01*
X3492205Y9577200D01*
X3492200Y9577201D01*
X2866513Y9452743D01*
X2336080Y9098320D01*
X2336078Y9098317D01*
X2303880Y9066120D01*
X1949457Y8535688D01*
X1824999Y7910000D01*
X700000Y7910000D01*
X700000Y12270541D01*
X936117Y12034012D01*
X1481719Y11807458D01*
X2072489Y11806943D01*
X2618486Y12032544D01*
X3036588Y12449917D01*
X3263142Y12995519D01*
X3263657Y13586289D01*
X3038056Y14132286D01*
X2620683Y14550388D01*
X2075081Y14776942D01*
X1484311Y14777457D01*
X938314Y14551856D01*
X700000Y14313958D01*
X700000Y15330968D01*
X12062561Y15330968D01*
X12447678Y14398913D01*
X13160163Y13685183D01*
X14091545Y13298440D01*
X15100031Y13297560D01*
X16032086Y13682677D01*
X16745816Y14395162D01*
X17099101Y15245969D01*
X49146561Y15245969D01*
X49531678Y14313914D01*
X50244163Y13600184D01*
X51175545Y13213441D01*
X52184031Y13212561D01*
X53116086Y13597678D01*
X53829816Y14310163D01*
X54216559Y15241545D01*
X54217439Y16250031D01*
X53832322Y17182086D01*
X53119837Y17895816D01*
X52188455Y18282559D01*
X51179969Y18283439D01*
X50247914Y17898322D01*
X49534184Y17185837D01*
X49147441Y16254455D01*
X49146561Y15245969D01*
X17099101Y15245969D01*
X17132559Y15326544D01*
X17133439Y16335030D01*
X16748322Y17267085D01*
X16035837Y17980815D01*
X15104455Y18367558D01*
X14095969Y18368438D01*
X13163914Y17983321D01*
X12450184Y17270836D01*
X12063441Y16339454D01*
X12062561Y15330968D01*
X700000Y15330968D01*
X700000Y70617969D01*
X12570561Y70617969D01*
X12955678Y69685914D01*
X13668163Y68972184D01*
X14599545Y68585441D01*
X15608031Y68584561D01*
X16540086Y68969678D01*
X17253816Y69682163D01*
X17640559Y70613545D01*
X17640784Y70871969D01*
X49146561Y70871969D01*
X49531678Y69939914D01*
X50244163Y69226184D01*
X51175545Y68839441D01*
X52184031Y68838561D01*
X53116086Y69223678D01*
X53829816Y69936163D01*
X54216559Y70867545D01*
X54217439Y71876031D01*
X53832322Y72808086D01*
X53119837Y73521816D01*
X52188455Y73908559D01*
X51179969Y73909439D01*
X50247914Y73524322D01*
X49534184Y72811837D01*
X49147441Y71880455D01*
X49146561Y70871969D01*
X17640784Y70871969D01*
X17641439Y71622031D01*
X17256322Y72554086D01*
X16543837Y73267816D01*
X15612455Y73654559D01*
X14603969Y73655439D01*
X13671914Y73270322D01*
X12958184Y72557837D01*
X12571441Y71626455D01*
X12570561Y70617969D01*
X700000Y70617969D01*
X700000Y75070541D01*
X936117Y74834012D01*
X1481719Y74607458D01*
X2072489Y74606943D01*
X2618486Y74832544D01*
X3036588Y75249917D01*
X3263142Y75795519D01*
X3263151Y75806111D01*
X18460543Y75806111D01*
X18686144Y75260114D01*
X19103517Y74842012D01*
X19649119Y74615458D01*
X20239889Y74614943D01*
X20785886Y74840544D01*
X21203988Y75257917D01*
X21430542Y75803519D01*
X21430550Y75813711D01*
X36621543Y75813711D01*
X36847144Y75267714D01*
X37264517Y74849612D01*
X37810119Y74623058D01*
X38400889Y74622543D01*
X38946886Y74848144D01*
X39364988Y75265517D01*
X39591542Y75811119D01*
X39592057Y76401889D01*
X39366456Y76947886D01*
X39300746Y77013711D01*
X45021543Y77013711D01*
X45247144Y76467714D01*
X45664517Y76049612D01*
X46210119Y75823058D01*
X46800889Y75822543D01*
X46902459Y75864511D01*
X54782543Y75864511D01*
X55008144Y75318514D01*
X55425517Y74900412D01*
X55971119Y74673858D01*
X56561889Y74673343D01*
X57107886Y74898944D01*
X57525988Y75316317D01*
X57752542Y75861919D01*
X57753057Y76452689D01*
X57527456Y76998686D01*
X57461746Y77064511D01*
X63182543Y77064511D01*
X63408144Y76518514D01*
X63825517Y76100412D01*
X64371119Y75873858D01*
X64961889Y75873343D01*
X65507886Y76098944D01*
X65925988Y76516317D01*
X66152542Y77061919D01*
X66153057Y77652689D01*
X65927456Y78198686D01*
X65510083Y78616788D01*
X64964481Y78843342D01*
X64373711Y78843857D01*
X63827714Y78618256D01*
X63409612Y78200883D01*
X63183058Y77655281D01*
X63182543Y77064511D01*
X57461746Y77064511D01*
X57110083Y77416788D01*
X56564481Y77643342D01*
X55973711Y77643857D01*
X55427714Y77418256D01*
X55009612Y77000883D01*
X54783058Y76455281D01*
X54782543Y75864511D01*
X46902459Y75864511D01*
X47346886Y76048144D01*
X47764988Y76465517D01*
X47991542Y77011119D01*
X47992057Y77601889D01*
X47766456Y78147886D01*
X47349083Y78565988D01*
X46803481Y78792542D01*
X46212711Y78793057D01*
X45666714Y78567456D01*
X45248612Y78150083D01*
X45022058Y77604481D01*
X45021543Y77013711D01*
X39300746Y77013711D01*
X38949083Y77365988D01*
X38403481Y77592542D01*
X37812711Y77593057D01*
X37266714Y77367456D01*
X36848612Y76950083D01*
X36622058Y76404481D01*
X36621543Y75813711D01*
X21430550Y75813711D01*
X21431057Y76394289D01*
X21205456Y76940286D01*
X21139746Y77006111D01*
X26860543Y77006111D01*
X27086144Y76460114D01*
X27503517Y76042012D01*
X28049119Y75815458D01*
X28639889Y75814943D01*
X29185886Y76040544D01*
X29603988Y76457917D01*
X29830542Y77003519D01*
X29831057Y77594289D01*
X29605456Y78140286D01*
X29188083Y78558388D01*
X28642481Y78784942D01*
X28051711Y78785457D01*
X27505714Y78559856D01*
X27087612Y78142483D01*
X26861058Y77596881D01*
X26860543Y77006111D01*
X21139746Y77006111D01*
X20788083Y77358388D01*
X20242481Y77584942D01*
X19651711Y77585457D01*
X19105714Y77359856D01*
X18687612Y76942483D01*
X18461058Y76396881D01*
X18460543Y75806111D01*
X3263151Y75806111D01*
X3263657Y76386289D01*
X3038056Y76932286D01*
X2972346Y76998111D01*
X8693143Y76998111D01*
X8918744Y76452114D01*
X9336117Y76034012D01*
X9881719Y75807458D01*
X10472489Y75806943D01*
X11018486Y76032544D01*
X11436588Y76449917D01*
X11663142Y76995519D01*
X11663657Y77586289D01*
X11438056Y78132286D01*
X11020683Y78550388D01*
X10475081Y78776942D01*
X9884311Y78777457D01*
X9338314Y78551856D01*
X8920212Y78134483D01*
X8693658Y77588881D01*
X8693143Y76998111D01*
X2972346Y76998111D01*
X2620683Y77350388D01*
X2075081Y77576942D01*
X1484311Y77577457D01*
X938314Y77351856D01*
X700000Y77113958D01*
X700000Y80461987D01*
X3427792Y80461987D01*
X3497257Y80219803D01*
X4020702Y80033056D01*
X4575768Y80060838D01*
X4959543Y80219803D01*
X5029008Y80461987D01*
X5021008Y80469987D01*
X21595192Y80469987D01*
X21664657Y80227803D01*
X22188102Y80041056D01*
X22743168Y80068838D01*
X23126943Y80227803D01*
X23196408Y80469987D01*
X23188808Y80477587D01*
X39756192Y80477587D01*
X39825657Y80235403D01*
X40349102Y80048656D01*
X40904168Y80076438D01*
X41287943Y80235403D01*
X41357408Y80477587D01*
X41306608Y80528387D01*
X57917192Y80528387D01*
X57986657Y80286203D01*
X58510102Y80099456D01*
X59065168Y80127238D01*
X59448943Y80286203D01*
X59518408Y80528387D01*
X58717800Y81328995D01*
X57917192Y80528387D01*
X41306608Y80528387D01*
X40556800Y81278195D01*
X39756192Y80477587D01*
X23188808Y80477587D01*
X22395800Y81270595D01*
X21595192Y80469987D01*
X5021008Y80469987D01*
X4228400Y81262595D01*
X3427792Y80461987D01*
X700000Y80461987D01*
X700000Y81649898D01*
X2819256Y81649898D01*
X2847038Y81094832D01*
X3006003Y80711057D01*
X3248187Y80641592D01*
X4048795Y81442200D01*
X4408005Y81442200D01*
X5208613Y80641592D01*
X5450797Y80711057D01*
X5637544Y81234502D01*
X5616353Y81657898D01*
X20986656Y81657898D01*
X21014438Y81102832D01*
X21173403Y80719057D01*
X21415587Y80649592D01*
X22216195Y81450200D01*
X22575405Y81450200D01*
X23376013Y80649592D01*
X23618197Y80719057D01*
X23804944Y81242502D01*
X23783773Y81665498D01*
X39147656Y81665498D01*
X39175438Y81110432D01*
X39334403Y80726657D01*
X39576587Y80657192D01*
X40377195Y81457800D01*
X40736405Y81457800D01*
X41537013Y80657192D01*
X41779197Y80726657D01*
X41965944Y81250102D01*
X41942611Y81716298D01*
X57308656Y81716298D01*
X57336438Y81161232D01*
X57495403Y80777457D01*
X57737587Y80707992D01*
X58538195Y81508600D01*
X58897405Y81508600D01*
X59698013Y80707992D01*
X59940197Y80777457D01*
X60126944Y81300902D01*
X60099162Y81855968D01*
X59940197Y82239743D01*
X59698013Y82309208D01*
X58897405Y81508600D01*
X58538195Y81508600D01*
X57737587Y82309208D01*
X57495403Y82239743D01*
X57308656Y81716298D01*
X41942611Y81716298D01*
X41938162Y81805168D01*
X41779197Y82188943D01*
X41537013Y82258408D01*
X40736405Y81457800D01*
X40377195Y81457800D01*
X39576587Y82258408D01*
X39334403Y82188943D01*
X39147656Y81665498D01*
X23783773Y81665498D01*
X23777162Y81797568D01*
X23618197Y82181343D01*
X23376013Y82250808D01*
X22575405Y81450200D01*
X22216195Y81450200D01*
X21415587Y82250808D01*
X21173403Y82181343D01*
X20986656Y81657898D01*
X5616353Y81657898D01*
X5609762Y81789568D01*
X5450797Y82173343D01*
X5208613Y82242808D01*
X4408005Y81442200D01*
X4048795Y81442200D01*
X3248187Y82242808D01*
X3006003Y82173343D01*
X2819256Y81649898D01*
X700000Y81649898D01*
X700000Y82422413D01*
X3427792Y82422413D01*
X4228400Y81621805D01*
X5029008Y82422413D01*
X4959543Y82664597D01*
X4436098Y82851344D01*
X3881032Y82823562D01*
X3497257Y82664597D01*
X3427792Y82422413D01*
X700000Y82422413D01*
X700000Y82856000D01*
X22536687Y82856000D01*
X22048432Y82831562D01*
G36*
X19710869Y7810947D02*
X19807627Y7324513D01*
X20162050Y6794080D01*
X20692483Y6439657D01*
X21318170Y6315200D01*
X22395800Y6315200D01*
X23021487Y6439657D01*
X23551920Y6794080D01*
X23888995Y7298550D01*
X23940427Y7039984D01*
X24240657Y6590657D01*
X24689984Y6290427D01*
X25220000Y6185000D01*
X25750016Y6290427D01*
X25779773Y6310310D01*
X32163000Y6310310D01*
X32163000Y5619750D01*
X32321750Y5461000D01*
X33521000Y5461000D01*
X33521000Y6660250D01*
X33362250Y6819000D01*
X32671691Y6819000D01*
X32438302Y6722327D01*
X32259673Y6543699D01*
X32163000Y6310310D01*
X25779773Y6310310D01*
X26142961Y6552984D01*
X26172461Y6552958D01*
X26686103Y6765190D01*
X27079429Y7157830D01*
X27292557Y7671100D01*
X27293042Y8226861D01*
X27148285Y8577201D01*
X38190845Y8577201D01*
X39123268Y7644778D01*
X38720009Y7724991D01*
X38094322Y7600534D01*
X37563889Y7246111D01*
X37500076Y7150607D01*
X37376120Y7336120D01*
X36845688Y7690543D01*
X36220000Y7815001D01*
X35594312Y7690543D01*
X35063881Y7336120D01*
X35031880Y7304120D01*
X34689649Y6791935D01*
X34624309Y6819000D01*
X33933750Y6819000D01*
X33775000Y6660250D01*
X33775000Y5461000D01*
X33795000Y5461000D01*
X33795000Y5207000D01*
X33775000Y5207000D01*
X33775000Y5187000D01*
X33521000Y5187000D01*
X33521000Y5207000D01*
X32321750Y5207000D01*
X32163000Y5048250D01*
X32163000Y4357690D01*
X32184200Y4306510D01*
X32174313Y4304543D01*
X31761933Y4029000D01*
X9888154Y4029000D01*
X7580543Y6336611D01*
X7728400Y6307200D01*
X8348116Y6307200D01*
X8510000Y6274999D01*
X9135688Y6399457D01*
X9666120Y6753880D01*
X10020543Y7284312D01*
X10145001Y7910000D01*
X10020543Y8535687D01*
X9839117Y8807211D01*
X18714605Y8807211D01*
X19710869Y7810947D01*
X19710869Y7810947D01*
G37*
X19710869Y7810947D02*
X19807627Y7324513D01*
X20162050Y6794080D01*
X20692483Y6439657D01*
X21318170Y6315200D01*
X22395800Y6315200D01*
X23021487Y6439657D01*
X23551920Y6794080D01*
X23888995Y7298550D01*
X23940427Y7039984D01*
X24240657Y6590657D01*
X24689984Y6290427D01*
X25220000Y6185000D01*
X25750016Y6290427D01*
X25779773Y6310310D01*
X32163000Y6310310D01*
X32163000Y5619750D01*
X32321750Y5461000D01*
X33521000Y5461000D01*
X33521000Y6660250D01*
X33362250Y6819000D01*
X32671691Y6819000D01*
X32438302Y6722327D01*
X32259673Y6543699D01*
X32163000Y6310310D01*
X25779773Y6310310D01*
X26142961Y6552984D01*
X26172461Y6552958D01*
X26686103Y6765190D01*
X27079429Y7157830D01*
X27292557Y7671100D01*
X27293042Y8226861D01*
X27148285Y8577201D01*
X38190845Y8577201D01*
X39123268Y7644778D01*
X38720009Y7724991D01*
X38094322Y7600534D01*
X37563889Y7246111D01*
X37500076Y7150607D01*
X37376120Y7336120D01*
X36845688Y7690543D01*
X36220000Y7815001D01*
X35594312Y7690543D01*
X35063881Y7336120D01*
X35031880Y7304120D01*
X34689649Y6791935D01*
X34624309Y6819000D01*
X33933750Y6819000D01*
X33775000Y6660250D01*
X33775000Y5461000D01*
X33795000Y5461000D01*
X33795000Y5207000D01*
X33775000Y5207000D01*
X33775000Y5187000D01*
X33521000Y5187000D01*
X33521000Y5207000D01*
X32321750Y5207000D01*
X32163000Y5048250D01*
X32163000Y4357690D01*
X32184200Y4306510D01*
X32174313Y4304543D01*
X31761933Y4029000D01*
X9888154Y4029000D01*
X7580543Y6336611D01*
X7728400Y6307200D01*
X8348116Y6307200D01*
X8510000Y6274999D01*
X9135688Y6399457D01*
X9666120Y6753880D01*
X10020543Y7284312D01*
X10145001Y7910000D01*
X10020543Y8535687D01*
X9839117Y8807211D01*
X18714605Y8807211D01*
X19710869Y7810947D01*
M02*
