M48
;DRILL file {KiCad 4.0.4-stable} date 03/02/17 17:23:49
;FORMAT={-:-/ absolute / metric / decimal}
FMAT,2
METRIC,TZ
T1C0.800
T2C0.991
T3C1.000
T4C1.400
T5C1.499
T6C2.100
T7C2.200
%
G90
G05
M71
T1
X9.271Y49.606
X16.51Y7.087
X20.65Y13.995
X22.758Y31.14
X26.678Y13.995
X30.759Y24.633
X30.759Y15.24
X39.522Y46.228
X45.161Y7.976
X50.876Y42.164
X55.423Y3.124
X55.982Y32.766
X55.982Y14.046
X57.887Y17.17
X59.512Y32.36
X60.782Y13.386
X60.858Y46.761
X61.341Y16.967
X66.726Y40.894
X66.802Y8.204
X67.894Y3.785
X82.728Y25.984
X105.893Y44.298
T2
X7.95Y12.827
X10.49Y12.827
T3
X6.746Y47.302
X9.246Y47.302
X11.746Y47.302
X26.568Y10.363
X26.568Y7.823
X29.108Y10.363
X29.108Y7.823
X31.648Y10.363
X31.648Y7.823
X34.188Y10.363
X34.188Y7.823
X36.728Y10.363
X36.728Y7.823
X68.615Y50.752
X71.155Y50.752
X73.695Y50.752
X76.235Y50.752
X78.775Y50.752
X81.315Y50.752
X83.855Y50.752
X86.395Y50.752
X88.935Y50.752
X91.475Y50.752
X94.015Y50.752
X96.555Y50.752
X99.095Y50.752
X101.635Y50.752
X104.175Y50.752
X106.715Y50.752
T4
X6.746Y32.802
X11.746Y32.802
T5
X6.68Y22.962
X13.03Y20.422
T7
X3.581Y56.54
X4.115Y3.861
X106.909Y56.845
X107.036Y2.921
T6
X3.246Y39.802G85X3.246Y39.802
G05
X15.246Y39.802G85X15.246Y39.802
G05
T0
M30
