G04 #@! TF.FileFunction,Copper,L2,Bot,Signal*
%FSLAX46Y46*%
G04 Gerber Fmt 4.6, Leading zero omitted, Abs format (unit mm)*
G04 Created by KiCad (PCBNEW 4.0.4-stable) date 03/02/17 17:24:00*
%MOMM*%
%LPD*%
G01*
G04 APERTURE LIST*
%ADD10C,0.100000*%
%ADD11O,3.600000X3.600000*%
%ADD12O,3.800000X3.800000*%
%ADD13C,2.200000*%
%ADD14C,1.800000*%
%ADD15R,1.700000X1.700000*%
%ADD16C,1.700000*%
%ADD17C,2.286000*%
%ADD18C,1.905000*%
%ADD19R,1.905000X1.905000*%
%ADD20C,3.800000*%
%ADD21O,1.700000X1.700000*%
%ADD22C,1.200000*%
%ADD23C,2.000000*%
%ADD24C,0.900000*%
%ADD25C,1.500000*%
%ADD26C,0.700000*%
%ADD27C,0.800000*%
%ADD28C,1.000000*%
%ADD29C,0.254000*%
G04 APERTURE END LIST*
D10*
D11*
X15245600Y39801800D03*
D12*
X3245600Y39801800D03*
D13*
X11745600Y32801800D03*
X6745600Y32801800D03*
D14*
X9245600Y47301800D03*
X11745600Y47301800D03*
X6745600Y47301800D03*
D15*
X26568400Y10363200D03*
D16*
X26568400Y7823200D03*
X29108400Y10363200D03*
X29108400Y7823200D03*
X31648400Y10363200D03*
X31648400Y7823200D03*
X34188400Y10363200D03*
X34188400Y7823200D03*
X36728400Y10363200D03*
X36728400Y7823200D03*
D17*
X6680200Y22961600D03*
X13030200Y20421600D03*
D18*
X10490200Y12827000D03*
D19*
X7950200Y12827000D03*
D20*
X3581400Y56540400D03*
X106908600Y56845200D03*
X107035600Y2921000D03*
X4114800Y3860800D03*
D15*
X106714919Y50751599D03*
D21*
X104174919Y50751599D03*
X101634919Y50751599D03*
X99094919Y50751599D03*
X96554919Y50751599D03*
X94014919Y50751599D03*
X91474919Y50751599D03*
X88934919Y50751599D03*
X86394919Y50751599D03*
X83854919Y50751599D03*
X81314919Y50751599D03*
X78774919Y50751599D03*
X76234919Y50751599D03*
X73694919Y50751599D03*
X71154919Y50751599D03*
X68614919Y50751599D03*
D22*
X55422800Y3124200D03*
X60782200Y13385800D03*
X55981600Y32766000D03*
X55981600Y14046200D03*
X59512200Y32359600D03*
X57886600Y17170400D03*
X30759400Y24633000D03*
X67894200Y3784600D03*
X105892600Y44297600D03*
X82727800Y25984200D03*
X60858400Y46761400D03*
X50876200Y42164000D03*
X22758400Y31140400D03*
X39522400Y46228000D03*
X30759400Y15240000D03*
X20650200Y13995400D03*
X26678281Y13995400D03*
X9271000Y49606200D03*
X61341000Y16967200D03*
X66725800Y40894000D03*
X66802000Y8204200D03*
X16510000Y7086600D03*
X45161200Y7975600D03*
D23*
X60782200Y13385800D02*
X60782200Y8483600D01*
X60782200Y8483600D02*
X55422800Y3124200D01*
D24*
X60782200Y12537272D02*
X60782200Y9144000D01*
X60782200Y9144000D02*
X55422800Y3784600D01*
D23*
X55422800Y3124200D02*
X55422800Y3784600D01*
X60782200Y13385800D02*
X60782200Y12537272D01*
X60782200Y12537272D02*
X60782200Y12776200D01*
D25*
X34188400Y10363200D02*
X34188400Y7823200D01*
D23*
X55981600Y32364548D02*
X55981600Y32766000D01*
X55981600Y15539852D02*
X55386590Y16134862D01*
X55981600Y14046200D02*
X55981600Y15539852D01*
X55386590Y16134862D02*
X55386590Y31769538D01*
X55386590Y31769538D02*
X55981600Y32364548D01*
X55981600Y32766000D02*
X56108600Y32766000D01*
D25*
X31648400Y10363200D02*
X31648400Y7823200D01*
D23*
X57886600Y17170400D02*
X57886600Y30734000D01*
X57886600Y30734000D02*
X59512200Y32359600D01*
X57886600Y17170400D02*
X57988200Y17170400D01*
X57988200Y17170400D02*
X58369200Y17551400D01*
D24*
X57886600Y17297400D02*
X57886600Y17170400D01*
D23*
X59512200Y32359600D02*
X59512200Y31775400D01*
X59512200Y31775400D02*
X59486800Y31750000D01*
D25*
X29108400Y7823200D02*
X29108400Y10363200D01*
D26*
X30759400Y24633000D02*
X30759400Y37465000D01*
D25*
X30759400Y15240000D02*
X30759400Y24633000D01*
D27*
X65227200Y1879600D02*
X67132200Y3784600D01*
X67132200Y3784600D02*
X67894200Y3784600D01*
X56865219Y1879600D02*
X65227200Y1879600D01*
X52019200Y2057400D02*
X52852410Y1224190D01*
X52852410Y1224190D02*
X56209809Y1224190D01*
X56209809Y1224190D02*
X56865219Y1879600D01*
X52019200Y5232400D02*
X52019200Y2057400D01*
D23*
X42011600Y15240000D02*
X52019200Y5232400D01*
X30759400Y15240000D02*
X42011600Y15240000D01*
D24*
X60741001Y16367201D02*
X61341000Y16967200D01*
X57931611Y13557811D02*
X60741001Y16367201D01*
X57931611Y13238479D02*
X57931611Y13557811D01*
X51530811Y12096189D02*
X56789321Y12096189D01*
X48387000Y15240000D02*
X51530811Y12096189D01*
X30759400Y15240000D02*
X48387000Y15240000D01*
X56789321Y12096189D02*
X57931611Y13238479D01*
X104267000Y44424600D02*
X104394000Y44297600D01*
X104394000Y44297600D02*
X105892600Y44297600D01*
X63754000Y44424600D02*
X104267000Y44424600D01*
X54864000Y35534600D02*
X63754000Y44424600D01*
X51054000Y35534600D02*
X54864000Y35534600D01*
X30759400Y15240000D02*
X51054000Y35534600D01*
D25*
X82727800Y26441400D02*
X82727800Y25984200D01*
D28*
X82727800Y20523200D02*
X82727800Y25984200D01*
X79146400Y16941800D02*
X82727800Y20523200D01*
X78994000Y16941800D02*
X79146400Y16941800D01*
D26*
X30759400Y16662400D02*
X60858400Y46761400D01*
X30759400Y15240000D02*
X30759400Y16662400D01*
X30759400Y22047200D02*
X50876200Y42164000D01*
X30759400Y15240000D02*
X30759400Y22047200D01*
X20650200Y29032200D02*
X22758400Y31140400D01*
X20650200Y13995400D02*
X20650200Y29032200D01*
X30759400Y37465000D02*
X39522400Y46228000D01*
X30759400Y15240000D02*
X31359399Y15839999D01*
X31359399Y15839999D02*
X31359399Y36845799D01*
D25*
X9829800Y51155600D02*
X14757400Y51155600D01*
X9271000Y50596800D02*
X9829800Y51155600D01*
X9271000Y49606200D02*
X9271000Y50596800D01*
D23*
X62189528Y16967200D02*
X62214928Y16941800D01*
X61341000Y16967200D02*
X62189528Y16967200D01*
D25*
X36728400Y10363200D02*
X36728400Y7823200D01*
X66802000Y8204200D02*
X66802000Y40817800D01*
X66802000Y40817800D02*
X66725800Y40894000D01*
D23*
X45161200Y7975600D02*
X41579800Y7975600D01*
X41579800Y7975600D02*
X38836600Y5232400D01*
X38836600Y5232400D02*
X18364200Y5232400D01*
X18364200Y5232400D02*
X16510000Y7086600D01*
D29*
G36*
X105474514Y58995522D02*
X104760784Y58283037D01*
X104374041Y57351655D01*
X104373161Y56343169D01*
X104758278Y55411114D01*
X105470763Y54697384D01*
X106402145Y54310641D01*
X107410631Y54309761D01*
X108342686Y54694878D01*
X109056416Y55407363D01*
X109322800Y56048888D01*
X109322800Y4023816D01*
X109185922Y4355086D01*
X108473437Y5068816D01*
X107542055Y5455559D01*
X106533569Y5456439D01*
X105601514Y5071322D01*
X104887784Y4358837D01*
X104501041Y3427455D01*
X104500161Y2418969D01*
X104885278Y1486914D01*
X105597763Y773184D01*
X105749927Y710000D01*
X710000Y710000D01*
X710000Y3358769D01*
X1579361Y3358769D01*
X1964478Y2426714D01*
X2676963Y1712984D01*
X3608345Y1326241D01*
X4616831Y1325361D01*
X5548886Y1710478D01*
X6262616Y2422963D01*
X6553794Y3124200D01*
X53787799Y3124200D01*
X53912257Y2498512D01*
X54266680Y1968080D01*
X54797112Y1613657D01*
X55422800Y1489199D01*
X56048488Y1613657D01*
X56578920Y1968080D01*
X61938317Y7327478D01*
X61938320Y7327480D01*
X62244196Y7785257D01*
X62292743Y7857912D01*
X62417200Y8483600D01*
X62417200Y13385800D01*
X62292743Y14011487D01*
X61938320Y14541920D01*
X61407887Y14896343D01*
X60782200Y15020800D01*
X60156513Y14896343D01*
X59626080Y14541920D01*
X59271657Y14011487D01*
X59147200Y13385800D01*
X59147200Y9160839D01*
X55401779Y5415419D01*
X54797113Y5295143D01*
X54266680Y4940720D01*
X53912257Y4410287D01*
X53787800Y3784600D01*
X53787800Y3124205D01*
X53787799Y3124200D01*
X6553794Y3124200D01*
X6649359Y3354345D01*
X6650239Y4362831D01*
X6265122Y5294886D01*
X5552637Y6008616D01*
X4621255Y6395359D01*
X3612769Y6396239D01*
X2680714Y6011122D01*
X1966984Y5298637D01*
X1580241Y4367255D01*
X1579361Y3358769D01*
X710000Y3358769D01*
X710000Y7086600D01*
X14874999Y7086600D01*
X14999457Y6460912D01*
X15353880Y5930480D01*
X17208078Y4076283D01*
X17208080Y4076280D01*
X17473297Y3899068D01*
X17738512Y3721857D01*
X18364200Y3597399D01*
X18364205Y3597400D01*
X38836595Y3597400D01*
X38836600Y3597399D01*
X39462288Y3721857D01*
X39992720Y4076280D01*
X42257039Y6340600D01*
X45161200Y6340600D01*
X45786887Y6465057D01*
X46317320Y6819480D01*
X46671743Y7349913D01*
X46796200Y7975600D01*
X46671743Y8601287D01*
X46317320Y9131720D01*
X45786887Y9486143D01*
X45161200Y9610600D01*
X41579805Y9610600D01*
X41579800Y9610601D01*
X41017980Y9498847D01*
X40954113Y9486143D01*
X40423680Y9131720D01*
X40423678Y9131717D01*
X38159360Y6867400D01*
X37872873Y6867400D01*
X37986588Y6980917D01*
X38213142Y7526519D01*
X38213657Y8117289D01*
X38113400Y8359930D01*
X38113400Y9826314D01*
X38213142Y10066519D01*
X38213657Y10657289D01*
X37988056Y11203286D01*
X37570683Y11621388D01*
X37025081Y11847942D01*
X36434311Y11848457D01*
X35888314Y11622856D01*
X35470212Y11205483D01*
X35458652Y11177643D01*
X35448056Y11203286D01*
X35030683Y11621388D01*
X34485081Y11847942D01*
X33894311Y11848457D01*
X33348314Y11622856D01*
X32930212Y11205483D01*
X32918652Y11177643D01*
X32908056Y11203286D01*
X32490683Y11621388D01*
X31945081Y11847942D01*
X31354311Y11848457D01*
X30808314Y11622856D01*
X30390212Y11205483D01*
X30370449Y11157888D01*
X30152358Y11227553D01*
X29288005Y10363200D01*
X30152358Y9498847D01*
X30263400Y9534317D01*
X30263400Y8652083D01*
X30152358Y8687553D01*
X29288005Y7823200D01*
X29302148Y7809057D01*
X29122543Y7629452D01*
X29108400Y7643595D01*
X29094258Y7629452D01*
X28914653Y7809057D01*
X28928795Y7823200D01*
X28064442Y8687553D01*
X27846760Y8618019D01*
X27828056Y8663286D01*
X27593117Y8898635D01*
X27653717Y8910038D01*
X27869841Y9049110D01*
X28014831Y9261310D01*
X28026562Y9319242D01*
X28244047Y9319242D01*
X28316252Y9093200D01*
X28244047Y8867158D01*
X29108400Y8002805D01*
X29972753Y8867158D01*
X29900548Y9093200D01*
X29972753Y9319242D01*
X29108400Y10183595D01*
X28244047Y9319242D01*
X28026562Y9319242D01*
X28063025Y9499300D01*
X28064442Y9498847D01*
X28928795Y10363200D01*
X28064442Y11227553D01*
X28063213Y11227160D01*
X28029345Y11407158D01*
X28244047Y11407158D01*
X29108400Y10542805D01*
X29972753Y11407158D01*
X29892480Y11658459D01*
X29337121Y11859918D01*
X28746942Y11833515D01*
X28324320Y11658459D01*
X28244047Y11407158D01*
X28029345Y11407158D01*
X28021562Y11448517D01*
X27882490Y11664641D01*
X27670290Y11809631D01*
X27418400Y11860640D01*
X25718400Y11860640D01*
X25483083Y11816362D01*
X25266959Y11677290D01*
X25121969Y11465090D01*
X25070960Y11213200D01*
X25070960Y9513200D01*
X25115238Y9277883D01*
X25254310Y9061759D01*
X25466510Y8916769D01*
X25545843Y8900704D01*
X25310212Y8665483D01*
X25083658Y8119881D01*
X25083143Y7529111D01*
X25308744Y6983114D01*
X25424256Y6867400D01*
X19041439Y6867400D01*
X17666120Y8242720D01*
X17135688Y8597143D01*
X16510000Y8721601D01*
X15884312Y8597143D01*
X15353880Y8242720D01*
X14999457Y7712288D01*
X14874999Y7086600D01*
X710000Y7086600D01*
X710000Y13779500D01*
X6350260Y13779500D01*
X6350260Y11874500D01*
X6394538Y11639183D01*
X6533610Y11423059D01*
X6745810Y11278069D01*
X6997700Y11227060D01*
X8902700Y11227060D01*
X9138017Y11271338D01*
X9354141Y11410410D01*
X9499131Y11622610D01*
X9507692Y11664884D01*
X9551647Y11708839D01*
X9644488Y11446912D01*
X10237001Y11228325D01*
X10868061Y11253122D01*
X11335912Y11446912D01*
X11428754Y11708841D01*
X10490200Y12647395D01*
X10476058Y12633252D01*
X10296453Y12812857D01*
X10310595Y12827000D01*
X10669805Y12827000D01*
X11608359Y11888446D01*
X11870288Y11981288D01*
X12088875Y12573801D01*
X12064078Y13204861D01*
X11870288Y13672712D01*
X11608359Y13765554D01*
X10669805Y12827000D01*
X10310595Y12827000D01*
X10296453Y12841142D01*
X10476058Y13020747D01*
X10490200Y13006605D01*
X11428754Y13945159D01*
X11335912Y14207088D01*
X10743399Y14425675D01*
X10112339Y14400878D01*
X9644488Y14207088D01*
X9551647Y13945161D01*
X9511395Y13985413D01*
X9505862Y14014817D01*
X9366790Y14230941D01*
X9154590Y14375931D01*
X8902700Y14426940D01*
X6997700Y14426940D01*
X6762383Y14382662D01*
X6546259Y14243590D01*
X6401269Y14031390D01*
X6350260Y13779500D01*
X710000Y13779500D01*
X710000Y17587333D01*
X2654042Y17587333D01*
X2879780Y17041005D01*
X3297406Y16622649D01*
X3843339Y16395958D01*
X4434467Y16395442D01*
X4980795Y16621180D01*
X5399151Y17038806D01*
X5532926Y17360974D01*
X6590845Y17360974D01*
X6990228Y16394393D01*
X7729104Y15654227D01*
X8694985Y15253158D01*
X9740826Y15252245D01*
X10707407Y15651628D01*
X11447573Y16390504D01*
X11848642Y17356385D01*
X11849555Y18402226D01*
X11450172Y19368807D01*
X10750715Y20069486D01*
X11251892Y20069486D01*
X11522006Y19415760D01*
X12021729Y18915164D01*
X12674982Y18643909D01*
X13007708Y18643619D01*
X12814558Y18178461D01*
X12814042Y17587333D01*
X13039780Y17041005D01*
X13457406Y16622649D01*
X14003339Y16395958D01*
X14594467Y16395442D01*
X15140795Y16621180D01*
X15559151Y17038806D01*
X15785842Y17584739D01*
X15786358Y18175867D01*
X15560620Y18722195D01*
X15142994Y19140551D01*
X14597061Y19367242D01*
X14490762Y19367335D01*
X14536636Y19413129D01*
X14807891Y20066382D01*
X14808508Y20773714D01*
X14538394Y21427440D01*
X14038671Y21928036D01*
X13385418Y22199291D01*
X12678086Y22199908D01*
X12024360Y21929794D01*
X11523764Y21430071D01*
X11252509Y20776818D01*
X11251892Y20069486D01*
X10750715Y20069486D01*
X10711296Y20108973D01*
X9745415Y20510042D01*
X8699574Y20510955D01*
X7732993Y20111572D01*
X6992827Y19372696D01*
X6591758Y18406815D01*
X6590845Y17360974D01*
X5532926Y17360974D01*
X5625842Y17584739D01*
X5626358Y18175867D01*
X5400620Y18722195D01*
X4982994Y19140551D01*
X4437061Y19367242D01*
X3845933Y19367758D01*
X3299605Y19142020D01*
X2881249Y18724394D01*
X2654558Y18178461D01*
X2654042Y17587333D01*
X710000Y17587333D01*
X710000Y21705637D01*
X5603842Y21705637D01*
X5720006Y21423942D01*
X6381533Y21173538D01*
X7088529Y21195351D01*
X7640394Y21423942D01*
X7756558Y21705637D01*
X6680200Y22781995D01*
X5603842Y21705637D01*
X710000Y21705637D01*
X710000Y23260267D01*
X4892138Y23260267D01*
X4913951Y22553271D01*
X5142542Y22001406D01*
X5424237Y21885242D01*
X6500595Y22961600D01*
X6859805Y22961600D01*
X7936163Y21885242D01*
X8217858Y22001406D01*
X8468262Y22662933D01*
X8446449Y23369929D01*
X8217858Y23921794D01*
X7936163Y24037958D01*
X6859805Y22961600D01*
X6500595Y22961600D01*
X5424237Y24037958D01*
X5142542Y23921794D01*
X4892138Y23260267D01*
X710000Y23260267D01*
X710000Y24217563D01*
X5603842Y24217563D01*
X6680200Y23141205D01*
X7756558Y24217563D01*
X7640394Y24499258D01*
X6978867Y24749662D01*
X6271871Y24727849D01*
X5720006Y24499258D01*
X5603842Y24217563D01*
X710000Y24217563D01*
X710000Y31576932D01*
X5700337Y31576932D01*
X5811241Y31299701D01*
X6457193Y31056477D01*
X7147053Y31078964D01*
X7679959Y31299701D01*
X7790863Y31576932D01*
X6745600Y32622195D01*
X5700337Y31576932D01*
X710000Y31576932D01*
X710000Y33090207D01*
X5000277Y33090207D01*
X5022764Y32400347D01*
X5243501Y31867441D01*
X5520732Y31756537D01*
X6565995Y32801800D01*
X6925205Y32801800D01*
X7970468Y31756537D01*
X8247699Y31867441D01*
X8470141Y32458201D01*
X10010299Y32458201D01*
X10273881Y31820285D01*
X10761518Y31331796D01*
X11398973Y31067101D01*
X12089199Y31066499D01*
X12727115Y31330081D01*
X13167339Y31769538D01*
X53751589Y31769538D01*
X53751590Y31769533D01*
X53751590Y16134867D01*
X53751589Y16134862D01*
X53876047Y15509174D01*
X54230470Y14978742D01*
X54346600Y14862612D01*
X54346600Y14046200D01*
X54471057Y13420513D01*
X54825480Y12890080D01*
X55355913Y12535657D01*
X55981600Y12411200D01*
X56607287Y12535657D01*
X57137720Y12890080D01*
X57492143Y13420513D01*
X57616600Y14046200D01*
X57616600Y15539852D01*
X57606399Y15591135D01*
X57886600Y15535400D01*
X57988195Y15535400D01*
X57988200Y15535399D01*
X58613888Y15659857D01*
X59144320Y16014280D01*
X59525319Y16395280D01*
X59879742Y16925712D01*
X60004200Y17551400D01*
X59879742Y18177087D01*
X59525319Y18707519D01*
X59521600Y18710004D01*
X59521600Y30056760D01*
X59602941Y30138101D01*
X60112488Y30239457D01*
X60642920Y30593880D01*
X60668320Y30619280D01*
X61022743Y31149712D01*
X61147201Y31775400D01*
X61147200Y31775405D01*
X61147200Y32359595D01*
X61147201Y32359600D01*
X61022743Y32985288D01*
X60668320Y33515720D01*
X60137888Y33870143D01*
X59512200Y33994601D01*
X58911388Y33875091D01*
X58886513Y33870143D01*
X58356080Y33515720D01*
X58356078Y33515717D01*
X57720831Y32880470D01*
X57619143Y33391687D01*
X57264720Y33922120D01*
X56734287Y34276543D01*
X56108600Y34401000D01*
X55981600Y34401000D01*
X55355913Y34276543D01*
X54825480Y33922120D01*
X54471057Y33391687D01*
X54415079Y33110267D01*
X54230470Y32925658D01*
X53876047Y32395226D01*
X53751589Y31769538D01*
X13167339Y31769538D01*
X13215604Y31817718D01*
X13480299Y32455173D01*
X13480901Y33145399D01*
X13217319Y33783315D01*
X12729682Y34271804D01*
X12092227Y34536499D01*
X11402001Y34537101D01*
X10764085Y34273519D01*
X10275596Y33785882D01*
X10010901Y33148427D01*
X10010299Y32458201D01*
X8470141Y32458201D01*
X8490923Y32513393D01*
X8468436Y33203253D01*
X8247699Y33736159D01*
X7970468Y33847063D01*
X6925205Y32801800D01*
X6565995Y32801800D01*
X5520732Y33847063D01*
X5243501Y33736159D01*
X5000277Y33090207D01*
X710000Y33090207D01*
X710000Y34026668D01*
X5700337Y34026668D01*
X6745600Y32981405D01*
X7790863Y34026668D01*
X7679959Y34303899D01*
X7034007Y34547123D01*
X6344147Y34524636D01*
X5811241Y34303899D01*
X5700337Y34026668D01*
X710000Y34026668D01*
X710000Y39555138D01*
X853901Y38831697D01*
X1403420Y38009284D01*
X2225833Y37459765D01*
X3195936Y37266800D01*
X3295264Y37266800D01*
X4265367Y37459765D01*
X5087780Y38009284D01*
X5637299Y38831697D01*
X5830264Y39801800D01*
X12762896Y39801800D01*
X12948249Y38869966D01*
X13476091Y38079995D01*
X14266062Y37552153D01*
X15197896Y37366800D01*
X15293304Y37366800D01*
X16225138Y37552153D01*
X17015109Y38079995D01*
X17542951Y38869966D01*
X17728304Y39801800D01*
X17542951Y40733634D01*
X17435798Y40894000D01*
X65340800Y40894000D01*
X65417000Y40510918D01*
X65417000Y8204200D01*
X65522427Y7674183D01*
X65822657Y7224857D01*
X66271983Y6924627D01*
X66802000Y6819200D01*
X67332017Y6924627D01*
X67781343Y7224857D01*
X68081573Y7674183D01*
X68187000Y8204200D01*
X68187000Y40817800D01*
X68081573Y41347817D01*
X67781343Y41797143D01*
X67705143Y41873343D01*
X67255816Y42173573D01*
X66725800Y42279000D01*
X66195784Y42173573D01*
X65746457Y41873343D01*
X65446227Y41424016D01*
X65340800Y40894000D01*
X17435798Y40894000D01*
X17015109Y41523605D01*
X16225138Y42051447D01*
X15293304Y42236800D01*
X15197896Y42236800D01*
X14266062Y42051447D01*
X13476091Y41523605D01*
X12948249Y40733634D01*
X12762896Y39801800D01*
X5830264Y39801800D01*
X5637299Y40771903D01*
X5087780Y41594316D01*
X4265367Y42143835D01*
X3295264Y42336800D01*
X3195936Y42336800D01*
X2225833Y42143835D01*
X1403420Y41594316D01*
X853901Y40771903D01*
X710000Y40048462D01*
X710000Y46997809D01*
X5210335Y46997809D01*
X5443532Y46433429D01*
X5874957Y46001249D01*
X6438930Y45767067D01*
X7049591Y45766535D01*
X7613971Y45999732D01*
X7836268Y46221641D01*
X8345046Y46221641D01*
X8431452Y45965157D01*
X9004936Y45755342D01*
X9615060Y45780961D01*
X10059748Y45965157D01*
X10146154Y46221641D01*
X9245600Y47122195D01*
X8345046Y46221641D01*
X7836268Y46221641D01*
X8046151Y46431157D01*
X8049894Y46440172D01*
X8165441Y46401246D01*
X9065995Y47301800D01*
X9425205Y47301800D01*
X10325759Y46401246D01*
X10440814Y46440007D01*
X10443532Y46433429D01*
X10874957Y46001249D01*
X11438930Y45767067D01*
X12049591Y45766535D01*
X12613971Y45999732D01*
X13046151Y46431157D01*
X13280333Y46995130D01*
X13280865Y47605791D01*
X13047668Y48170171D01*
X12616243Y48602351D01*
X12052270Y48836533D01*
X11441609Y48837065D01*
X10877229Y48603868D01*
X10445049Y48172443D01*
X10441306Y48163428D01*
X10325759Y48202354D01*
X9425205Y47301800D01*
X9065995Y47301800D01*
X8165441Y48202354D01*
X8050386Y48163593D01*
X8047668Y48170171D01*
X7836250Y48381959D01*
X8345046Y48381959D01*
X9245600Y47481405D01*
X10146154Y48381959D01*
X10059748Y48638443D01*
X9486264Y48848258D01*
X8876140Y48822639D01*
X8431452Y48638443D01*
X8345046Y48381959D01*
X7836250Y48381959D01*
X7616243Y48602351D01*
X7052270Y48836533D01*
X6441609Y48837065D01*
X5877229Y48603868D01*
X5445049Y48172443D01*
X5210867Y47608470D01*
X5210335Y46997809D01*
X710000Y46997809D01*
X710000Y50394707D01*
X67173433Y50394707D01*
X67419736Y49870241D01*
X67847995Y49479954D01*
X68258029Y49310123D01*
X68487919Y49431444D01*
X68487919Y50624599D01*
X67294100Y50624599D01*
X67173433Y50394707D01*
X710000Y50394707D01*
X710000Y51108491D01*
X67173433Y51108491D01*
X67294100Y50878599D01*
X68487919Y50878599D01*
X68487919Y52071754D01*
X68741919Y52071754D01*
X68741919Y50878599D01*
X68761919Y50878599D01*
X68761919Y50624599D01*
X68741919Y50624599D01*
X68741919Y49431444D01*
X68971809Y49310123D01*
X69381843Y49479954D01*
X69810102Y49870241D01*
X69877217Y50013152D01*
X70104865Y49672452D01*
X70586634Y49350545D01*
X71154919Y49237506D01*
X71723204Y49350545D01*
X72204973Y49672452D01*
X72424919Y50001625D01*
X72644865Y49672452D01*
X73126634Y49350545D01*
X73694919Y49237506D01*
X74263204Y49350545D01*
X74744973Y49672452D01*
X74964919Y50001625D01*
X75184865Y49672452D01*
X75666634Y49350545D01*
X76234919Y49237506D01*
X76803204Y49350545D01*
X77284973Y49672452D01*
X77504919Y50001625D01*
X77724865Y49672452D01*
X78206634Y49350545D01*
X78774919Y49237506D01*
X79343204Y49350545D01*
X79824973Y49672452D01*
X80044919Y50001625D01*
X80264865Y49672452D01*
X80746634Y49350545D01*
X81314919Y49237506D01*
X81883204Y49350545D01*
X82364973Y49672452D01*
X82584919Y50001625D01*
X82804865Y49672452D01*
X83286634Y49350545D01*
X83854919Y49237506D01*
X84423204Y49350545D01*
X84904973Y49672452D01*
X85124919Y50001625D01*
X85344865Y49672452D01*
X85826634Y49350545D01*
X86394919Y49237506D01*
X86963204Y49350545D01*
X87444973Y49672452D01*
X87664919Y50001625D01*
X87884865Y49672452D01*
X88366634Y49350545D01*
X88934919Y49237506D01*
X89503204Y49350545D01*
X89984973Y49672452D01*
X90204919Y50001625D01*
X90424865Y49672452D01*
X90906634Y49350545D01*
X91474919Y49237506D01*
X92043204Y49350545D01*
X92524973Y49672452D01*
X92744919Y50001625D01*
X92964865Y49672452D01*
X93446634Y49350545D01*
X94014919Y49237506D01*
X94583204Y49350545D01*
X95064973Y49672452D01*
X95284919Y50001625D01*
X95504865Y49672452D01*
X95986634Y49350545D01*
X96554919Y49237506D01*
X97123204Y49350545D01*
X97604973Y49672452D01*
X97824919Y50001625D01*
X98044865Y49672452D01*
X98526634Y49350545D01*
X99094919Y49237506D01*
X99663204Y49350545D01*
X100144973Y49672452D01*
X100364919Y50001625D01*
X100584865Y49672452D01*
X101066634Y49350545D01*
X101634919Y49237506D01*
X102203204Y49350545D01*
X102684973Y49672452D01*
X102904919Y50001625D01*
X103124865Y49672452D01*
X103606634Y49350545D01*
X104174919Y49237506D01*
X104743204Y49350545D01*
X105224973Y49672452D01*
X105254322Y49716376D01*
X105326592Y49541901D01*
X105505220Y49363272D01*
X105738609Y49266599D01*
X106429169Y49266599D01*
X106587919Y49425349D01*
X106587919Y50624599D01*
X106841919Y50624599D01*
X106841919Y49425349D01*
X107000669Y49266599D01*
X107691229Y49266599D01*
X107924618Y49363272D01*
X108103246Y49541901D01*
X108199919Y49775290D01*
X108199919Y50465849D01*
X108041169Y50624599D01*
X106841919Y50624599D01*
X106587919Y50624599D01*
X106567919Y50624599D01*
X106567919Y50878599D01*
X106587919Y50878599D01*
X106587919Y52077849D01*
X106841919Y52077849D01*
X106841919Y50878599D01*
X108041169Y50878599D01*
X108199919Y51037349D01*
X108199919Y51727908D01*
X108103246Y51961297D01*
X107924618Y52139926D01*
X107691229Y52236599D01*
X107000669Y52236599D01*
X106841919Y52077849D01*
X106587919Y52077849D01*
X106429169Y52236599D01*
X105738609Y52236599D01*
X105505220Y52139926D01*
X105326592Y51961297D01*
X105254322Y51786822D01*
X105224973Y51830746D01*
X104743204Y52152653D01*
X104174919Y52265692D01*
X103606634Y52152653D01*
X103124865Y51830746D01*
X102904919Y51501573D01*
X102684973Y51830746D01*
X102203204Y52152653D01*
X101634919Y52265692D01*
X101066634Y52152653D01*
X100584865Y51830746D01*
X100364919Y51501573D01*
X100144973Y51830746D01*
X99663204Y52152653D01*
X99094919Y52265692D01*
X98526634Y52152653D01*
X98044865Y51830746D01*
X97824919Y51501573D01*
X97604973Y51830746D01*
X97123204Y52152653D01*
X96554919Y52265692D01*
X95986634Y52152653D01*
X95504865Y51830746D01*
X95284919Y51501573D01*
X95064973Y51830746D01*
X94583204Y52152653D01*
X94014919Y52265692D01*
X93446634Y52152653D01*
X92964865Y51830746D01*
X92744919Y51501573D01*
X92524973Y51830746D01*
X92043204Y52152653D01*
X91474919Y52265692D01*
X90906634Y52152653D01*
X90424865Y51830746D01*
X90204919Y51501573D01*
X89984973Y51830746D01*
X89503204Y52152653D01*
X88934919Y52265692D01*
X88366634Y52152653D01*
X87884865Y51830746D01*
X87664919Y51501573D01*
X87444973Y51830746D01*
X86963204Y52152653D01*
X86394919Y52265692D01*
X85826634Y52152653D01*
X85344865Y51830746D01*
X85124919Y51501573D01*
X84904973Y51830746D01*
X84423204Y52152653D01*
X83854919Y52265692D01*
X83286634Y52152653D01*
X82804865Y51830746D01*
X82584919Y51501573D01*
X82364973Y51830746D01*
X81883204Y52152653D01*
X81314919Y52265692D01*
X80746634Y52152653D01*
X80264865Y51830746D01*
X80044919Y51501573D01*
X79824973Y51830746D01*
X79343204Y52152653D01*
X78774919Y52265692D01*
X78206634Y52152653D01*
X77724865Y51830746D01*
X77504919Y51501573D01*
X77284973Y51830746D01*
X76803204Y52152653D01*
X76234919Y52265692D01*
X75666634Y52152653D01*
X75184865Y51830746D01*
X74964919Y51501573D01*
X74744973Y51830746D01*
X74263204Y52152653D01*
X73694919Y52265692D01*
X73126634Y52152653D01*
X72644865Y51830746D01*
X72424919Y51501573D01*
X72204973Y51830746D01*
X71723204Y52152653D01*
X71154919Y52265692D01*
X70586634Y52152653D01*
X70104865Y51830746D01*
X69877217Y51490046D01*
X69810102Y51632957D01*
X69381843Y52023244D01*
X68971809Y52193075D01*
X68741919Y52071754D01*
X68487919Y52071754D01*
X68258029Y52193075D01*
X67847995Y52023244D01*
X67419736Y51632957D01*
X67173433Y51108491D01*
X710000Y51108491D01*
X710000Y56038369D01*
X1045961Y56038369D01*
X1431078Y55106314D01*
X2143563Y54392584D01*
X3074945Y54005841D01*
X4083431Y54004961D01*
X5015486Y54390078D01*
X5729216Y55102563D01*
X6115959Y56033945D01*
X6116839Y57042431D01*
X5731722Y57974486D01*
X5019237Y58688216D01*
X4087855Y59074959D01*
X3079369Y59075839D01*
X2147314Y58690722D01*
X1433584Y57978237D01*
X1046841Y57046855D01*
X1045961Y56038369D01*
X710000Y56038369D01*
X710000Y59259400D01*
X106113148Y59259400D01*
X105474514Y58995522D01*
X105474514Y58995522D01*
G37*
X105474514Y58995522D02*
X104760784Y58283037D01*
X104374041Y57351655D01*
X104373161Y56343169D01*
X104758278Y55411114D01*
X105470763Y54697384D01*
X106402145Y54310641D01*
X107410631Y54309761D01*
X108342686Y54694878D01*
X109056416Y55407363D01*
X109322800Y56048888D01*
X109322800Y4023816D01*
X109185922Y4355086D01*
X108473437Y5068816D01*
X107542055Y5455559D01*
X106533569Y5456439D01*
X105601514Y5071322D01*
X104887784Y4358837D01*
X104501041Y3427455D01*
X104500161Y2418969D01*
X104885278Y1486914D01*
X105597763Y773184D01*
X105749927Y710000D01*
X710000Y710000D01*
X710000Y3358769D01*
X1579361Y3358769D01*
X1964478Y2426714D01*
X2676963Y1712984D01*
X3608345Y1326241D01*
X4616831Y1325361D01*
X5548886Y1710478D01*
X6262616Y2422963D01*
X6553794Y3124200D01*
X53787799Y3124200D01*
X53912257Y2498512D01*
X54266680Y1968080D01*
X54797112Y1613657D01*
X55422800Y1489199D01*
X56048488Y1613657D01*
X56578920Y1968080D01*
X61938317Y7327478D01*
X61938320Y7327480D01*
X62244196Y7785257D01*
X62292743Y7857912D01*
X62417200Y8483600D01*
X62417200Y13385800D01*
X62292743Y14011487D01*
X61938320Y14541920D01*
X61407887Y14896343D01*
X60782200Y15020800D01*
X60156513Y14896343D01*
X59626080Y14541920D01*
X59271657Y14011487D01*
X59147200Y13385800D01*
X59147200Y9160839D01*
X55401779Y5415419D01*
X54797113Y5295143D01*
X54266680Y4940720D01*
X53912257Y4410287D01*
X53787800Y3784600D01*
X53787800Y3124205D01*
X53787799Y3124200D01*
X6553794Y3124200D01*
X6649359Y3354345D01*
X6650239Y4362831D01*
X6265122Y5294886D01*
X5552637Y6008616D01*
X4621255Y6395359D01*
X3612769Y6396239D01*
X2680714Y6011122D01*
X1966984Y5298637D01*
X1580241Y4367255D01*
X1579361Y3358769D01*
X710000Y3358769D01*
X710000Y7086600D01*
X14874999Y7086600D01*
X14999457Y6460912D01*
X15353880Y5930480D01*
X17208078Y4076283D01*
X17208080Y4076280D01*
X17473297Y3899068D01*
X17738512Y3721857D01*
X18364200Y3597399D01*
X18364205Y3597400D01*
X38836595Y3597400D01*
X38836600Y3597399D01*
X39462288Y3721857D01*
X39992720Y4076280D01*
X42257039Y6340600D01*
X45161200Y6340600D01*
X45786887Y6465057D01*
X46317320Y6819480D01*
X46671743Y7349913D01*
X46796200Y7975600D01*
X46671743Y8601287D01*
X46317320Y9131720D01*
X45786887Y9486143D01*
X45161200Y9610600D01*
X41579805Y9610600D01*
X41579800Y9610601D01*
X41017980Y9498847D01*
X40954113Y9486143D01*
X40423680Y9131720D01*
X40423678Y9131717D01*
X38159360Y6867400D01*
X37872873Y6867400D01*
X37986588Y6980917D01*
X38213142Y7526519D01*
X38213657Y8117289D01*
X38113400Y8359930D01*
X38113400Y9826314D01*
X38213142Y10066519D01*
X38213657Y10657289D01*
X37988056Y11203286D01*
X37570683Y11621388D01*
X37025081Y11847942D01*
X36434311Y11848457D01*
X35888314Y11622856D01*
X35470212Y11205483D01*
X35458652Y11177643D01*
X35448056Y11203286D01*
X35030683Y11621388D01*
X34485081Y11847942D01*
X33894311Y11848457D01*
X33348314Y11622856D01*
X32930212Y11205483D01*
X32918652Y11177643D01*
X32908056Y11203286D01*
X32490683Y11621388D01*
X31945081Y11847942D01*
X31354311Y11848457D01*
X30808314Y11622856D01*
X30390212Y11205483D01*
X30370449Y11157888D01*
X30152358Y11227553D01*
X29288005Y10363200D01*
X30152358Y9498847D01*
X30263400Y9534317D01*
X30263400Y8652083D01*
X30152358Y8687553D01*
X29288005Y7823200D01*
X29302148Y7809057D01*
X29122543Y7629452D01*
X29108400Y7643595D01*
X29094258Y7629452D01*
X28914653Y7809057D01*
X28928795Y7823200D01*
X28064442Y8687553D01*
X27846760Y8618019D01*
X27828056Y8663286D01*
X27593117Y8898635D01*
X27653717Y8910038D01*
X27869841Y9049110D01*
X28014831Y9261310D01*
X28026562Y9319242D01*
X28244047Y9319242D01*
X28316252Y9093200D01*
X28244047Y8867158D01*
X29108400Y8002805D01*
X29972753Y8867158D01*
X29900548Y9093200D01*
X29972753Y9319242D01*
X29108400Y10183595D01*
X28244047Y9319242D01*
X28026562Y9319242D01*
X28063025Y9499300D01*
X28064442Y9498847D01*
X28928795Y10363200D01*
X28064442Y11227553D01*
X28063213Y11227160D01*
X28029345Y11407158D01*
X28244047Y11407158D01*
X29108400Y10542805D01*
X29972753Y11407158D01*
X29892480Y11658459D01*
X29337121Y11859918D01*
X28746942Y11833515D01*
X28324320Y11658459D01*
X28244047Y11407158D01*
X28029345Y11407158D01*
X28021562Y11448517D01*
X27882490Y11664641D01*
X27670290Y11809631D01*
X27418400Y11860640D01*
X25718400Y11860640D01*
X25483083Y11816362D01*
X25266959Y11677290D01*
X25121969Y11465090D01*
X25070960Y11213200D01*
X25070960Y9513200D01*
X25115238Y9277883D01*
X25254310Y9061759D01*
X25466510Y8916769D01*
X25545843Y8900704D01*
X25310212Y8665483D01*
X25083658Y8119881D01*
X25083143Y7529111D01*
X25308744Y6983114D01*
X25424256Y6867400D01*
X19041439Y6867400D01*
X17666120Y8242720D01*
X17135688Y8597143D01*
X16510000Y8721601D01*
X15884312Y8597143D01*
X15353880Y8242720D01*
X14999457Y7712288D01*
X14874999Y7086600D01*
X710000Y7086600D01*
X710000Y13779500D01*
X6350260Y13779500D01*
X6350260Y11874500D01*
X6394538Y11639183D01*
X6533610Y11423059D01*
X6745810Y11278069D01*
X6997700Y11227060D01*
X8902700Y11227060D01*
X9138017Y11271338D01*
X9354141Y11410410D01*
X9499131Y11622610D01*
X9507692Y11664884D01*
X9551647Y11708839D01*
X9644488Y11446912D01*
X10237001Y11228325D01*
X10868061Y11253122D01*
X11335912Y11446912D01*
X11428754Y11708841D01*
X10490200Y12647395D01*
X10476058Y12633252D01*
X10296453Y12812857D01*
X10310595Y12827000D01*
X10669805Y12827000D01*
X11608359Y11888446D01*
X11870288Y11981288D01*
X12088875Y12573801D01*
X12064078Y13204861D01*
X11870288Y13672712D01*
X11608359Y13765554D01*
X10669805Y12827000D01*
X10310595Y12827000D01*
X10296453Y12841142D01*
X10476058Y13020747D01*
X10490200Y13006605D01*
X11428754Y13945159D01*
X11335912Y14207088D01*
X10743399Y14425675D01*
X10112339Y14400878D01*
X9644488Y14207088D01*
X9551647Y13945161D01*
X9511395Y13985413D01*
X9505862Y14014817D01*
X9366790Y14230941D01*
X9154590Y14375931D01*
X8902700Y14426940D01*
X6997700Y14426940D01*
X6762383Y14382662D01*
X6546259Y14243590D01*
X6401269Y14031390D01*
X6350260Y13779500D01*
X710000Y13779500D01*
X710000Y17587333D01*
X2654042Y17587333D01*
X2879780Y17041005D01*
X3297406Y16622649D01*
X3843339Y16395958D01*
X4434467Y16395442D01*
X4980795Y16621180D01*
X5399151Y17038806D01*
X5532926Y17360974D01*
X6590845Y17360974D01*
X6990228Y16394393D01*
X7729104Y15654227D01*
X8694985Y15253158D01*
X9740826Y15252245D01*
X10707407Y15651628D01*
X11447573Y16390504D01*
X11848642Y17356385D01*
X11849555Y18402226D01*
X11450172Y19368807D01*
X10750715Y20069486D01*
X11251892Y20069486D01*
X11522006Y19415760D01*
X12021729Y18915164D01*
X12674982Y18643909D01*
X13007708Y18643619D01*
X12814558Y18178461D01*
X12814042Y17587333D01*
X13039780Y17041005D01*
X13457406Y16622649D01*
X14003339Y16395958D01*
X14594467Y16395442D01*
X15140795Y16621180D01*
X15559151Y17038806D01*
X15785842Y17584739D01*
X15786358Y18175867D01*
X15560620Y18722195D01*
X15142994Y19140551D01*
X14597061Y19367242D01*
X14490762Y19367335D01*
X14536636Y19413129D01*
X14807891Y20066382D01*
X14808508Y20773714D01*
X14538394Y21427440D01*
X14038671Y21928036D01*
X13385418Y22199291D01*
X12678086Y22199908D01*
X12024360Y21929794D01*
X11523764Y21430071D01*
X11252509Y20776818D01*
X11251892Y20069486D01*
X10750715Y20069486D01*
X10711296Y20108973D01*
X9745415Y20510042D01*
X8699574Y20510955D01*
X7732993Y20111572D01*
X6992827Y19372696D01*
X6591758Y18406815D01*
X6590845Y17360974D01*
X5532926Y17360974D01*
X5625842Y17584739D01*
X5626358Y18175867D01*
X5400620Y18722195D01*
X4982994Y19140551D01*
X4437061Y19367242D01*
X3845933Y19367758D01*
X3299605Y19142020D01*
X2881249Y18724394D01*
X2654558Y18178461D01*
X2654042Y17587333D01*
X710000Y17587333D01*
X710000Y21705637D01*
X5603842Y21705637D01*
X5720006Y21423942D01*
X6381533Y21173538D01*
X7088529Y21195351D01*
X7640394Y21423942D01*
X7756558Y21705637D01*
X6680200Y22781995D01*
X5603842Y21705637D01*
X710000Y21705637D01*
X710000Y23260267D01*
X4892138Y23260267D01*
X4913951Y22553271D01*
X5142542Y22001406D01*
X5424237Y21885242D01*
X6500595Y22961600D01*
X6859805Y22961600D01*
X7936163Y21885242D01*
X8217858Y22001406D01*
X8468262Y22662933D01*
X8446449Y23369929D01*
X8217858Y23921794D01*
X7936163Y24037958D01*
X6859805Y22961600D01*
X6500595Y22961600D01*
X5424237Y24037958D01*
X5142542Y23921794D01*
X4892138Y23260267D01*
X710000Y23260267D01*
X710000Y24217563D01*
X5603842Y24217563D01*
X6680200Y23141205D01*
X7756558Y24217563D01*
X7640394Y24499258D01*
X6978867Y24749662D01*
X6271871Y24727849D01*
X5720006Y24499258D01*
X5603842Y24217563D01*
X710000Y24217563D01*
X710000Y31576932D01*
X5700337Y31576932D01*
X5811241Y31299701D01*
X6457193Y31056477D01*
X7147053Y31078964D01*
X7679959Y31299701D01*
X7790863Y31576932D01*
X6745600Y32622195D01*
X5700337Y31576932D01*
X710000Y31576932D01*
X710000Y33090207D01*
X5000277Y33090207D01*
X5022764Y32400347D01*
X5243501Y31867441D01*
X5520732Y31756537D01*
X6565995Y32801800D01*
X6925205Y32801800D01*
X7970468Y31756537D01*
X8247699Y31867441D01*
X8470141Y32458201D01*
X10010299Y32458201D01*
X10273881Y31820285D01*
X10761518Y31331796D01*
X11398973Y31067101D01*
X12089199Y31066499D01*
X12727115Y31330081D01*
X13167339Y31769538D01*
X53751589Y31769538D01*
X53751590Y31769533D01*
X53751590Y16134867D01*
X53751589Y16134862D01*
X53876047Y15509174D01*
X54230470Y14978742D01*
X54346600Y14862612D01*
X54346600Y14046200D01*
X54471057Y13420513D01*
X54825480Y12890080D01*
X55355913Y12535657D01*
X55981600Y12411200D01*
X56607287Y12535657D01*
X57137720Y12890080D01*
X57492143Y13420513D01*
X57616600Y14046200D01*
X57616600Y15539852D01*
X57606399Y15591135D01*
X57886600Y15535400D01*
X57988195Y15535400D01*
X57988200Y15535399D01*
X58613888Y15659857D01*
X59144320Y16014280D01*
X59525319Y16395280D01*
X59879742Y16925712D01*
X60004200Y17551400D01*
X59879742Y18177087D01*
X59525319Y18707519D01*
X59521600Y18710004D01*
X59521600Y30056760D01*
X59602941Y30138101D01*
X60112488Y30239457D01*
X60642920Y30593880D01*
X60668320Y30619280D01*
X61022743Y31149712D01*
X61147201Y31775400D01*
X61147200Y31775405D01*
X61147200Y32359595D01*
X61147201Y32359600D01*
X61022743Y32985288D01*
X60668320Y33515720D01*
X60137888Y33870143D01*
X59512200Y33994601D01*
X58911388Y33875091D01*
X58886513Y33870143D01*
X58356080Y33515720D01*
X58356078Y33515717D01*
X57720831Y32880470D01*
X57619143Y33391687D01*
X57264720Y33922120D01*
X56734287Y34276543D01*
X56108600Y34401000D01*
X55981600Y34401000D01*
X55355913Y34276543D01*
X54825480Y33922120D01*
X54471057Y33391687D01*
X54415079Y33110267D01*
X54230470Y32925658D01*
X53876047Y32395226D01*
X53751589Y31769538D01*
X13167339Y31769538D01*
X13215604Y31817718D01*
X13480299Y32455173D01*
X13480901Y33145399D01*
X13217319Y33783315D01*
X12729682Y34271804D01*
X12092227Y34536499D01*
X11402001Y34537101D01*
X10764085Y34273519D01*
X10275596Y33785882D01*
X10010901Y33148427D01*
X10010299Y32458201D01*
X8470141Y32458201D01*
X8490923Y32513393D01*
X8468436Y33203253D01*
X8247699Y33736159D01*
X7970468Y33847063D01*
X6925205Y32801800D01*
X6565995Y32801800D01*
X5520732Y33847063D01*
X5243501Y33736159D01*
X5000277Y33090207D01*
X710000Y33090207D01*
X710000Y34026668D01*
X5700337Y34026668D01*
X6745600Y32981405D01*
X7790863Y34026668D01*
X7679959Y34303899D01*
X7034007Y34547123D01*
X6344147Y34524636D01*
X5811241Y34303899D01*
X5700337Y34026668D01*
X710000Y34026668D01*
X710000Y39555138D01*
X853901Y38831697D01*
X1403420Y38009284D01*
X2225833Y37459765D01*
X3195936Y37266800D01*
X3295264Y37266800D01*
X4265367Y37459765D01*
X5087780Y38009284D01*
X5637299Y38831697D01*
X5830264Y39801800D01*
X12762896Y39801800D01*
X12948249Y38869966D01*
X13476091Y38079995D01*
X14266062Y37552153D01*
X15197896Y37366800D01*
X15293304Y37366800D01*
X16225138Y37552153D01*
X17015109Y38079995D01*
X17542951Y38869966D01*
X17728304Y39801800D01*
X17542951Y40733634D01*
X17435798Y40894000D01*
X65340800Y40894000D01*
X65417000Y40510918D01*
X65417000Y8204200D01*
X65522427Y7674183D01*
X65822657Y7224857D01*
X66271983Y6924627D01*
X66802000Y6819200D01*
X67332017Y6924627D01*
X67781343Y7224857D01*
X68081573Y7674183D01*
X68187000Y8204200D01*
X68187000Y40817800D01*
X68081573Y41347817D01*
X67781343Y41797143D01*
X67705143Y41873343D01*
X67255816Y42173573D01*
X66725800Y42279000D01*
X66195784Y42173573D01*
X65746457Y41873343D01*
X65446227Y41424016D01*
X65340800Y40894000D01*
X17435798Y40894000D01*
X17015109Y41523605D01*
X16225138Y42051447D01*
X15293304Y42236800D01*
X15197896Y42236800D01*
X14266062Y42051447D01*
X13476091Y41523605D01*
X12948249Y40733634D01*
X12762896Y39801800D01*
X5830264Y39801800D01*
X5637299Y40771903D01*
X5087780Y41594316D01*
X4265367Y42143835D01*
X3295264Y42336800D01*
X3195936Y42336800D01*
X2225833Y42143835D01*
X1403420Y41594316D01*
X853901Y40771903D01*
X710000Y40048462D01*
X710000Y46997809D01*
X5210335Y46997809D01*
X5443532Y46433429D01*
X5874957Y46001249D01*
X6438930Y45767067D01*
X7049591Y45766535D01*
X7613971Y45999732D01*
X7836268Y46221641D01*
X8345046Y46221641D01*
X8431452Y45965157D01*
X9004936Y45755342D01*
X9615060Y45780961D01*
X10059748Y45965157D01*
X10146154Y46221641D01*
X9245600Y47122195D01*
X8345046Y46221641D01*
X7836268Y46221641D01*
X8046151Y46431157D01*
X8049894Y46440172D01*
X8165441Y46401246D01*
X9065995Y47301800D01*
X9425205Y47301800D01*
X10325759Y46401246D01*
X10440814Y46440007D01*
X10443532Y46433429D01*
X10874957Y46001249D01*
X11438930Y45767067D01*
X12049591Y45766535D01*
X12613971Y45999732D01*
X13046151Y46431157D01*
X13280333Y46995130D01*
X13280865Y47605791D01*
X13047668Y48170171D01*
X12616243Y48602351D01*
X12052270Y48836533D01*
X11441609Y48837065D01*
X10877229Y48603868D01*
X10445049Y48172443D01*
X10441306Y48163428D01*
X10325759Y48202354D01*
X9425205Y47301800D01*
X9065995Y47301800D01*
X8165441Y48202354D01*
X8050386Y48163593D01*
X8047668Y48170171D01*
X7836250Y48381959D01*
X8345046Y48381959D01*
X9245600Y47481405D01*
X10146154Y48381959D01*
X10059748Y48638443D01*
X9486264Y48848258D01*
X8876140Y48822639D01*
X8431452Y48638443D01*
X8345046Y48381959D01*
X7836250Y48381959D01*
X7616243Y48602351D01*
X7052270Y48836533D01*
X6441609Y48837065D01*
X5877229Y48603868D01*
X5445049Y48172443D01*
X5210867Y47608470D01*
X5210335Y46997809D01*
X710000Y46997809D01*
X710000Y50394707D01*
X67173433Y50394707D01*
X67419736Y49870241D01*
X67847995Y49479954D01*
X68258029Y49310123D01*
X68487919Y49431444D01*
X68487919Y50624599D01*
X67294100Y50624599D01*
X67173433Y50394707D01*
X710000Y50394707D01*
X710000Y51108491D01*
X67173433Y51108491D01*
X67294100Y50878599D01*
X68487919Y50878599D01*
X68487919Y52071754D01*
X68741919Y52071754D01*
X68741919Y50878599D01*
X68761919Y50878599D01*
X68761919Y50624599D01*
X68741919Y50624599D01*
X68741919Y49431444D01*
X68971809Y49310123D01*
X69381843Y49479954D01*
X69810102Y49870241D01*
X69877217Y50013152D01*
X70104865Y49672452D01*
X70586634Y49350545D01*
X71154919Y49237506D01*
X71723204Y49350545D01*
X72204973Y49672452D01*
X72424919Y50001625D01*
X72644865Y49672452D01*
X73126634Y49350545D01*
X73694919Y49237506D01*
X74263204Y49350545D01*
X74744973Y49672452D01*
X74964919Y50001625D01*
X75184865Y49672452D01*
X75666634Y49350545D01*
X76234919Y49237506D01*
X76803204Y49350545D01*
X77284973Y49672452D01*
X77504919Y50001625D01*
X77724865Y49672452D01*
X78206634Y49350545D01*
X78774919Y49237506D01*
X79343204Y49350545D01*
X79824973Y49672452D01*
X80044919Y50001625D01*
X80264865Y49672452D01*
X80746634Y49350545D01*
X81314919Y49237506D01*
X81883204Y49350545D01*
X82364973Y49672452D01*
X82584919Y50001625D01*
X82804865Y49672452D01*
X83286634Y49350545D01*
X83854919Y49237506D01*
X84423204Y49350545D01*
X84904973Y49672452D01*
X85124919Y50001625D01*
X85344865Y49672452D01*
X85826634Y49350545D01*
X86394919Y49237506D01*
X86963204Y49350545D01*
X87444973Y49672452D01*
X87664919Y50001625D01*
X87884865Y49672452D01*
X88366634Y49350545D01*
X88934919Y49237506D01*
X89503204Y49350545D01*
X89984973Y49672452D01*
X90204919Y50001625D01*
X90424865Y49672452D01*
X90906634Y49350545D01*
X91474919Y49237506D01*
X92043204Y49350545D01*
X92524973Y49672452D01*
X92744919Y50001625D01*
X92964865Y49672452D01*
X93446634Y49350545D01*
X94014919Y49237506D01*
X94583204Y49350545D01*
X95064973Y49672452D01*
X95284919Y50001625D01*
X95504865Y49672452D01*
X95986634Y49350545D01*
X96554919Y49237506D01*
X97123204Y49350545D01*
X97604973Y49672452D01*
X97824919Y50001625D01*
X98044865Y49672452D01*
X98526634Y49350545D01*
X99094919Y49237506D01*
X99663204Y49350545D01*
X100144973Y49672452D01*
X100364919Y50001625D01*
X100584865Y49672452D01*
X101066634Y49350545D01*
X101634919Y49237506D01*
X102203204Y49350545D01*
X102684973Y49672452D01*
X102904919Y50001625D01*
X103124865Y49672452D01*
X103606634Y49350545D01*
X104174919Y49237506D01*
X104743204Y49350545D01*
X105224973Y49672452D01*
X105254322Y49716376D01*
X105326592Y49541901D01*
X105505220Y49363272D01*
X105738609Y49266599D01*
X106429169Y49266599D01*
X106587919Y49425349D01*
X106587919Y50624599D01*
X106841919Y50624599D01*
X106841919Y49425349D01*
X107000669Y49266599D01*
X107691229Y49266599D01*
X107924618Y49363272D01*
X108103246Y49541901D01*
X108199919Y49775290D01*
X108199919Y50465849D01*
X108041169Y50624599D01*
X106841919Y50624599D01*
X106587919Y50624599D01*
X106567919Y50624599D01*
X106567919Y50878599D01*
X106587919Y50878599D01*
X106587919Y52077849D01*
X106841919Y52077849D01*
X106841919Y50878599D01*
X108041169Y50878599D01*
X108199919Y51037349D01*
X108199919Y51727908D01*
X108103246Y51961297D01*
X107924618Y52139926D01*
X107691229Y52236599D01*
X107000669Y52236599D01*
X106841919Y52077849D01*
X106587919Y52077849D01*
X106429169Y52236599D01*
X105738609Y52236599D01*
X105505220Y52139926D01*
X105326592Y51961297D01*
X105254322Y51786822D01*
X105224973Y51830746D01*
X104743204Y52152653D01*
X104174919Y52265692D01*
X103606634Y52152653D01*
X103124865Y51830746D01*
X102904919Y51501573D01*
X102684973Y51830746D01*
X102203204Y52152653D01*
X101634919Y52265692D01*
X101066634Y52152653D01*
X100584865Y51830746D01*
X100364919Y51501573D01*
X100144973Y51830746D01*
X99663204Y52152653D01*
X99094919Y52265692D01*
X98526634Y52152653D01*
X98044865Y51830746D01*
X97824919Y51501573D01*
X97604973Y51830746D01*
X97123204Y52152653D01*
X96554919Y52265692D01*
X95986634Y52152653D01*
X95504865Y51830746D01*
X95284919Y51501573D01*
X95064973Y51830746D01*
X94583204Y52152653D01*
X94014919Y52265692D01*
X93446634Y52152653D01*
X92964865Y51830746D01*
X92744919Y51501573D01*
X92524973Y51830746D01*
X92043204Y52152653D01*
X91474919Y52265692D01*
X90906634Y52152653D01*
X90424865Y51830746D01*
X90204919Y51501573D01*
X89984973Y51830746D01*
X89503204Y52152653D01*
X88934919Y52265692D01*
X88366634Y52152653D01*
X87884865Y51830746D01*
X87664919Y51501573D01*
X87444973Y51830746D01*
X86963204Y52152653D01*
X86394919Y52265692D01*
X85826634Y52152653D01*
X85344865Y51830746D01*
X85124919Y51501573D01*
X84904973Y51830746D01*
X84423204Y52152653D01*
X83854919Y52265692D01*
X83286634Y52152653D01*
X82804865Y51830746D01*
X82584919Y51501573D01*
X82364973Y51830746D01*
X81883204Y52152653D01*
X81314919Y52265692D01*
X80746634Y52152653D01*
X80264865Y51830746D01*
X80044919Y51501573D01*
X79824973Y51830746D01*
X79343204Y52152653D01*
X78774919Y52265692D01*
X78206634Y52152653D01*
X77724865Y51830746D01*
X77504919Y51501573D01*
X77284973Y51830746D01*
X76803204Y52152653D01*
X76234919Y52265692D01*
X75666634Y52152653D01*
X75184865Y51830746D01*
X74964919Y51501573D01*
X74744973Y51830746D01*
X74263204Y52152653D01*
X73694919Y52265692D01*
X73126634Y52152653D01*
X72644865Y51830746D01*
X72424919Y51501573D01*
X72204973Y51830746D01*
X71723204Y52152653D01*
X71154919Y52265692D01*
X70586634Y52152653D01*
X70104865Y51830746D01*
X69877217Y51490046D01*
X69810102Y51632957D01*
X69381843Y52023244D01*
X68971809Y52193075D01*
X68741919Y52071754D01*
X68487919Y52071754D01*
X68258029Y52193075D01*
X67847995Y52023244D01*
X67419736Y51632957D01*
X67173433Y51108491D01*
X710000Y51108491D01*
X710000Y56038369D01*
X1045961Y56038369D01*
X1431078Y55106314D01*
X2143563Y54392584D01*
X3074945Y54005841D01*
X4083431Y54004961D01*
X5015486Y54390078D01*
X5729216Y55102563D01*
X6115959Y56033945D01*
X6116839Y57042431D01*
X5731722Y57974486D01*
X5019237Y58688216D01*
X4087855Y59074959D01*
X3079369Y59075839D01*
X2147314Y58690722D01*
X1433584Y57978237D01*
X1046841Y57046855D01*
X1045961Y56038369D01*
X710000Y56038369D01*
X710000Y59259400D01*
X106113148Y59259400D01*
X105474514Y58995522D01*
M02*
