<?xml version="1.0" standalone="no"?>
<!DOCTYPE svg PUBLIC "-//W3C//DTD SVG 1.1//EN"
"http://www.w3.org/Graphics/SVG/1.1/DTD/svg11.dtd">
<svg width="5566.27" height="6836.35" viewBox="0 0 5566.27 6836.35" version="1.1"
xmlns="http://www.w3.org/2000/svg"
xmlns:xlink="http://www.w3.org/1999/xlink">
<circle cx="2778" cy="6487" r="38" style=""/>
<circle cx="2978" cy="6487" r="38" style=""/>
<circle cx="3178" cy="6487" r="38" style=""/>
<circle cx="3378" cy="6487" r="38" style=""/>
<circle cx="3578" cy="6487" r="38" style=""/>
<circle cx="3578" cy="6288" r="38" style=""/>
<circle cx="3378" cy="6288" r="38" style=""/>
<circle cx="3178" cy="6288" r="38" style=""/>
<circle cx="2978" cy="6288" r="38" style=""/>
<circle cx="2778" cy="6288" r="38" style=""/>
<circle cx="461" cy="6082" r="46" style=""/>
<circle cx="737" cy="6082" r="46" style=""/>
<circle cx="1892" cy="6082" r="46" style=""/>
<circle cx="2167" cy="6082" r="46" style=""/>
<circle cx="3322" cy="6081" r="46" style=""/>
<circle cx="3597" cy="6081" r="46" style=""/>
<circle cx="4752" cy="6077" r="46" style=""/>
<circle cx="5027" cy="6077" r="46" style=""/>
<circle cx="4752" cy="290" r="46" style=""/>
<circle cx="3322" cy="294" r="46" style=""/>
<circle cx="1892" cy="294" r="46" style=""/>
<circle cx="461" cy="295" r="46" style=""/>
<circle cx="268" cy="5661" r="65" style=""/>
<circle cx="930" cy="5755" r="65" style=""/>
<circle cx="1699" cy="5660" r="65" style=""/>
<circle cx="2360" cy="5755" r="65" style=""/>
<circle cx="3129" cy="5660" r="65" style=""/>
<circle cx="3790" cy="5754" r="65" style=""/>
<circle cx="4559" cy="5656" r="65" style=""/>
<circle cx="5220" cy="5750" r="65" style=""/>
<circle cx="4559" cy="711" r="65" style=""/>
<circle cx="5220" cy="617" r="65" style=""/>
<circle cx="3790" cy="621" r="65" style=""/>
<circle cx="3129" cy="715" r="65" style=""/>
<circle cx="2360" cy="621" r="65" style=""/>
<circle cx="1699" cy="716" r="65" style=""/>
<circle cx="930" cy="622" r="65" style=""/>
<circle cx="268" cy="716" r="65" style=""/>
<circle cx="1278" cy="5461" r="85" style=""/>
<circle cx="4198" cy="5468" r="85" style=""/>
<circle cx="4198" cy="1088" r="85" style=""/>
<circle cx="1318" cy="1108" r="85" style=""/>
</svg>
