<?xml version="1.0" standalone="no"?>
<!DOCTYPE svg PUBLIC "-//W3C//DTD SVG 1.1//EN"
"http://www.w3.org/Graphics/SVG/1.1/DTD/svg11.dtd">
<svg width="5234" height="6503" viewBox="0 0 5234 6503" version="1.1"
xmlns="http://www.w3.org/2000/svg"
xmlns:xlink="http://www.w3.org/1999/xlink">
<g fill-rule="evenodd"><path d="M 4499,5988 L 4499,5906 L 4499,5905 L 4500,5889 L 4501,5887 L 4506,5871 L 4506,5871 L 4507,5870 L 4515,5856 L 4515,5855 L 4516,5854 L 4527,5842 L 4528,5841 L 4541,5831 L 4543,5830 L 4558,5824 L 4559,5823 L 4559,5823 L 4575,5820 L 4576,5820 L 4577,5820 L 4594,5820 L 4595,5820 L 4611,5823 L 4612,5823 L 4613,5824 L 4628,5830 L 4629,5831 L 4629,5831 L 4643,5841 L 4644,5842 L 4655,5854 L 4655,5855 L 4656,5856 L 4664,5870 L 4664,5871 L 4665,5871 L 4670,5887 L 4670,5888 L 4670,5889 L 4672,5905 L 4672,5906 L 4672,5988 L 4672,5989 L 4670,6005 L 4670,6007 L 4665,6022 L 4664,6023 L 4664,6024 L 4656,6038 L 4655,6039 L 4655,6040 L 4644,6052 L 4643,6053 L 4629,6063 L 4629,6063 L 4628,6063 L 4613,6070 L 4612,6070 L 4611,6071 L 4595,6074 L 4594,6074 L 4577,6074 L 4576,6074 L 4575,6074 L 4559,6071 L 4559,6070 L 4558,6070 L 4543,6063 L 4541,6063 L 4528,6053 L 4527,6052 L 4516,6040 L 4515,6039 L 4515,6038 L 4507,6024 L 4506,6023 L 4506,6022 L 4501,6007 L 4500,6005 L 4499,5989 L 4499,5988 z " style="fill-opacity:1.000000;fill:rgb(41,35,190);stroke:rgb(0,0,0);stroke-width:2"/></g>
<g fill-rule="evenodd"><path d="M 382,5964 L 383,5979 L 383,5980 L 383,5981 L 380,5997 L 380,5998 L 374,6014 L 374,6014 L 373,6015 L 364,6029 L 364,6030 L 363,6030 L 352,6042 L 351,6042 L 350,6043 L 336,6052 L 335,6053 L 320,6059 L 319,6059 L 318,6059 L 302,6062 L 300,6062 L 284,6061 L 283,6061 L 282,6061 L 266,6056 L 265,6056 L 250,6048 L 249,6047 L 236,6037 L 235,6036 L 224,6023 L 223,6022 L 216,6008 L 215,6007 L 211,5992 L 210,5990 L 209,5975 L 209,5974 L 209,5915 L 209,5914 L 211,5898 L 211,5896 L 216,5881 L 216,5880 L 217,5879 L 225,5865 L 225,5864 L 226,5864 L 237,5851 L 238,5850 L 251,5841 L 252,5840 L 253,5840 L 268,5833 L 269,5833 L 269,5833 L 286,5829 L 286,5829 L 287,5829 L 304,5829 L 305,5829 L 321,5833 L 322,5833 L 323,5833 L 338,5840 L 339,5840 L 339,5841 L 353,5850 L 354,5851 L 365,5864 L 366,5864 L 366,5865 L 374,5879 L 375,5880 L 375,5881 L 380,5896 L 380,5897 L 380,5898 L 382,5914 L 382,5915 L 382,5964 z " style="fill-opacity:1.000000;fill:rgb(132,225,108);stroke:rgb(0,0,0);stroke-width:2"/></g>
<g fill-rule="evenodd"><path d="M 1812,5975 L 1813,5980 L 1812,5981 L 1810,5998 L 1810,5998 L 1809,5999 L 1804,6015 L 1803,6016 L 1794,6030 L 1793,6031 L 1793,6031 L 1781,6043 L 1781,6043 L 1780,6044 L 1766,6053 L 1765,6054 L 1749,6059 L 1748,6060 L 1731,6062 L 1731,6063 L 1730,6063 L 1713,6062 L 1712,6061 L 1696,6057 L 1695,6057 L 1694,6057 L 1680,6049 L 1678,6048 L 1665,6038 L 1664,6037 L 1654,6024 L 1653,6023 L 1646,6010 L 1645,6008 L 1641,5993 L 1641,5992 L 1639,5976 L 1639,5976 L 1639,5915 L 1639,5914 L 1641,5897 L 1641,5896 L 1646,5880 L 1647,5879 L 1647,5879 L 1655,5864 L 1656,5864 L 1656,5863 L 1667,5851 L 1668,5850 L 1682,5840 L 1683,5839 L 1698,5833 L 1699,5832 L 1700,5832 L 1716,5829 L 1717,5828 L 1718,5828 L 1734,5828 L 1736,5829 L 1752,5832 L 1753,5832 L 1753,5833 L 1768,5839 L 1769,5840 L 1770,5840 L 1783,5850 L 1784,5851 L 1795,5863 L 1796,5864 L 1796,5864 L 1804,5879 L 1805,5879 L 1805,5880 L 1810,5896 L 1810,5897 L 1811,5897 L 1812,5914 L 1812,5915 L 1812,5975 z " style="fill-opacity:1.000000;fill:rgb(214,174,82);stroke:rgb(0,0,0);stroke-width:2"/></g>
<g fill-rule="evenodd"><path d="M 177,5495 L 176,5509 L 176,5510 L 171,5524 L 171,5524 L 171,5525 L 164,5537 L 163,5538 L 163,5539 L 153,5549 L 152,5550 L 141,5558 L 140,5559 L 139,5559 L 126,5565 L 126,5565 L 125,5565 L 111,5568 L 110,5568 L 96,5568 L 95,5568 L 94,5568 L 80,5565 L 79,5565 L 79,5565 L 66,5559 L 65,5559 L 64,5558 L 53,5550 L 52,5549 L 43,5539 L 42,5538 L 42,5537 L 35,5525 L 34,5524 L 34,5524 L 30,5510 L 29,5509 L 28,5495 L 28,5493 L 29,5479 L 30,5478 L 34,5464 L 34,5464 L 35,5463 L 42,5451 L 42,5450 L 43,5449 L 52,5439 L 53,5438 L 64,5430 L 65,5429 L 66,5429 L 79,5423 L 79,5423 L 80,5423 L 94,5420 L 95,5420 L 96,5420 L 110,5420 L 111,5420 L 125,5423 L 126,5423 L 126,5423 L 139,5429 L 140,5429 L 141,5430 L 152,5438 L 153,5439 L 163,5449 L 163,5450 L 164,5451 L 171,5463 L 171,5464 L 171,5464 L 176,5478 L 176,5478 L 176,5479 L 177,5493 L 177,5494 L 177,5495 z " style="fill-opacity:1.000000;fill:rgb(144,73,241);stroke:rgb(0,0,0);stroke-width:2"/></g>
<g fill-rule="evenodd"><path d="M 839,5589 L 837,5603 L 837,5605 L 833,5618 L 832,5619 L 832,5620 L 825,5632 L 824,5632 L 824,5633 L 815,5644 L 813,5645 L 802,5653 L 801,5653 L 801,5654 L 788,5659 L 787,5660 L 786,5660 L 773,5663 L 771,5663 L 757,5663 L 756,5663 L 755,5663 L 742,5660 L 741,5660 L 740,5659 L 727,5654 L 726,5653 L 726,5653 L 714,5645 L 713,5644 L 704,5633 L 703,5632 L 703,5632 L 696,5620 L 696,5619 L 695,5618 L 691,5605 L 691,5603 L 689,5589 L 689,5588 L 691,5574 L 691,5572 L 695,5559 L 696,5558 L 696,5557 L 703,5545 L 703,5545 L 704,5544 L 713,5534 L 714,5532 L 726,5524 L 726,5524 L 727,5523 L 740,5518 L 741,5517 L 742,5517 L 755,5514 L 756,5514 L 757,5514 L 771,5514 L 773,5514 L 786,5517 L 787,5517 L 788,5518 L 801,5523 L 801,5524 L 802,5524 L 813,5532 L 815,5534 L 824,5544 L 824,5545 L 825,5545 L 832,5557 L 832,5558 L 833,5559 L 837,5572 L 837,5573 L 837,5574 L 839,5588 L 839,5589 L 839,5589 z " style="fill-opacity:1.000000;fill:rgb(241,187,233);stroke:rgb(0,0,0);stroke-width:2"/></g>
<g fill-rule="evenodd"><path d="M 839,456 L 837,470 L 837,472 L 833,485 L 832,486 L 832,487 L 825,499 L 824,499 L 824,500 L 815,510 L 813,511 L 802,520 L 801,520 L 801,521 L 788,526 L 787,527 L 786,527 L 773,530 L 771,530 L 757,530 L 756,530 L 755,530 L 742,527 L 741,527 L 740,526 L 727,521 L 726,520 L 726,520 L 714,511 L 713,510 L 704,500 L 703,499 L 703,499 L 696,487 L 696,486 L 695,485 L 691,472 L 691,470 L 689,456 L 689,455 L 691,441 L 691,439 L 695,426 L 696,425 L 696,424 L 703,412 L 703,411 L 704,411 L 713,400 L 714,399 L 726,391 L 726,391 L 727,390 L 740,385 L 741,384 L 742,384 L 755,381 L 756,381 L 757,381 L 771,381 L 773,381 L 786,384 L 787,384 L 788,385 L 801,390 L 801,391 L 802,391 L 813,399 L 815,400 L 824,411 L 824,411 L 825,412 L 832,424 L 832,425 L 833,426 L 837,439 L 837,440 L 837,441 L 839,455 L 839,455 L 839,456 z " style="fill-opacity:1.000000;fill:rgb(235,179,166);stroke:rgb(0,0,0);stroke-width:2"/></g>
<g fill-rule="evenodd"><path d="M 177,551 L 176,565 L 176,566 L 171,580 L 171,580 L 171,581 L 164,593 L 163,594 L 163,594 L 153,605 L 152,606 L 141,614 L 140,615 L 139,615 L 126,621 L 126,621 L 125,621 L 111,624 L 110,624 L 96,624 L 95,624 L 94,624 L 80,621 L 79,621 L 79,621 L 66,615 L 65,615 L 64,614 L 53,606 L 52,605 L 43,594 L 42,594 L 42,593 L 35,581 L 34,580 L 34,580 L 30,566 L 29,565 L 28,551 L 28,549 L 29,535 L 30,534 L 34,520 L 34,519 L 35,519 L 42,507 L 42,506 L 43,505 L 52,495 L 53,494 L 64,486 L 65,485 L 66,485 L 79,479 L 79,479 L 80,479 L 94,476 L 95,475 L 96,475 L 110,475 L 111,476 L 125,479 L 126,479 L 126,479 L 139,485 L 140,485 L 141,486 L 152,494 L 153,495 L 163,505 L 163,506 L 164,507 L 171,519 L 171,519 L 171,520 L 176,534 L 176,534 L 176,535 L 177,549 L 177,550 L 177,551 z " style="fill-opacity:1.000000;fill:rgb(219,60,135);stroke:rgb(0,0,0);stroke-width:2"/></g>
<g fill-rule="evenodd"><path d="M 1608,5494 L 1606,5508 L 1606,5510 L 1601,5523 L 1601,5524 L 1601,5525 L 1594,5537 L 1593,5537 L 1593,5538 L 1583,5548 L 1582,5550 L 1571,5558 L 1570,5558 L 1570,5559 L 1557,5564 L 1556,5565 L 1555,5565 L 1541,5568 L 1540,5568 L 1526,5568 L 1525,5568 L 1524,5568 L 1511,5565 L 1510,5565 L 1509,5564 L 1496,5559 L 1495,5558 L 1495,5558 L 1483,5550 L 1482,5548 L 1473,5538 L 1472,5537 L 1472,5537 L 1465,5525 L 1465,5524 L 1464,5523 L 1460,5510 L 1460,5508 L 1458,5494 L 1458,5493 L 1460,5479 L 1460,5477 L 1464,5464 L 1465,5463 L 1465,5462 L 1472,5450 L 1472,5449 L 1473,5449 L 1482,5438 L 1483,5437 L 1495,5429 L 1495,5429 L 1496,5428 L 1509,5423 L 1510,5422 L 1511,5422 L 1524,5419 L 1525,5419 L 1526,5419 L 1540,5419 L 1541,5419 L 1555,5422 L 1556,5422 L 1557,5423 L 1570,5428 L 1570,5429 L 1571,5429 L 1582,5437 L 1583,5438 L 1593,5449 L 1593,5449 L 1594,5450 L 1601,5462 L 1601,5463 L 1601,5464 L 1606,5477 L 1606,5478 L 1606,5479 L 1608,5493 L 1608,5493 L 1608,5494 z " style="fill-opacity:1.000000;fill:rgb(12,62,153);stroke:rgb(0,0,0);stroke-width:2"/></g>
<g fill-rule="evenodd"><path d="M 2269,5589 L 2267,5603 L 2267,5604 L 2263,5618 L 2263,5618 L 2262,5619 L 2255,5631 L 2255,5632 L 2254,5632 L 2245,5643 L 2244,5644 L 2232,5652 L 2232,5653 L 2231,5653 L 2218,5659 L 2217,5659 L 2216,5659 L 2203,5662 L 2201,5662 L 2187,5662 L 2186,5662 L 2186,5662 L 2172,5659 L 2171,5659 L 2170,5659 L 2158,5653 L 2157,5653 L 2156,5652 L 2145,5644 L 2144,5643 L 2134,5632 L 2134,5632 L 2133,5631 L 2126,5619 L 2126,5618 L 2126,5618 L 2121,5604 L 2121,5603 L 2119,5589 L 2119,5587 L 2121,5573 L 2121,5572 L 2126,5558 L 2126,5557 L 2126,5557 L 2133,5545 L 2134,5544 L 2134,5543 L 2144,5533 L 2145,5532 L 2156,5524 L 2157,5523 L 2158,5523 L 2170,5517 L 2171,5517 L 2172,5517 L 2186,5514 L 2186,5514 L 2187,5513 L 2201,5513 L 2203,5514 L 2216,5517 L 2217,5517 L 2218,5517 L 2231,5523 L 2232,5523 L 2232,5524 L 2244,5532 L 2245,5533 L 2254,5543 L 2255,5544 L 2255,5545 L 2262,5557 L 2263,5557 L 2263,5558 L 2267,5572 L 2267,5572 L 2267,5573 L 2269,5587 L 2269,5588 L 2269,5589 z " style="fill-opacity:1.000000;fill:rgb(36,94,13);stroke:rgb(0,0,0);stroke-width:2"/></g>
<g fill-rule="evenodd"><path d="M 2269,456 L 2267,470 L 2267,471 L 2263,484 L 2263,485 L 2262,486 L 2255,498 L 2255,499 L 2254,499 L 2245,510 L 2244,511 L 2232,519 L 2232,520 L 2231,520 L 2218,526 L 2217,526 L 2216,526 L 2203,529 L 2201,529 L 2187,529 L 2186,529 L 2186,529 L 2172,526 L 2171,526 L 2170,526 L 2158,520 L 2157,520 L 2156,519 L 2145,511 L 2144,510 L 2134,499 L 2134,499 L 2133,498 L 2126,486 L 2126,485 L 2126,484 L 2121,471 L 2121,470 L 2119,456 L 2119,454 L 2121,440 L 2121,438 L 2126,425 L 2126,424 L 2126,424 L 2133,412 L 2134,411 L 2134,410 L 2144,400 L 2145,399 L 2156,390 L 2157,390 L 2158,390 L 2170,384 L 2171,384 L 2172,383 L 2186,381 L 2186,380 L 2187,380 L 2201,380 L 2203,381 L 2216,383 L 2217,384 L 2218,384 L 2231,390 L 2232,390 L 2232,390 L 2244,399 L 2245,400 L 2254,410 L 2255,411 L 2255,412 L 2262,424 L 2263,424 L 2263,425 L 2267,438 L 2267,439 L 2267,440 L 2269,454 L 2269,455 L 2269,456 z " style="fill-opacity:1.000000;fill:rgb(28,6,183);stroke:rgb(0,0,0);stroke-width:2"/></g>
<g fill-rule="evenodd"><path d="M 1608,550 L 1606,564 L 1606,566 L 1601,579 L 1601,580 L 1601,580 L 1594,593 L 1593,593 L 1593,594 L 1583,604 L 1582,605 L 1571,614 L 1570,614 L 1570,614 L 1557,620 L 1556,620 L 1555,621 L 1541,624 L 1540,624 L 1526,624 L 1525,624 L 1524,624 L 1511,621 L 1510,620 L 1509,620 L 1496,614 L 1495,614 L 1495,614 L 1483,605 L 1482,604 L 1473,594 L 1472,593 L 1472,593 L 1465,580 L 1465,580 L 1464,579 L 1460,566 L 1460,564 L 1458,550 L 1458,548 L 1460,535 L 1460,533 L 1464,520 L 1465,519 L 1465,518 L 1472,506 L 1472,505 L 1473,505 L 1482,494 L 1483,493 L 1495,485 L 1495,484 L 1496,484 L 1509,478 L 1510,478 L 1511,478 L 1524,475 L 1525,475 L 1526,475 L 1540,475 L 1541,475 L 1555,478 L 1556,478 L 1557,478 L 1570,484 L 1570,484 L 1571,485 L 1582,493 L 1583,494 L 1593,505 L 1593,505 L 1594,506 L 1601,518 L 1601,519 L 1601,520 L 1606,533 L 1606,534 L 1606,535 L 1608,548 L 1608,549 L 1608,550 z " style="fill-opacity:1.000000;fill:rgb(71,222,179);stroke:rgb(0,0,0);stroke-width:2"/></g>
<g fill-rule="evenodd"><path d="M 3037,5494 L 3036,5508 L 3036,5509 L 3031,5522 L 3031,5523 L 3031,5524 L 3024,5536 L 3023,5537 L 3023,5537 L 3013,5548 L 3012,5549 L 3001,5557 L 3000,5558 L 2999,5558 L 2987,5564 L 2986,5564 L 2985,5564 L 2971,5567 L 2970,5567 L 2956,5567 L 2955,5567 L 2954,5567 L 2940,5564 L 2940,5564 L 2939,5564 L 2926,5558 L 2925,5558 L 2925,5557 L 2913,5549 L 2912,5548 L 2903,5537 L 2902,5537 L 2902,5536 L 2895,5524 L 2894,5523 L 2894,5522 L 2890,5509 L 2889,5508 L 2888,5494 L 2888,5492 L 2889,5478 L 2890,5476 L 2894,5463 L 2894,5462 L 2895,5462 L 2902,5450 L 2902,5449 L 2903,5448 L 2912,5438 L 2913,5437 L 2925,5428 L 2925,5428 L 2926,5428 L 2939,5422 L 2940,5422 L 2940,5421 L 2954,5419 L 2955,5418 L 2956,5418 L 2970,5418 L 2971,5419 L 2985,5421 L 2986,5422 L 2987,5422 L 2999,5428 L 3000,5428 L 3001,5428 L 3012,5437 L 3013,5438 L 3023,5448 L 3023,5449 L 3024,5450 L 3031,5462 L 3031,5462 L 3031,5463 L 3036,5476 L 3036,5477 L 3036,5478 L 3037,5492 L 3037,5493 L 3037,5494 z " style="fill-opacity:1.000000;fill:rgb(18,77,200);stroke:rgb(0,0,0);stroke-width:2"/></g>
<g fill-rule="evenodd"><path d="M 3699,5588 L 3697,5602 L 3697,5604 L 3693,5617 L 3692,5618 L 3692,5618 L 3685,5631 L 3684,5631 L 3684,5632 L 3675,5642 L 3673,5643 L 3662,5652 L 3661,5652 L 3661,5652 L 3648,5658 L 3647,5658 L 3646,5659 L 3633,5662 L 3631,5662 L 3617,5662 L 3616,5662 L 3615,5662 L 3602,5659 L 3601,5658 L 3600,5658 L 3587,5652 L 3587,5652 L 3586,5652 L 3575,5643 L 3573,5642 L 3564,5632 L 3563,5631 L 3563,5631 L 3556,5618 L 3556,5618 L 3555,5617 L 3551,5604 L 3551,5602 L 3549,5588 L 3549,5586 L 3551,5573 L 3551,5571 L 3555,5558 L 3556,5557 L 3556,5556 L 3563,5544 L 3563,5543 L 3564,5543 L 3573,5532 L 3575,5531 L 3586,5523 L 3587,5523 L 3587,5522 L 3600,5516 L 3601,5516 L 3602,5516 L 3615,5513 L 3616,5513 L 3617,5513 L 3631,5513 L 3633,5513 L 3646,5516 L 3647,5516 L 3648,5516 L 3661,5522 L 3661,5523 L 3662,5523 L 3673,5531 L 3675,5532 L 3684,5543 L 3684,5543 L 3685,5544 L 3692,5556 L 3692,5557 L 3693,5558 L 3697,5571 L 3697,5572 L 3697,5573 L 3699,5586 L 3699,5587 L 3699,5588 z " style="fill-opacity:1.000000;fill:rgb(67,187,139);stroke:rgb(0,0,0);stroke-width:2"/></g>
<g fill-rule="evenodd"><path d="M 3699,455 L 3697,469 L 3697,471 L 3693,484 L 3692,485 L 3692,485 L 3685,497 L 3684,498 L 3684,499 L 3675,509 L 3673,510 L 3662,518 L 3661,519 L 3661,519 L 3648,525 L 3647,525 L 3646,526 L 3633,528 L 3631,529 L 3617,529 L 3616,529 L 3615,528 L 3602,526 L 3601,525 L 3600,525 L 3587,519 L 3587,519 L 3586,518 L 3575,510 L 3573,509 L 3564,499 L 3563,498 L 3563,497 L 3556,485 L 3556,485 L 3555,484 L 3551,471 L 3551,469 L 3549,455 L 3549,453 L 3551,439 L 3551,438 L 3555,425 L 3556,424 L 3556,423 L 3563,411 L 3563,410 L 3564,410 L 3573,399 L 3575,398 L 3586,390 L 3587,389 L 3587,389 L 3600,383 L 3601,383 L 3602,383 L 3615,380 L 3616,380 L 3617,380 L 3631,380 L 3633,380 L 3646,383 L 3647,383 L 3648,383 L 3661,389 L 3661,389 L 3662,390 L 3673,398 L 3675,399 L 3684,410 L 3684,410 L 3685,411 L 3692,423 L 3692,424 L 3693,425 L 3697,438 L 3697,439 L 3697,439 L 3699,453 L 3699,454 L 3699,455 z " style="fill-opacity:1.000000;fill:rgb(166,31,3);stroke:rgb(0,0,0);stroke-width:2"/></g>
<g fill-rule="evenodd"><path d="M 3037,549 L 3036,563 L 3036,565 L 3031,578 L 3031,579 L 3031,580 L 3024,592 L 3023,593 L 3023,593 L 3013,604 L 3012,605 L 3001,613 L 3000,613 L 2999,614 L 2987,619 L 2986,620 L 2985,620 L 2971,623 L 2970,623 L 2956,623 L 2955,623 L 2954,623 L 2940,620 L 2940,620 L 2939,619 L 2926,614 L 2925,613 L 2925,613 L 2913,605 L 2912,604 L 2903,593 L 2902,593 L 2902,592 L 2895,580 L 2894,579 L 2894,578 L 2890,565 L 2889,563 L 2888,549 L 2888,548 L 2889,534 L 2890,532 L 2894,519 L 2894,518 L 2895,517 L 2902,505 L 2902,505 L 2903,504 L 2912,494 L 2913,493 L 2925,484 L 2925,484 L 2926,484 L 2939,478 L 2940,478 L 2940,477 L 2954,474 L 2955,474 L 2956,474 L 2970,474 L 2971,474 L 2985,477 L 2986,478 L 2987,478 L 2999,484 L 3000,484 L 3001,484 L 3012,493 L 3013,494 L 3023,504 L 3023,505 L 3024,505 L 3031,517 L 3031,518 L 3031,519 L 3036,532 L 3036,533 L 3036,534 L 3037,548 L 3037,549 L 3037,549 z " style="fill-opacity:1.000000;fill:rgb(90,125,9);stroke:rgb(0,0,0);stroke-width:2"/></g>
<g fill-rule="evenodd"><path d="M 4467,5490 L 4466,5504 L 4465,5505 L 4461,5518 L 4461,5519 L 4460,5520 L 4453,5532 L 4453,5533 L 4452,5533 L 4443,5544 L 4442,5545 L 4431,5553 L 4430,5554 L 4429,5554 L 4416,5560 L 4416,5560 L 4415,5560 L 4401,5563 L 4399,5563 L 4385,5563 L 4385,5563 L 4384,5563 L 4370,5560 L 4369,5560 L 4369,5560 L 4356,5554 L 4355,5554 L 4354,5553 L 4343,5545 L 4342,5544 L 4332,5533 L 4332,5533 L 4331,5532 L 4324,5520 L 4324,5519 L 4324,5518 L 4320,5505 L 4319,5504 L 4318,5490 L 4318,5488 L 4319,5474 L 4320,5472 L 4324,5459 L 4324,5458 L 4324,5458 L 4331,5446 L 4332,5445 L 4332,5444 L 4342,5434 L 4343,5433 L 4354,5424 L 4355,5424 L 4356,5424 L 4369,5418 L 4369,5418 L 4370,5417 L 4384,5415 L 4385,5414 L 4385,5414 L 4399,5414 L 4401,5415 L 4415,5417 L 4416,5418 L 4416,5418 L 4429,5424 L 4430,5424 L 4431,5424 L 4442,5433 L 4443,5434 L 4452,5444 L 4453,5445 L 4453,5446 L 4460,5458 L 4461,5458 L 4461,5459 L 4465,5472 L 4466,5473 L 4466,5474 L 4467,5488 L 4467,5489 L 4467,5490 z " style="fill-opacity:1.000000;fill:rgb(56,37,31);stroke:rgb(0,0,0);stroke-width:2"/></g>
<g fill-rule="evenodd"><path d="M 5129,5584 L 5127,5598 L 5127,5600 L 5122,5613 L 5122,5614 L 5122,5614 L 5115,5627 L 5114,5627 L 5114,5628 L 5104,5638 L 5103,5639 L 5092,5648 L 5091,5648 L 5090,5648 L 5078,5654 L 5077,5654 L 5076,5655 L 5062,5658 L 5061,5658 L 5047,5658 L 5046,5658 L 5045,5658 L 5031,5655 L 5031,5654 L 5030,5654 L 5017,5648 L 5016,5648 L 5016,5648 L 5004,5639 L 5003,5638 L 4994,5628 L 4993,5627 L 4993,5627 L 4986,5614 L 4985,5614 L 4985,5613 L 4981,5600 L 4980,5598 L 4979,5584 L 4979,5582 L 4980,5569 L 4981,5567 L 4985,5554 L 4985,5553 L 4986,5552 L 4993,5540 L 4993,5539 L 4994,5539 L 5003,5528 L 5004,5527 L 5016,5519 L 5016,5519 L 5017,5518 L 5030,5512 L 5031,5512 L 5031,5512 L 5045,5509 L 5046,5509 L 5047,5509 L 5061,5509 L 5062,5509 L 5076,5512 L 5077,5512 L 5078,5512 L 5090,5518 L 5091,5519 L 5092,5519 L 5103,5527 L 5104,5528 L 5114,5539 L 5114,5539 L 5115,5540 L 5122,5552 L 5122,5553 L 5122,5554 L 5127,5567 L 5127,5568 L 5127,5569 L 5129,5582 L 5129,5583 L 5129,5584 z " style="fill-opacity:1.000000;fill:rgb(93,212,203);stroke:rgb(0,0,0);stroke-width:2"/></g>
<g fill-rule="evenodd"><path d="M 5129,451 L 5127,465 L 5127,467 L 5122,480 L 5122,481 L 5122,481 L 5115,493 L 5114,494 L 5114,495 L 5104,505 L 5103,506 L 5092,514 L 5091,515 L 5090,515 L 5078,521 L 5077,521 L 5076,522 L 5062,524 L 5061,525 L 5047,525 L 5046,525 L 5045,524 L 5031,522 L 5031,521 L 5030,521 L 5017,515 L 5016,515 L 5016,514 L 5004,506 L 5003,505 L 4994,495 L 4993,494 L 4993,493 L 4986,481 L 4985,481 L 4985,480 L 4981,467 L 4980,465 L 4979,451 L 4979,449 L 4980,435 L 4981,434 L 4985,421 L 4985,420 L 4986,419 L 4993,407 L 4993,406 L 4994,406 L 5003,395 L 5004,394 L 5016,386 L 5016,385 L 5017,385 L 5030,379 L 5031,379 L 5031,379 L 5045,376 L 5046,376 L 5047,376 L 5061,376 L 5062,376 L 5076,379 L 5077,379 L 5078,379 L 5090,385 L 5091,385 L 5092,386 L 5103,394 L 5104,395 L 5114,406 L 5114,406 L 5115,407 L 5122,419 L 5122,420 L 5122,421 L 5127,434 L 5127,435 L 5127,435 L 5129,449 L 5129,450 L 5129,451 z " style="fill-opacity:1.000000;fill:rgb(252,150,245);stroke:rgb(0,0,0);stroke-width:2"/></g>
<g fill-rule="evenodd"><path d="M 4467,545 L 4466,559 L 4465,561 L 4461,574 L 4461,575 L 4460,576 L 4453,588 L 4453,589 L 4452,589 L 4443,600 L 4442,601 L 4431,609 L 4430,609 L 4429,610 L 4416,615 L 4416,616 L 4415,616 L 4401,619 L 4399,619 L 4385,619 L 4385,619 L 4384,619 L 4370,616 L 4369,616 L 4369,615 L 4356,610 L 4355,609 L 4354,609 L 4343,601 L 4342,600 L 4332,589 L 4332,589 L 4331,588 L 4324,576 L 4324,575 L 4324,574 L 4320,561 L 4319,559 L 4318,545 L 4318,544 L 4319,530 L 4320,528 L 4324,515 L 4324,514 L 4324,513 L 4331,501 L 4332,501 L 4332,500 L 4342,490 L 4343,489 L 4354,480 L 4355,480 L 4356,480 L 4369,474 L 4369,474 L 4370,473 L 4384,470 L 4385,470 L 4385,470 L 4399,470 L 4401,470 L 4415,473 L 4416,474 L 4416,474 L 4429,480 L 4430,480 L 4431,480 L 4442,489 L 4443,490 L 4452,500 L 4453,501 L 4453,501 L 4460,513 L 4461,514 L 4461,515 L 4465,528 L 4466,529 L 4466,530 L 4467,544 L 4467,545 L 4467,545 z " style="fill-opacity:1.000000;fill:rgb(69,59,19);stroke:rgb(0,0,0);stroke-width:2"/></g>
<g fill-rule="evenodd"><path d="M 1309,942 L 1306,973 L 1306,975 L 1296,1005 L 1296,1005 L 1295,1006 L 1280,1033 L 1279,1034 L 1279,1035 L 1258,1058 L 1257,1059 L 1231,1077 L 1230,1078 L 1201,1091 L 1200,1091 L 1200,1091 L 1169,1098 L 1167,1098 L 1136,1098 L 1135,1098 L 1135,1098 L 1104,1091 L 1103,1091 L 1102,1091 L 1074,1078 L 1072,1077 L 1047,1059 L 1046,1058 L 1025,1035 L 1024,1034 L 1024,1033 L 1008,1006 L 1008,1005 L 1008,1005 L 998,975 L 998,973 L 994,942 L 994,941 L 998,909 L 998,908 L 1008,878 L 1008,877 L 1008,877 L 1024,849 L 1024,849 L 1025,848 L 1046,825 L 1047,824 L 1072,805 L 1074,805 L 1102,792 L 1103,792 L 1104,791 L 1135,785 L 1135,785 L 1136,785 L 1167,785 L 1169,785 L 1200,791 L 1200,792 L 1201,792 L 1230,805 L 1231,805 L 1231,805 L 1257,824 L 1258,825 L 1279,848 L 1279,849 L 1280,849 L 1295,877 L 1296,877 L 1296,878 L 1306,908 L 1306,909 L 1306,909 L 1309,941 L 1309,941 L 1309,942 z " style="fill-opacity:1.000000;fill:rgb(13,137,10);stroke:rgb(0,0,0);stroke-width:2"/></g>
<g fill-rule="evenodd"><path d="M 4189,922 L 4186,953 L 4185,955 L 4176,985 L 4175,985 L 4175,986 L 4159,1013 L 4159,1014 L 4158,1015 L 4137,1038 L 4136,1039 L 4111,1057 L 4109,1058 L 4081,1071 L 4080,1071 L 4079,1071 L 4049,1078 L 4047,1078 L 4016,1078 L 4015,1078 L 4014,1078 L 3984,1071 L 3983,1071 L 3982,1071 L 3953,1058 L 3952,1057 L 3927,1039 L 3925,1038 L 3905,1015 L 3904,1014 L 3904,1013 L 3888,986 L 3888,985 L 3887,985 L 3878,955 L 3877,953 L 3874,922 L 3874,921 L 3877,889 L 3878,888 L 3887,858 L 3888,857 L 3888,857 L 3904,829 L 3904,829 L 3905,828 L 3925,805 L 3927,804 L 3952,785 L 3953,785 L 3982,772 L 3983,772 L 3984,771 L 4014,765 L 4015,765 L 4016,765 L 4047,765 L 4049,765 L 4079,771 L 4080,772 L 4081,772 L 4109,785 L 4110,785 L 4111,785 L 4136,804 L 4137,805 L 4158,828 L 4159,829 L 4159,829 L 4175,857 L 4175,857 L 4176,858 L 4185,888 L 4185,889 L 4186,889 L 4189,921 L 4189,921 L 4189,922 z " style="fill-opacity:1.000000;fill:rgb(28,219,174);stroke:rgb(0,0,0);stroke-width:2"/></g>
<g fill-rule="evenodd"><path d="M 4189,5302 L 4186,5333 L 4185,5334 L 4176,5364 L 4175,5365 L 4175,5365 L 4159,5393 L 4159,5393 L 4158,5394 L 4137,5417 L 4136,5418 L 4111,5437 L 4109,5437 L 4081,5450 L 4080,5450 L 4079,5451 L 4049,5457 L 4047,5457 L 4016,5457 L 4015,5457 L 4014,5457 L 3984,5451 L 3983,5450 L 3982,5450 L 3953,5437 L 3952,5437 L 3927,5418 L 3925,5417 L 3905,5394 L 3904,5393 L 3904,5393 L 3888,5365 L 3888,5365 L 3887,5364 L 3878,5334 L 3877,5333 L 3874,5302 L 3874,5300 L 3877,5269 L 3878,5267 L 3887,5237 L 3888,5237 L 3888,5236 L 3904,5209 L 3904,5208 L 3905,5208 L 3925,5184 L 3927,5183 L 3952,5165 L 3953,5164 L 3982,5151 L 3983,5151 L 3984,5151 L 4014,5144 L 4015,5144 L 4016,5144 L 4047,5144 L 4049,5144 L 4079,5151 L 4080,5151 L 4081,5151 L 4109,5164 L 4110,5164 L 4111,5165 L 4136,5183 L 4137,5184 L 4158,5208 L 4159,5208 L 4159,5209 L 4175,5236 L 4175,5237 L 4176,5237 L 4185,5267 L 4185,5268 L 4186,5269 L 4189,5300 L 4189,5301 L 4189,5302 z " style="fill-opacity:1.000000;fill:rgb(50,32,154);stroke:rgb(0,0,0);stroke-width:2"/></g>
<g fill-rule="evenodd"><path d="M 1269,5295 L 1266,5326 L 1266,5328 L 1256,5357 L 1256,5358 L 1255,5359 L 1240,5386 L 1239,5387 L 1239,5387 L 1218,5410 L 1217,5412 L 1191,5430 L 1190,5431 L 1161,5443 L 1160,5444 L 1160,5444 L 1129,5450 L 1127,5451 L 1096,5451 L 1095,5451 L 1095,5450 L 1064,5444 L 1063,5444 L 1062,5443 L 1034,5431 L 1032,5430 L 1007,5412 L 1006,5410 L 985,5387 L 984,5387 L 984,5386 L 968,5359 L 968,5358 L 968,5357 L 958,5328 L 958,5326 L 954,5295 L 954,5293 L 958,5262 L 958,5260 L 968,5231 L 968,5230 L 968,5229 L 984,5202 L 984,5201 L 985,5201 L 1006,5178 L 1007,5176 L 1032,5158 L 1034,5157 L 1062,5145 L 1063,5144 L 1064,5144 L 1095,5138 L 1095,5137 L 1096,5137 L 1127,5137 L 1129,5138 L 1160,5144 L 1160,5144 L 1161,5145 L 1190,5157 L 1191,5158 L 1191,5158 L 1217,5176 L 1218,5178 L 1239,5201 L 1239,5201 L 1240,5202 L 1255,5229 L 1256,5230 L 1256,5231 L 1266,5260 L 1266,5261 L 1266,5262 L 1269,5293 L 1269,5294 L 1269,5295 z " style="fill-opacity:1.000000;fill:rgb(80,238,64);stroke:rgb(0,0,0);stroke-width:2"/></g>
<g fill-rule="evenodd"><path d="M 0,5414 L 0,630 L 0,629 L 1,625 L 1,623 L 2,622 L 4,619 L 5,618 L 6,617 L 7,616 L 8,615 L 9,615 L 13,613 L 14,613 L 16,613 L 20,613 L 21,613 L 22,613 L 24,614 L 25,614 L 26,615 L 29,617 L 30,618 L 46,634 L 83,649 L 122,649 L 159,634 L 186,606 L 202,570 L 202,530 L 187,494 L 159,466 L 122,451 L 83,451 L 47,466 L 30,482 L 29,483 L 26,485 L 24,486 L 23,486 L 19,487 L 18,487 L 16,487 L 12,486 L 11,486 L 9,485 L 6,483 L 5,482 L 4,481 L 2,478 L 1,476 L 1,475 L 0,471 L 0,469 L 0,17 L 0,16 L 1,12 L 1,11 L 1,10 L 2,8 L 3,7 L 5,5 L 5,4 L 6,4 L 9,2 L 11,1 L 12,0 L 16,0 L 18,0 L 1737,0 L 1738,0 L 1740,0 L 1742,0 L 1743,0 L 3155,0 L 3155,0 L 3158,0 L 3159,0 L 3161,1 L 3163,1 L 3164,2 L 3164,2 L 3165,2 L 3167,1 L 3168,1 L 3169,0 L 3173,0 L 3174,0 L 4552,0 L 4553,0 L 4557,0 L 4558,1 L 4559,1 L 4561,2 L 4562,3 L 4563,3 L 4565,6 L 4566,7 L 4567,9 L 4569,12 L 4569,14 L 4569,15 L 4569,17 L 4569,18 L 4569,19 L 4568,23 L 4568,24 L 4568,25 L 4567,27 L 4566,28 L 4565,28 L 4563,31 L 4561,32 L 4560,33 L 4543,40 L 4542,41 L 4561,60 L 4564,59 L 4564,59 L 4565,59 L 4577,56 L 4578,56 L 4579,56 L 4592,56 L 4593,56 L 4606,59 L 4606,59 L 4607,59 L 4609,60 L 4628,41 L 4628,41 L 4609,34 L 4608,34 L 4604,31 L 4604,31 L 4603,30 L 4601,28 L 4601,28 L 4600,27 L 4598,23 L 4598,22 L 4598,21 L 4598,19 L 4597,17 L 4598,16 L 4598,12 L 4599,11 L 4599,10 L 4600,8 L 4600,7 L 4601,6 L 4604,4 L 4605,3 L 4606,2 L 4608,1 L 4609,1 L 4610,0 L 4614,0 L 4615,0 L 5215,0 L 5217,0 L 5221,0 L 5222,1 L 5224,2 L 5227,4 L 5228,5 L 5229,6 L 5231,9 L 5232,10 L 5232,11 L 5233,13 L 5233,14 L 5233,15 L 5233,6485 L 5233,6486 L 5232,6490 L 5232,6491 L 5232,6492 L 5231,6494 L 5230,6495 L 5228,6497 L 5228,6498 L 5227,6498 L 5224,6500 L 5222,6501 L 5221,6502 L 5217,6502 L 5215,6502 L 18,6502 L 16,6502 L 12,6502 L 11,6501 L 10,6501 L 8,6500 L 7,6499 L 6,6498 L 5,6497 L 4,6496 L 2,6493 L 1,6491 L 1,6490 L 0,6486 L 0,6485 L 0,5573 L 0,5571 L 1,5570 L 2,5566 L 3,5565 L 4,5563 L 7,5561 L 8,5560 L 9,5559 L 13,5557 L 14,5557 L 16,5557 L 20,5557 L 21,5557 L 22,5557 L 24,5558 L 25,5558 L 26,5559 L 29,5561 L 30,5562 L 46,5578 L 83,5593 L 122,5593 L 159,5578 L 186,5550 L 202,5514 L 202,5474 L 187,5438 L 159,5410 L 122,5395 L 83,5395 L 47,5410 L 30,5426 L 30,5427 L 28,5428 L 27,5429 L 26,5429 L 23,5431 L 21,5431 L 20,5431 L 16,5431 L 14,5431 L 13,5431 L 9,5429 L 8,5428 L 7,5427 L 4,5425 L 3,5424 L 2,5422 L 1,5419 L 0,5417 L 0,5416 L 0,5414 L 0,5414M 2063,5783 L 2034,5789 L 2013,5802 L 2012,5803 L 2011,5804 L 2007,5804 L 2005,5805 L 2004,5804 L 2001,5804 L 1959,5813 L 1923,5836 L 1899,5872 L 1890,5916 L 1890,5973 L 1899,6017 L 1911,6034 L 1911,6036 L 1913,6039 L 1913,6041 L 1913,6042 L 1913,6046 L 1913,6048 L 1913,6049 L 1911,6053 L 1911,6054 L 1910,6055 L 1907,6058 L 1906,6059 L 1905,6059 L 1903,6060 L 1902,6061 L 1901,6061 L 1897,6062 L 1896,6062 L 1832,6062 L 1831,6062 L 1827,6061 L 1826,6061 L 1825,6060 L 1823,6059 L 1822,6059 L 1821,6058 L 1819,6055 L 1818,6054 L 1817,6053 L 1815,6049 L 1815,6048 L 1815,6046 L 1815,6042 L 1815,6041 L 1815,6040 L 1816,6038 L 1816,6037 L 1817,6036 L 1828,6018 L 1837,5975 L 1837,5916 L 1828,5872 L 1804,5836 L 1768,5813 L 1726,5804 L 1683,5813 L 1648,5836 L 1624,5872 L 1615,5916 L 1615,5974 L 1624,6018 L 1634,6034 L 1635,6036 L 1637,6039 L 1637,6041 L 1637,6042 L 1637,6046 L 1637,6048 L 1637,6049 L 1635,6053 L 1634,6054 L 1634,6055 L 1631,6058 L 1630,6059 L 1629,6059 L 1627,6060 L 1626,6061 L 1625,6061 L 1621,6062 L 1620,6062 L 824,6062 L 823,6062 L 822,6061 L 820,6061 L 819,6060 L 818,6060 L 815,6058 L 814,6057 L 686,5929 L 685,5928 L 684,5926 L 683,5923 L 682,5921 L 682,5920 L 682,5917 L 673,5873 L 649,5837 L 613,5813 L 571,5805 L 529,5813 L 493,5837 L 469,5873 L 460,5917 L 460,5968 L 460,5969 L 459,5975 L 467,6018 L 491,6053 L 527,6077 L 570,6086 L 612,6077 L 614,6076 L 615,6076 L 616,6076 L 617,6075 L 619,6075 L 620,6075 L 624,6075 L 625,6075 L 626,6075 L 628,6076 L 629,6076 L 630,6076 L 633,6079 L 634,6080 L 737,6183 L 762,6199 L 791,6205 L 2066,6205 L 2095,6199 L 2119,6183 L 2251,6052 L 2251,6051 L 2253,6050 L 2254,6049 L 2255,6049 L 2258,6047 L 2260,6047 L 2261,6047 L 2366,6046 L 2367,6047 L 2371,6047 L 2373,6048 L 2374,6049 L 2377,6051 L 2378,6052 L 2379,6053 L 2381,6056 L 2382,6057 L 2382,6058 L 2383,6060 L 2383,6061 L 2383,6062 L 2383,6066 L 2383,6068 L 2383,6069 L 2381,6073 L 2381,6074 L 2380,6075 L 2375,6080 L 2370,6092 L 2370,6116 L 2372,6118 L 2394,6118 L 2394,6117 L 2394,6099 L 2394,6097 L 2395,6096 L 2396,6094 L 2397,6093 L 2398,6092 L 2399,6091 L 2401,6091 L 2402,6091 L 2461,6091 L 2463,6091 L 2464,6091 L 2466,6092 L 2467,6093 L 2468,6094 L 2468,6096 L 2469,6097 L 2469,6099 L 2483,6099 L 2483,6098 L 2508,6073 L 2508,6073 L 2517,6065 L 2519,6065 L 2529,6059 L 2530,6059 L 2537,6056 L 2537,6054 L 2537,6052 L 2537,6051 L 2538,6049 L 2539,6048 L 2540,6047 L 2542,6046 L 2543,6046 L 2545,6046 L 2679,6046 L 2680,6046 L 2682,6046 L 2683,6047 L 2684,6048 L 2685,6049 L 2686,6051 L 2686,6052 L 2686,6054 L 2686,6188 L 2686,6189 L 2686,6191 L 2685,6192 L 2684,6193 L 2683,6194 L 2682,6195 L 2680,6195 L 2679,6195 L 2574,6195 L 2567,6201 L 2566,6202 L 2566,6202 L 2555,6208 L 2553,6209 L 2541,6212 L 2540,6212 L 2540,6212 L 2527,6213 L 2526,6213 L 2513,6211 L 2512,6210 L 2500,6206 L 2500,6205 L 2499,6205 L 2488,6198 L 2487,6197 L 2483,6193 L 2469,6193 L 2469,6195 L 2468,6196 L 2468,6197 L 2467,6199 L 2466,6200 L 2464,6200 L 2463,6201 L 2461,6201 L 2402,6201 L 2401,6201 L 2399,6200 L 2398,6200 L 2397,6199 L 2396,6197 L 2395,6196 L 2394,6195 L 2394,6193 L 2394,6174 L 2394,6174 L 2372,6174 L 2370,6176 L 2370,6199 L 2376,6215 L 2377,6216 L 2378,6220 L 2378,6222 L 2378,6223 L 2377,6227 L 2376,6228 L 2376,6230 L 2372,6235 L 2369,6250 L 2369,6260 L 2369,6261 L 2368,6262 L 2368,6264 L 2368,6265 L 2367,6266 L 2366,6268 L 2361,6295 L 2366,6323 L 2367,6325 L 2368,6326 L 2368,6327 L 2368,6328 L 2369,6329 L 2369,6331 L 2369,6341 L 2372,6354 L 2379,6365 L 2389,6373 L 2404,6376 L 2431,6376 L 2432,6376 L 2436,6377 L 2437,6377 L 2438,6377 L 2440,6378 L 2441,6379 L 2442,6380 L 2444,6382 L 2445,6384 L 2470,6420 L 2506,6444 L 2548,6453 L 2590,6444 L 2608,6433 L 2609,6432 L 2611,6431 L 2654,6423 L 2690,6399 L 2702,6381 L 2703,6380 L 2705,6377 L 2707,6376 L 2708,6375 L 2712,6374 L 2713,6373 L 2715,6373 L 2718,6373 L 2720,6373 L 2721,6373 L 2723,6374 L 2724,6374 L 2725,6375 L 2728,6377 L 2729,6378 L 2755,6404 L 2792,6420 L 2831,6420 L 2868,6405 L 2896,6376 L 2896,6376 L 2897,6375 L 2897,6374 L 2898,6373 L 2899,6372 L 2900,6371 L 2903,6369 L 2905,6368 L 2906,6368 L 2910,6367 L 2912,6367 L 2913,6367 L 2917,6368 L 2918,6368 L 2920,6369 L 2923,6371 L 2924,6372 L 2925,6373 L 2926,6374 L 2927,6375 L 2927,6376 L 2955,6404 L 2992,6420 L 3031,6420 L 3068,6405 L 3096,6376 L 3096,6376 L 3097,6375 L 3097,6374 L 3098,6373 L 3099,6372 L 3100,6371 L 3103,6369 L 3105,6368 L 3106,6368 L 3110,6367 L 3112,6367 L 3113,6367 L 3117,6368 L 3118,6368 L 3120,6369 L 3123,6371 L 3124,6372 L 3125,6373 L 3126,6374 L 3127,6375 L 3127,6376 L 3155,6404 L 3192,6420 L 3231,6420 L 3268,6405 L 3294,6378 L 3295,6378 L 3296,6376 L 3297,6376 L 3298,6375 L 3302,6374 L 3303,6373 L 3305,6373 L 3309,6373 L 3310,6373 L 3312,6374 L 3315,6375 L 3317,6376 L 3318,6377 L 3320,6380 L 3321,6381 L 3333,6399 L 3369,6423 L 3413,6431 L 3478,6431 L 3522,6423 L 3558,6398 L 3560,6396 L 3562,6395 L 3563,6394 L 3567,6393 L 3568,6392 L 3569,6392 L 3571,6392 L 3571,6392 L 4533,6392 L 4562,6386 L 4587,6370 L 4848,6109 L 4849,6108 L 4850,6108 L 4854,6106 L 4855,6106 L 4857,6106 L 4860,6106 L 4903,6097 L 4939,6073 L 4963,6037 L 4972,5993 L 4972,5912 L 4963,5868 L 4939,5832 L 4903,5808 L 4861,5800 L 4819,5808 L 4783,5832 L 4759,5868 L 4750,5912 L 4750,5999 L 4750,6000 L 4750,6002 L 4748,6005 L 4748,6006 L 4747,6007 L 4746,6009 L 4745,6009 L 4720,6035 L 4719,6035 L 4718,6036 L 4717,6037 L 4716,6038 L 4712,6039 L 4711,6040 L 4709,6040 L 4705,6040 L 4704,6040 L 4703,6039 L 4701,6039 L 4700,6038 L 4699,6038 L 4696,6036 L 4695,6035 L 4694,6034 L 4691,6030 L 4691,6029 L 4690,6027 L 4690,6024 L 4689,6022 L 4690,6021 L 4696,5986 L 4696,5908 L 4687,5864 L 4663,5828 L 4628,5804 L 4585,5795 L 4543,5804 L 4507,5828 L 4483,5864 L 4474,5908 L 4474,5986 L 4483,6030 L 4507,6066 L 4543,6090 L 4585,6099 L 4616,6092 L 4617,6092 L 4621,6092 L 4623,6092 L 4624,6093 L 4626,6093 L 4627,6094 L 4628,6094 L 4631,6096 L 4632,6097 L 4633,6099 L 4635,6102 L 4636,6103 L 4636,6105 L 4637,6108 L 4637,6110 L 4637,6112 L 4636,6115 L 4636,6117 L 4635,6118 L 4633,6121 L 4632,6123 L 4511,6244 L 4510,6245 L 4506,6247 L 4505,6248 L 4504,6248 L 4500,6249 L 4498,6249 L 3571,6249 L 3570,6249 L 3566,6248 L 3565,6248 L 3563,6247 L 3560,6245 L 3559,6244 L 3558,6243 L 3558,6243 L 3522,6218 L 3517,6218 L 3516,6217 L 3512,6216 L 3511,6215 L 3509,6214 L 3507,6211 L 3506,6210 L 3505,6209 L 3504,6208 L 3504,6207 L 3504,6205 L 3503,6202 L 3503,6200 L 3503,6163 L 3503,6161 L 3504,6157 L 3504,6156 L 3511,6140 L 3511,6101 L 3496,6065 L 3468,6037 L 3462,6034 L 3460,6033 L 3457,6031 L 3456,6031 L 3455,6030 L 3454,6028 L 3453,6027 L 3453,6026 L 3451,6023 L 3451,6021 L 3451,6020 L 3451,6016 L 3451,6014 L 3451,6013 L 3452,6011 L 3452,6010 L 3453,6009 L 3455,6006 L 3456,6005 L 3457,6004 L 3460,6002 L 3462,6001 L 3483,5992 L 3509,5966 L 3523,5932 L 3523,5896 L 3509,5862 L 3483,5836 L 3449,5822 L 3413,5822 L 3411,5822 L 3411,5822 L 3410,5823 L 3408,5823 L 3407,5823 L 3348,5823 L 3311,5830 L 3282,5850 L 3278,5856 L 3277,5857 L 3274,5860 L 3273,5860 L 3272,5861 L 3268,5863 L 3267,5863 L 3265,5863 L 3261,5863 L 3260,5863 L 3258,5863 L 3255,5861 L 3253,5860 L 3252,5860 L 3249,5857 L 3249,5856 L 3248,5855 L 3247,5853 L 3247,5852 L 3246,5851 L 3240,5818 L 3220,5789 L 3191,5769 L 3156,5762 L 3121,5769 L 3091,5789 L 3072,5819 L 3064,5855 L 3064,5890 L 3064,5891 L 3064,5893 L 3064,5893 L 3064,5894 L 3063,5895 L 3063,5906 L 3063,5908 L 3063,5909 L 3061,5913 L 3061,5914 L 3060,5915 L 3059,5916 L 3058,5917 L 3057,5918 L 3054,5920 L 3052,5921 L 3051,5921 L 3047,5922 L 3046,5922 L 3044,5922 L 3011,5915 L 3008,5915 L 3006,5915 L 3005,5915 L 3001,5913 L 3000,5912 L 2998,5912 L 2892,5805 L 2867,5789 L 2838,5783 L 2063,5783M 296,6086 L 339,6077 L 374,6053 L 398,6018 L 407,5975 L 406,5972 L 406,5971 L 406,5917 L 398,5873 L 374,5837 L 338,5813 L 295,5805 L 253,5813 L 217,5837 L 193,5873 L 185,5917 L 185,5973 L 193,6017 L 218,6053 L 254,6077 L 296,6086M 958,5397 L 1009,5448 L 1076,5476 L 1148,5476 L 1215,5448 L 1266,5397 L 1294,5330 L 1294,5258 L 1266,5191 L 1215,5140 L 1148,5112 L 1076,5112 L 1009,5140 L 958,5191 L 930,5258 L 930,5330 L 958,5397M 783,5688 L 820,5673 L 848,5645 L 863,5608 L 863,5569 L 848,5532 L 820,5505 L 784,5489 L 744,5489 L 708,5505 L 680,5532 L 665,5569 L 665,5608 L 680,5645 L 708,5672 L 744,5688 L 783,5688M 1449,5437 L 1434,5474 L 1434,5513 L 1449,5549 L 1477,5577 L 1513,5592 L 1552,5592 L 1589,5577 L 1617,5550 L 1632,5513 L 1632,5474 L 1617,5437 L 1589,5410 L 1553,5394 L 1513,5394 L 1477,5409 L 1449,5437M 2278,5644 L 2293,5608 L 2293,5568 L 2278,5532 L 2250,5504 L 2214,5489 L 2175,5489 L 2138,5504 L 2110,5532 L 2095,5568 L 2095,5607 L 2110,5644 L 2138,5672 L 2174,5687 L 2214,5687 L 2250,5672 L 2278,5644M 1306,1044 L 1334,978 L 1334,905 L 1306,839 L 1255,787 L 1188,760 L 1116,760 L 1049,787 L 998,838 L 970,905 L 970,977 L 998,1044 L 1049,1095 L 1116,1123 L 1188,1123 L 1255,1095 L 1306,1044M 319,220 L 338,212 L 338,211 L 319,192 L 317,193 L 316,193 L 316,193 L 303,196 L 302,196 L 289,196 L 288,196 L 288,196 L 275,193 L 274,193 L 274,193 L 272,192 L 252,211 L 253,211 L 282,222 L 319,220M 319,65 L 338,46 L 338,46 L 309,36 L 272,38 L 253,46 L 252,46 L 272,65 L 274,64 L 274,64 L 275,64 L 288,61 L 288,61 L 289,61 L 302,61 L 303,61 L 316,64 L 316,64 L 317,64 L 319,65M 232,105 L 213,86 L 213,86 L 203,115 L 204,152 L 212,171 L 213,172 L 232,153 L 229,144 L 229,142 L 228,130 L 228,128 L 229,115 L 229,114 L 232,105M 387,105 L 378,86 L 378,86 L 359,105 L 362,114 L 362,115 L 362,115 L 363,128 L 363,129 L 363,130 L 362,142 L 362,144 L 359,153 L 378,172 L 378,172 L 388,142 L 387,105M 863,436 L 848,399 L 820,371 L 784,356 L 744,356 L 708,371 L 680,399 L 665,436 L 665,475 L 680,511 L 708,539 L 744,554 L 783,554 L 820,539 L 848,512 L 863,475 L 863,436M 1633,114 L 1635,151 L 1643,171 L 1643,171 L 1662,152 L 1660,143 L 1659,141 L 1658,129 L 1658,127 L 1659,115 L 1660,113 L 1662,104 L 1643,85 L 1643,85 L 1633,114M 1449,493 L 1434,529 L 1434,569 L 1449,605 L 1477,633 L 1513,648 L 1552,648 L 1589,633 L 1617,605 L 1632,569 L 1632,530 L 1617,493 L 1589,465 L 1553,450 L 1513,450 L 1477,465 L 1449,493M 1789,152 L 1808,171 L 1808,171 L 1819,142 L 1817,105 L 1809,85 L 1808,85 L 1789,104 L 1792,113 L 1792,114 L 1792,115 L 1794,127 L 1794,128 L 1794,129 L 1792,141 L 1792,143 L 1789,152M 1683,210 L 1683,211 L 1712,221 L 1749,219 L 1769,211 L 1769,210 L 1750,191 L 1747,192 L 1747,193 L 1746,193 L 1734,195 L 1732,196 L 1719,196 L 1719,196 L 1718,195 L 1706,193 L 1705,193 L 1704,192 L 1702,191 L 1683,210M 1702,37 L 1683,45 L 1683,46 L 1702,65 L 1704,64 L 1705,64 L 1706,63 L 1718,61 L 1719,61 L 1719,61 L 1732,61 L 1734,61 L 1746,63 L 1747,64 L 1747,64 L 1750,65 L 1769,46 L 1769,46 L 1739,35 L 1739,35 L 1738,35 L 1702,37M 2278,511 L 2293,475 L 2293,435 L 2278,399 L 2250,371 L 2214,356 L 2175,356 L 2138,371 L 2110,399 L 2095,435 L 2095,474 L 2110,511 L 2138,539 L 2174,554 L 2214,554 L 2250,539 L 2278,511M 3877,5403 L 3928,5455 L 3995,5482 L 4067,5482 L 4134,5455 L 4185,5404 L 4213,5337 L 4213,5265 L 4186,5198 L 4134,5147 L 4068,5119 L 3995,5119 L 3929,5147 L 3877,5198 L 3850,5264 L 3850,5337 L 3877,5403M 2943,5592 L 2982,5592 L 3019,5577 L 3047,5549 L 3062,5513 L 3062,5473 L 3047,5437 L 3019,5409 L 2982,5394 L 2943,5394 L 2907,5409 L 2879,5437 L 2864,5473 L 2864,5512 L 2879,5549 L 2906,5577 L 2943,5592M 3568,5503 L 3540,5531 L 3525,5568 L 3525,5607 L 3540,5643 L 3568,5671 L 3604,5686 L 3644,5686 L 3680,5671 L 3708,5643 L 3723,5607 L 3723,5568 L 3708,5531 L 3680,5503 L 3644,5488 L 3604,5488 L 3568,5503M 4412,5588 L 4448,5573 L 4476,5545 L 4491,5509 L 4492,5469 L 4476,5433 L 4449,5405 L 4412,5390 L 4373,5390 L 4336,5405 L 4309,5433 L 4293,5469 L 4293,5508 L 4308,5545 L 4336,5573 L 4373,5588 L 4412,5588M 5034,5682 L 5073,5682 L 5110,5667 L 5138,5639 L 5153,5603 L 5153,5564 L 5138,5527 L 5110,5499 L 5074,5484 L 5034,5484 L 4998,5499 L 4970,5527 L 4955,5564 L 4955,5603 L 4970,5639 L 4998,5667 L 5034,5682M 3877,1024 L 3928,1075 L 3995,1103 L 4067,1103 L 4134,1075 L 4185,1024 L 4213,958 L 4213,885 L 4186,819 L 4134,767 L 4068,740 L 3995,740 L 3929,767 L 3877,818 L 3850,885 L 3850,957 L 3877,1024M 2943,648 L 2982,648 L 3019,633 L 3047,605 L 3062,568 L 3062,529 L 3047,493 L 3019,465 L 2982,450 L 2943,450 L 2907,465 L 2879,492 L 2864,529 L 2864,568 L 2879,605 L 2906,633 L 2943,648M 3092,104 L 3073,84 L 3073,85 L 3063,114 L 3064,151 L 3073,170 L 3073,170 L 3092,151 L 3089,142 L 3089,141 L 3088,128 L 3088,127 L 3089,114 L 3089,113 L 3092,104M 3113,210 L 3113,210 L 3142,220 L 3179,219 L 3198,210 L 3198,210 L 3179,191 L 3177,192 L 3177,192 L 3176,192 L 3163,195 L 3162,195 L 3149,195 L 3148,195 L 3148,195 L 3135,192 L 3135,192 L 3134,192 L 3132,191 L 3113,210M 3179,64 L 3198,45 L 3198,45 L 3166,33 L 3165,33 L 3164,32 L 3163,33 L 3162,34 L 3160,34 L 3159,35 L 3158,35 L 3132,36 L 3113,44 L 3113,45 L 3132,64 L 3134,63 L 3135,63 L 3135,63 L 3148,60 L 3148,60 L 3149,60 L 3162,60 L 3163,60 L 3176,63 L 3177,63 L 3177,63 L 3179,64M 3219,104 L 3222,113 L 3222,113 L 3222,114 L 3223,127 L 3223,127 L 3223,128 L 3222,141 L 3222,142 L 3219,151 L 3238,170 L 3238,170 L 3248,141 L 3247,104 L 3239,85 L 3238,85 L 3219,104M 3568,538 L 3604,553 L 3644,553 L 3680,538 L 3708,510 L 3723,474 L 3723,435 L 3708,398 L 3680,370 L 3644,355 L 3604,355 L 3568,370 L 3540,398 L 3525,434 L 3525,474 L 3540,510 L 3568,538M 4572,216 L 4609,215 L 4628,206 L 4628,206 L 4609,187 L 4607,188 L 4606,188 L 4606,188 L 4593,191 L 4592,191 L 4579,191 L 4578,191 L 4577,191 L 4565,188 L 4564,188 L 4564,188 L 4561,187 L 4542,206 L 4542,206 L 4572,216M 4412,644 L 4448,629 L 4476,601 L 4491,564 L 4492,525 L 4476,489 L 4449,461 L 4412,446 L 4373,446 L 4336,461 L 4309,488 L 4293,525 L 4293,564 L 4308,601 L 4336,629 L 4373,644 L 4412,644M 4492,110 L 4494,147 L 4502,166 L 4503,166 L 4522,147 L 4519,138 L 4519,137 L 4518,124 L 4518,123 L 4519,110 L 4519,109 L 4522,100 L 4503,80 L 4503,81 L 4492,110M 4649,147 L 4668,166 L 4668,166 L 4678,137 L 4676,100 L 4668,81 L 4668,81 L 4649,100 L 4652,109 L 4652,109 L 4652,110 L 4653,123 L 4653,123 L 4653,124 L 4652,137 L 4652,138 L 4649,147M 5153,431 L 5138,394 L 5110,366 L 5074,351 L 5034,351 L 4998,366 L 4970,394 L 4955,430 L 4955,470 L 4970,506 L 4998,534 L 5034,549 L 5073,549 L 5110,534 L 5138,506 L 5153,470 L 5153,431 z " style="fill-opacity:1.000000;fill:rgb(120,54,253);stroke:rgb(0,0,0);stroke-width:2"/></g>
<g fill-rule="evenodd"><path d="M 3089,5905 L 3089,5853 L 3089,5853 L 3090,5841 L 3090,5840 L 3093,5829 L 3094,5827 L 3099,5817 L 3100,5816 L 3108,5807 L 3109,5806 L 3119,5798 L 3119,5797 L 3120,5797 L 3131,5791 L 3133,5790 L 3145,5787 L 3145,5787 L 3146,5787 L 3158,5786 L 3159,5786 L 3160,5786 L 3172,5788 L 3173,5789 L 3174,5789 L 3185,5793 L 3186,5794 L 3187,5794 L 3197,5801 L 3199,5802 L 3207,5810 L 3208,5812 L 3215,5822 L 3215,5823 L 3216,5824 L 3220,5835 L 3221,5837 L 3223,5849 L 3223,5850 L 3222,5905 L 3223,5913 L 3223,5914 L 3223,5915 L 3222,5927 L 3222,5929 L 3218,5941 L 3218,5942 L 3217,5942 L 3211,5953 L 3210,5954 L 3210,5955 L 3202,5964 L 3200,5965 L 3190,5972 L 3189,5973 L 3177,5978 L 3177,5979 L 3176,5979 L 3163,5981 L 3162,5982 L 3149,5982 L 3148,5982 L 3148,5981 L 3135,5979 L 3135,5979 L 3134,5978 L 3122,5973 L 3121,5972 L 3111,5965 L 3110,5964 L 3110,5964 L 3101,5955 L 3101,5954 L 3100,5953 L 3094,5942 L 3094,5942 L 3093,5941 L 3089,5929 L 3089,5927 L 3088,5915 L 3088,5913 L 3089,5905 z " style="fill-opacity:1.000000;fill:rgb(18,73,50);stroke:rgb(0,0,0);stroke-width:2"/></g>
<g fill-rule="evenodd"><path d="M 809,6086 L 2048,6086 L 2193,5942 L 2193,5941 L 2199,5936 L 2201,5935 L 2207,5932 L 2209,5931 L 2216,5929 L 2218,5928 L 2225,5928 L 2226,5928 L 2761,5928 L 2761,5928 L 2769,5928 L 2771,5929 L 2778,5931 L 2779,5932 L 2786,5935 L 2787,5936 L 2793,5941 L 2794,5942 L 2804,5951 L 2813,5952 L 2815,5952 L 2830,5956 L 2831,5956 L 2832,5957 L 2847,5964 L 2848,5965 L 2861,5976 L 2861,5976 L 2873,5987 L 2873,5988 L 2883,6000 L 2884,6001 L 2891,6015 L 2892,6016 L 2896,6031 L 2897,6033 L 2898,6048 L 2898,6049 L 2898,6121 L 2898,6121 L 2896,6138 L 2896,6139 L 2891,6155 L 2891,6156 L 2890,6157 L 2882,6171 L 2882,6171 L 2881,6172 L 2879,6175 L 2879,6288 L 2880,6289 L 2880,6291 L 2885,6304 L 2885,6305 L 2885,6306 L 2886,6320 L 2886,6321 L 2886,6321 L 2885,6335 L 2885,6337 L 2880,6350 L 2880,6351 L 2880,6352 L 2873,6364 L 2872,6365 L 2872,6365 L 2862,6376 L 2861,6377 L 2850,6385 L 2849,6385 L 2848,6386 L 2835,6391 L 2835,6392 L 2834,6392 L 2820,6395 L 2819,6395 L 2805,6395 L 2804,6395 L 2803,6395 L 2789,6392 L 2788,6392 L 2788,6391 L 2775,6386 L 2774,6385 L 2774,6385 L 2762,6377 L 2761,6376 L 2752,6365 L 2751,6365 L 2751,6364 L 2744,6352 L 2743,6351 L 2743,6350 L 2739,6337 L 2738,6335 L 2737,6321 L 2737,6320 L 2738,6306 L 2739,6304 L 2743,6291 L 2743,6290 L 2744,6289 L 2745,6288 L 2745,6175 L 2742,6172 L 2741,6171 L 2733,6157 L 2732,6156 L 2732,6155 L 2727,6139 L 2727,6138 L 2725,6121 L 2725,6121 L 2725,6079 L 2720,6069 L 2719,6068 L 2719,6068 L 2715,6052 L 2715,6050 L 2714,6034 L 2714,6033 L 2714,6032 L 2715,6022 L 2246,6022 L 2101,6167 L 2100,6167 L 2094,6172 L 2093,6173 L 2086,6177 L 2085,6177 L 2078,6180 L 2076,6180 L 2068,6181 L 2068,6181 L 789,6181 L 788,6181 L 781,6180 L 779,6180 L 772,6177 L 770,6177 L 764,6173 L 762,6172 L 756,6167 L 756,6167 L 628,6039 L 617,6047 L 616,6048 L 601,6056 L 601,6056 L 600,6056 L 584,6061 L 582,6061 L 566,6062 L 565,6062 L 564,6062 L 548,6059 L 546,6059 L 531,6053 L 530,6052 L 516,6043 L 514,6042 L 503,6030 L 502,6029 L 493,6015 L 492,6015 L 492,6014 L 486,5998 L 486,5997 L 483,5981 L 483,5980 L 483,5979 L 484,5963 L 484,5962 L 484,5961 L 484,5960 L 484,5915 L 484,5914 L 486,5898 L 487,5896 L 492,5881 L 492,5880 L 492,5879 L 500,5865 L 501,5864 L 501,5864 L 512,5851 L 514,5850 L 527,5841 L 528,5840 L 543,5833 L 544,5833 L 545,5833 L 561,5829 L 562,5829 L 563,5829 L 579,5829 L 581,5829 L 597,5833 L 598,5833 L 599,5833 L 614,5840 L 614,5840 L 615,5841 L 628,5850 L 630,5851 L 641,5864 L 641,5864 L 642,5865 L 650,5879 L 650,5880 L 650,5881 L 655,5896 L 656,5897 L 656,5898 L 658,5914 L 658,5915 L 658,5935 L 809,6086 z " style="fill-opacity:1.000000;fill:rgb(246,158,125);stroke:rgb(0,0,0);stroke-width:2"/></g>
<g fill-rule="evenodd"><path d="M 2394,6324 L 2391,6320 L 2390,6318 L 2387,6311 L 2387,6310 L 2387,6309 L 2385,6301 L 2385,6300 L 2385,6299 L 2385,6291 L 2385,6290 L 2387,6282 L 2387,6281 L 2387,6280 L 2390,6272 L 2391,6272 L 2391,6271 L 2394,6267 L 2394,6248 L 2394,6247 L 2395,6245 L 2396,6244 L 2397,6243 L 2398,6242 L 2399,6241 L 2401,6240 L 2402,6240 L 2461,6240 L 2463,6240 L 2464,6241 L 2466,6242 L 2467,6243 L 2468,6244 L 2468,6245 L 2469,6247 L 2469,6248 L 2522,6248 L 2536,6241 L 2537,6240 L 2552,6236 L 2553,6236 L 2569,6234 L 2570,6234 L 2612,6234 L 2612,6234 L 2629,6236 L 2630,6236 L 2630,6236 L 2646,6241 L 2647,6241 L 2648,6242 L 2662,6250 L 2663,6250 L 2663,6251 L 2675,6262 L 2676,6263 L 2686,6277 L 2687,6277 L 2687,6278 L 2694,6293 L 2694,6294 L 2694,6295 L 2698,6311 L 2698,6312 L 2698,6329 L 2698,6330 L 2698,6330 L 2694,6347 L 2694,6347 L 2694,6348 L 2687,6363 L 2686,6365 L 2676,6378 L 2675,6379 L 2663,6390 L 2663,6391 L 2662,6391 L 2648,6399 L 2647,6400 L 2646,6400 L 2630,6405 L 2629,6405 L 2612,6407 L 2612,6407 L 2605,6407 L 2596,6414 L 2594,6415 L 2580,6423 L 2578,6423 L 2562,6427 L 2562,6428 L 2561,6428 L 2544,6429 L 2543,6429 L 2543,6429 L 2526,6426 L 2525,6426 L 2509,6420 L 2508,6419 L 2494,6410 L 2494,6409 L 2493,6409 L 2481,6397 L 2480,6396 L 2471,6382 L 2471,6381 L 2465,6365 L 2464,6365 L 2464,6364 L 2462,6350 L 2461,6350 L 2402,6350 L 2401,6350 L 2399,6350 L 2398,6349 L 2397,6348 L 2396,6347 L 2395,6346 L 2394,6344 L 2394,6343 L 2394,6324 z " style="fill-opacity:1.000000;fill:rgb(73,220,173);stroke:rgb(0,0,0);stroke-width:2"/></g>
<g fill-rule="evenodd"><path d="M 2087,5902 L 2088,5914 L 2088,5915 L 2088,5963 L 2089,5980 L 2089,5981 L 2089,5981 L 2086,5998 L 2086,5998 L 2086,5999 L 2080,6015 L 2079,6016 L 2070,6030 L 2070,6031 L 2069,6031 L 2058,6043 L 2057,6043 L 2056,6044 L 2042,6053 L 2041,6054 L 2026,6059 L 2024,6060 L 2008,6062 L 2007,6063 L 2006,6063 L 1990,6062 L 1988,6061 L 1972,6057 L 1971,6057 L 1971,6057 L 1956,6049 L 1955,6048 L 1942,6038 L 1941,6037 L 1930,6024 L 1929,6022 L 1922,6009 L 1921,6007 L 1917,5993 L 1916,5991 L 1915,5976 L 1915,5975 L 1915,5915 L 1915,5914 L 1916,5897 L 1917,5896 L 1922,5880 L 1922,5879 L 1923,5879 L 1931,5864 L 1931,5864 L 1932,5863 L 1943,5851 L 1944,5850 L 1957,5840 L 1959,5839 L 1974,5833 L 1975,5832 L 1975,5832 L 1991,5829 L 1992,5828 L 1993,5828 L 2010,5828 L 2010,5828 L 2011,5829 L 2019,5830 L 2028,5821 L 2028,5821 L 2034,5816 L 2036,5815 L 2043,5811 L 2044,5811 L 2051,5808 L 2053,5808 L 2061,5807 L 2061,5807 L 2840,5807 L 2841,5807 L 2849,5808 L 2851,5809 L 2859,5811 L 2860,5812 L 2865,5815 L 2867,5815 L 2873,5821 L 2874,5821 L 2994,5942 L 3002,5940 L 3003,5940 L 3003,5940 L 3020,5940 L 3021,5940 L 3038,5943 L 3038,5944 L 3039,5944 L 3054,5951 L 3055,5951 L 3056,5951 L 3069,5961 L 3070,5962 L 3081,5974 L 3082,5975 L 3082,5976 L 3090,5990 L 3091,5991 L 3091,5991 L 3096,6007 L 3096,6008 L 3096,6009 L 3098,6025 L 3098,6026 L 3098,6121 L 3098,6121 L 3096,6138 L 3096,6139 L 3091,6155 L 3091,6156 L 3090,6157 L 3082,6171 L 3082,6171 L 3081,6172 L 3078,6175 L 3078,6288 L 3080,6289 L 3080,6291 L 3085,6304 L 3085,6305 L 3085,6306 L 3086,6320 L 3086,6321 L 3086,6321 L 3085,6335 L 3085,6337 L 3080,6350 L 3080,6351 L 3080,6352 L 3073,6364 L 3072,6365 L 3072,6365 L 3062,6376 L 3061,6377 L 3050,6385 L 3049,6385 L 3048,6386 L 3035,6391 L 3035,6392 L 3034,6392 L 3020,6395 L 3019,6395 L 3005,6395 L 3004,6395 L 3003,6395 L 2989,6392 L 2988,6392 L 2988,6391 L 2975,6386 L 2974,6385 L 2973,6385 L 2962,6377 L 2961,6376 L 2952,6365 L 2951,6365 L 2951,6364 L 2944,6352 L 2943,6351 L 2943,6350 L 2939,6337 L 2938,6335 L 2937,6321 L 2937,6320 L 2938,6306 L 2939,6304 L 2943,6291 L 2943,6290 L 2944,6289 L 2945,6288 L 2945,6175 L 2942,6172 L 2941,6171 L 2933,6157 L 2932,6156 L 2932,6155 L 2927,6139 L 2927,6138 L 2925,6121 L 2925,6121 L 2925,6026 L 2925,6025 L 2927,6009 L 2927,6008 L 2821,5902 L 2087,5902 z " style="fill-opacity:1.000000;fill:rgb(79,20,242);stroke:rgb(0,0,0);stroke-width:2"/></g>
<g fill-rule="evenodd"><path d="M 3552,6273 L 4516,6273 L 4776,6013 L 4776,6012 L 4774,5996 L 4774,5995 L 4774,5910 L 4774,5909 L 4776,5893 L 4776,5891 L 4781,5876 L 4782,5875 L 4782,5874 L 4790,5860 L 4791,5859 L 4791,5858 L 4802,5846 L 4804,5845 L 4817,5835 L 4818,5835 L 4833,5828 L 4834,5828 L 4835,5827 L 4851,5824 L 4852,5824 L 4853,5824 L 4869,5824 L 4871,5824 L 4887,5827 L 4888,5828 L 4888,5828 L 4903,5835 L 4904,5835 L 4905,5835 L 4918,5845 L 4919,5846 L 4930,5858 L 4931,5859 L 4931,5860 L 4940,5874 L 4940,5875 L 4940,5876 L 4945,5891 L 4946,5892 L 4946,5893 L 4947,5909 L 4947,5910 L 4947,5995 L 4947,5996 L 4946,6012 L 4945,6014 L 4940,6029 L 4940,6030 L 4940,6031 L 4931,6045 L 4931,6046 L 4930,6046 L 4919,6059 L 4918,6060 L 4905,6069 L 4904,6070 L 4903,6070 L 4888,6077 L 4888,6077 L 4887,6077 L 4871,6081 L 4869,6081 L 4853,6081 L 4852,6081 L 4851,6081 L 4843,6079 L 4569,6354 L 4568,6354 L 4562,6359 L 4561,6360 L 4554,6364 L 4553,6364 L 4545,6367 L 4544,6367 L 4536,6368 L 4535,6368 L 3552,6368 L 3544,6378 L 3543,6379 L 3531,6390 L 3530,6391 L 3530,6391 L 3515,6399 L 3515,6400 L 3514,6400 L 3498,6405 L 3497,6405 L 3480,6407 L 3479,6407 L 3412,6407 L 3411,6407 L 3394,6405 L 3393,6405 L 3377,6400 L 3376,6400 L 3376,6399 L 3361,6391 L 3361,6391 L 3360,6390 L 3348,6379 L 3347,6378 L 3337,6365 L 3337,6364 L 3336,6363 L 3329,6348 L 3329,6347 L 3329,6347 L 3326,6330 L 3325,6330 L 3325,6329 L 3325,6312 L 3326,6311 L 3329,6295 L 3329,6294 L 3329,6293 L 3336,6278 L 3337,6277 L 3337,6277 L 3345,6266 L 3345,6154 L 3344,6152 L 3343,6150 L 3339,6137 L 3338,6135 L 3337,6121 L 3337,6120 L 3338,6106 L 3339,6104 L 3343,6091 L 3343,6090 L 3344,6089 L 3351,6077 L 3351,6077 L 3352,6076 L 3361,6066 L 3362,6064 L 3373,6056 L 3374,6056 L 3375,6055 L 3388,6050 L 3388,6049 L 3389,6049 L 3403,6046 L 3404,6046 L 3405,6046 L 3418,6046 L 3420,6046 L 3434,6049 L 3435,6049 L 3435,6050 L 3448,6055 L 3449,6056 L 3450,6056 L 3461,6064 L 3462,6066 L 3471,6076 L 3472,6077 L 3472,6077 L 3479,6089 L 3480,6090 L 3480,6091 L 3484,6104 L 3485,6105 L 3485,6106 L 3486,6120 L 3486,6121 L 3486,6121 L 3485,6135 L 3484,6137 L 3480,6150 L 3480,6151 L 3479,6152 L 3478,6154 L 3478,6234 L 3479,6234 L 3480,6234 L 3497,6236 L 3497,6236 L 3498,6236 L 3514,6241 L 3515,6241 L 3515,6242 L 3530,6250 L 3530,6250 L 3531,6251 L 3543,6262 L 3544,6263 L 3552,6273 z " style="fill-opacity:1.000000;fill:rgb(68,64,102);stroke:rgb(0,0,0);stroke-width:2"/></g>
<g fill-rule="evenodd"><path d="M 3297,6079 L 3298,6091 L 3298,6092 L 3298,6121 L 3298,6121 L 3296,6138 L 3296,6139 L 3291,6155 L 3291,6156 L 3290,6157 L 3282,6171 L 3282,6171 L 3281,6172 L 3278,6175 L 3278,6288 L 3279,6289 L 3280,6291 L 3284,6304 L 3285,6305 L 3285,6306 L 3286,6320 L 3286,6321 L 3286,6321 L 3285,6335 L 3284,6337 L 3280,6350 L 3280,6351 L 3279,6352 L 3272,6364 L 3272,6365 L 3272,6365 L 3262,6376 L 3261,6377 L 3250,6385 L 3249,6385 L 3248,6386 L 3235,6391 L 3235,6392 L 3234,6392 L 3220,6395 L 3219,6395 L 3205,6395 L 3204,6395 L 3203,6395 L 3189,6392 L 3188,6392 L 3188,6391 L 3175,6386 L 3174,6385 L 3173,6385 L 3162,6377 L 3161,6376 L 3152,6365 L 3151,6365 L 3151,6364 L 3144,6352 L 3143,6351 L 3143,6350 L 3139,6337 L 3138,6335 L 3137,6321 L 3137,6320 L 3138,6306 L 3139,6304 L 3143,6291 L 3143,6290 L 3144,6289 L 3145,6288 L 3145,6175 L 3142,6172 L 3141,6171 L 3133,6157 L 3132,6156 L 3132,6155 L 3127,6139 L 3127,6138 L 3125,6121 L 3125,6121 L 3125,6092 L 3125,6091 L 3127,6075 L 3127,6073 L 3132,6058 L 3132,6057 L 3133,6056 L 3141,6042 L 3141,6041 L 3142,6041 L 3153,6028 L 3154,6027 L 3168,6018 L 3169,6017 L 3184,6010 L 3185,6010 L 3186,6010 L 3202,6006 L 3202,6006 L 3203,6006 L 3220,6006 L 3221,6006 L 3221,6006 L 3234,6009 L 3291,5951 L 3289,5948 L 3288,5947 L 3288,5947 L 3283,5935 L 3282,5934 L 3280,5922 L 3280,5921 L 3280,5920 L 3280,5908 L 3280,5906 L 3282,5894 L 3283,5893 L 3288,5881 L 3288,5881 L 3289,5880 L 3296,5870 L 3297,5869 L 3306,5860 L 3307,5860 L 3308,5859 L 3318,5853 L 3319,5853 L 3320,5853 L 3332,5849 L 3333,5848 L 3345,5847 L 3346,5847 L 3421,5847 L 3423,5847 L 3424,5847 L 3425,5846 L 3437,5846 L 3439,5847 L 3451,5849 L 3452,5849 L 3453,5850 L 3464,5855 L 3466,5856 L 3476,5863 L 3476,5864 L 3477,5864 L 3485,5873 L 3486,5874 L 3486,5875 L 3493,5886 L 3493,5886 L 3493,5887 L 3497,5899 L 3497,5900 L 3498,5901 L 3499,5913 L 3499,5914 L 3499,5915 L 3498,5927 L 3497,5929 L 3493,5941 L 3493,5942 L 3493,5942 L 3486,5953 L 3486,5954 L 3485,5955 L 3477,5964 L 3476,5965 L 3466,5972 L 3464,5973 L 3453,5978 L 3452,5979 L 3451,5979 L 3439,5981 L 3437,5982 L 3425,5982 L 3424,5982 L 3423,5981 L 3421,5981 L 3390,5981 L 3390,5982 L 3386,5989 L 3385,5990 L 3380,5996 L 3380,5997 L 3297,6079 z " style="fill-opacity:1.000000;fill:rgb(208,107,196);stroke:rgb(0,0,0);stroke-width:2"/></g>
</svg>
