<?xml version="1.0" standalone="no"?>
<!DOCTYPE svg PUBLIC "-//W3C//DTD SVG 1.1//EN"
"http://www.w3.org/Graphics/SVG/1.1/DTD/svg11.dtd">
<svg width="5218" height="6488" viewBox="0 0 5218 6488" version="1.1"
xmlns="http://www.w3.org/2000/svg"
xmlns:xlink="http://www.w3.org/1999/xlink">
<g fill-rule="evenodd"><path d="M 239,5987 L 223,5988 L 207,5985 L 191,5979 L 177,5970 L 166,5958 L 157,5945 L 151,5929 L 148,5913 L 149,5897 L 153,5881 L 161,5866 L 171,5853 L 184,5842 L 198,5835 L 212,5831 L 228,5829 L 287,5829 L 304,5831 L 319,5836 L 334,5844 L 346,5855 L 355,5869 L 362,5884 L 366,5900 L 366,5916 L 362,5932 L 355,5947 L 346,5961 L 334,5972 L 319,5980 L 304,5985 L 287,5987 L 239,5987 z " style="fill-opacity:1.000000;fill:rgb(41,35,190);stroke:rgb(0,0,0);stroke-width:2"/></g>
<g fill-rule="evenodd"><path d="M 1666,5829 L 1718,5829 L 1734,5830 L 1750,5835 L 1764,5844 L 1776,5855 L 1786,5868 L 1793,5883 L 1796,5899 L 1796,5916 L 1793,5932 L 1786,5947 L 1776,5960 L 1764,5971 L 1750,5979 L 1734,5984 L 1718,5986 L 1658,5986 L 1643,5985 L 1628,5980 L 1614,5973 L 1602,5962 L 1591,5949 L 1584,5935 L 1580,5919 L 1579,5902 L 1581,5886 L 1587,5871 L 1596,5857 L 1608,5845 L 1622,5836 L 1637,5830 L 1653,5828 L 1666,5829 z " style="fill-opacity:1.000000;fill:rgb(132,225,108);stroke:rgb(0,0,0);stroke-width:2"/></g>
<g fill-rule="evenodd"><path d="M 4510,5942 L 4481,5913 L 4471,5901 L 4463,5886 L 4459,5870 L 4458,5854 L 4461,5837 L 4467,5822 L 4476,5808 L 4487,5797 L 4501,5788 L 4516,5782 L 4533,5779 L 4549,5780 L 4565,5784 L 4580,5792 L 4592,5802 L 4633,5843 L 4643,5855 L 4650,5868 L 4655,5883 L 4656,5898 L 4656,5903 L 4654,5919 L 4649,5935 L 4641,5949 L 4630,5961 L 4617,5971 L 4602,5978 L 4586,5981 L 4569,5981 L 4553,5978 L 4538,5971 L 4525,5961 L 4514,5949 L 4510,5942 z " style="fill-opacity:1.000000;fill:rgb(214,174,82);stroke:rgb(0,0,0);stroke-width:2"/></g>
<g fill-rule="evenodd"><path d="M 2871,6313 L 2869,6327 L 2865,6340 L 2858,6353 L 2848,6363 L 2837,6371 L 2824,6377 L 2811,6380 L 2797,6380 L 2783,6377 L 2770,6371 L 2759,6363 L 2749,6353 L 2742,6340 L 2738,6327 L 2737,6313 L 2738,6299 L 2742,6286 L 2749,6274 L 2759,6264 L 2770,6255 L 2783,6250 L 2797,6247 L 2811,6247 L 2824,6250 L 2837,6255 L 2848,6264 L 2858,6274 L 2865,6286 L 2869,6299 L 2871,6313 z " style="fill-opacity:1.000000;fill:rgb(144,73,241);stroke:rgb(0,0,0);stroke-width:2"/></g>
<g fill-rule="evenodd"><path d="M 3071,6313 L 3069,6327 L 3065,6340 L 3058,6353 L 3048,6363 L 3037,6371 L 3024,6377 L 3011,6380 L 2997,6380 L 2983,6377 L 2970,6371 L 2959,6363 L 2949,6353 L 2942,6340 L 2938,6327 L 2937,6313 L 2938,6299 L 2942,6286 L 2949,6274 L 2959,6264 L 2970,6255 L 2983,6250 L 2997,6247 L 3011,6247 L 3024,6250 L 3037,6255 L 3048,6264 L 3058,6274 L 3065,6286 L 3069,6299 L 3071,6313 z " style="fill-opacity:1.000000;fill:rgb(241,187,233);stroke:rgb(0,0,0);stroke-width:2"/></g>
<g fill-rule="evenodd"><path d="M 3270,6313 L 3269,6327 L 3265,6340 L 3258,6353 L 3248,6363 L 3237,6371 L 3224,6377 L 3211,6380 L 3197,6380 L 3183,6377 L 3170,6371 L 3159,6363 L 3149,6353 L 3142,6340 L 3138,6327 L 3137,6313 L 3138,6299 L 3142,6286 L 3149,6274 L 3159,6264 L 3170,6255 L 3183,6250 L 3197,6247 L 3211,6247 L 3224,6250 L 3237,6255 L 3248,6264 L 3258,6274 L 3265,6286 L 3269,6299 L 3270,6313 z " style="fill-opacity:1.000000;fill:rgb(235,179,166);stroke:rgb(0,0,0);stroke-width:2"/></g>
<g fill-rule="evenodd"><path d="M 3470,6113 L 3469,6127 L 3465,6140 L 3458,6153 L 3448,6163 L 3437,6171 L 3424,6177 L 3411,6180 L 3397,6180 L 3383,6177 L 3370,6171 L 3359,6163 L 3349,6153 L 3342,6140 L 3338,6127 L 3337,6113 L 3338,6099 L 3342,6086 L 3349,6074 L 3359,6064 L 3370,6055 L 3383,6050 L 3397,6047 L 3411,6047 L 3424,6050 L 3437,6055 L 3448,6064 L 3458,6074 L 3465,6086 L 3469,6099 L 3470,6113 z " style="fill-opacity:1.000000;fill:rgb(219,60,135);stroke:rgb(0,0,0);stroke-width:2"/></g>
<g fill-rule="evenodd"><path d="M 161,5487 L 160,5501 L 156,5514 L 149,5526 L 139,5536 L 128,5545 L 115,5550 L 101,5553 L 87,5553 L 74,5550 L 61,5545 L 50,5536 L 40,5526 L 33,5514 L 29,5501 L 27,5487 L 29,5473 L 33,5459 L 40,5447 L 50,5437 L 61,5429 L 74,5423 L 87,5420 L 101,5420 L 115,5423 L 128,5429 L 139,5437 L 149,5447 L 156,5459 L 160,5473 L 161,5487 z " style="fill-opacity:1.000000;fill:rgb(12,62,153);stroke:rgb(0,0,0);stroke-width:2"/></g>
<g fill-rule="evenodd"><path d="M 823,5581 L 821,5595 L 817,5608 L 810,5621 L 801,5631 L 789,5639 L 776,5645 L 763,5648 L 749,5648 L 735,5645 L 722,5639 L 711,5631 L 702,5621 L 695,5608 L 690,5595 L 689,5581 L 690,5567 L 695,5554 L 702,5542 L 711,5531 L 722,5523 L 735,5518 L 749,5515 L 763,5515 L 776,5518 L 789,5523 L 801,5531 L 810,5542 L 817,5554 L 821,5567 L 823,5581 z " style="fill-opacity:1.000000;fill:rgb(36,94,13);stroke:rgb(0,0,0);stroke-width:2"/></g>
<g fill-rule="evenodd"><path d="M 823,448 L 821,462 L 817,475 L 810,487 L 801,497 L 789,506 L 776,511 L 763,514 L 749,514 L 735,511 L 722,506 L 711,497 L 702,487 L 695,475 L 690,462 L 689,448 L 690,434 L 695,421 L 702,408 L 711,398 L 722,390 L 735,384 L 749,381 L 763,381 L 776,384 L 789,390 L 801,398 L 810,408 L 817,421 L 821,434 L 823,448 z " style="fill-opacity:1.000000;fill:rgb(28,6,183);stroke:rgb(0,0,0);stroke-width:2"/></g>
<g fill-rule="evenodd"><path d="M 161,542 L 160,556 L 156,569 L 149,582 L 139,592 L 128,600 L 115,606 L 101,609 L 87,609 L 74,606 L 61,600 L 50,592 L 40,582 L 33,569 L 29,556 L 27,542 L 29,528 L 33,515 L 40,503 L 50,492 L 61,484 L 74,479 L 87,476 L 101,476 L 115,479 L 128,484 L 139,492 L 149,503 L 156,515 L 160,528 L 161,542 z " style="fill-opacity:1.000000;fill:rgb(71,222,179);stroke:rgb(0,0,0);stroke-width:2"/></g>
<g fill-rule="evenodd"><path d="M 1592,5486 L 1590,5500 L 1586,5513 L 1579,5525 L 1570,5536 L 1558,5544 L 1545,5550 L 1532,5553 L 1518,5553 L 1504,5550 L 1491,5544 L 1480,5536 L 1471,5525 L 1464,5513 L 1459,5500 L 1458,5486 L 1459,5472 L 1464,5459 L 1471,5447 L 1480,5436 L 1491,5428 L 1504,5422 L 1518,5420 L 1532,5420 L 1545,5422 L 1558,5428 L 1570,5436 L 1579,5447 L 1586,5459 L 1590,5472 L 1592,5486 z " style="fill-opacity:1.000000;fill:rgb(18,77,200);stroke:rgb(0,0,0);stroke-width:2"/></g>
<g fill-rule="evenodd"><path d="M 2253,5581 L 2252,5594 L 2247,5608 L 2240,5620 L 2231,5630 L 2220,5638 L 2207,5644 L 2193,5647 L 2179,5647 L 2165,5644 L 2153,5638 L 2141,5630 L 2132,5620 L 2125,5608 L 2121,5594 L 2119,5581 L 2121,5567 L 2125,5553 L 2132,5541 L 2141,5531 L 2153,5523 L 2165,5517 L 2179,5514 L 2193,5514 L 2207,5517 L 2220,5523 L 2231,5531 L 2240,5541 L 2247,5553 L 2252,5567 L 2253,5581 z " style="fill-opacity:1.000000;fill:rgb(67,187,139);stroke:rgb(0,0,0);stroke-width:2"/></g>
<g fill-rule="evenodd"><path d="M 2253,447 L 2252,461 L 2247,474 L 2240,486 L 2231,497 L 2220,505 L 2207,511 L 2193,514 L 2179,514 L 2165,511 L 2153,505 L 2141,497 L 2132,486 L 2125,474 L 2121,461 L 2119,447 L 2121,433 L 2125,420 L 2132,408 L 2141,397 L 2153,389 L 2165,383 L 2179,381 L 2193,381 L 2207,383 L 2220,389 L 2231,397 L 2240,408 L 2247,420 L 2252,433 L 2253,447 z " style="fill-opacity:1.000000;fill:rgb(166,31,3);stroke:rgb(0,0,0);stroke-width:2"/></g>
<g fill-rule="evenodd"><path d="M 1592,542 L 1590,555 L 1586,569 L 1579,581 L 1570,591 L 1558,600 L 1545,605 L 1532,608 L 1518,608 L 1504,605 L 1491,600 L 1480,591 L 1471,581 L 1464,569 L 1459,555 L 1458,542 L 1459,528 L 1464,514 L 1471,502 L 1480,492 L 1491,484 L 1504,478 L 1518,475 L 1532,475 L 1545,478 L 1558,484 L 1570,492 L 1579,502 L 1586,514 L 1590,528 L 1592,542 z " style="fill-opacity:1.000000;fill:rgb(90,125,9);stroke:rgb(0,0,0);stroke-width:2"/></g>
<g fill-rule="evenodd"><path d="M 3022,5485 L 3020,5499 L 3016,5513 L 3009,5525 L 2999,5535 L 2988,5543 L 2975,5549 L 2962,5552 L 2948,5552 L 2934,5549 L 2921,5543 L 2910,5535 L 2901,5525 L 2894,5513 L 2889,5499 L 2888,5485 L 2889,5472 L 2894,5458 L 2901,5446 L 2910,5436 L 2921,5428 L 2934,5422 L 2948,5419 L 2962,5419 L 2975,5422 L 2988,5428 L 2999,5436 L 3009,5446 L 3016,5458 L 3020,5472 L 3022,5485 z " style="fill-opacity:1.000000;fill:rgb(56,37,31);stroke:rgb(0,0,0);stroke-width:2"/></g>
<g fill-rule="evenodd"><path d="M 3683,5580 L 3682,5594 L 3677,5607 L 3670,5619 L 3661,5630 L 3650,5638 L 3637,5644 L 3623,5646 L 3609,5646 L 3595,5644 L 3583,5638 L 3571,5630 L 3562,5619 L 3555,5607 L 3551,5594 L 3549,5580 L 3551,5566 L 3555,5553 L 3562,5541 L 3571,5530 L 3583,5522 L 3595,5516 L 3609,5513 L 3623,5513 L 3637,5516 L 3650,5522 L 3661,5530 L 3670,5541 L 3677,5553 L 3682,5566 L 3683,5580 z " style="fill-opacity:1.000000;fill:rgb(93,212,203);stroke:rgb(0,0,0);stroke-width:2"/></g>
<g fill-rule="evenodd"><path d="M 3683,446 L 3682,460 L 3677,474 L 3670,486 L 3661,496 L 3650,504 L 3637,510 L 3623,513 L 3609,513 L 3595,510 L 3583,504 L 3571,496 L 3562,486 L 3555,474 L 3551,460 L 3549,446 L 3551,433 L 3555,419 L 3562,407 L 3571,397 L 3583,389 L 3595,383 L 3609,380 L 3623,380 L 3637,383 L 3650,389 L 3661,397 L 3670,407 L 3677,419 L 3682,433 L 3683,446 z " style="fill-opacity:1.000000;fill:rgb(252,150,245);stroke:rgb(0,0,0);stroke-width:2"/></g>
<g fill-rule="evenodd"><path d="M 3022,541 L 3020,555 L 3016,568 L 3009,580 L 2999,591 L 2988,599 L 2975,605 L 2962,608 L 2948,608 L 2934,605 L 2921,599 L 2910,591 L 2901,580 L 2894,568 L 2889,555 L 2888,541 L 2889,527 L 2894,514 L 2901,502 L 2910,491 L 2921,483 L 2934,477 L 2948,474 L 2962,474 L 2975,477 L 2988,483 L 2999,491 L 3009,502 L 3016,514 L 3020,527 L 3022,541 z " style="fill-opacity:1.000000;fill:rgb(69,59,19);stroke:rgb(0,0,0);stroke-width:2"/></g>
<g fill-rule="evenodd"><path d="M 4451,5481 L 4450,5495 L 4446,5509 L 4439,5521 L 4429,5531 L 4418,5539 L 4405,5545 L 4392,5548 L 4378,5548 L 4364,5545 L 4351,5539 L 4340,5531 L 4330,5521 L 4323,5509 L 4319,5495 L 4318,5481 L 4319,5468 L 4323,5454 L 4330,5442 L 4340,5432 L 4351,5424 L 4364,5418 L 4378,5415 L 4392,5415 L 4405,5418 L 4418,5424 L 4429,5432 L 4439,5442 L 4446,5454 L 4450,5468 L 4451,5481 z " style="fill-opacity:1.000000;fill:rgb(13,137,10);stroke:rgb(0,0,0);stroke-width:2"/></g>
<g fill-rule="evenodd"><path d="M 5113,5576 L 5111,5590 L 5107,5603 L 5100,5615 L 5091,5626 L 5079,5634 L 5067,5640 L 5053,5642 L 5039,5642 L 5025,5640 L 5012,5634 L 5001,5626 L 4992,5615 L 4985,5603 L 4980,5590 L 4979,5576 L 4980,5562 L 4985,5549 L 4992,5537 L 5001,5526 L 5012,5518 L 5025,5512 L 5039,5509 L 5053,5509 L 5067,5512 L 5079,5518 L 5091,5526 L 5100,5537 L 5107,5549 L 5111,5562 L 5113,5576 z " style="fill-opacity:1.000000;fill:rgb(28,219,174);stroke:rgb(0,0,0);stroke-width:2"/></g>
<g fill-rule="evenodd"><path d="M 5113,442 L 5111,456 L 5107,470 L 5100,482 L 5091,492 L 5079,500 L 5067,506 L 5053,509 L 5039,509 L 5025,506 L 5012,500 L 5001,492 L 4992,482 L 4985,470 L 4980,456 L 4979,442 L 4980,429 L 4985,415 L 4992,403 L 5001,393 L 5012,385 L 5025,379 L 5039,376 L 5053,376 L 5067,379 L 5079,385 L 5091,393 L 5100,403 L 5107,415 L 5111,429 L 5113,442 z " style="fill-opacity:1.000000;fill:rgb(50,32,154);stroke:rgb(0,0,0);stroke-width:2"/></g>
<g fill-rule="evenodd"><path d="M 4451,537 L 4450,551 L 4446,564 L 4439,576 L 4429,587 L 4418,595 L 4405,601 L 4392,604 L 4378,604 L 4364,601 L 4351,595 L 4340,587 L 4330,576 L 4323,564 L 4319,551 L 4318,537 L 4319,523 L 4323,510 L 4330,498 L 4340,487 L 4351,479 L 4364,473 L 4378,470 L 4392,470 L 4405,473 L 4418,479 L 4429,487 L 4439,498 L 4446,510 L 4450,523 L 4451,537 z " style="fill-opacity:1.000000;fill:rgb(80,238,64);stroke:rgb(0,0,0);stroke-width:2"/></g>
<g fill-rule="evenodd"><path d="M 1293,934 L 1290,965 L 1280,995 L 1265,1022 L 1244,1045 L 1219,1063 L 1190,1076 L 1159,1082 L 1128,1082 L 1098,1076 L 1069,1063 L 1044,1045 L 1023,1022 L 1007,995 L 997,965 L 994,934 L 997,903 L 1007,873 L 1023,846 L 1044,823 L 1069,804 L 1098,791 L 1128,785 L 1159,785 L 1190,791 L 1219,804 L 1244,823 L 1265,846 L 1280,873 L 1290,903 L 1293,934 z " style="fill-opacity:1.000000;fill:rgb(120,54,253);stroke:rgb(0,0,0);stroke-width:2"/></g>
<g fill-rule="evenodd"><path d="M 4173,914 L 4170,945 L 4160,975 L 4145,1002 L 4124,1025 L 4098,1043 L 4070,1056 L 4039,1062 L 4008,1062 L 3977,1056 L 3949,1043 L 3923,1025 L 3902,1002 L 3887,975 L 3877,945 L 3874,914 L 3877,883 L 3887,853 L 3902,826 L 3923,803 L 3949,784 L 3977,771 L 4008,765 L 4039,765 L 4070,771 L 4098,784 L 4124,803 L 4145,826 L 4160,853 L 4170,883 L 4173,914 z " style="fill-opacity:1.000000;fill:rgb(18,73,50);stroke:rgb(0,0,0);stroke-width:2"/></g>
<g fill-rule="evenodd"><path d="M 4173,5293 L 4170,5324 L 4160,5354 L 4145,5381 L 4124,5405 L 4098,5423 L 4070,5436 L 4039,5442 L 4008,5442 L 3977,5436 L 3949,5423 L 3923,5405 L 3902,5381 L 3887,5354 L 3877,5324 L 3874,5293 L 3877,5262 L 3887,5232 L 3902,5205 L 3923,5182 L 3949,5164 L 3977,5151 L 4008,5145 L 4039,5145 L 4070,5151 L 4098,5164 L 4124,5182 L 4145,5205 L 4160,5232 L 4170,5262 L 4173,5293 z " style="fill-opacity:1.000000;fill:rgb(246,158,125);stroke:rgb(0,0,0);stroke-width:2"/></g>
<g fill-rule="evenodd"><path d="M 1253,5287 L 1250,5318 L 1240,5347 L 1225,5375 L 1204,5398 L 1179,5416 L 1150,5429 L 1119,5435 L 1088,5435 L 1058,5429 L 1029,5416 L 1004,5398 L 983,5375 L 967,5347 L 957,5318 L 954,5287 L 957,5256 L 967,5226 L 983,5199 L 1004,5175 L 1029,5157 L 1058,5144 L 1088,5138 L 1119,5138 L 1150,5144 L 1179,5157 L 1204,5175 L 1225,5199 L 1240,5226 L 1250,5256 L 1253,5287 z " style="fill-opacity:1.000000;fill:rgb(73,220,173);stroke:rgb(0,0,0);stroke-width:2"/></g>
<g fill-rule="evenodd"><path d="M 4607,0 L 5208,0 L 5211,0 L 5215,3 L 5217,6 L 5217,8 L 5218,6477 L 5217,6481 L 5216,6483 L 5215,6484 L 5211,6487 L 5208,6487 L 9,6487 L 6,6487 L 4,6486 L 2,6484 L 0,6481 L 0,6477 L 0,5565 L 1,5562 L 4,5559 L 8,5557 L 11,5557 L 13,5558 L 17,5560 L 34,5577 L 73,5594 L 116,5594 L 155,5577 L 185,5547 L 201,5508 L 201,5466 L 185,5426 L 155,5396 L 116,5380 L 73,5380 L 34,5396 L 17,5413 L 15,5415 L 11,5416 L 8,5416 L 4,5415 L 1,5412 L 0,5408 L 0,5406 L 0,623 L 0,619 L 2,616 L 4,614 L 8,613 L 11,613 L 13,613 L 17,616 L 34,633 L 73,649 L 116,649 L 155,633 L 185,603 L 201,564 L 201,521 L 185,482 L 155,452 L 116,435 L 73,435 L 34,452 L 17,469 L 13,471 L 9,472 L 6,471 L 2,469 L 0,466 L 0,462 L 0,10 L 0,6 L 1,4 L 2,3 L 6,0 L 9,0 L 1729,0 L 1732,0 L 1735,0 L 3147,0 L 3149,0 L 3151,1 L 3153,2 L 3154,3 L 3155,5 L 3157,8 L 3158,4 L 3161,1 L 3162,0 L 3166,0 L 4544,0 L 4547,0 L 4549,1 L 4552,4 L 4553,8 L 4554,10 L 4553,13 L 4552,15 L 4549,18 L 4528,27 L 4526,36 L 4552,62 L 4559,59 L 4571,56 L 4584,56 L 4596,59 L 4603,62 L 4629,36 L 4627,27 L 4604,19 L 4601,17 L 4599,16 L 4598,12 L 4597,10 L 4598,6 L 4599,4 L 4602,1 L 4604,0 L 4607,0M 649,5602 L 665,5642 L 695,5672 L 734,5688 L 777,5688 L 816,5672 L 846,5642 L 863,5603 L 863,5560 L 846,5521 L 816,5491 L 777,5474 L 735,5474 L 695,5490 L 665,5521 L 649,5560 L 649,5602M 286,6027 L 333,6017 L 371,5992 L 397,5953 L 406,5908 L 397,5863 L 371,5824 L 333,5798 L 286,5789 L 229,5789 L 182,5798 L 143,5824 L 117,5864 L 108,5909 L 117,5954 L 143,5993 L 181,6018 L 227,6027 L 232,6027 L 286,6027M 943,5394 L 996,5447 L 1066,5476 L 1141,5476 L 1211,5447 L 1264,5394 L 1293,5325 L 1293,5249 L 1265,5179 L 1211,5126 L 1142,5097 L 1066,5097 L 996,5126 L 943,5179 L 914,5249 L 914,5324 L 943,5394M 1615,5547 L 1632,5507 L 1632,5465 L 1615,5426 L 1585,5395 L 1546,5379 L 1504,5379 L 1464,5395 L 1434,5425 L 1418,5465 L 1418,5507 L 1434,5547 L 1464,5577 L 1503,5593 L 1546,5593 L 1585,5577 L 1615,5547M 2165,5687 L 2207,5687 L 2247,5671 L 2277,5641 L 2293,5602 L 2293,5559 L 2277,5520 L 2247,5490 L 2208,5474 L 2165,5474 L 2126,5490 L 2096,5520 L 2079,5559 L 2079,5602 L 2095,5641 L 2126,5671 L 2165,5687M 1304,1041 L 1333,972 L 1333,896 L 1305,826 L 1251,773 L 1182,744 L 1106,744 L 1036,773 L 983,826 L 954,896 L 954,971 L 983,1041 L 1036,1094 L 1106,1123 L 1181,1123 L 1251,1095 L 1304,1041M 649,469 L 665,508 L 695,538 L 734,555 L 777,555 L 816,538 L 846,508 L 863,469 L 863,427 L 846,387 L 816,357 L 777,341 L 735,341 L 695,357 L 665,387 L 649,426 L 649,469M 1615,602 L 1632,563 L 1632,520 L 1615,481 L 1585,451 L 1546,435 L 1504,435 L 1464,451 L 1434,481 L 1418,520 L 1418,563 L 1434,602 L 1464,632 L 1503,648 L 1546,649 L 1585,632 L 1615,602M 2277,508 L 2293,468 L 2293,426 L 2277,387 L 2247,357 L 2208,340 L 2165,340 L 2126,356 L 2096,386 L 2079,426 L 2079,468 L 2095,508 L 2126,538 L 2165,554 L 2207,554 L 2247,538 L 2277,508M 3863,5401 L 3916,5454 L 3986,5483 L 4061,5483 L 4131,5454 L 4184,5401 L 4213,5331 L 4213,5256 L 4184,5186 L 4131,5133 L 4061,5104 L 3986,5104 L 3916,5133 L 3863,5186 L 3834,5255 L 3834,5331 L 3863,5401M 2933,5592 L 2976,5592 L 3015,5576 L 3045,5546 L 3062,5507 L 3062,5464 L 3045,5425 L 3015,5395 L 2976,5379 L 2934,5379 L 2894,5395 L 2864,5425 L 2848,5464 L 2848,5507 L 2864,5546 L 2894,5576 L 2933,5592M 3595,5687 L 3637,5687 L 3677,5671 L 3707,5641 L 3723,5601 L 3723,5559 L 3707,5519 L 3677,5489 L 3637,5473 L 3595,5473 L 3556,5489 L 3525,5519 L 3509,5559 L 3509,5601 L 3525,5640 L 3555,5671 L 3595,5687M 4363,5588 L 4406,5588 L 4445,5572 L 4475,5542 L 4491,5503 L 4492,5460 L 4475,5421 L 4445,5391 L 4406,5375 L 4363,5375 L 4324,5391 L 4294,5421 L 4278,5460 L 4278,5503 L 4294,5542 L 4324,5572 L 4363,5588M 5025,5683 L 5067,5683 L 5106,5667 L 5137,5637 L 5153,5597 L 5153,5555 L 5137,5515 L 5107,5485 L 5067,5469 L 5025,5469 L 4985,5485 L 4955,5515 L 4939,5555 L 4939,5597 L 4955,5636 L 4985,5667 L 5025,5683M 3863,1021 L 3916,1074 L 3986,1103 L 4061,1103 L 4131,1075 L 4184,1021 L 4213,952 L 4213,876 L 4184,806 L 4131,753 L 4061,724 L 3986,724 L 3916,753 L 3863,806 L 3834,876 L 3834,951 L 3863,1021M 2933,648 L 2976,648 L 3015,632 L 3045,602 L 3062,562 L 3062,520 L 3045,480 L 3015,450 L 2976,434 L 2934,434 L 2894,450 L 2864,480 L 2848,520 L 2848,562 L 2864,601 L 2894,632 L 2933,648M 3555,537 L 3595,553 L 3637,553 L 3677,537 L 3707,507 L 3723,468 L 3723,425 L 3707,386 L 3677,356 L 3637,340 L 3595,340 L 3556,356 L 3525,386 L 3509,425 L 3509,468 L 3525,507 L 3555,537M 4363,644 L 4406,644 L 4445,628 L 4475,598 L 4491,558 L 4492,516 L 4475,476 L 4445,446 L 4406,430 L 4363,430 L 4324,446 L 4294,476 L 4278,516 L 4278,558 L 4294,597 L 4324,628 L 4363,644M 5153,421 L 5137,382 L 5107,352 L 5067,336 L 5025,336 L 4985,352 L 4955,382 L 4939,421 L 4939,464 L 4955,503 L 4985,533 L 5025,549 L 5067,549 L 5106,533 L 5137,503 L 5153,464 L 5153,421M 313,175 L 306,178 L 294,181 L 281,181 L 269,178 L 262,175 L 236,201 L 238,210 L 272,222 L 312,220 L 337,210 L 339,201 L 313,175M 313,67 L 339,41 L 337,32 L 302,20 L 262,22 L 238,32 L 236,41 L 262,67 L 269,64 L 281,61 L 294,61 L 306,64 L 313,67M 341,147 L 367,173 L 376,170 L 388,136 L 386,96 L 376,72 L 367,69 L 341,95 L 342,97 L 346,109 L 347,121 L 346,133 L 342,145 L 341,147M 233,95 L 207,69 L 199,72 L 186,106 L 188,146 L 198,170 L 207,173 L 233,147 L 232,145 L 229,133 L 227,121 L 229,109 L 232,97 L 233,95M 1772,95 L 1772,96 L 1776,108 L 1778,120 L 1776,133 L 1772,145 L 1772,146 L 1798,172 L 1806,170 L 1819,135 L 1817,95 L 1807,71 L 1798,69 L 1772,95M 1664,146 L 1663,145 L 1659,133 L 1658,120 L 1659,108 L 1663,96 L 1664,95 L 1638,69 L 1629,71 L 1617,105 L 1619,145 L 1629,170 L 1638,172 L 1664,146M 1743,174 L 1736,177 L 1724,180 L 1711,180 L 1699,177 L 1692,174 L 1666,200 L 1668,209 L 1703,221 L 1743,219 L 1767,209 L 1769,200 L 1743,174M 1743,66 L 1769,40 L 1767,32 L 1732,19 L 1729,20 L 1693,21 L 1668,31 L 1666,40 L 1692,66 L 1699,63 L 1711,61 L 1724,61 L 1736,63 L 1743,66M 3094,94 L 3067,68 L 3059,70 L 3047,105 L 3049,145 L 3059,169 L 3067,172 L 3094,146 L 3093,144 L 3089,132 L 3088,120 L 3089,107 L 3093,95 L 3094,94M 3122,174 L 3096,200 L 3098,208 L 3133,221 L 3173,219 L 3197,209 L 3199,200 L 3173,174 L 3166,177 L 3154,179 L 3141,179 L 3129,177 L 3122,174M 3122,66 L 3129,63 L 3141,60 L 3154,60 L 3166,63 L 3173,66 L 3199,40 L 3197,31 L 3161,18 L 3158,16 L 3157,14 L 3157,11 L 3156,14 L 3154,16 L 3153,18 L 3151,19 L 3149,19 L 3122,21 L 3098,31 L 3096,40 L 3122,66M 3202,146 L 3228,172 L 3236,169 L 3248,135 L 3246,95 L 3236,70 L 3228,68 L 3202,94 L 3202,95 L 3206,107 L 3208,120 L 3206,132 L 3202,144 L 3202,146M 4552,170 L 4526,196 L 4528,204 L 4563,217 L 4603,215 L 4627,205 L 4629,196 L 4603,170 L 4596,173 L 4584,175 L 4571,175 L 4559,173 L 4552,170M 4523,142 L 4523,140 L 4519,128 L 4517,116 L 4519,103 L 4523,91 L 4523,90 L 4497,64 L 4489,66 L 4477,101 L 4479,141 L 4489,165 L 4497,168 L 4523,142M 4631,142 L 4658,168 L 4666,165 L 4678,131 L 4676,91 L 4666,66 L 4658,64 L 4631,90 L 4632,91 L 4636,103 L 4637,116 L 4636,128 L 4632,140 L 4631,142M 2564,6180 L 2554,6188 L 2543,6194 L 2531,6197 L 2519,6197 L 2507,6196 L 2495,6191 L 2485,6184 L 2478,6178 L 2453,6178 L 2453,6186 L 2394,6186 L 2394,6164 L 2390,6158 L 2361,6158 L 2354,6165 L 2354,6194 L 2361,6210 L 2362,6214 L 2361,6218 L 2357,6225 L 2353,6242 L 2353,6253 L 2352,6255 L 2350,6258 L 2344,6288 L 2350,6318 L 2352,6322 L 2353,6323 L 2353,6334 L 2356,6350 L 2365,6364 L 2378,6373 L 2395,6376 L 2423,6376 L 2426,6377 L 2428,6378 L 2431,6381 L 2456,6419 L 2495,6444 L 2540,6453 L 2585,6444 L 2604,6432 L 2649,6423 L 2687,6397 L 2701,6376 L 2705,6374 L 2709,6374 L 2712,6374 L 2716,6376 L 2743,6404 L 2782,6420 L 2825,6420 L 2864,6404 L 2894,6374 L 2895,6372 L 2897,6370 L 2900,6368 L 2902,6368 L 2904,6367 L 2907,6368 L 2911,6370 L 2912,6372 L 2913,6374 L 2943,6404 L 2982,6420 L 3025,6420 L 3064,6404 L 3094,6374 L 3095,6372 L 3096,6370 L 3100,6368 L 3104,6367 L 3107,6368 L 3111,6370 L 3112,6372 L 3113,6374 L 3143,6404 L 3182,6420 L 3225,6420 L 3264,6404 L 3292,6376 L 3295,6374 L 3299,6374 L 3302,6374 L 3306,6376 L 3320,6397 L 3358,6423 L 3405,6432 L 3470,6432 L 3517,6423 L 3555,6397 L 3558,6394 L 3562,6393 L 3564,6393 L 4441,6393 L 4473,6386 L 4499,6369 L 4805,6063 L 4808,6062 L 4812,6062 L 4858,6053 L 4897,6027 L 4936,5987 L 4963,5948 L 4972,5903 L 4963,5857 L 4937,5819 L 4898,5793 L 4853,5784 L 4808,5793 L 4768,5819 L 4729,5859 L 4710,5887 L 4708,5889 L 4705,5890 L 4701,5890 L 4697,5889 L 4694,5886 L 4693,5884 L 4687,5853 L 4661,5814 L 4621,5774 L 4582,5748 L 4537,5739 L 4491,5748 L 4453,5774 L 4427,5812 L 4418,5858 L 4427,5903 L 4453,5942 L 4485,5974 L 4494,5987 L 4532,6012 L 4577,6021 L 4601,6017 L 4605,6017 L 4609,6018 L 4611,6021 L 4613,6024 L 4613,6028 L 4611,6032 L 4610,6033 L 4413,6231 L 4409,6233 L 4405,6234 L 3564,6234 L 3560,6233 L 3556,6231 L 3555,6229 L 3517,6204 L 3489,6198 L 3486,6196 L 3484,6193 L 3483,6189 L 3484,6185 L 3486,6182 L 3494,6174 L 3510,6135 L 3510,6092 L 3494,6053 L 3464,6023 L 3457,6020 L 3453,6017 L 3452,6016 L 3451,6012 L 3451,6008 L 3451,6006 L 3453,6003 L 3457,6001 L 3480,5992 L 3508,5963 L 3523,5927 L 3523,5887 L 3508,5850 L 3480,5822 L 3443,5807 L 3403,5807 L 3401,5807 L 3399,5808 L 3339,5808 L 3300,5815 L 3268,5837 L 3264,5844 L 3261,5847 L 3257,5848 L 3253,5848 L 3250,5847 L 3247,5844 L 3246,5842 L 3239,5808 L 3218,5776 L 3186,5755 L 3148,5747 L 3110,5755 L 3078,5776 L 3056,5808 L 3049,5847 L 3049,5882 L 3048,5884 L 3048,5887 L 3047,5899 L 3046,5902 L 3045,5904 L 3041,5906 L 3038,5907 L 3004,5900 L 3000,5900 L 2996,5899 L 2889,5792 L 2863,5774 L 2831,5768 L 2054,5768 L 2023,5774 L 2003,5788 L 1999,5789 L 1997,5789 L 1992,5789 L 1950,5789 L 1904,5798 L 1865,5824 L 1851,5838 L 1838,5857 L 1835,5859 L 1831,5860 L 1827,5859 L 1826,5858 L 1823,5855 L 1802,5823 L 1763,5798 L 1717,5789 L 1661,5789 L 1657,5788 L 1612,5797 L 1574,5823 L 1548,5861 L 1539,5907 L 1548,5952 L 1570,5985 L 1571,5988 L 1571,5992 L 1570,5996 L 1567,5999 L 1565,6000 L 1562,6000 L 770,6000 L 768,6000 L 765,5997 L 735,5968 L 733,5964 L 732,5962 L 732,5959 L 733,5957 L 734,5954 L 743,5909 L 734,5864 L 708,5824 L 669,5798 L 622,5789 L 564,5789 L 518,5798 L 479,5824 L 453,5863 L 444,5908 L 453,5953 L 479,5992 L 518,6017 L 564,6027 L 567,6027 L 571,6028 L 678,6135 L 704,6153 L 736,6159 L 2043,6159 L 2074,6153 L 2100,6135 L 2186,6050 L 2187,6049 L 2191,6047 L 2358,6047 L 2361,6048 L 2365,6050 L 2367,6053 L 2367,6055 L 2367,6059 L 2366,6063 L 2360,6069 L 2354,6083 L 2354,6112 L 2361,6118 L 2390,6118 L 2394,6112 L 2394,6091 L 2453,6091 L 2453,6099 L 2478,6099 L 2480,6097 L 2505,6072 L 2514,6064 L 2524,6059 L 2536,6055 L 2537,6055 L 2537,6046 L 2671,6046 L 2671,6180 L 2564,6180 z " style="fill-opacity:1.000000;fill:rgb(79,20,242);stroke:rgb(0,0,0);stroke-width:2"/></g>
<g fill-rule="evenodd"><path d="M 3207,5898 L 3208,5907 L 3206,5919 L 3202,5931 L 3196,5942 L 3188,5951 L 3178,5959 L 3166,5964 L 3154,5966 L 3141,5966 L 3129,5964 L 3118,5959 L 3107,5951 L 3099,5942 L 3093,5931 L 3089,5919 L 3088,5907 L 3089,5898 L 3089,5846 L 3090,5835 L 3093,5824 L 3098,5813 L 3106,5804 L 3116,5796 L 3127,5791 L 3139,5788 L 3151,5787 L 3163,5789 L 3175,5793 L 3185,5800 L 3194,5809 L 3200,5819 L 3205,5831 L 3207,5843 L 3207,5898 z " style="fill-opacity:1.000000;fill:rgb(68,64,102);stroke:rgb(0,0,0);stroke-width:2"/></g>
<g fill-rule="evenodd"><path d="M 2717,6007 L 2172,6007 L 2071,6108 L 2065,6112 L 2059,6116 L 2051,6118 L 2044,6119 L 735,6119 L 727,6118 L 720,6116 L 713,6112 L 707,6108 L 586,5987 L 563,5987 L 546,5985 L 531,5980 L 517,5972 L 504,5961 L 495,5947 L 488,5932 L 485,5916 L 485,5900 L 488,5884 L 495,5869 L 504,5855 L 517,5844 L 531,5836 L 546,5831 L 563,5829 L 623,5829 L 639,5831 L 654,5835 L 667,5842 L 679,5852 L 690,5866 L 698,5881 L 702,5897 L 703,5913 L 700,5929 L 695,5945 L 686,5958 L 677,5967 L 751,6040 L 2027,6040 L 2128,5940 L 2134,5935 L 2141,5931 L 2148,5929 L 2156,5928 L 2753,5928 L 2760,5929 L 2768,5931 L 2774,5935 L 2780,5940 L 2792,5952 L 2805,5952 L 2820,5956 L 2835,5964 L 2848,5974 L 2859,5986 L 2869,5998 L 2876,6011 L 2881,6026 L 2882,6041 L 2882,6113 L 2881,6130 L 2876,6145 L 2867,6160 L 2856,6172 L 2843,6181 L 2828,6188 L 2812,6192 L 2795,6192 L 2779,6188 L 2764,6181 L 2751,6172 L 2740,6160 L 2732,6145 L 2727,6130 L 2725,6113 L 2725,6070 L 2719,6058 L 2714,6042 L 2714,6026 L 2716,6010 L 2717,6007 z " style="fill-opacity:1.000000;fill:rgb(208,107,196);stroke:rgb(0,0,0);stroke-width:2"/></g>
<g fill-rule="evenodd"><path d="M 2462,6327 L 2453,6327 L 2453,6335 L 2394,6335 L 2394,6314 L 2390,6308 L 2386,6300 L 2384,6292 L 2384,6284 L 2386,6276 L 2390,6268 L 2394,6262 L 2394,6241 L 2453,6241 L 2453,6249 L 2517,6249 L 2518,6248 L 2531,6241 L 2546,6236 L 2562,6235 L 2604,6235 L 2620,6236 L 2636,6241 L 2650,6250 L 2662,6261 L 2672,6274 L 2678,6289 L 2682,6305 L 2682,6321 L 2678,6338 L 2672,6353 L 2662,6366 L 2650,6377 L 2636,6385 L 2620,6390 L 2604,6392 L 2594,6392 L 2583,6401 L 2568,6408 L 2552,6413 L 2536,6413 L 2520,6411 L 2504,6405 L 2490,6396 L 2479,6384 L 2470,6371 L 2464,6355 L 2461,6339 L 2462,6327 z " style="fill-opacity:1.000000;fill:rgb(48,183,50);stroke:rgb(0,0,0);stroke-width:2"/></g>
<g fill-rule="evenodd"><path d="M 2013,5831 L 2025,5819 L 2031,5815 L 2038,5811 L 2046,5809 L 2053,5808 L 2832,5808 L 2840,5809 L 2848,5811 L 2854,5814 L 2860,5819 L 2983,5943 L 2995,5940 L 3012,5940 L 3028,5944 L 3043,5950 L 3056,5960 L 3067,5972 L 3076,5987 L 3081,6002 L 3082,6019 L 3082,6113 L 3081,6130 L 3076,6145 L 3067,6160 L 3056,6172 L 3043,6181 L 3028,6188 L 3012,6192 L 2995,6192 L 2979,6188 L 2964,6181 L 2951,6172 L 2940,6160 L 2932,6145 L 2927,6130 L 2925,6113 L 2925,6019 L 2927,6002 L 2928,5999 L 2816,5887 L 2070,5887 L 2069,5887 L 2072,5899 L 2072,5916 L 2068,5932 L 2061,5947 L 2052,5960 L 2040,5971 L 2025,5979 L 2010,5984 L 1993,5986 L 1980,5986 L 1977,5988 L 1963,5996 L 1947,6000 L 1930,6001 L 1914,5998 L 1899,5992 L 1885,5983 L 1873,5972 L 1864,5958 L 1858,5943 L 1856,5926 L 1857,5910 L 1861,5894 L 1869,5879 L 1879,5867 L 1894,5852 L 1906,5842 L 1919,5835 L 1934,5830 L 1950,5829 L 1993,5829 L 2010,5830 L 2013,5831 z " style="fill-opacity:1.000000;fill:rgb(59,161,34);stroke:rgb(0,0,0);stroke-width:2"/></g>
<g fill-rule="evenodd"><path d="M 3540,6274 L 4426,6274 L 4736,5964 L 4734,5948 L 4734,5931 L 4739,5915 L 4746,5901 L 4757,5888 L 4797,5847 L 4810,5837 L 4825,5829 L 4841,5825 L 4857,5824 L 4873,5827 L 4889,5833 L 4903,5841 L 4914,5853 L 4923,5867 L 4929,5882 L 4932,5899 L 4931,5915 L 4927,5931 L 4919,5946 L 4909,5958 L 4868,5999 L 4855,6009 L 4840,6017 L 4825,6021 L 4808,6022 L 4792,6020 L 4470,6341 L 4464,6346 L 4458,6350 L 4450,6352 L 4442,6353 L 3540,6353 L 3530,6366 L 3518,6377 L 3503,6385 L 3488,6390 L 3471,6392 L 3404,6392 L 3387,6390 L 3372,6385 L 3357,6377 L 3345,6366 L 3335,6353 L 3329,6338 L 3325,6321 L 3325,6305 L 3329,6289 L 3335,6274 L 3345,6261 L 3357,6250 L 3372,6241 L 3387,6236 L 3404,6235 L 3471,6235 L 3488,6236 L 3503,6241 L 3518,6250 L 3530,6261 L 3540,6274 z " style="fill-opacity:1.000000;fill:rgb(246,34,145);stroke:rgb(0,0,0);stroke-width:2"/></g>
<g fill-rule="evenodd"><path d="M 3231,6011 L 3231,5974 L 3232,5967 L 3234,5959 L 3238,5953 L 3243,5947 L 3280,5910 L 3280,5901 L 3282,5888 L 3287,5877 L 3294,5867 L 3304,5859 L 3314,5853 L 3326,5849 L 3338,5848 L 3414,5848 L 3417,5847 L 3429,5847 L 3442,5850 L 3453,5855 L 3463,5862 L 3472,5871 L 3478,5882 L 3482,5894 L 3483,5907 L 3482,5919 L 3478,5931 L 3472,5942 L 3463,5951 L 3453,5959 L 3442,5964 L 3429,5966 L 3417,5966 L 3414,5966 L 3338,5966 L 3335,5965 L 3310,5991 L 3310,6046 L 3309,6054 L 3307,6061 L 3303,6068 L 3298,6074 L 3282,6090 L 3282,6113 L 3281,6130 L 3275,6145 L 3267,6160 L 3256,6172 L 3243,6181 L 3228,6188 L 3212,6192 L 3195,6192 L 3179,6188 L 3164,6181 L 3151,6172 L 3140,6160 L 3132,6145 L 3127,6130 L 3125,6113 L 3125,6085 L 3127,6068 L 3132,6053 L 3140,6039 L 3151,6026 L 3164,6017 L 3179,6010 L 3195,6006 L 3212,6006 L 3228,6010 L 3231,6011 z " style="fill-opacity:1.000000;fill:rgb(157,225,139);stroke:rgb(0,0,0);stroke-width:2"/></g>
</svg>
