<?xml version="1.0" standalone="no"?>
<!DOCTYPE svg PUBLIC "-//W3C//DTD SVG 1.1//EN"
"http://www.w3.org/Graphics/SVG/1.1/DTD/svg11.dtd">
<svg width="5322" height="6592" viewBox="0 0 5322 6592" version="1.1"
xmlns="http://www.w3.org/2000/svg"
xmlns:xlink="http://www.w3.org/1999/xlink">
<g fill-rule="evenodd"><path d="M 5321,6 L 5321,6586 L 5321,6588 L 5320,6589 L 5319,6591 L 5318,6591 L 5316,6592 L 5,6592 L 2,6591 L 1,6589 L 0,6587 L 0,6586 L 0,5 L 0,4 L 1,2 L 2,0 L 5,0 L 7,0 L 5316,0 L 5318,0 L 5319,1 L 5320,2 L 5321,3 L 5321,6M 11,6580 L 5310,6580 L 5310,12 L 11,12 L 11,6580 z " style="fill-opacity:1.000000;fill:rgb(41,35,190);stroke:rgb(0,0,0);stroke-width:2"/></g>
</svg>
