M48
;DRILL file {KiCad 4.0.4-stable} date 03/03/17 02:06:57
;FORMAT={-:-/ absolute / metric / decimal}
FMAT,2
METRIC,TZ
T1C0.800
T2C0.991
T3C1.000
T4C1.499
T5C2.200
T6C1.702
T7C3.988
%
G90
G05
M71
T1
X6.01Y33.31
X15.234Y6.843
X24.78Y8.72
X25.61Y45.26
X29.839Y28.433
X43.81Y8.79
X44.87Y45.31
X48.86Y28.43
X62.76Y8.75
X65.52Y30.88
X72.65Y31.62
X84.987Y30.9
X91.62Y32.14
X97.61Y10.09
X98.06Y14.57
X99.51Y7.84
X100.88Y5.59
X105.234Y19.188
X107.87Y4.76
X111.033Y32.54
X123.91Y13.328
X123.984Y11.428
X123.99Y8.52
X124.06Y5.27
X129.75Y31.71
X130.49Y7.23
X132.57Y23.2
X136.45Y24.39
X138.35Y2.38
X141.36Y2.25
X144.35Y2.27
X149.174Y31.608
X153.52Y15.5
X153.59Y12.75
X153.6Y8.44
X153.67Y2.27
X153.71Y4.96
T2
X10.154Y41.768
X10.154Y39.228
X10.154Y16.368
X10.154Y13.828
X29.204Y41.768
X29.204Y39.228
X29.204Y16.368
X29.204Y13.828
X48.254Y41.768
X48.254Y39.228
X48.254Y16.368
X48.254Y13.828
X67.304Y41.768
X67.304Y39.228
X67.304Y16.368
X67.304Y13.828
X86.354Y41.768
X86.354Y39.228
X105.404Y41.768
X105.404Y39.228
X124.454Y41.768
X124.454Y39.228
X143.504Y41.768
X143.504Y39.228
T3
X2.534Y29.068
X2.534Y26.528
X2.534Y23.988
X2.534Y21.448
X2.534Y18.908
X5.074Y29.068
X5.074Y26.528
X5.074Y23.988
X5.074Y21.448
X5.074Y18.908
T4
X17.774Y44.308
X17.774Y18.908
X20.314Y37.958
X20.314Y12.558
X36.824Y44.308
X36.824Y18.908
X39.364Y37.958
X39.364Y12.558
X55.874Y44.308
X55.874Y18.908
X58.414Y37.958
X58.414Y12.558
X74.924Y44.308
X74.924Y18.908
X77.464Y37.958
X77.464Y12.558
X93.974Y44.308
X96.514Y37.958
X113.024Y44.308
X115.564Y37.958
X132.074Y44.308
X134.614Y37.958
X151.124Y44.308
X153.664Y37.958
T5
X2.788Y47.102
X2.788Y3.16
X92.324Y17.628
X152.57Y26.6
T6
X15.234Y45.578
X15.234Y35.418
X15.234Y20.178
X15.234Y10.018
X34.284Y45.578
X34.284Y35.418
X34.284Y20.178
X34.284Y10.018
X53.334Y45.578
X53.334Y35.418
X53.334Y20.178
X53.334Y10.018
X72.384Y45.578
X72.384Y35.418
X72.384Y20.178
X72.384Y10.018
X91.434Y45.578
X91.434Y35.418
X110.484Y45.578
X110.484Y35.418
X129.534Y45.578
X129.534Y35.418
X148.584Y45.578
X148.584Y35.418
T7
X15.234Y40.498
X15.234Y15.098
X34.284Y40.498
X34.284Y15.098
X53.334Y40.498
X53.334Y15.098
X72.384Y40.498
X72.384Y15.098
X91.434Y40.498
X110.484Y40.498
X129.534Y40.498
X148.584Y40.498
T0
M30
