M48
;DRILL file {KiCad 4.0.4-stable} date 03/02/17 17:25:32
;FORMAT={-:-/ absolute / metric / decimal}
FMAT,2
METRIC,TZ
T1C1.702
T2C3.988
%
G90
G05
M71
T1
X15.234Y45.578
X15.234Y35.418
X15.234Y20.178
X15.234Y10.018
X34.284Y45.578
X34.284Y35.418
X34.284Y20.178
X34.284Y10.018
X53.334Y45.578
X53.334Y35.418
X53.334Y20.178
X53.334Y10.018
X72.384Y45.578
X72.384Y35.418
X72.384Y20.178
X72.384Y10.018
X91.434Y45.578
X91.434Y35.418
X110.484Y45.578
X110.484Y35.418
X129.534Y45.578
X129.534Y35.418
X148.584Y45.578
X148.584Y35.418
T2
X15.234Y40.498
X15.234Y15.098
X34.284Y40.498
X34.284Y15.098
X53.334Y40.498
X53.334Y15.098
X72.384Y40.498
X72.384Y15.098
X91.434Y40.498
X110.484Y40.498
X129.534Y40.498
X148.584Y40.498
T0
M30
