<?xml version="1.0" standalone="no"?>
<!DOCTYPE svg PUBLIC "-//W3C//DTD SVG 1.1//EN"
"http://www.w3.org/Graphics/SVG/1.1/DTD/svg11.dtd">
<svg width="12757.2" height="4159.31" viewBox="0 0 12757.2 4159.31" version="1.1"
xmlns="http://www.w3.org/2000/svg"
xmlns:xlink="http://www.w3.org/1999/xlink">
<circle cx="1328" cy="3492" r="31" style=""/>
<circle cx="2080" cy="3344" r="31" style=""/>
<circle cx="3578" cy="3338" r="31" style=""/>
<circle cx="5070" cy="3341" r="31" style=""/>
<circle cx="5287" cy="1599" r="31" style=""/>
<circle cx="5849" cy="1541" r="31" style=""/>
<circle cx="6820" cy="1597" r="31" style=""/>
<circle cx="7342" cy="1500" r="31" style=""/>
<circle cx="7849" cy="2883" r="31" style=""/>
<circle cx="7814" cy="3236" r="31" style=""/>
<circle cx="7964" cy="3413" r="31" style=""/>
<circle cx="8071" cy="3590" r="31" style=""/>
<circle cx="8622" cy="3656" r="31" style=""/>
<circle cx="8414" cy="2520" r="31" style=""/>
<circle cx="8871" cy="1468" r="31" style=""/>
<circle cx="10344" cy="1534" r="31" style=""/>
<circle cx="10567" cy="2204" r="31" style=""/>
<circle cx="10872" cy="2110" r="31" style=""/>
<circle cx="11874" cy="1542" r="31" style=""/>
<circle cx="12216" cy="2810" r="31" style=""/>
<circle cx="12221" cy="3027" r="31" style=""/>
<circle cx="12222" cy="3366" r="31" style=""/>
<circle cx="12231" cy="3640" r="31" style=""/>
<circle cx="12228" cy="3852" r="31" style=""/>
<circle cx="11494" cy="3852" r="31" style=""/>
<circle cx="11259" cy="3853" r="31" style=""/>
<circle cx="11022" cy="3843" r="31" style=""/>
<circle cx="10403" cy="3461" r="31" style=""/>
<circle cx="9896" cy="3615" r="31" style=""/>
<circle cx="9891" cy="3360" r="31" style=""/>
<circle cx="9890" cy="3131" r="31" style=""/>
<circle cx="9885" cy="2981" r="31" style=""/>
<circle cx="3976" cy="1792" r="31" style=""/>
<circle cx="3662" cy="463" r="31" style=""/>
<circle cx="2145" cy="467" r="31" style=""/>
<circle cx="2478" cy="1792" r="31" style=""/>
<circle cx="602" cy="1408" r="31" style=""/>
<circle cx="928" cy="2942" r="38" style=""/>
<circle cx="928" cy="2742" r="38" style=""/>
<circle cx="2428" cy="2742" r="38" style=""/>
<circle cx="2428" cy="2942" r="38" style=""/>
<circle cx="3928" cy="2942" r="38" style=""/>
<circle cx="3928" cy="2742" r="38" style=""/>
<circle cx="5428" cy="2742" r="38" style=""/>
<circle cx="5428" cy="2942" r="38" style=""/>
<circle cx="5428" cy="942" r="38" style=""/>
<circle cx="5428" cy="742" r="38" style=""/>
<circle cx="6928" cy="742" r="38" style=""/>
<circle cx="6928" cy="942" r="38" style=""/>
<circle cx="8428" cy="942" r="38" style=""/>
<circle cx="8428" cy="742" r="38" style=""/>
<circle cx="9927" cy="742" r="38" style=""/>
<circle cx="9927" cy="942" r="38" style=""/>
<circle cx="11427" cy="942" r="38" style=""/>
<circle cx="11427" cy="742" r="38" style=""/>
<circle cx="3928" cy="742" r="38" style=""/>
<circle cx="3928" cy="942" r="38" style=""/>
<circle cx="2428" cy="942" r="38" style=""/>
<circle cx="2428" cy="742" r="38" style=""/>
<circle cx="928" cy="742" r="38" style=""/>
<circle cx="928" cy="942" r="38" style=""/>
<circle cx="328" cy="2542" r="38" style=""/>
<circle cx="528" cy="2542" r="38" style=""/>
<circle cx="528" cy="2342" r="38" style=""/>
<circle cx="528" cy="2142" r="38" style=""/>
<circle cx="528" cy="1942" r="38" style=""/>
<circle cx="528" cy="1742" r="38" style=""/>
<circle cx="328" cy="1742" r="38" style=""/>
<circle cx="328" cy="1942" r="38" style=""/>
<circle cx="328" cy="2142" r="38" style=""/>
<circle cx="328" cy="2342" r="38" style=""/>
<circle cx="1728" cy="3042" r="58" style=""/>
<circle cx="1528" cy="2542" r="58" style=""/>
<circle cx="3028" cy="2542" r="58" style=""/>
<circle cx="3228" cy="3042" r="58" style=""/>
<circle cx="4528" cy="2542" r="58" style=""/>
<circle cx="4728" cy="3042" r="58" style=""/>
<circle cx="6028" cy="2542" r="58" style=""/>
<circle cx="6228" cy="3042" r="58" style=""/>
<circle cx="6228" cy="1042" r="58" style=""/>
<circle cx="6028" cy="542" r="58" style=""/>
<circle cx="4728" cy="1042" r="58" style=""/>
<circle cx="4528" cy="542" r="58" style=""/>
<circle cx="3228" cy="1042" r="58" style=""/>
<circle cx="3028" cy="542" r="58" style=""/>
<circle cx="1728" cy="1042" r="58" style=""/>
<circle cx="1528" cy="542" r="58" style=""/>
<circle cx="7528" cy="542" r="58" style=""/>
<circle cx="7728" cy="1042" r="58" style=""/>
<circle cx="9028" cy="542" r="58" style=""/>
<circle cx="9228" cy="1042" r="58" style=""/>
<circle cx="10527" cy="542" r="58" style=""/>
<circle cx="10727" cy="1042" r="58" style=""/>
<circle cx="12027" cy="542" r="58" style=""/>
<circle cx="12227" cy="1042" r="58" style=""/>
<circle cx="348" cy="3782" r="85" style=""/>
<circle cx="348" cy="322" r="85" style=""/>
<circle cx="7398" cy="2642" r="85" style=""/>
<circle cx="12141" cy="1936" r="85" style=""/>
<circle cx="1328" cy="3242" r="65" style=""/>
<circle cx="1328" cy="2442" r="65" style=""/>
<circle cx="1328" cy="1242" r="65" style=""/>
<circle cx="1328" cy="442" r="65" style=""/>
<circle cx="2828" cy="442" r="65" style=""/>
<circle cx="2828" cy="1242" r="65" style=""/>
<circle cx="2828" cy="2442" r="65" style=""/>
<circle cx="2828" cy="3242" r="65" style=""/>
<circle cx="4328" cy="3242" r="65" style=""/>
<circle cx="4328" cy="2442" r="65" style=""/>
<circle cx="4328" cy="1242" r="65" style=""/>
<circle cx="4328" cy="442" r="65" style=""/>
<circle cx="5828" cy="442" r="65" style=""/>
<circle cx="5828" cy="1242" r="65" style=""/>
<circle cx="5828" cy="2442" r="65" style=""/>
<circle cx="5828" cy="3242" r="65" style=""/>
<circle cx="7328" cy="1242" r="65" style=""/>
<circle cx="7328" cy="442" r="65" style=""/>
<circle cx="8828" cy="442" r="65" style=""/>
<circle cx="8828" cy="1242" r="65" style=""/>
<circle cx="10327" cy="1242" r="65" style=""/>
<circle cx="10327" cy="442" r="65" style=""/>
<circle cx="11827" cy="442" r="65" style=""/>
<circle cx="11827" cy="1242" r="65" style=""/>
<circle cx="1328" cy="2842" r="154" style=""/>
<circle cx="2828" cy="2842" r="154" style=""/>
<circle cx="4328" cy="2842" r="154" style=""/>
<circle cx="5828" cy="2842" r="154" style=""/>
<circle cx="5828" cy="842" r="154" style=""/>
<circle cx="7328" cy="842" r="154" style=""/>
<circle cx="8828" cy="842" r="154" style=""/>
<circle cx="10327" cy="842" r="154" style=""/>
<circle cx="11827" cy="842" r="154" style=""/>
<circle cx="4328" cy="842" r="154" style=""/>
<circle cx="2828" cy="842" r="154" style=""/>
<circle cx="1328" cy="842" r="154" style=""/>
</svg>
