<?xml version="1.0" standalone="no"?>
<!DOCTYPE svg PUBLIC "-//W3C//DTD SVG 1.1//EN"
"http://www.w3.org/Graphics/SVG/1.1/DTD/svg11.dtd">
<svg width="12408" height="3811" viewBox="0 0 12408 3811" version="1.1"
xmlns="http://www.w3.org/2000/svg"
xmlns:xlink="http://www.w3.org/1999/xlink">
<g fill-rule="evenodd"><path d="M 155,2089 L 355,2089 L 371,2091 L 387,2096 L 401,2104 L 413,2115 L 423,2128 L 430,2143 L 433,2160 L 433,2176 L 430,2192 L 423,2207 L 413,2220 L 401,2231 L 387,2240 L 371,2245 L 355,2247 L 155,2247 L 138,2245 L 123,2240 L 109,2231 L 96,2220 L 87,2207 L 80,2192 L 77,2176 L 77,2160 L 80,2143 L 87,2128 L 96,2115 L 109,2104 L 123,2096 L 138,2091 L 155,2089 z " style="fill-opacity:1.000000;fill:rgb(41,35,190);stroke:rgb(0,0,0);stroke-width:2"/></g>
<g fill-rule="evenodd"><path d="M 155,2289 L 355,2289 L 371,2291 L 387,2296 L 401,2304 L 413,2315 L 423,2328 L 430,2343 L 433,2360 L 433,2376 L 430,2392 L 423,2407 L 413,2420 L 401,2431 L 387,2440 L 371,2445 L 355,2446 L 155,2446 L 138,2445 L 123,2440 L 109,2431 L 96,2420 L 87,2407 L 80,2392 L 77,2376 L 77,2360 L 80,2343 L 87,2328 L 96,2315 L 109,2304 L 123,2296 L 138,2291 L 155,2289 z " style="fill-opacity:1.000000;fill:rgb(132,225,108);stroke:rgb(0,0,0);stroke-width:2"/></g>
<g fill-rule="evenodd"><path d="M 161,547 L 101,547 L 99,546 L 97,546 L 95,544 L 93,543 L 91,541 L 90,538 L 90,536 L 90,534 L 90,531 L 91,529 L 93,527 L 95,525 L 97,524 L 99,523 L 101,523 L 161,523 L 166,520 L 168,515 L 168,504 L 166,499 L 161,496 L 101,496 L 99,496 L 97,495 L 95,494 L 93,492 L 91,490 L 90,488 L 90,485 L 90,483 L 90,481 L 91,478 L 93,476 L 95,475 L 97,473 L 99,473 L 101,472 L 163,472 L 167,473 L 180,479 L 183,481 L 185,484 L 191,496 L 191,497 L 192,501 L 192,520 L 191,523 L 185,535 L 191,546 L 191,548 L 192,552 L 192,570 L 191,574 L 189,577 L 190,579 L 191,582 L 192,584 L 192,587 L 191,589 L 190,591 L 189,593 L 187,595 L 185,596 L 183,597 L 180,597 L 101,597 L 99,597 L 97,596 L 95,595 L 93,593 L 91,591 L 90,589 L 90,587 L 90,584 L 90,582 L 91,579 L 93,577 L 95,576 L 97,575 L 99,574 L 101,574 L 164,574 L 165,573 L 168,566 L 168,554 L 166,549 L 161,547 z " style="fill-opacity:1.000000;fill:rgb(214,174,82);stroke:rgb(0,0,0);stroke-width:2"/></g>
<g fill-rule="evenodd"><path d="M 121,815 L 168,815 L 168,799 L 169,797 L 169,794 L 171,792 L 172,790 L 174,789 L 177,788 L 174,787 L 172,785 L 171,783 L 169,781 L 169,779 L 168,777 L 168,771 L 116,771 L 113,770 L 100,764 L 99,762 L 97,759 L 91,748 L 90,745 L 90,732 L 90,729 L 91,727 L 92,725 L 94,723 L 96,721 L 98,720 L 100,720 L 103,720 L 105,720 L 107,721 L 109,723 L 111,725 L 112,727 L 113,729 L 113,732 L 113,740 L 116,745 L 121,748 L 168,748 L 168,732 L 169,729 L 169,727 L 171,725 L 172,723 L 174,721 L 177,720 L 179,720 L 181,720 L 184,720 L 186,721 L 188,723 L 190,725 L 191,727 L 192,729 L 192,732 L 192,748 L 220,748 L 222,748 L 224,749 L 226,750 L 228,752 L 230,754 L 231,756 L 231,758 L 231,761 L 231,763 L 230,766 L 228,768 L 226,769 L 224,770 L 222,771 L 220,771 L 192,771 L 192,777 L 192,779 L 191,781 L 190,783 L 188,785 L 186,787 L 184,788 L 186,789 L 188,790 L 190,792 L 191,794 L 192,797 L 192,799 L 192,815 L 220,815 L 222,816 L 224,816 L 226,818 L 228,819 L 230,821 L 231,824 L 231,826 L 231,828 L 231,831 L 230,833 L 228,835 L 226,837 L 224,838 L 222,839 L 220,839 L 192,839 L 192,846 L 191,849 L 190,851 L 188,853 L 186,854 L 184,855 L 181,856 L 179,856 L 177,855 L 174,854 L 172,853 L 171,851 L 169,849 L 169,846 L 168,839 L 118,839 L 115,838 L 102,832 L 99,830 L 97,827 L 91,816 L 90,814 L 90,810 L 90,799 L 90,797 L 91,794 L 92,792 L 94,790 L 96,789 L 98,788 L 100,787 L 103,787 L 105,788 L 107,789 L 109,790 L 111,792 L 112,794 L 113,797 L 113,799 L 113,808 L 116,813 L 121,815 z " style="fill-opacity:1.000000;fill:rgb(144,73,241);stroke:rgb(0,0,0);stroke-width:2"/></g>
<g fill-rule="evenodd"><path d="M 90,917 L 90,898 L 91,895 L 97,882 L 106,874 L 119,867 L 122,866 L 158,866 L 161,867 L 163,867 L 176,874 L 183,881 L 185,884 L 191,895 L 192,898 L 192,919 L 191,922 L 184,935 L 176,944 L 163,950 L 159,951 L 124,951 L 120,951 L 119,950 L 106,944 L 99,937 L 97,934 L 91,922 L 90,920 L 90,917M 155,928 L 162,924 L 165,921 L 168,914 L 168,903 L 165,896 L 162,893 L 155,890 L 127,890 L 120,893 L 117,896 L 113,903 L 113,914 L 117,921 L 120,924 L 127,928 L 155,928 z " style="fill-opacity:1.000000;fill:rgb(241,187,233);stroke:rgb(0,0,0);stroke-width:2"/></g>
<g fill-rule="evenodd"><path d="M 91,680 L 90,678 L 90,676 L 90,657 L 91,653 L 97,642 L 99,639 L 106,632 L 120,625 L 124,624 L 158,624 L 161,625 L 163,625 L 176,632 L 183,639 L 185,642 L 191,655 L 192,658 L 192,677 L 191,681 L 185,692 L 183,695 L 176,702 L 161,709 L 158,710 L 124,710 L 120,709 L 107,703 L 104,701 L 97,693 L 91,680M 155,686 L 162,682 L 165,680 L 168,673 L 168,661 L 165,654 L 162,651 L 155,648 L 127,648 L 120,651 L 117,654 L 113,661 L 113,673 L 117,680 L 120,682 L 127,686 L 155,686 z " style="fill-opacity:1.000000;fill:rgb(235,179,166);stroke:rgb(0,0,0);stroke-width:2"/></g>
<g fill-rule="evenodd"><path d="M 166,988 L 169,985 L 182,979 L 186,978 L 199,979 L 202,980 L 215,986 L 223,995 L 230,1007 L 231,1009 L 231,1013 L 231,1052 L 231,1054 L 230,1057 L 229,1059 L 228,1060 L 226,1062 L 224,1063 L 222,1064 L 220,1064 L 101,1064 L 99,1064 L 97,1063 L 95,1062 L 93,1060 L 92,1059 L 91,1057 L 90,1054 L 90,1052 L 90,1005 L 91,1002 L 97,989 L 104,982 L 107,980 L 119,974 L 122,973 L 143,973 L 146,974 L 159,981 L 166,988M 113,1040 L 151,1040 L 151,1015 L 147,1002 L 145,1000 L 138,996 L 127,996 L 120,1000 L 117,1003 L 113,1010 L 113,1040M 208,1040 L 208,1016 L 204,1008 L 201,1006 L 194,1002 L 189,1002 L 182,1006 L 179,1008 L 175,1016 L 175,1040 L 208,1040 z " style="fill-opacity:1.000000;fill:rgb(219,60,135);stroke:rgb(0,0,0);stroke-width:2"/></g>
<g fill-rule="evenodd"><path d="M 1,1130 L 2,1126 L 4,1123 L 5,1122 L 7,1121 L 11,1120 L 289,1120 L 289,416 L 11,416 L 7,415 L 4,413 L 2,412 L 2,410 L 1,406 L 1,264 L 2,263 L 4,259 L 7,257 L 9,257 L 13,257 L 16,258 L 67,309 L 137,338 L 212,338 L 282,309 L 335,256 L 364,186 L 364,111 L 336,41 L 312,17 L 309,14 L 309,12 L 309,8 L 310,4 L 313,2 L 317,0 L 12398,0 L 12400,1 L 12403,3 L 12405,6 L 12406,10 L 12406,3801 L 12406,3803 L 12405,3805 L 12404,3806 L 12402,3809 L 12399,3810 L 12396,3810 L 228,3810 L 226,3810 L 223,3808 L 221,3804 L 220,3802 L 220,3799 L 221,3797 L 223,3793 L 226,3791 L 282,3768 L 335,3715 L 364,3645 L 364,3570 L 336,3500 L 282,3447 L 213,3418 L 137,3418 L 68,3447 L 16,3498 L 13,3499 L 9,3499 L 7,3499 L 5,3498 L 2,3495 L 1,3491 L 1,1750 L 1,1130M 3080,2998 L 3128,2978 L 3164,2941 L 3184,2894 L 3184,2842 L 3164,2794 L 3128,2758 L 3080,2738 L 3028,2738 L 2981,2757 L 2944,2794 L 2924,2842 L 2924,2893 L 2944,2941 L 2980,2978 L 3028,2998 L 3080,2998M 1425,2893 L 1444,2941 L 1481,2978 L 1529,2998 L 1580,2998 L 1628,2978 L 1665,2941 L 1684,2894 L 1685,2842 L 1665,2794 L 1628,2758 L 1581,2738 L 1529,2738 L 1481,2757 L 1444,2794 L 1425,2842 L 1425,2893M 2615,2865 L 2693,2865 L 2766,2835 L 2821,2779 L 2851,2707 L 2851,2629 L 2821,2556 L 2766,2501 L 2694,2471 L 2615,2471 L 2543,2501 L 2487,2556 L 2457,2628 L 2457,2707 L 2487,2779 L 2543,2835 L 2615,2865M 1064,3128 L 1094,3158 L 1133,3175 L 1176,3175 L 1215,3158 L 1245,3128 L 1262,3089 L 1262,3046 L 1245,3007 L 1215,2977 L 1176,2961 L 1133,2961 L 1094,2977 L 1064,3007 L 1048,3046 L 1048,3089 L 1064,3128M 2564,3128 L 2594,3158 L 2633,3175 L 2675,3175 L 2715,3158 L 2745,3128 L 2761,3089 L 2761,3046 L 2745,3007 L 2715,2977 L 2676,2961 L 2633,2961 L 2594,2977 L 2564,3007 L 2547,3046 L 2547,3089 L 2564,3128M 4684,2894 L 4684,2842 L 4664,2794 L 4628,2758 L 4580,2738 L 4528,2738 L 4480,2757 L 4444,2794 L 4424,2842 L 4424,2893 L 4444,2941 L 4480,2978 L 4528,2998 L 4580,2998 L 4627,2978 L 4664,2941 L 4684,2894M 4115,2865 L 4193,2865 L 4265,2835 L 4321,2779 L 4351,2707 L 4351,2629 L 4321,2556 L 4266,2501 L 4193,2471 L 4115,2471 L 4043,2501 L 3987,2556 L 3957,2628 L 3957,2707 L 3987,2779 L 4042,2835 L 4115,2865M 5614,2865 L 5693,2865 L 5765,2835 L 5820,2779 L 5851,2707 L 5851,2629 L 5821,2556 L 5765,2501 L 5693,2471 L 5615,2471 L 5542,2501 L 5487,2556 L 5457,2628 L 5457,2707 L 5487,2779 L 5542,2835 L 5614,2865M 6183,2894 L 6184,2842 L 6164,2794 L 6127,2758 L 6079,2738 L 6028,2738 L 5980,2757 L 5943,2794 L 5924,2842 L 5924,2893 L 5943,2941 L 5980,2978 L 6028,2998 L 6079,2998 L 6127,2978 L 6164,2941 L 6183,2894M 4063,3128 L 4093,3158 L 4133,3175 L 4175,3175 L 4214,3158 L 4245,3128 L 4261,3089 L 4261,3046 L 4245,3007 L 4215,2977 L 4175,2961 L 4133,2961 L 4093,2977 L 4063,3007 L 4047,3046 L 4047,3089 L 4063,3128M 5563,3128 L 5593,3158 L 5632,3175 L 5675,3175 L 5714,3158 L 5744,3128 L 5761,3089 L 5761,3046 L 5744,3007 L 5714,2977 L 5675,2961 L 5632,2961 L 5593,2977 L 5563,3007 L 5547,3046 L 5547,3089 L 5563,3128M 5980,978 L 6028,998 L 6079,998 L 6127,978 L 6164,942 L 6183,894 L 6184,842 L 6164,795 L 6127,758 L 6079,738 L 6028,738 L 5980,758 L 5943,794 L 5924,842 L 5924,894 L 5943,942 L 5980,978M 5780,478 L 5828,498 L 5879,498 L 5927,478 L 5964,442 L 5984,394 L 5984,342 L 5964,295 L 5927,258 L 5880,238 L 5828,238 L 5780,258 L 5776,262 L 5774,262 L 5771,263 L 5767,262 L 5764,260 L 5761,257 L 5761,253 L 5761,247 L 5744,208 L 5714,178 L 5675,161 L 5632,161 L 5593,177 L 5563,208 L 5547,247 L 5547,289 L 5563,329 L 5593,359 L 5632,375 L 5675,375 L 5710,361 L 5712,360 L 5716,360 L 5719,362 L 5722,364 L 5723,368 L 5724,394 L 5743,442 L 5753,451 L 5760,462 L 5770,469 L 5780,478M 11859,1923 L 11928,1952 L 12004,1952 L 12073,1923 L 12127,1870 L 12156,1800 L 12156,1725 L 12127,1655 L 12074,1602 L 12004,1573 L 11929,1573 L 11859,1601 L 11805,1655 L 11777,1724 L 11776,1800 L 11805,1869 L 11859,1923M 7413,2431 L 7384,2361 L 7331,2308 L 7261,2279 L 7186,2279 L 7116,2308 L 7063,2361 L 7034,2431 L 7034,2506 L 7063,2576 L 7116,2629 L 7185,2658 L 7261,2658 L 7331,2629 L 7384,2576 L 7413,2506 L 7413,2431M 7479,978 L 7527,998 L 7579,998 L 7627,978 L 7663,942 L 7683,894 L 7683,842 L 7663,795 L 7627,758 L 7579,738 L 7527,738 L 7480,758 L 7443,794 L 7423,842 L 7423,894 L 7443,942 L 7479,978M 8979,978 L 9027,998 L 9079,998 L 9126,978 L 9163,942 L 9183,894 L 9183,842 L 9163,795 L 9127,758 L 9079,738 L 9027,738 L 8979,758 L 8943,794 L 8923,842 L 8923,894 L 8943,942 L 8979,978M 7265,501 L 7193,471 L 7114,471 L 7042,501 L 6986,556 L 6956,629 L 6956,707 L 6986,780 L 7042,835 L 7114,865 L 7192,865 L 7265,835 L 7320,780 L 7350,707 L 7350,629 L 7320,557 L 7265,501M 7280,478 L 7327,498 L 7379,498 L 7427,478 L 7463,442 L 7483,394 L 7483,342 L 7463,295 L 7427,258 L 7379,238 L 7328,238 L 7280,258 L 7276,262 L 7274,262 L 7270,263 L 7266,262 L 7263,260 L 7261,257 L 7260,253 L 7260,247 L 7244,208 L 7214,178 L 7175,161 L 7132,161 L 7093,177 L 7063,208 L 7046,247 L 7046,289 L 7063,329 L 7093,359 L 7132,375 L 7174,375 L 7209,361 L 7211,360 L 7215,360 L 7219,362 L 7222,364 L 7223,368 L 7223,394 L 7243,442 L 7252,451 L 7259,462 L 7270,469 L 7280,478M 8765,501 L 8692,471 L 8614,471 L 8542,501 L 8486,556 L 8456,629 L 8456,707 L 8486,780 L 8541,835 L 8614,865 L 8692,865 L 8764,835 L 8820,780 L 8850,707 L 8850,629 L 8820,557 L 8765,501M 8779,478 L 8827,498 L 8879,498 L 8926,478 L 8963,442 L 8983,394 L 8983,342 L 8963,295 L 8927,258 L 8879,238 L 8827,238 L 8779,258 L 8775,262 L 8774,262 L 8770,263 L 8766,262 L 8763,260 L 8761,257 L 8760,253 L 8760,247 L 8744,208 L 8714,178 L 8674,161 L 8632,161 L 8592,177 L 8562,208 L 8546,247 L 8546,289 L 8562,329 L 8592,359 L 8632,375 L 8674,375 L 8709,361 L 8711,360 L 8715,360 L 8718,362 L 8721,364 L 8723,368 L 8723,394 L 8743,442 L 8752,451 L 8759,462 L 8770,469 L 8779,478M 10479,978 L 10527,998 L 10578,998 L 10626,978 L 10663,942 L 10682,894 L 10683,842 L 10663,795 L 10626,758 L 10578,738 L 10527,738 L 10479,758 L 10442,794 L 10423,842 L 10423,894 L 10442,942 L 10479,978M 11978,978 L 12026,998 L 12078,998 L 12126,978 L 12162,942 L 12182,894 L 12182,842 L 12162,795 L 12126,758 L 12078,738 L 12026,738 L 11979,758 L 11942,794 L 11922,842 L 11922,894 L 11942,942 L 11978,978M 10264,501 L 10192,471 L 10114,471 L 10041,501 L 9986,556 L 9956,629 L 9956,707 L 9986,780 L 10041,835 L 10113,865 L 10192,865 L 10264,835 L 10319,780 L 10350,707 L 10350,629 L 10320,557 L 10264,501M 10279,478 L 10327,498 L 10378,498 L 10426,478 L 10463,442 L 10483,394 L 10483,342 L 10463,295 L 10426,258 L 10379,238 L 10327,238 L 10279,258 L 10275,262 L 10273,262 L 10270,263 L 10266,262 L 10263,260 L 10260,257 L 10260,253 L 10260,247 L 10243,208 L 10213,178 L 10174,161 L 10131,161 L 10092,177 L 10062,208 L 10046,247 L 10046,289 L 10062,329 L 10092,359 L 10131,375 L 10174,375 L 10209,361 L 10211,360 L 10215,360 L 10218,362 L 10221,364 L 10222,368 L 10223,394 L 10242,442 L 10251,451 L 10259,462 L 10269,469 L 10279,478M 11764,501 L 11692,471 L 11613,471 L 11541,501 L 11485,556 L 11455,629 L 11455,707 L 11485,780 L 11541,835 L 11613,865 L 11691,865 L 11764,835 L 11819,780 L 11849,707 L 11849,629 L 11819,557 L 11764,501M 11779,478 L 11826,498 L 11878,498 L 11926,478 L 11962,442 L 11982,394 L 11982,342 L 11962,295 L 11926,258 L 11878,238 L 11826,238 L 11779,258 L 11775,262 L 11773,262 L 11769,263 L 11765,262 L 11762,260 L 11760,257 L 11759,253 L 11759,247 L 11743,208 L 11713,178 L 11674,161 L 11631,161 L 11592,177 L 11562,208 L 11545,247 L 11545,289 L 11562,329 L 11592,359 L 11631,375 L 11673,375 L 11708,361 L 11710,360 L 11714,360 L 11718,362 L 11721,364 L 11722,368 L 11722,394 L 11742,442 L 11751,451 L 11758,462 L 11769,469 L 11779,478M 2234,2843 L 2179,2843 L 2179,2788 L 2146,2788 L 2139,2794 L 2139,2851 L 2146,2865 L 2157,2877 L 2171,2883 L 2228,2883 L 2234,2876 L 2234,2843M 2274,2843 L 2274,2876 L 2281,2883 L 2337,2883 L 2352,2877 L 2363,2865 L 2369,2851 L 2369,2794 L 2363,2788 L 2329,2788 L 2329,2843 L 2274,2843M 2329,2748 L 2363,2748 L 2369,2741 L 2369,2685 L 2363,2670 L 2352,2659 L 2347,2657 L 2344,2655 L 2342,2651 L 2341,2648 L 2342,2644 L 2343,2642 L 2352,2633 L 2369,2591 L 2369,2545 L 2352,2503 L 2320,2470 L 2277,2453 L 2232,2453 L 2189,2470 L 2157,2502 L 2139,2545 L 2139,2590 L 2157,2633 L 2166,2642 L 2167,2646 L 2168,2648 L 2167,2651 L 2165,2655 L 2161,2657 L 2157,2659 L 2146,2670 L 2139,2685 L 2139,2741 L 2146,2748 L 2179,2748 L 2179,2693 L 2329,2693 L 2329,2748M 3734,2843 L 3679,2843 L 3679,2788 L 3646,2788 L 3639,2794 L 3639,2851 L 3645,2865 L 3656,2877 L 3671,2883 L 3727,2883 L 3734,2876 L 3734,2843M 3774,2843 L 3774,2876 L 3781,2883 L 3837,2883 L 3852,2877 L 3863,2865 L 3869,2851 L 3869,2794 L 3862,2788 L 3829,2788 L 3829,2843 L 3774,2843M 5234,2843 L 5179,2843 L 5179,2788 L 5145,2788 L 5139,2794 L 5139,2851 L 5145,2865 L 5156,2877 L 5171,2883 L 5227,2883 L 5234,2876 L 5234,2843M 5274,2843 L 5274,2876 L 5280,2883 L 5337,2883 L 5351,2877 L 5363,2865 L 5369,2851 L 5369,2794 L 5362,2788 L 5329,2788 L 5329,2843 L 5274,2843M 3679,2748 L 3679,2693 L 3829,2693 L 3829,2748 L 3862,2748 L 3869,2741 L 3869,2685 L 3863,2670 L 3852,2659 L 3847,2657 L 3844,2655 L 3842,2651 L 3841,2648 L 3842,2644 L 3843,2642 L 3851,2633 L 3869,2591 L 3869,2545 L 3852,2503 L 3819,2470 L 3777,2453 L 3731,2453 L 3689,2470 L 3657,2502 L 3639,2545 L 3639,2590 L 3657,2633 L 3666,2642 L 3667,2646 L 3667,2648 L 3666,2651 L 3664,2655 L 3661,2657 L 3656,2659 L 3645,2670 L 3639,2685 L 3639,2741 L 3646,2748 L 3679,2748M 5179,2748 L 5179,2693 L 5329,2693 L 5329,2748 L 5362,2748 L 5369,2741 L 5369,2685 L 5363,2670 L 5351,2659 L 5347,2657 L 5343,2655 L 5341,2651 L 5341,2648 L 5341,2644 L 5342,2642 L 5351,2633 L 5369,2591 L 5369,2545 L 5351,2503 L 5319,2470 L 5277,2453 L 5231,2453 L 5189,2470 L 5156,2502 L 5139,2545 L 5139,2590 L 5156,2633 L 5165,2642 L 5167,2646 L 5167,2648 L 5166,2651 L 5164,2655 L 5161,2657 L 5156,2659 L 5145,2670 L 5139,2685 L 5139,2741 L 5145,2748 L 5179,2748M 6678,748 L 6678,693 L 6828,693 L 6828,748 L 6862,748 L 6868,741 L 6868,685 L 6862,670 L 6851,659 L 6846,657 L 6843,655 L 6841,652 L 6840,648 L 6841,644 L 6842,643 L 6851,633 L 6868,591 L 6868,545 L 6851,503 L 6819,471 L 6776,453 L 6731,453 L 6688,471 L 6656,503 L 6638,545 L 6638,591 L 6656,633 L 6665,643 L 6666,646 L 6667,648 L 6666,652 L 6664,655 L 6660,657 L 6656,659 L 6644,670 L 6638,685 L 6638,741 L 6645,748 L 6678,748M 6733,843 L 6678,843 L 6678,788 L 6645,788 L 6638,795 L 6638,851 L 6644,866 L 6656,877 L 6670,883 L 6727,883 L 6733,876 L 6733,843M 6773,843 L 6773,876 L 6780,883 L 6836,883 L 6851,877 L 6862,866 L 6868,851 L 6868,795 L 6862,788 L 6828,788 L 6828,843 L 6773,843M 8178,748 L 8178,693 L 8328,693 L 8328,748 L 8361,748 L 8368,741 L 8368,685 L 8362,670 L 8351,659 L 8346,657 L 8343,655 L 8341,652 L 8340,648 L 8341,644 L 8342,643 L 8350,633 L 8368,591 L 8368,545 L 8351,503 L 8318,471 L 8276,453 L 8230,453 L 8188,471 L 8156,503 L 8138,545 L 8138,591 L 8156,633 L 8165,643 L 8166,646 L 8166,648 L 8165,652 L 8163,655 L 8160,657 L 8155,659 L 8144,670 L 8138,685 L 8138,741 L 8145,748 L 8178,748M 8233,843 L 8178,843 L 8178,788 L 8145,788 L 8138,795 L 8138,851 L 8144,866 L 8155,877 L 8170,883 L 8226,883 L 8233,876 L 8233,843M 8273,843 L 8273,876 L 8280,883 L 8336,883 L 8351,877 L 8362,866 L 8368,851 L 8368,795 L 8361,788 L 8328,788 L 8328,843 L 8273,843M 9678,748 L 9678,693 L 9828,693 L 9828,748 L 9861,748 L 9868,741 L 9868,685 L 9862,670 L 9850,659 L 9846,657 L 9842,655 L 9840,652 L 9840,648 L 9840,644 L 9841,643 L 9850,633 L 9868,591 L 9868,545 L 9850,503 L 9818,471 L 9776,453 L 9730,453 L 9688,471 L 9655,503 L 9638,545 L 9638,591 L 9655,633 L 9664,643 L 9666,646 L 9666,648 L 9665,652 L 9663,655 L 9660,657 L 9655,659 L 9644,670 L 9638,685 L 9638,741 L 9644,748 L 9678,748M 9678,788 L 9644,788 L 9638,795 L 9638,851 L 9644,866 L 9655,877 L 9670,883 L 9726,883 L 9733,876 L 9733,843 L 9678,843 L 9678,788M 9773,843 L 9773,876 L 9779,883 L 9836,883 L 9850,877 L 9862,866 L 9868,851 L 9868,795 L 9861,788 L 9828,788 L 9828,843 L 9773,843M 11177,748 L 11177,693 L 11327,693 L 11327,748 L 11361,748 L 11367,741 L 11367,685 L 11361,670 L 11350,659 L 11345,657 L 11342,655 L 11340,652 L 11339,648 L 11340,644 L 11341,643 L 11350,633 L 11367,591 L 11367,545 L 11350,503 L 11318,471 L 11275,453 L 11230,453 L 11187,471 L 11155,503 L 11137,545 L 11137,591 L 11155,633 L 11164,643 L 11165,646 L 11166,648 L 11165,652 L 11163,655 L 11159,657 L 11155,659 L 11143,670 L 11137,685 L 11137,741 L 11144,748 L 11177,748M 11177,788 L 11144,788 L 11137,795 L 11137,851 L 11143,866 L 11155,877 L 11169,883 L 11226,883 L 11232,876 L 11232,843 L 11177,843 L 11177,788M 11272,843 L 11272,876 L 11279,883 L 11335,883 L 11350,877 L 11361,866 L 11367,851 L 11367,795 L 11361,788 L 11327,788 L 11327,843 L 11272,843M 640,2740 L 680,2740 L 680,2693 L 830,2693 L 830,2843 L 775,2843 L 775,2876 L 781,2883 L 838,2883 L 843,2880 L 847,2880 L 849,2881 L 852,2883 L 854,2885 L 855,2888 L 855,3400 L 861,3430 L 878,3455 L 1152,3729 L 1177,3746 L 1207,3752 L 9746,3752 L 9776,3746 L 9801,3729 L 9983,3547 L 10000,3522 L 10006,3492 L 10006,3401 L 10000,3371 L 9983,3346 L 9864,3227 L 9863,3223 L 9863,3219 L 9869,3186 L 9862,3148 L 9840,3116 L 9808,3094 L 9769,3087 L 9717,3087 L 9678,3094 L 9646,3116 L 9625,3148 L 9617,3186 L 9625,3223 L 9646,3255 L 9678,3277 L 9703,3282 L 9707,3283 L 9749,3325 L 9751,3329 L 9752,3332 L 9752,3334 L 9751,3336 L 9749,3339 L 9746,3342 L 9744,3342 L 9723,3342 L 9684,3350 L 9652,3372 L 9630,3404 L 9625,3433 L 9623,3436 L 9568,3492 L 9565,3494 L 9563,3494 L 8566,3494 L 8561,3493 L 8559,3492 L 8546,3479 L 8545,3476 L 8538,3444 L 8517,3412 L 8485,3390 L 8447,3383 L 8409,3390 L 8376,3412 L 8338,3450 L 8316,3484 L 8313,3486 L 8310,3488 L 8016,3488 L 8015,3487 L 8011,3485 L 7999,3473 L 7997,3470 L 7996,3466 L 7996,3417 L 7988,3378 L 7967,3346 L 7935,3325 L 7897,3317 L 7859,3325 L 7827,3346 L 7806,3378 L 7798,3417 L 7798,3462 L 7797,3466 L 7795,3469 L 7779,3485 L 7776,3487 L 7774,3488 L 6864,3488 L 6861,3487 L 6857,3485 L 6634,3262 L 6608,3244 L 6576,3238 L 5076,3238 L 5074,3237 L 5070,3235 L 5055,3220 L 5053,3216 L 5052,3213 L 5053,3206 L 5044,3161 L 5018,3121 L 4981,3084 L 4941,3058 L 4896,3049 L 4851,3058 L 4812,3084 L 4786,3122 L 4777,3167 L 4779,3174 L 4778,3178 L 4777,3180 L 4722,3235 L 4718,3237 L 4714,3238 L 3587,3238 L 3585,3237 L 3582,3235 L 3540,3193 L 3539,3191 L 3538,3187 L 3539,3181 L 3530,3135 L 3504,3096 L 3489,3081 L 3450,3055 L 3404,3046 L 3359,3055 L 3320,3080 L 3295,3119 L 3286,3164 L 3286,3168 L 3286,3170 L 3285,3174 L 3223,3235 L 3220,3237 L 3218,3238 L 2030,3238 L 2026,3237 L 2023,3235 L 2020,3233 L 2019,3229 L 2019,3225 L 2025,3196 L 2025,3171 L 2016,3124 L 1990,3086 L 1951,3060 L 1906,3051 L 1861,3060 L 1822,3086 L 1797,3124 L 1787,3171 L 1787,3181 L 1786,3185 L 1735,3235 L 1732,3237 L 1728,3238 L 1139,3238 L 1110,3250 L 1087,3273 L 1075,3302 L 1075,3333 L 1087,3362 L 1110,3385 L 1139,3397 L 6540,3397 L 6544,3398 L 6547,3400 L 6732,3584 L 6734,3588 L 6735,3591 L 6735,3593 L 6734,3595 L 6732,3598 L 6729,3601 L 6725,3601 L 1242,3601 L 1238,3601 L 1235,3598 L 1009,3373 L 1007,3370 L 1006,3368 L 1006,2822 L 1007,2818 L 1009,2815 L 1011,2814 L 1014,2812 L 1018,2812 L 1020,2813 L 1023,2815 L 1043,2835 L 1115,2865 L 1194,2865 L 1266,2835 L 1322,2779 L 1352,2707 L 1352,2629 L 1322,2556 L 1266,2501 L 1194,2471 L 1116,2471 L 1043,2501 L 988,2556 L 984,2565 L 982,2568 L 980,2569 L 977,2571 L 973,2571 L 971,2570 L 968,2568 L 915,2515 L 890,2498 L 860,2492 L 846,2492 L 842,2492 L 839,2489 L 820,2470 L 778,2453 L 732,2453 L 690,2470 L 657,2502 L 640,2545 L 640,2590 L 657,2633 L 666,2642 L 668,2646 L 668,2648 L 667,2651 L 665,2655 L 662,2657 L 657,2659 L 646,2670 L 640,2685 L 640,2740M 680,2795 L 640,2795 L 640,2851 L 646,2865 L 657,2877 L 672,2883 L 728,2883 L 735,2876 L 735,2843 L 680,2843 L 680,2795M 394,1700 L 416,1678 L 417,1677 L 421,1676 L 436,1673 L 450,1664 L 459,1651 L 463,1634 L 463,1617 L 464,1613 L 466,1604 L 467,1602 L 470,1599 L 474,1598 L 476,1598 L 479,1598 L 483,1600 L 485,1604 L 486,1608 L 486,1669 L 491,1698 L 507,1722 L 967,2181 L 991,2197 L 1019,2203 L 1053,2203 L 1056,2205 L 1059,2207 L 1061,2211 L 1061,2215 L 1048,2246 L 1048,2289 L 1064,2328 L 1094,2358 L 1133,2375 L 1176,2375 L 1211,2360 L 1213,2360 L 1217,2360 L 1220,2361 L 1223,2364 L 1224,2368 L 1225,2393 L 1244,2441 L 1281,2478 L 1329,2498 L 1380,2498 L 1428,2478 L 1465,2441 L 1485,2394 L 1485,2342 L 1465,2294 L 1428,2258 L 1381,2238 L 1329,2238 L 1281,2258 L 1277,2261 L 1275,2262 L 1274,2263 L 1270,2263 L 1266,2261 L 1263,2258 L 1262,2257 L 1262,2253 L 1262,2247 L 1249,2215 L 1249,2211 L 1250,2207 L 1253,2205 L 1257,2203 L 2552,2203 L 2554,2204 L 2557,2206 L 2560,2209 L 2560,2213 L 2560,2217 L 2547,2246 L 2547,2289 L 2564,2328 L 2594,2358 L 2633,2375 L 2675,2375 L 2710,2360 L 2714,2360 L 2718,2360 L 2721,2362 L 2724,2366 L 2724,2368 L 2724,2393 L 2744,2441 L 2781,2478 L 2828,2498 L 2880,2498 L 2928,2478 L 2964,2441 L 2984,2394 L 2984,2342 L 2965,2294 L 2928,2258 L 2880,2238 L 2829,2238 L 2781,2258 L 2777,2261 L 2775,2262 L 2771,2263 L 2767,2262 L 2764,2260 L 2762,2257 L 2761,2253 L 2761,2247 L 2748,2215 L 2748,2211 L 2750,2207 L 2753,2205 L 2754,2204 L 2758,2203 L 4052,2203 L 4054,2204 L 4057,2206 L 4059,2209 L 4060,2213 L 4059,2217 L 4047,2246 L 4047,2289 L 4063,2328 L 4093,2358 L 4133,2375 L 4175,2375 L 4210,2360 L 4214,2360 L 4218,2360 L 4221,2362 L 4223,2366 L 4224,2368 L 4224,2393 L 4244,2441 L 4253,2451 L 4260,2462 L 4271,2469 L 4280,2478 L 4328,2498 L 4380,2498 L 4427,2478 L 4464,2441 L 4484,2394 L 4484,2342 L 4464,2294 L 4428,2258 L 4380,2238 L 4328,2238 L 4280,2258 L 4276,2261 L 4275,2262 L 4271,2263 L 4267,2262 L 4264,2260 L 4262,2257 L 4261,2253 L 4261,2247 L 4248,2215 L 4248,2211 L 4250,2207 L 4252,2205 L 4254,2204 L 4258,2203 L 5550,2203 L 5554,2204 L 5557,2206 L 5559,2209 L 5560,2213 L 5559,2217 L 5547,2246 L 5547,2289 L 5563,2328 L 5593,2358 L 5632,2375 L 5675,2375 L 5710,2360 L 5714,2360 L 5717,2360 L 5721,2362 L 5723,2366 L 5723,2368 L 5724,2393 L 5743,2441 L 5780,2478 L 5828,2498 L 5879,2498 L 5927,2478 L 5964,2441 L 5984,2394 L 5984,2342 L 5964,2294 L 5927,2258 L 5880,2238 L 5828,2238 L 5780,2258 L 5776,2261 L 5774,2262 L 5771,2263 L 5767,2262 L 5764,2260 L 5761,2257 L 5761,2253 L 5761,2247 L 5748,2215 L 5748,2211 L 5749,2207 L 5752,2205 L 5754,2204 L 5758,2203 L 9277,2203 L 9279,2204 L 9282,2206 L 9768,2691 L 9770,2695 L 9771,2698 L 9770,2702 L 9768,2706 L 9765,2708 L 9761,2708 L 9758,2708 L 9711,2708 L 9672,2716 L 9645,2734 L 9643,2735 L 9639,2736 L 7809,2736 L 7805,2735 L 7803,2734 L 7800,2731 L 7799,2729 L 7793,2698 L 7771,2665 L 7746,2640 L 7713,2618 L 7675,2610 L 7637,2618 L 7605,2639 L 7584,2671 L 7576,2709 L 7584,2747 L 7606,2780 L 7631,2805 L 7664,2827 L 7696,2834 L 7699,2835 L 7721,2857 L 7741,2870 L 7743,2873 L 7744,2877 L 7744,2879 L 7742,2883 L 7739,2886 L 7736,2887 L 7718,2891 L 7694,2907 L 7654,2946 L 7650,2948 L 7618,2954 L 7585,2976 L 7570,2991 L 7548,3024 L 7541,3062 L 7548,3100 L 7570,3132 L 7602,3153 L 7639,3161 L 7677,3153 L 7710,3131 L 7725,3116 L 7747,3083 L 7754,3051 L 7755,3048 L 7772,3031 L 7775,3029 L 7779,3028 L 9645,3028 L 9649,3029 L 9651,3030 L 9678,3048 L 9717,3056 L 9754,3056 L 9793,3048 L 9825,3026 L 9847,2994 L 9854,2957 L 9847,2919 L 9827,2890 L 9826,2886 L 9826,2882 L 9827,2879 L 9850,2845 L 9858,2807 L 9857,2805 L 9858,2801 L 9859,2799 L 9862,2796 L 9865,2795 L 9869,2795 L 9871,2796 L 9874,2798 L 10746,3670 L 10748,3673 L 10749,3675 L 10755,3707 L 10777,3739 L 10809,3760 L 10847,3768 L 10884,3760 L 10916,3739 L 10938,3707 L 10945,3673 L 10946,3672 L 10948,3669 L 10950,3668 L 10954,3667 L 10958,3668 L 10961,3670 L 10962,3672 L 10964,3675 L 10967,3692 L 10989,3725 L 11013,3748 L 11046,3770 L 11084,3778 L 11121,3770 L 11153,3749 L 11175,3717 L 11180,3694 L 11181,3690 L 11184,3687 L 11185,3686 L 11189,3686 L 11193,3686 L 11196,3689 L 11210,3709 L 11248,3747 L 11281,3769 L 11319,3776 L 11357,3769 L 11389,3747 L 11410,3715 L 11418,3678 L 11410,3640 L 11388,3607 L 11350,3569 L 11317,3547 L 11285,3541 L 11283,3540 L 11280,3538 L 10845,3102 L 10843,3099 L 10842,3097 L 10842,3095 L 10843,3092 L 10845,3088 L 10846,3087 L 10848,3086 L 10852,3085 L 11355,3085 L 11359,3086 L 11362,3088 L 11926,3652 L 11928,3655 L 11929,3657 L 11935,3689 L 11957,3722 L 11982,3747 L 12015,3769 L 12053,3776 L 12090,3769 L 12123,3747 L 12144,3715 L 12151,3678 L 12144,3640 L 12122,3607 L 12097,3582 L 12086,3574 L 12084,3571 L 12083,3567 L 12084,3564 L 12085,3562 L 12088,3559 L 12089,3558 L 12094,3557 L 12126,3536 L 12147,3504 L 12155,3466 L 12147,3428 L 12125,3395 L 12087,3357 L 12054,3335 L 12022,3329 L 12019,3327 L 12000,3309 L 11998,3305 L 11997,3302 L 11998,3298 L 12000,3295 L 12003,3292 L 12005,3292 L 12052,3292 L 12090,3284 L 12123,3263 L 12144,3230 L 12151,3193 L 12144,3155 L 12123,3123 L 12090,3101 L 12058,3095 L 12057,3094 L 12053,3092 L 11780,2819 L 11778,2816 L 11777,2812 L 11778,2808 L 11780,2805 L 11783,2803 L 11785,2802 L 11835,2802 L 11839,2803 L 11840,2804 L 11908,2871 L 11909,2875 L 11913,2890 L 11934,2922 L 11966,2944 L 12005,2952 L 12045,2952 L 12084,2944 L 12116,2922 L 12138,2890 L 12145,2853 L 12138,2815 L 12116,2783 L 12084,2761 L 12075,2759 L 12071,2758 L 12068,2755 L 12067,2753 L 12067,2750 L 12067,2746 L 12070,2743 L 12085,2732 L 12110,2707 L 12132,2674 L 12140,2636 L 12132,2598 L 12111,2566 L 12079,2545 L 12041,2537 L 12003,2545 L 11976,2563 L 11974,2564 L 11970,2565 L 11258,2565 L 11254,2564 L 11251,2562 L 10733,2043 L 10731,2040 L 10730,2038 L 10730,2036 L 10731,2032 L 10733,2029 L 10767,2006 L 10788,1974 L 10796,1936 L 10788,1898 L 10766,1866 L 10741,1840 L 10718,1825 L 10715,1822 L 10714,1818 L 10713,1602 L 10714,1598 L 10716,1595 L 11013,1299 L 11014,1298 L 11018,1297 L 11514,1298 L 11516,1298 L 11519,1300 L 11601,1383 L 11603,1386 L 11604,1388 L 11607,1406 L 11629,1438 L 11661,1459 L 11700,1467 L 11735,1467 L 11774,1459 L 11807,1437 L 11829,1404 L 11837,1366 L 11829,1328 L 11808,1296 L 11776,1275 L 11738,1267 L 11729,1269 L 11716,1269 L 11712,1268 L 11710,1267 L 11635,1192 L 11634,1191 L 11632,1187 L 11632,1183 L 11634,1179 L 11637,1177 L 11638,1176 L 11642,1175 L 11673,1175 L 11713,1159 L 11743,1129 L 11759,1089 L 11759,1047 L 11743,1008 L 11713,977 L 11674,961 L 11631,961 L 11592,977 L 11562,1007 L 11545,1047 L 11545,1089 L 11560,1125 L 11561,1129 L 11560,1133 L 11558,1136 L 11555,1138 L 11551,1139 L 11548,1139 L 10252,1138 L 10249,1137 L 10246,1134 L 10245,1132 L 10244,1129 L 10245,1125 L 10260,1089 L 10260,1047 L 10243,1008 L 10213,977 L 10174,961 L 10131,961 L 10092,977 L 10062,1007 L 10046,1047 L 10046,1089 L 10060,1125 L 10061,1129 L 10060,1132 L 10058,1136 L 10055,1138 L 10051,1139 L 8752,1138 L 8749,1137 L 8746,1134 L 8745,1132 L 8744,1129 L 8745,1125 L 8760,1089 L 8760,1047 L 8744,1008 L 8714,977 L 8674,961 L 8632,961 L 8592,977 L 8562,1007 L 8546,1047 L 8546,1089 L 8561,1125 L 8561,1129 L 8561,1132 L 8558,1136 L 8555,1138 L 8551,1139 L 7253,1138 L 7249,1137 L 7246,1134 L 7246,1132 L 7245,1129 L 7246,1125 L 7260,1089 L 7260,1047 L 7244,1008 L 7214,977 L 7175,961 L 7132,961 L 7093,977 L 7063,1007 L 7046,1047 L 7046,1089 L 7061,1125 L 7062,1129 L 7062,1131 L 7060,1134 L 7057,1137 L 7054,1138 L 5755,1139 L 5751,1138 L 5748,1136 L 5746,1132 L 5745,1129 L 5746,1125 L 5761,1089 L 5761,1047 L 5744,1008 L 5714,977 L 5675,961 L 5632,961 L 5593,977 L 5563,1007 L 5550,1039 L 5548,1040 L 5545,1043 L 5541,1043 L 5538,1043 L 5534,1040 L 5481,987 L 5480,985 L 5479,981 L 5479,794 L 5481,790 L 5483,788 L 5487,786 L 5491,786 L 5493,787 L 5496,789 L 5542,835 L 5614,865 L 5693,865 L 5765,835 L 5820,780 L 5851,707 L 5851,629 L 5821,557 L 5765,501 L 5693,471 L 5615,471 L 5542,501 L 5494,548 L 5491,550 L 5489,550 L 5487,550 L 5483,548 L 5481,546 L 5479,542 L 5479,499 L 5473,468 L 5455,441 L 5089,75 L 5062,57 L 5031,51 L 844,51 L 812,57 L 786,75 L 373,488 L 355,514 L 349,545 L 349,1135 L 348,1139 L 347,1141 L 337,1156 L 329,1195 L 329,1233 L 337,1272 L 359,1304 L 391,1325 L 428,1333 L 466,1325 L 470,1323 L 474,1321 L 476,1321 L 479,1322 L 483,1324 L 485,1327 L 486,1331 L 486,1528 L 485,1532 L 484,1534 L 481,1537 L 479,1538 L 476,1538 L 472,1538 L 469,1535 L 467,1534 L 466,1530 L 464,1523 L 463,1519 L 463,1502 L 460,1486 L 451,1473 L 438,1463 L 421,1460 L 404,1460 L 400,1458 L 354,1449 L 156,1449 L 110,1458 L 71,1484 L 45,1523 L 36,1568 L 45,1613 L 71,1652 L 95,1668 L 98,1671 L 99,1672 L 100,1676 L 99,1679 L 98,1683 L 115,1700 L 123,1696 L 138,1691 L 155,1689 L 355,1689 L 371,1691 L 387,1696 L 394,1700M 423,1728 L 430,1744 L 433,1760 L 433,1763 L 439,1769 L 447,1778 L 452,1789 L 456,1801 L 456,1803 L 463,1784 L 461,1742 L 449,1714 L 440,1711 L 423,1728M 350,1847 L 304,1847 L 298,1853 L 300,1858 L 300,1860 L 299,1862 L 298,1864 L 297,1866 L 295,1867 L 294,1868 L 292,1869 L 290,1869 L 220,1869 L 218,1869 L 216,1868 L 214,1867 L 213,1866 L 211,1864 L 211,1862 L 210,1860 L 210,1858 L 212,1853 L 205,1847 L 155,1847 L 138,1845 L 123,1840 L 115,1836 L 98,1853 L 102,1866 L 102,1870 L 100,1873 L 98,1876 L 94,1877 L 64,1907 L 48,1946 L 48,1989 L 64,2028 L 92,2056 L 94,2059 L 95,2063 L 94,2067 L 92,2070 L 71,2084 L 45,2122 L 36,2168 L 45,2213 L 71,2252 L 84,2261 L 87,2264 L 87,2268 L 87,2272 L 84,2275 L 71,2284 L 45,2322 L 36,2368 L 45,2413 L 71,2452 L 110,2477 L 156,2486 L 354,2486 L 400,2477 L 439,2452 L 464,2413 L 473,2368 L 464,2322 L 439,2284 L 425,2275 L 423,2272 L 422,2268 L 423,2264 L 425,2261 L 439,2252 L 464,2213 L 473,2168 L 464,2122 L 439,2084 L 418,2070 L 416,2067 L 415,2063 L 416,2059 L 418,2056 L 445,2028 L 462,1989 L 462,1947 L 445,1907 L 415,1877 L 412,1876 L 410,1874 L 408,1871 L 407,1868 L 400,1869 L 388,1869 L 376,1866 L 365,1860 L 356,1852 L 350,1847M 87,1808 L 80,1792 L 77,1776 L 77,1760 L 80,1744 L 87,1728 L 70,1711 L 61,1714 L 47,1751 L 49,1794 L 60,1822 L 70,1825 L 87,1808 z " style="fill-opacity:1.000000;fill:rgb(12,62,153);stroke:rgb(0,0,0);stroke-width:2"/></g>
<g fill-rule="evenodd"><path d="M 11129,2642 L 11131,2644 L 11132,2647 L 11132,2650 L 11132,2652 L 11130,2655 L 11128,2657 L 11125,2659 L 11123,2659 L 10788,2659 L 10784,2658 L 10782,2657 L 9681,1556 L 9679,1553 L 9678,1551 L 9678,1547 L 9680,1544 L 9681,1542 L 9684,1540 L 9688,1539 L 10022,1539 L 10026,1540 L 10028,1541 L 11129,2642 z " style="fill-opacity:1.000000;fill:rgb(36,94,13);stroke:rgb(0,0,0);stroke-width:2"/></g>
<g fill-rule="evenodd"><path d="M 3144,2868 L 3142,2886 L 3136,2904 L 3127,2921 L 3114,2935 L 3099,2946 L 3082,2953 L 3064,2957 L 3045,2957 L 3026,2953 L 3009,2946 L 2994,2935 L 2981,2921 L 2972,2904 L 2966,2886 L 2964,2868 L 2966,2849 L 2972,2831 L 2981,2815 L 2994,2801 L 3009,2790 L 3026,2782 L 3045,2778 L 3064,2778 L 3082,2782 L 3099,2790 L 3114,2801 L 3127,2815 L 3136,2831 L 3142,2849 L 3144,2868 z " style="fill-opacity:1.000000;fill:rgb(28,6,183);stroke:rgb(0,0,0);stroke-width:2"/></g>
<g fill-rule="evenodd"><path d="M 2944,2368 L 2942,2386 L 2936,2404 L 2927,2421 L 2914,2435 L 2899,2446 L 2882,2453 L 2864,2457 L 2845,2457 L 2826,2453 L 2809,2446 L 2794,2435 L 2781,2421 L 2772,2404 L 2766,2386 L 2764,2368 L 2766,2349 L 2772,2331 L 2781,2315 L 2794,2301 L 2809,2290 L 2826,2282 L 2845,2278 L 2864,2278 L 2882,2282 L 2899,2290 L 2914,2301 L 2927,2315 L 2936,2331 L 2942,2349 L 2944,2368 z " style="fill-opacity:1.000000;fill:rgb(71,222,179);stroke:rgb(0,0,0);stroke-width:2"/></g>
<g fill-rule="evenodd"><path d="M 10643,868 L 10641,887 L 10635,905 L 10625,921 L 10613,935 L 10598,946 L 10580,954 L 10562,958 L 10543,958 L 10525,954 L 10508,946 L 10492,935 L 10480,921 L 10470,905 L 10465,887 L 10463,868 L 10465,849 L 10470,831 L 10480,815 L 10492,801 L 10508,790 L 10525,783 L 10543,779 L 10562,779 L 10580,783 L 10598,790 L 10613,801 L 10625,815 L 10635,831 L 10641,849 L 10643,868 z " style="fill-opacity:1.000000;fill:rgb(18,77,200);stroke:rgb(0,0,0);stroke-width:2"/></g>
<g fill-rule="evenodd"><path d="M 6144,868 L 6142,887 L 6136,905 L 6126,921 L 6114,935 L 6099,946 L 6081,954 L 6063,958 L 6044,958 L 6026,954 L 6009,946 L 5993,935 L 5981,921 L 5971,905 L 5966,887 L 5964,868 L 5966,849 L 5971,831 L 5981,815 L 5993,801 L 6009,790 L 6026,783 L 6044,779 L 6063,779 L 6081,783 L 6099,790 L 6114,801 L 6126,815 L 6136,831 L 6142,849 L 6144,868 z " style="fill-opacity:1.000000;fill:rgb(67,187,139);stroke:rgb(0,0,0);stroke-width:2"/></g>
<g fill-rule="evenodd"><path d="M 9143,868 L 9141,887 L 9135,905 L 9126,921 L 9113,935 L 9098,946 L 9081,954 L 9062,958 L 9043,958 L 9025,954 L 9008,946 L 8993,935 L 8980,921 L 8971,905 L 8965,887 L 8963,868 L 8965,849 L 8971,831 L 8980,815 L 8993,801 L 9008,790 L 9025,783 L 9043,779 L 9062,779 L 9081,783 L 9098,790 L 9113,801 L 9126,815 L 9135,831 L 9141,849 L 9143,868 z " style="fill-opacity:1.000000;fill:rgb(166,31,3);stroke:rgb(0,0,0);stroke-width:2"/></g>
<g fill-rule="evenodd"><path d="M 11327,568 L 11326,584 L 11321,599 L 11313,612 L 11303,624 L 11290,633 L 11276,639 L 11260,643 L 11245,643 L 11229,639 L 11215,633 L 11202,624 L 11192,612 L 11184,599 L 11179,584 L 11177,568 L 11179,553 L 11184,538 L 11192,524 L 11202,512 L 11215,503 L 11229,497 L 11245,494 L 11260,494 L 11276,497 L 11290,503 L 11303,512 L 11313,524 L 11321,538 L 11326,553 L 11327,568 z " style="fill-opacity:1.000000;fill:rgb(90,125,9);stroke:rgb(0,0,0);stroke-width:2"/></g>
<g fill-rule="evenodd"><path d="M 9828,568 L 9826,584 L 9821,599 L 9813,612 L 9803,624 L 9790,633 L 9776,639 L 9761,643 L 9745,643 L 9730,639 L 9715,633 L 9703,624 L 9692,612 L 9684,599 L 9679,584 L 9678,568 L 9679,553 L 9684,538 L 9692,524 L 9703,512 L 9715,503 L 9730,497 L 9745,494 L 9761,494 L 9776,497 L 9790,503 L 9803,512 L 9813,524 L 9821,538 L 9826,553 L 9828,568 z " style="fill-opacity:1.000000;fill:rgb(56,37,31);stroke:rgb(0,0,0);stroke-width:2"/></g>
<g fill-rule="evenodd"><path d="M 8328,568 L 8326,584 L 8322,599 L 8314,612 L 8303,624 L 8291,633 L 8276,639 L 8261,643 L 8245,643 L 8230,639 L 8216,633 L 8203,624 L 8192,612 L 8185,599 L 8180,584 L 8178,568 L 8180,553 L 8185,538 L 8192,524 L 8203,512 L 8216,503 L 8230,497 L 8245,494 L 8261,494 L 8276,497 L 8291,503 L 8303,512 L 8314,524 L 8322,538 L 8326,553 L 8328,568 z " style="fill-opacity:1.000000;fill:rgb(93,212,203);stroke:rgb(0,0,0);stroke-width:2"/></g>
<g fill-rule="evenodd"><path d="M 6828,568 L 6827,584 L 6822,599 L 6814,612 L 6804,624 L 6791,633 L 6777,639 L 6761,643 L 6746,643 L 6730,639 L 6716,633 L 6703,624 L 6693,612 L 6685,599 L 6680,584 L 6678,568 L 6680,553 L 6685,538 L 6693,524 L 6703,512 L 6716,503 L 6730,497 L 6746,494 L 6761,494 L 6777,497 L 6791,503 L 6804,512 L 6814,524 L 6822,538 L 6827,553 L 6828,568 z " style="fill-opacity:1.000000;fill:rgb(252,150,245);stroke:rgb(0,0,0);stroke-width:2"/></g>
<g fill-rule="evenodd"><path d="M 2329,2568 L 2328,2583 L 2323,2598 L 2315,2612 L 2305,2623 L 2292,2633 L 2278,2639 L 2262,2642 L 2247,2642 L 2231,2639 L 2217,2633 L 2204,2623 L 2194,2612 L 2186,2598 L 2181,2583 L 2179,2568 L 2181,2552 L 2186,2537 L 2194,2524 L 2204,2512 L 2217,2503 L 2231,2496 L 2247,2493 L 2262,2493 L 2278,2496 L 2292,2503 L 2305,2512 L 2315,2524 L 2323,2537 L 2328,2552 L 2329,2568 z " style="fill-opacity:1.000000;fill:rgb(69,59,19);stroke:rgb(0,0,0);stroke-width:2"/></g>
<g fill-rule="evenodd"><path d="M 3829,2568 L 3827,2583 L 3823,2598 L 3815,2612 L 3804,2623 L 3792,2633 L 3777,2639 L 3762,2642 L 3746,2642 L 3731,2639 L 3717,2633 L 3704,2623 L 3693,2612 L 3686,2598 L 3681,2583 L 3679,2568 L 3681,2552 L 3686,2537 L 3693,2524 L 3704,2512 L 3717,2503 L 3731,2496 L 3746,2493 L 3762,2493 L 3777,2496 L 3792,2503 L 3804,2512 L 3815,2524 L 3823,2537 L 3827,2552 L 3829,2568 z " style="fill-opacity:1.000000;fill:rgb(13,137,10);stroke:rgb(0,0,0);stroke-width:2"/></g>
<g fill-rule="evenodd"><path d="M 5329,2568 L 5327,2583 L 5322,2598 L 5314,2612 L 5304,2623 L 5291,2633 L 5277,2639 L 5262,2642 L 5246,2642 L 5231,2639 L 5216,2633 L 5204,2623 L 5193,2612 L 5185,2598 L 5180,2583 L 5179,2568 L 5180,2552 L 5185,2537 L 5193,2524 L 5204,2512 L 5216,2503 L 5231,2496 L 5246,2493 L 5262,2493 L 5277,2496 L 5291,2503 L 5304,2512 L 5314,2524 L 5322,2537 L 5327,2552 L 5329,2568 z " style="fill-opacity:1.000000;fill:rgb(28,219,174);stroke:rgb(0,0,0);stroke-width:2"/></g>
<g fill-rule="evenodd"><path d="M 12142,868 L 12140,887 L 12134,905 L 12125,921 L 12112,935 L 12097,946 L 12080,954 L 12062,958 L 12043,958 L 12024,954 L 12007,946 L 11992,935 L 11979,921 L 11970,905 L 11964,887 L 11962,868 L 11964,849 L 11970,831 L 11979,815 L 11992,801 L 12007,790 L 12024,783 L 12043,779 L 12062,779 L 12080,783 L 12097,790 L 12112,801 L 12125,815 L 12134,831 L 12140,849 L 12142,868 z " style="fill-opacity:1.000000;fill:rgb(50,32,154);stroke:rgb(0,0,0);stroke-width:2"/></g>
<g fill-rule="evenodd"><path d="M 7643,868 L 7641,887 L 7635,905 L 7626,921 L 7613,935 L 7598,946 L 7581,954 L 7563,958 L 7544,958 L 7525,954 L 7508,946 L 7493,935 L 7480,921 L 7471,905 L 7465,887 L 7463,868 L 7465,849 L 7471,831 L 7480,815 L 7493,801 L 7508,790 L 7525,783 L 7544,779 L 7563,779 L 7581,783 L 7598,790 L 7613,801 L 7626,815 L 7635,831 L 7641,849 L 7643,868 z " style="fill-opacity:1.000000;fill:rgb(80,238,64);stroke:rgb(0,0,0);stroke-width:2"/></g>
<g fill-rule="evenodd"><path d="M 1645,868 L 1643,887 L 1637,905 L 1627,921 L 1615,935 L 1600,946 L 1582,954 L 1564,958 L 1545,958 L 1527,954 L 1510,946 L 1494,935 L 1482,921 L 1472,905 L 1467,887 L 1465,868 L 1467,849 L 1472,831 L 1482,815 L 1494,801 L 1510,790 L 1527,783 L 1545,779 L 1564,779 L 1582,783 L 1600,790 L 1615,801 L 1627,815 L 1637,831 L 1643,849 L 1645,868 z " style="fill-opacity:1.000000;fill:rgb(120,54,253);stroke:rgb(0,0,0);stroke-width:2"/></g>
<g fill-rule="evenodd"><path d="M 1445,368 L 1443,387 L 1437,405 L 1427,421 L 1415,435 L 1400,446 L 1382,454 L 1364,458 L 1345,458 L 1327,454 L 1310,446 L 1294,435 L 1282,421 L 1272,405 L 1267,387 L 1265,368 L 1267,349 L 1272,332 L 1282,315 L 1294,301 L 1310,290 L 1327,283 L 1345,279 L 1364,279 L 1382,283 L 1400,290 L 1415,301 L 1427,315 L 1437,332 L 1443,349 L 1445,368 z " style="fill-opacity:1.000000;fill:rgb(18,73,50);stroke:rgb(0,0,0);stroke-width:2"/></g>
<g fill-rule="evenodd"><path d="M 3144,868 L 3142,887 L 3136,905 L 3127,921 L 3114,935 L 3099,946 L 3082,954 L 3064,958 L 3045,958 L 3026,954 L 3009,946 L 2994,935 L 2981,921 L 2972,905 L 2966,887 L 2964,868 L 2966,849 L 2972,831 L 2981,815 L 2994,801 L 3009,790 L 3026,783 L 3045,779 L 3064,779 L 3082,783 L 3099,790 L 3114,801 L 3127,815 L 3136,831 L 3142,849 L 3144,868 z " style="fill-opacity:1.000000;fill:rgb(246,158,125);stroke:rgb(0,0,0);stroke-width:2"/></g>
<g fill-rule="evenodd"><path d="M 4644,868 L 4642,887 L 4636,905 L 4627,921 L 4614,935 L 4599,946 L 4582,954 L 4563,958 L 4544,958 L 4526,954 L 4509,946 L 4494,935 L 4481,921 L 4472,905 L 4466,887 L 4464,868 L 4466,849 L 4472,831 L 4481,815 L 4494,801 L 4509,790 L 4526,783 L 4544,779 L 4563,779 L 4582,783 L 4599,790 L 4614,801 L 4627,815 L 4636,831 L 4642,849 L 4644,868 z " style="fill-opacity:1.000000;fill:rgb(73,220,173);stroke:rgb(0,0,0);stroke-width:2"/></g>
<g fill-rule="evenodd"><path d="M 1645,2868 L 1643,2886 L 1637,2904 L 1627,2921 L 1615,2935 L 1600,2946 L 1582,2953 L 1564,2957 L 1545,2957 L 1527,2953 L 1510,2946 L 1494,2935 L 1482,2921 L 1472,2904 L 1467,2886 L 1465,2868 L 1467,2849 L 1472,2831 L 1482,2815 L 1494,2801 L 1510,2790 L 1527,2782 L 1545,2778 L 1564,2778 L 1582,2782 L 1600,2790 L 1615,2801 L 1627,2815 L 1637,2831 L 1643,2849 L 1645,2868 z " style="fill-opacity:1.000000;fill:rgb(79,20,242);stroke:rgb(0,0,0);stroke-width:2"/></g>
<g fill-rule="evenodd"><path d="M 1445,2368 L 1443,2386 L 1437,2404 L 1427,2421 L 1415,2435 L 1400,2446 L 1382,2453 L 1364,2457 L 1345,2457 L 1327,2453 L 1310,2446 L 1294,2435 L 1282,2421 L 1272,2404 L 1267,2386 L 1265,2368 L 1267,2349 L 1272,2331 L 1282,2315 L 1294,2301 L 1310,2290 L 1327,2282 L 1345,2278 L 1364,2278 L 1382,2282 L 1400,2290 L 1415,2301 L 1427,2315 L 1437,2331 L 1443,2349 L 1445,2368 z " style="fill-opacity:1.000000;fill:rgb(68,64,102);stroke:rgb(0,0,0);stroke-width:2"/></g>
<g fill-rule="evenodd"><path d="M 4644,2868 L 4642,2886 L 4636,2904 L 4627,2921 L 4614,2935 L 4599,2946 L 4582,2953 L 4563,2957 L 4544,2957 L 4526,2953 L 4509,2946 L 4494,2935 L 4481,2921 L 4472,2904 L 4466,2886 L 4464,2868 L 4466,2849 L 4472,2831 L 4481,2815 L 4494,2801 L 4509,2790 L 4526,2782 L 4544,2778 L 4563,2778 L 4582,2782 L 4599,2790 L 4614,2801 L 4627,2815 L 4636,2831 L 4642,2849 L 4644,2868 z " style="fill-opacity:1.000000;fill:rgb(208,107,196);stroke:rgb(0,0,0);stroke-width:2"/></g>
<g fill-rule="evenodd"><path d="M 6144,2868 L 6142,2886 L 6136,2904 L 6126,2921 L 6114,2935 L 6099,2946 L 6081,2953 L 6063,2957 L 6044,2957 L 6026,2953 L 6009,2946 L 5993,2935 L 5981,2921 L 5971,2904 L 5966,2886 L 5964,2868 L 5966,2849 L 5971,2831 L 5981,2815 L 5993,2801 L 6009,2790 L 6026,2782 L 6044,2778 L 6063,2778 L 6081,2782 L 6099,2790 L 6114,2801 L 6126,2815 L 6136,2831 L 6142,2849 L 6144,2868 z " style="fill-opacity:1.000000;fill:rgb(48,183,50);stroke:rgb(0,0,0);stroke-width:2"/></g>
<g fill-rule="evenodd"><path d="M 5944,2368 L 5942,2386 L 5936,2404 L 5926,2421 L 5914,2435 L 5899,2446 L 5881,2453 L 5863,2457 L 5844,2457 L 5826,2453 L 5809,2446 L 5793,2435 L 5781,2421 L 5771,2404 L 5766,2386 L 5764,2368 L 5766,2349 L 5771,2331 L 5781,2315 L 5793,2301 L 5809,2290 L 5826,2282 L 5844,2278 L 5863,2278 L 5881,2282 L 5899,2290 L 5914,2301 L 5926,2315 L 5936,2331 L 5942,2349 L 5944,2368 z " style="fill-opacity:1.000000;fill:rgb(59,161,34);stroke:rgb(0,0,0);stroke-width:2"/></g>
<g fill-rule="evenodd"><path d="M 324,3607 L 321,3639 L 311,3668 L 296,3695 L 275,3719 L 250,3737 L 221,3750 L 190,3756 L 159,3756 L 129,3750 L 100,3737 L 75,3719 L 54,3695 L 38,3668 L 29,3639 L 25,3607 L 29,3576 L 38,3547 L 54,3520 L 75,3496 L 100,3478 L 129,3465 L 159,3459 L 190,3459 L 221,3465 L 250,3478 L 275,3496 L 296,3520 L 311,3547 L 321,3576 L 324,3607 z " style="fill-opacity:1.000000;fill:rgb(246,34,145);stroke:rgb(0,0,0);stroke-width:2"/></g>
<g fill-rule="evenodd"><path d="M 159,0 L 190,0 L 221,6 L 250,19 L 275,37 L 296,60 L 311,87 L 321,117 L 324,148 L 321,179 L 311,209 L 296,236 L 275,259 L 250,278 L 221,291 L 190,297 L 159,297 L 129,291 L 100,278 L 75,259 L 54,236 L 38,209 L 29,179 L 25,148 L 29,117 L 38,87 L 54,60 L 75,37 L 100,19 L 129,6 L 159,0 z " style="fill-opacity:1.000000;fill:rgb(157,225,139);stroke:rgb(0,0,0);stroke-width:2"/></g>
<g fill-rule="evenodd"><path d="M 12116,1762 L 12112,1793 L 12103,1823 L 12087,1850 L 12066,1873 L 12041,1892 L 12012,1905 L 11982,1911 L 11950,1911 L 11920,1905 L 11891,1892 L 11866,1873 L 11845,1850 L 11829,1823 L 11820,1793 L 11816,1762 L 11820,1731 L 11829,1701 L 11845,1674 L 11866,1651 L 11891,1633 L 11920,1620 L 11950,1613 L 11982,1613 L 12012,1620 L 12041,1633 L 12066,1651 L 12087,1674 L 12103,1701 L 12112,1731 L 12116,1762 z " style="fill-opacity:1.000000;fill:rgb(31,218,176);stroke:rgb(0,0,0);stroke-width:2"/></g>
<g fill-rule="evenodd"><path d="M 7373,2469 L 7370,2500 L 7360,2529 L 7344,2556 L 7323,2580 L 7298,2598 L 7270,2611 L 7239,2617 L 7208,2617 L 7177,2611 L 7149,2598 L 7123,2580 L 7102,2556 L 7087,2529 L 7077,2500 L 7074,2469 L 7077,2437 L 7087,2408 L 7102,2381 L 7123,2357 L 7149,2339 L 7177,2326 L 7208,2320 L 7239,2320 L 7270,2326 L 7298,2339 L 7323,2357 L 7344,2381 L 7360,2408 L 7370,2437 L 7373,2469 z " style="fill-opacity:1.000000;fill:rgb(202,153,2);stroke:rgb(0,0,0);stroke-width:2"/></g>
<g fill-rule="evenodd"><path d="M 830,748 L 863,748 L 870,741 L 870,685 L 864,670 L 852,659 L 848,657 L 844,655 L 842,652 L 842,648 L 842,644 L 843,643 L 852,633 L 870,591 L 870,545 L 852,503 L 820,471 L 778,453 L 732,453 L 690,471 L 667,494 L 663,496 L 659,497 L 650,497 L 621,502 L 597,518 L 523,592 L 520,594 L 518,594 L 514,593 L 512,592 L 510,589 L 509,588 L 508,586 L 508,581 L 509,578 L 511,574 L 873,213 L 874,211 L 878,210 L 1048,210 L 1052,211 L 1054,211 L 1055,213 L 1057,216 L 1058,220 L 1057,224 L 1048,247 L 1048,289 L 1064,329 L 1094,359 L 1133,375 L 1176,375 L 1211,361 L 1215,360 L 1218,361 L 1222,363 L 1224,366 L 1224,368 L 1225,394 L 1244,442 L 1281,478 L 1329,498 L 1380,498 L 1428,478 L 1465,442 L 1485,394 L 1485,342 L 1465,295 L 1428,258 L 1381,238 L 1329,238 L 1281,258 L 1277,262 L 1275,262 L 1272,263 L 1268,262 L 1265,260 L 1262,257 L 1262,253 L 1262,247 L 1251,222 L 1251,218 L 1253,214 L 1256,211 L 1257,211 L 1261,210 L 1779,210 L 1781,211 L 1784,213 L 1874,302 L 1875,306 L 1880,331 L 1902,363 L 1934,385 L 1971,392 L 2009,385 L 2041,363 L 2063,331 L 2068,303 L 2070,300 L 2156,213 L 2160,211 L 2163,210 L 2550,210 L 2552,211 L 2555,213 L 2557,216 L 2558,220 L 2557,224 L 2547,247 L 2547,289 L 2564,329 L 2594,359 L 2633,375 L 2675,375 L 2710,361 L 2714,360 L 2718,361 L 2721,363 L 2724,366 L 2724,368 L 2724,394 L 2744,442 L 2753,451 L 2760,462 L 2771,469 L 2781,478 L 2828,498 L 2880,498 L 2928,478 L 2964,442 L 2984,394 L 2984,342 L 2965,295 L 2928,258 L 2880,238 L 2829,238 L 2781,258 L 2777,262 L 2775,262 L 2771,263 L 2767,262 L 2764,260 L 2762,257 L 2761,253 L 2761,247 L 2751,222 L 2751,218 L 2753,214 L 2755,211 L 2757,211 L 2761,210 L 3378,210 L 3380,211 L 3383,213 L 3389,219 L 3390,222 L 3390,226 L 3389,235 L 3389,288 L 3396,327 L 3418,359 L 3450,381 L 3488,388 L 3525,381 L 3558,359 L 3579,327 L 3587,288 L 3587,245 L 3587,242 L 3590,238 L 3615,213 L 3619,211 L 3622,210 L 4047,210 L 4051,211 L 4055,213 L 4057,216 L 4057,220 L 4057,224 L 4047,247 L 4047,289 L 4063,329 L 4093,359 L 4133,375 L 4175,375 L 4210,361 L 4214,360 L 4218,361 L 4221,363 L 4223,366 L 4224,368 L 4224,394 L 4244,442 L 4253,451 L 4260,462 L 4271,469 L 4280,478 L 4328,498 L 4380,498 L 4427,478 L 4464,442 L 4484,394 L 4484,342 L 4464,295 L 4428,258 L 4380,238 L 4328,238 L 4280,258 L 4276,262 L 4275,262 L 4271,263 L 4267,262 L 4264,260 L 4262,257 L 4261,253 L 4261,247 L 4251,222 L 4251,218 L 4252,214 L 4255,211 L 4257,211 L 4260,210 L 4997,210 L 4999,211 L 5002,213 L 5228,439 L 5231,442 L 5231,446 L 5231,450 L 5228,453 L 5227,455 L 5189,471 L 5166,494 L 5162,496 L 5158,497 L 5149,497 L 5120,502 L 5096,518 L 5004,611 L 4988,635 L 4982,663 L 4982,1052 L 4988,1080 L 5004,1104 L 5471,1571 L 5473,1574 L 5474,1578 L 5473,1580 L 5473,1581 L 5471,1585 L 5467,1587 L 5464,1588 L 5381,1588 L 5377,1587 L 5375,1586 L 5214,1425 L 5212,1422 L 5212,1420 L 5205,1385 L 5183,1352 L 5156,1326 L 5124,1304 L 5086,1297 L 5048,1304 L 5016,1326 L 4994,1358 L 4987,1395 L 4994,1433 L 5016,1466 L 5038,1488 L 5043,1495 L 5075,1517 L 5107,1523 L 5109,1524 L 5113,1526 L 5252,1665 L 5254,1668 L 5255,1672 L 5254,1676 L 5252,1679 L 5250,1680 L 5249,1681 L 5245,1682 L 4423,1682 L 4420,1681 L 4418,1680 L 3627,890 L 3626,888 L 3626,884 L 3626,867 L 3626,865 L 3629,862 L 3632,859 L 3634,859 L 3638,859 L 3641,860 L 3644,863 L 3645,866 L 3656,877 L 3671,883 L 3727,883 L 3734,876 L 3734,843 L 3679,843 L 3679,693 L 3829,693 L 3829,748 L 3862,748 L 3869,741 L 3869,685 L 3863,670 L 3852,659 L 3847,657 L 3844,655 L 3842,652 L 3841,648 L 3842,644 L 3843,643 L 3851,633 L 3869,591 L 3869,545 L 3852,503 L 3819,471 L 3777,453 L 3731,453 L 3689,471 L 3666,494 L 3663,496 L 3659,497 L 3649,497 L 3621,502 L 3597,518 L 3504,611 L 3488,635 L 3483,663 L 3483,917 L 3488,945 L 3504,969 L 4294,1760 L 4297,1763 L 4297,1765 L 4297,1767 L 4297,1770 L 4294,1774 L 4293,1775 L 4291,1776 L 4287,1777 L 4065,1777 L 4062,1776 L 4058,1774 L 3902,1618 L 3900,1614 L 3899,1612 L 3893,1580 L 3871,1547 L 3843,1520 L 3810,1498 L 3773,1490 L 3735,1498 L 3703,1519 L 3681,1551 L 3674,1589 L 3681,1627 L 3703,1660 L 3731,1688 L 3764,1710 L 3796,1716 L 3798,1716 L 3801,1719 L 3936,1854 L 3939,1857 L 3939,1861 L 3939,1865 L 3936,1868 L 3935,1869 L 3933,1870 L 3929,1871 L 3113,1871 L 3109,1870 L 3106,1868 L 2128,890 L 2127,888 L 2126,884 L 2126,867 L 2127,865 L 2129,862 L 2132,859 L 2134,859 L 2138,859 L 2141,860 L 2144,863 L 2146,866 L 2157,877 L 2171,883 L 2228,883 L 2234,876 L 2234,843 L 2179,843 L 2179,693 L 2329,693 L 2329,748 L 2363,748 L 2369,741 L 2369,685 L 2363,670 L 2352,659 L 2347,657 L 2344,655 L 2342,652 L 2341,648 L 2342,644 L 2343,643 L 2352,633 L 2369,591 L 2369,545 L 2352,503 L 2320,471 L 2277,453 L 2232,453 L 2189,471 L 2166,494 L 2163,496 L 2159,497 L 2149,497 L 2121,502 L 2097,518 L 2005,611 L 1989,635 L 1983,663 L 1983,917 L 1989,945 L 2005,969 L 2984,1948 L 2986,1952 L 2987,1956 L 2986,1959 L 2985,1961 L 2984,1963 L 2980,1965 L 2977,1966 L 2757,1966 L 2753,1965 L 2752,1964 L 2406,1618 L 2403,1615 L 2403,1613 L 2396,1577 L 2374,1544 L 2348,1519 L 2315,1497 L 2278,1489 L 2240,1497 L 2208,1518 L 2186,1550 L 2179,1588 L 2186,1626 L 2208,1659 L 2228,1679 L 2234,1688 L 2267,1709 L 2299,1716 L 2300,1716 L 2304,1718 L 2628,2043 L 2630,2046 L 2631,2050 L 2630,2054 L 2628,2057 L 2627,2058 L 2625,2059 L 2621,2060 L 1050,2060 L 1048,2059 L 1045,2057 L 632,1644 L 629,1640 L 629,1638 L 629,871 L 630,867 L 633,864 L 637,863 L 641,863 L 642,863 L 646,866 L 657,877 L 672,883 L 728,883 L 735,876 L 735,843 L 680,843 L 680,693 L 830,693 L 830,748M 3080,998 L 3128,978 L 3164,942 L 3184,894 L 3184,842 L 3164,795 L 3128,758 L 3080,738 L 3028,738 L 2981,758 L 2944,794 L 2924,842 L 2924,894 L 2944,942 L 2980,978 L 3028,998 L 3080,998M 1628,978 L 1665,942 L 1684,894 L 1685,842 L 1665,795 L 1628,758 L 1581,738 L 1529,738 L 1481,758 L 1444,794 L 1425,842 L 1425,894 L 1444,942 L 1481,978 L 1529,998 L 1580,998 L 1628,978M 1133,1175 L 1176,1175 L 1215,1159 L 1245,1129 L 1262,1089 L 1262,1047 L 1245,1008 L 1215,977 L 1176,961 L 1133,961 L 1094,977 L 1064,1007 L 1048,1047 L 1048,1089 L 1064,1129 L 1094,1159 L 1133,1175M 2715,1159 L 2745,1129 L 2761,1089 L 2761,1047 L 2745,1008 L 2715,977 L 2676,961 L 2633,961 L 2594,977 L 2564,1007 L 2547,1047 L 2547,1089 L 2564,1129 L 2594,1159 L 2633,1175 L 2675,1175 L 2715,1159M 1266,501 L 1194,471 L 1116,471 L 1043,501 L 988,556 L 958,629 L 958,707 L 988,780 L 1043,835 L 1115,865 L 1194,865 L 1266,835 L 1322,780 L 1352,707 L 1352,629 L 1322,557 L 1266,501M 2766,501 L 2694,471 L 2615,471 L 2543,501 L 2487,556 L 2457,629 L 2457,707 L 2487,780 L 2543,835 L 2615,865 L 2693,865 L 2766,835 L 2821,780 L 2851,707 L 2851,629 L 2821,557 L 2766,501M 4627,978 L 4664,942 L 4684,894 L 4684,842 L 4664,795 L 4628,758 L 4580,738 L 4528,738 L 4480,758 L 4444,794 L 4424,842 L 4424,894 L 4444,942 L 4480,978 L 4528,998 L 4580,998 L 4627,978M 4261,1089 L 4261,1047 L 4245,1008 L 4215,977 L 4175,961 L 4133,961 L 4093,977 L 4063,1007 L 4047,1047 L 4047,1089 L 4063,1129 L 4093,1159 L 4133,1175 L 4175,1175 L 4214,1159 L 4245,1129 L 4261,1089M 4266,501 L 4193,471 L 4115,471 L 4043,501 L 3987,556 L 3957,629 L 3957,707 L 3987,780 L 4042,835 L 4115,865 L 4193,865 L 4265,835 L 4321,780 L 4351,707 L 4351,629 L 4321,557 L 4266,501M 830,788 L 830,843 L 775,843 L 775,876 L 781,883 L 838,883 L 852,877 L 864,866 L 870,851 L 870,795 L 863,788 L 830,788M 2329,788 L 2329,843 L 2274,843 L 2274,876 L 2281,883 L 2337,883 L 2352,877 L 2363,866 L 2369,851 L 2369,795 L 2363,788 L 2329,788M 3829,788 L 3829,843 L 3774,843 L 3774,876 L 3781,883 L 3837,883 L 3852,877 L 3863,866 L 3869,851 L 3869,795 L 3862,788 L 3829,788 z " style="fill-opacity:1.000000;fill:rgb(185,114,157);stroke:rgb(0,0,0);stroke-width:2"/></g>
<g fill-rule="evenodd"><path d="M 5234,843 L 5179,843 L 5179,693 L 5329,693 L 5329,843 L 5274,843 L 5274,876 L 5280,883 L 5310,883 L 5314,884 L 5317,886 L 5319,888 L 5320,891 L 5320,1017 L 5326,1048 L 5344,1075 L 5534,1265 L 5550,1288 L 5574,1312 L 5575,1314 L 5576,1318 L 5576,1366 L 5583,1405 L 5605,1437 L 5637,1458 L 5675,1466 L 5712,1458 L 5744,1437 L 5766,1405 L 5774,1366 L 5774,1312 L 5773,1307 L 5773,1305 L 5774,1304 L 5776,1300 L 5779,1298 L 5783,1297 L 7034,1297 L 7038,1298 L 7041,1300 L 7069,1328 L 7070,1332 L 7077,1364 L 7089,1383 L 7090,1386 L 7089,1388 L 7089,1390 L 7087,1393 L 7083,1396 L 7080,1396 L 6745,1396 L 6742,1395 L 6739,1392 L 6738,1390 L 6737,1386 L 6716,1354 L 6684,1332 L 6645,1325 L 6600,1325 L 6561,1332 L 6529,1354 L 6507,1386 L 6500,1424 L 6507,1462 L 6517,1475 L 6518,1479 L 6518,1483 L 6517,1486 L 6514,1489 L 6510,1491 L 5595,1491 L 5593,1490 L 5590,1488 L 5127,1024 L 5126,1023 L 5125,1019 L 5125,869 L 5126,865 L 5127,863 L 5128,862 L 5131,859 L 5135,859 L 5139,859 L 5142,862 L 5144,863 L 5145,866 L 5156,877 L 5171,883 L 5227,883 L 5234,876 L 5234,843 z " style="fill-opacity:1.000000;fill:rgb(73,44,128);stroke:rgb(0,0,0);stroke-width:2"/></g>
<g fill-rule="evenodd"><path d="M 4306,2444 L 4298,2441 L 4291,2436 L 4285,2430 L 4281,2423 L 4278,2415 L 4272,2404 L 4266,2386 L 4264,2368 L 4266,2349 L 4272,2331 L 4281,2315 L 4294,2301 L 4309,2290 L 4326,2282 L 4345,2278 L 4363,2278 L 4382,2282 L 4399,2290 L 4414,2301 L 4427,2315 L 4436,2331 L 4442,2349 L 4444,2368 L 4442,2386 L 4436,2404 L 4427,2421 L 4414,2435 L 4399,2446 L 4382,2453 L 4363,2457 L 4345,2457 L 4326,2453 L 4309,2446 L 4306,2444 z " style="fill-opacity:1.000000;fill:rgb(126,197,153);stroke:rgb(0,0,0);stroke-width:2"/></g>
<g fill-rule="evenodd"><path d="M 2807,444 L 2799,441 L 2792,437 L 2786,431 L 2781,424 L 2778,416 L 2772,405 L 2766,387 L 2764,368 L 2766,349 L 2772,332 L 2781,315 L 2794,301 L 2809,290 L 2826,283 L 2845,279 L 2864,279 L 2882,283 L 2899,290 L 2914,301 L 2927,315 L 2936,332 L 2942,349 L 2944,368 L 2942,387 L 2936,405 L 2927,421 L 2914,435 L 2899,446 L 2882,454 L 2864,458 L 2845,458 L 2826,454 L 2809,446 L 2807,444 z " style="fill-opacity:1.000000;fill:rgb(213,233,128);stroke:rgb(0,0,0);stroke-width:2"/></g>
<g fill-rule="evenodd"><path d="M 4306,444 L 4298,441 L 4291,437 L 4285,431 L 4281,424 L 4278,416 L 4272,405 L 4266,387 L 4264,368 L 4266,349 L 4272,332 L 4281,315 L 4294,301 L 4309,290 L 4326,283 L 4345,279 L 4363,279 L 4382,283 L 4399,290 L 4414,301 L 4427,315 L 4436,332 L 4442,349 L 4444,368 L 4442,387 L 4436,405 L 4427,421 L 4414,435 L 4399,446 L 4382,454 L 4363,458 L 4345,458 L 4326,454 L 4309,446 L 4306,444 z " style="fill-opacity:1.000000;fill:rgb(178,234,201);stroke:rgb(0,0,0);stroke-width:2"/></g>
<g fill-rule="evenodd"><path d="M 5806,444 L 5798,441 L 5791,437 L 5785,431 L 5781,424 L 5778,416 L 5771,405 L 5766,387 L 5764,368 L 5766,349 L 5771,332 L 5781,315 L 5793,301 L 5809,290 L 5826,283 L 5844,279 L 5863,279 L 5881,283 L 5899,290 L 5914,301 L 5926,315 L 5936,332 L 5942,349 L 5944,368 L 5942,387 L 5936,405 L 5926,421 L 5914,435 L 5899,446 L 5881,454 L 5863,458 L 5844,458 L 5826,454 L 5809,446 L 5806,444 z " style="fill-opacity:1.000000;fill:rgb(204,83,191);stroke:rgb(0,0,0);stroke-width:2"/></g>
<g fill-rule="evenodd"><path d="M 8805,444 L 8797,441 L 8790,437 L 8784,431 L 8780,424 L 8777,416 L 8771,405 L 8765,387 L 8763,368 L 8765,349 L 8771,332 L 8780,315 L 8793,301 L 8808,290 L 8825,283 L 8843,279 L 8862,279 L 8881,283 L 8898,290 L 8913,301 L 8926,315 L 8935,332 L 8941,349 L 8943,368 L 8941,387 L 8935,405 L 8926,421 L 8913,435 L 8898,446 L 8881,454 L 8862,458 L 8843,458 L 8825,454 L 8808,446 L 8805,444 z " style="fill-opacity:1.000000;fill:rgb(103,214,191);stroke:rgb(0,0,0);stroke-width:2"/></g>
<g fill-rule="evenodd"><path d="M 7306,444 L 7298,441 L 7291,437 L 7285,431 L 7280,424 L 7277,416 L 7271,405 L 7265,387 L 7263,368 L 7265,349 L 7271,332 L 7280,315 L 7293,301 L 7308,290 L 7325,283 L 7344,279 L 7363,279 L 7381,283 L 7398,290 L 7413,301 L 7426,315 L 7435,332 L 7441,349 L 7443,368 L 7441,387 L 7435,405 L 7426,421 L 7413,435 L 7398,446 L 7381,454 L 7363,458 L 7344,458 L 7325,454 L 7308,446 L 7306,444 z " style="fill-opacity:1.000000;fill:rgb(20,214,126);stroke:rgb(0,0,0);stroke-width:2"/></g>
<g fill-rule="evenodd"><path d="M 11804,444 L 11796,441 L 11790,437 L 11784,431 L 11779,424 L 11776,416 L 11770,405 L 11764,387 L 11762,368 L 11764,349 L 11770,332 L 11779,315 L 11792,301 L 11807,290 L 11824,283 L 11843,279 L 11862,279 L 11880,283 L 11897,290 L 11912,301 L 11925,315 L 11934,332 L 11940,349 L 11942,368 L 11940,387 L 11934,405 L 11925,421 L 11912,435 L 11897,446 L 11880,454 L 11862,458 L 11843,458 L 11824,454 L 11807,446 L 11804,444 z " style="fill-opacity:1.000000;fill:rgb(45,220,142);stroke:rgb(0,0,0);stroke-width:2"/></g>
<g fill-rule="evenodd"><path d="M 10305,444 L 10297,441 L 10290,437 L 10284,431 L 10280,424 L 10277,416 L 10270,405 L 10265,387 L 10263,368 L 10265,349 L 10270,332 L 10280,315 L 10292,301 L 10308,290 L 10325,283 L 10343,279 L 10362,279 L 10380,283 L 10398,290 L 10413,301 L 10425,315 L 10435,332 L 10441,349 L 10443,368 L 10441,387 L 10435,405 L 10425,421 L 10413,435 L 10398,446 L 10380,454 L 10362,458 L 10343,458 L 10325,454 L 10308,446 L 10305,444 z " style="fill-opacity:1.000000;fill:rgb(102,131,239);stroke:rgb(0,0,0);stroke-width:2"/></g>
<g fill-rule="evenodd"><path d="M 8661,1179 L 8667,1174 L 8678,1169 L 8690,1167 L 8702,1167 L 8714,1169 L 8726,1174 L 8731,1179 L 11549,1179 L 11556,1179 L 11564,1182 L 11571,1185 L 11577,1190 L 11696,1309 L 11699,1309 L 11725,1309 L 11729,1308 L 11741,1307 L 11753,1309 L 11765,1314 L 11775,1320 L 11784,1329 L 11790,1339 L 11795,1351 L 11797,1363 L 11796,1376 L 11793,1387 L 11787,1398 L 11779,1408 L 11778,1410 L 11769,1417 L 11759,1423 L 11748,1426 L 11736,1427 L 11699,1427 L 11686,1426 L 11675,1422 L 11664,1416 L 11655,1407 L 11648,1397 L 11643,1386 L 11640,1374 L 11640,1365 L 11532,1257 L 10997,1257 L 10673,1581 L 10673,1851 L 10680,1851 L 10691,1854 L 10702,1860 L 10712,1868 L 10739,1894 L 10747,1904 L 10752,1915 L 10755,1927 L 10756,1939 L 10754,1952 L 10750,1963 L 10743,1973 L 10734,1982 L 10724,1989 L 10712,1993 L 10700,1995 L 10688,1995 L 10676,1991 L 10665,1986 L 10655,1978 L 10629,1951 L 10621,1942 L 10615,1931 L 10612,1919 L 10611,1906 L 10613,1894 L 10611,1887 L 10610,1881 L 10610,1581 L 10300,1271 L 10244,1327 L 10242,1334 L 10238,1340 L 10234,1346 L 10229,1351 L 10229,1360 L 10227,1372 L 10224,1384 L 10217,1395 L 10209,1404 L 10199,1411 L 10188,1416 L 10176,1419 L 10163,1419 L 10151,1416 L 10140,1411 L 10130,1404 L 10122,1395 L 10116,1384 L 10112,1372 L 10111,1360 L 10111,1352 L 10108,1350 L 10102,1346 L 10014,1257 L 8789,1257 L 8755,1291 L 8755,1295 L 8754,1307 L 8750,1319 L 8744,1329 L 8736,1339 L 8726,1346 L 8714,1351 L 8702,1353 L 8690,1353 L 8678,1351 L 8667,1346 L 8657,1339 L 8648,1329 L 8642,1319 L 8638,1307 L 8637,1295 L 8637,1291 L 8603,1257 L 7281,1257 L 7227,1312 L 7227,1326 L 7226,1338 L 7222,1350 L 7216,1361 L 7207,1370 L 7197,1377 L 7186,1382 L 7174,1385 L 7162,1385 L 7150,1382 L 7138,1377 L 7128,1370 L 7120,1361 L 7114,1350 L 7110,1338 L 7109,1326 L 7109,1312 L 7055,1257 L 5752,1257 L 5726,1283 L 5728,1287 L 5732,1299 L 5734,1311 L 5734,1367 L 5732,1379 L 5728,1391 L 5722,1402 L 5714,1411 L 5704,1418 L 5693,1423 L 5681,1426 L 5668,1426 L 5656,1423 L 5645,1418 L 5635,1411 L 5627,1402 L 5621,1391 L 5617,1379 L 5616,1367 L 5616,1311 L 5617,1298 L 5577,1259 L 5573,1254 L 5571,1248 L 5569,1243 L 5372,1046 L 5367,1040 L 5363,1033 L 5361,1026 L 5360,1018 L 5360,514 L 5015,170 L 3602,170 L 3546,226 L 3547,234 L 3547,289 L 3545,302 L 3542,313 L 3535,324 L 3527,333 L 3517,340 L 3506,346 L 3494,348 L 3481,348 L 3469,346 L 3458,340 L 3448,333 L 3440,324 L 3434,313 L 3430,302 L 3429,289 L 3429,234 L 3430,221 L 3434,210 L 3435,208 L 3397,170 L 2143,170 L 2042,271 L 2040,274 L 2036,279 L 2030,284 L 2030,293 L 2029,306 L 2025,317 L 2019,328 L 2011,337 L 2001,344 L 1990,349 L 1978,352 L 1965,352 L 1953,349 L 1942,344 L 1932,337 L 1924,328 L 1918,317 L 1914,306 L 1912,293 L 1912,284 L 1798,170 L 859,170 L 468,561 L 468,1150 L 476,1159 L 482,1170 L 486,1182 L 488,1194 L 488,1234 L 486,1246 L 482,1258 L 476,1269 L 468,1278 L 458,1285 L 447,1290 L 435,1293 L 422,1293 L 410,1290 L 399,1285 L 389,1278 L 381,1269 L 375,1258 L 371,1246 L 369,1234 L 369,1194 L 371,1182 L 375,1170 L 381,1159 L 389,1150 L 389,544 L 390,537 L 392,529 L 396,523 L 401,517 L 815,103 L 821,98 L 828,94 L 835,92 L 843,91 L 5032,91 L 5040,92 L 5048,94 L 5053,97 L 5060,103 L 5427,470 L 5432,476 L 5436,483 L 5438,490 L 5439,498 L 5439,1002 L 5616,1179 L 8661,1179M 10398,1257 L 10642,1502 L 10886,1257 L 10398,1257M 3497,170 L 3499,172 L 3501,170 L 3497,170M 1926,198 L 1933,191 L 1944,184 L 1955,180 L 1967,178 L 1980,178 L 1992,182 L 2003,187 L 2012,195 L 2015,198 L 2043,170 L 1898,170 L 1926,198 z " style="fill-opacity:1.000000;fill:rgb(87,73,97);stroke:rgb(0,0,0);stroke-width:2"/></g>
<g fill-rule="evenodd"><path d="M 324,1909 L 334,1904 L 348,1901 L 362,1901 L 375,1904 L 388,1910 L 400,1918 L 409,1929 L 416,1941 L 420,1954 L 422,1968 L 420,1982 L 416,1995 L 409,2007 L 400,2018 L 388,2026 L 375,2031 L 362,2034 L 348,2034 L 334,2031 L 324,2027 L 186,2027 L 176,2031 L 162,2034 L 148,2034 L 134,2031 L 121,2026 L 110,2018 L 101,2007 L 94,1995 L 89,1982 L 88,1968 L 89,1954 L 94,1941 L 101,1929 L 110,1918 L 121,1910 L 134,1904 L 148,1901 L 162,1901 L 176,1904 L 186,1909 L 324,1909 z " style="fill-opacity:1.000000;fill:rgb(255,105,143);stroke:rgb(0,0,0);stroke-width:2"/></g>
<g fill-rule="evenodd"><path d="M 2362,1631 L 2736,2006 L 9392,2006 L 9399,2006 L 9404,2008 L 9410,2011 L 9415,2015 L 10571,3171 L 10607,3171 L 10613,3172 L 10619,3174 L 10625,3177 L 10630,3181 L 11042,3593 L 11052,3591 L 11065,3591 L 11077,3593 L 11088,3598 L 11098,3605 L 11106,3615 L 11111,3623 L 11125,3637 L 11133,3647 L 11139,3658 L 11142,3670 L 11143,3682 L 11141,3694 L 11136,3706 L 11129,3716 L 11121,3725 L 11110,3732 L 11099,3736 L 11087,3738 L 11074,3737 L 11062,3734 L 11051,3729 L 11042,3721 L 11017,3696 L 11009,3687 L 11004,3677 L 11000,3665 L 10999,3654 L 10999,3649 L 11000,3640 L 10594,3234 L 10558,3234 L 10552,3234 L 10546,3232 L 10541,3229 L 10536,3225 L 9379,2068 L 2723,2068 L 2719,2068 L 2712,2066 L 2706,2063 L 2701,2059 L 2317,1675 L 2311,1677 L 2298,1677 L 2286,1674 L 2275,1669 L 2265,1662 L 2257,1653 L 2254,1648 L 2236,1630 L 2228,1620 L 2223,1609 L 2219,1598 L 2219,1585 L 2221,1573 L 2225,1561 L 2232,1551 L 2241,1542 L 2251,1536 L 2262,1531 L 2275,1529 L 2287,1530 L 2299,1533 L 2310,1539 L 2319,1547 L 2346,1573 L 2353,1582 L 2359,1592 L 2362,1603 L 2363,1615 L 2363,1618 L 2362,1631 z " style="fill-opacity:1.000000;fill:rgb(97,205,209);stroke:rgb(0,0,0);stroke-width:2"/></g>
<g fill-rule="evenodd"><path d="M 3859,1631 L 4045,1817 L 9471,1817 L 9477,1817 L 9483,1819 L 9488,1822 L 9493,1826 L 10650,2982 L 11389,2982 L 11395,2983 L 11401,2985 L 11407,2988 L 11411,2992 L 12014,3594 L 12024,3593 L 12036,3593 L 12048,3596 L 12059,3602 L 12068,3610 L 12094,3636 L 12102,3645 L 12108,3656 L 12111,3668 L 12112,3681 L 12110,3693 L 12105,3704 L 12099,3715 L 12090,3723 L 12079,3730 L 12068,3735 L 12056,3737 L 12043,3736 L 12031,3733 L 12020,3727 L 12011,3719 L 11985,3693 L 11977,3684 L 11972,3673 L 11968,3661 L 11968,3649 L 11969,3639 L 11376,3045 L 10637,3045 L 10630,3045 L 10625,3043 L 10619,3040 L 10614,3036 L 9458,1880 L 4032,1880 L 4025,1879 L 4020,1877 L 4014,1874 L 4009,1870 L 3815,1676 L 3805,1677 L 3793,1677 L 3781,1673 L 3770,1668 L 3760,1660 L 3731,1631 L 3723,1621 L 3717,1610 L 3714,1598 L 3714,1586 L 3716,1574 L 3720,1562 L 3727,1552 L 3735,1543 L 3746,1536 L 3757,1532 L 3770,1530 L 3782,1531 L 3794,1534 L 3805,1540 L 3814,1547 L 3843,1576 L 3851,1586 L 3857,1597 L 3860,1609 L 3861,1621 L 3859,1631 z " style="fill-opacity:1.000000;fill:rgb(30,157,156);stroke:rgb(0,0,0);stroke-width:2"/></g>
<g fill-rule="evenodd"><path d="M 5171,1438 L 5360,1628 L 9549,1628 L 9555,1628 L 9561,1630 L 9566,1633 L 9571,1637 L 10728,2794 L 11685,2794 L 11691,2794 L 11697,2796 L 11703,2799 L 11707,2803 L 12038,3134 L 12053,3134 L 12065,3135 L 12077,3139 L 12087,3145 L 12097,3153 L 12104,3163 L 12109,3174 L 12111,3186 L 12111,3199 L 12109,3211 L 12104,3222 L 12097,3232 L 12087,3240 L 12077,3247 L 12065,3250 L 12053,3252 L 11997,3252 L 11985,3250 L 11973,3247 L 11962,3240 L 11953,3232 L 11946,3222 L 11941,3211 L 11938,3199 L 11938,3186 L 11941,3174 L 11946,3163 L 11953,3153 L 11961,3146 L 11672,2856 L 10715,2856 L 10709,2856 L 10703,2854 L 10697,2851 L 10693,2847 L 9536,1691 L 5347,1691 L 5342,1690 L 5336,1689 L 5330,1686 L 5325,1681 L 5126,1483 L 5119,1484 L 5107,1484 L 5095,1481 L 5084,1476 L 5074,1469 L 5065,1460 L 5064,1457 L 5044,1437 L 5036,1428 L 5031,1417 L 5027,1405 L 5027,1392 L 5029,1380 L 5033,1369 L 5040,1358 L 5049,1350 L 5059,1343 L 5070,1338 L 5083,1336 L 5095,1337 L 5107,1340 L 5118,1346 L 5127,1354 L 5155,1381 L 5162,1390 L 5168,1400 L 5171,1411 L 5172,1425 L 5171,1438 z " style="fill-opacity:1.000000;fill:rgb(22,114,114);stroke:rgb(0,0,0);stroke-width:2"/></g>
<g fill-rule="evenodd"><path d="M 9666,2988 L 7758,2988 L 7713,3033 L 7715,3042 L 7714,3055 L 7711,3067 L 7706,3078 L 7698,3087 L 7681,3104 L 7672,3111 L 7661,3117 L 7649,3120 L 7636,3121 L 7624,3119 L 7613,3115 L 7602,3108 L 7594,3099 L 7587,3089 L 7582,3077 L 7580,3065 L 7581,3053 L 7584,3041 L 7590,3030 L 7598,3020 L 7614,3004 L 7624,2996 L 7635,2990 L 7647,2987 L 7659,2986 L 7669,2988 L 7723,2934 L 7727,2930 L 7733,2928 L 7739,2926 L 7745,2925 L 9666,2925 L 9672,2917 L 9681,2909 L 9692,2903 L 9703,2899 L 9716,2898 L 9755,2898 L 9768,2899 L 9779,2903 L 9790,2909 L 9799,2917 L 9807,2927 L 9812,2938 L 9814,2950 L 9814,2963 L 9812,2975 L 9807,2986 L 9799,2996 L 9790,3004 L 9779,3011 L 9768,3014 L 9755,3016 L 9716,3016 L 9703,3014 L 9692,3011 L 9681,3004 L 9672,2996 L 9666,2988 z " style="fill-opacity:1.000000;fill:rgb(230,29,240);stroke:rgb(0,0,0);stroke-width:2"/></g>
<g fill-rule="evenodd"><path d="M 9660,2839 L 7773,2839 L 7766,2838 L 7761,2836 L 7755,2833 L 7750,2829 L 7715,2793 L 7705,2795 L 7692,2794 L 7680,2791 L 7669,2786 L 7660,2778 L 7633,2751 L 7625,2741 L 7620,2730 L 7617,2719 L 7616,2706 L 7618,2694 L 7622,2682 L 7629,2672 L 7638,2663 L 7648,2657 L 7660,2652 L 7672,2650 L 7684,2651 L 7696,2654 L 7707,2660 L 7717,2668 L 7743,2694 L 7751,2704 L 7757,2715 L 7760,2727 L 7761,2739 L 7759,2749 L 7786,2776 L 9660,2776 L 9666,2768 L 9675,2759 L 9686,2753 L 9698,2749 L 9710,2748 L 9759,2748 L 9771,2749 L 9783,2753 L 9793,2759 L 9803,2768 L 9810,2778 L 9815,2789 L 9817,2801 L 9817,2813 L 9815,2825 L 9810,2837 L 9803,2847 L 9793,2855 L 9783,2861 L 9771,2865 L 9759,2866 L 9710,2866 L 9698,2865 L 9686,2861 L 9675,2855 L 9666,2847 L 9660,2839 z " style="fill-opacity:1.000000;fill:rgb(132,79,74);stroke:rgb(0,0,0);stroke-width:2"/></g>
<g fill-rule="evenodd"><path d="M 10788,3654 L 9296,2163 L 1018,2163 L 1012,2162 L 1006,2161 L 1001,2158 L 996,2154 L 535,1693 L 531,1687 L 528,1682 L 526,1675 L 526,1670 L 526,660 L 526,654 L 528,648 L 531,642 L 535,637 L 626,546 L 630,543 L 636,539 L 644,537 L 649,537 L 687,537 L 694,524 L 705,512 L 717,503 L 732,497 L 747,494 L 763,494 L 778,497 L 792,503 L 805,512 L 815,524 L 823,538 L 828,553 L 830,568 L 828,584 L 823,599 L 815,612 L 805,624 L 792,633 L 778,639 L 763,643 L 747,643 L 732,639 L 717,633 L 705,624 L 694,612 L 687,600 L 662,600 L 589,673 L 589,1657 L 1031,2100 L 9309,2100 L 9315,2101 L 9321,2102 L 9327,2105 L 9331,2109 L 10808,3585 L 10817,3578 L 10828,3573 L 10840,3571 L 10853,3571 L 10865,3573 L 10876,3578 L 10886,3586 L 10894,3595 L 10901,3606 L 10904,3617 L 10906,3630 L 10906,3669 L 10904,3681 L 10901,3693 L 10894,3704 L 10886,3713 L 10876,3720 L 10865,3725 L 10853,3728 L 10840,3728 L 10828,3725 L 10817,3720 L 10807,3713 L 10799,3704 L 10793,3693 L 10789,3681 L 10788,3669 L 10788,3654 z " style="fill-opacity:1.000000;fill:rgb(119,2,215);stroke:rgb(0,0,0);stroke-width:2"/></g>
<g fill-rule="evenodd"><path d="M 11945,2852 L 11856,2762 L 10754,2762 L 10748,2761 L 10742,2760 L 10736,2757 L 10732,2753 L 9573,1594 L 5564,1594 L 5557,1593 L 5551,1591 L 5546,1588 L 5541,1585 L 5031,1075 L 5027,1070 L 5024,1064 L 5023,1057 L 5022,1053 L 5022,662 L 5023,656 L 5025,650 L 5028,645 L 5031,640 L 5125,546 L 5130,542 L 5136,539 L 5142,537 L 5148,537 L 5186,537 L 5193,524 L 5204,512 L 5216,503 L 5231,497 L 5246,494 L 5262,494 L 5277,497 L 5291,503 L 5304,512 L 5314,524 L 5322,538 L 5327,553 L 5329,568 L 5327,584 L 5322,599 L 5314,612 L 5304,624 L 5291,633 L 5277,639 L 5262,643 L 5246,643 L 5231,639 L 5216,633 L 5204,624 L 5193,612 L 5186,600 L 5161,600 L 5085,675 L 5085,1039 L 5577,1531 L 9586,1531 L 9592,1531 L 9598,1533 L 9603,1536 L 9608,1540 L 10767,2699 L 11869,2699 L 11875,2700 L 11881,2701 L 11886,2704 L 11891,2708 L 11981,2798 L 11992,2795 L 12004,2794 L 12046,2794 L 12059,2795 L 12070,2799 L 12081,2805 L 12090,2813 L 12097,2823 L 12102,2834 L 12105,2846 L 12105,2859 L 12102,2871 L 12097,2882 L 12090,2892 L 12081,2900 L 12070,2906 L 12059,2910 L 12046,2912 L 12004,2912 L 11992,2910 L 11980,2906 L 11969,2900 L 11960,2892 L 11953,2882 L 11948,2871 L 11945,2859 L 11945,2852 z " style="fill-opacity:1.000000;fill:rgb(232,57,44);stroke:rgb(0,0,0);stroke-width:2"/></g>
<g fill-rule="evenodd"><path d="M 11267,3581 L 11276,3579 L 11289,3580 L 11301,3583 L 11312,3589 L 11321,3596 L 11361,3636 L 11368,3645 L 11374,3656 L 11377,3668 L 11378,3681 L 11376,3693 L 11372,3704 L 11365,3715 L 11356,3723 L 11346,3730 L 11334,3735 L 11322,3737 L 11310,3736 L 11298,3733 L 11287,3727 L 11277,3719 L 11238,3680 L 11230,3670 L 11224,3659 L 11221,3647 L 11221,3635 L 11222,3625 L 10737,3140 L 10597,3140 L 10593,3140 L 10586,3138 L 10580,3135 L 10575,3131 L 9419,1974 L 3079,1974 L 3073,1973 L 3067,1972 L 3061,1969 L 3057,1965 L 2032,940 L 2028,936 L 2025,930 L 2024,924 L 2023,918 L 2023,662 L 2023,657 L 2025,651 L 2028,645 L 2032,640 L 2126,546 L 2131,542 L 2136,539 L 2142,537 L 2148,537 L 2186,537 L 2194,524 L 2204,512 L 2217,503 L 2231,497 L 2247,494 L 2262,494 L 2278,497 L 2292,503 L 2305,512 L 2315,524 L 2323,538 L 2328,553 L 2329,568 L 2328,584 L 2323,599 L 2315,612 L 2305,624 L 2292,633 L 2278,639 L 2262,643 L 2247,643 L 2231,639 L 2217,633 L 2204,624 L 2194,612 L 2186,600 L 2161,600 L 2086,675 L 2086,905 L 3092,1911 L 9432,1911 L 9436,1911 L 9443,1913 L 9449,1916 L 9454,1920 L 10610,3077 L 10750,3077 L 10756,3078 L 10762,3079 L 10767,3082 L 10772,3086 L 11267,3581 z " style="fill-opacity:1.000000;fill:rgb(83,203,201);stroke:rgb(0,0,0);stroke-width:2"/></g>
<g fill-rule="evenodd"><path d="M 9810,3229 L 9955,3375 L 9960,3380 L 9963,3386 L 9965,3393 L 9966,3400 L 9966,3493 L 9965,3500 L 9963,3507 L 9960,3513 L 9955,3518 L 9772,3702 L 9767,3706 L 9760,3710 L 9754,3712 L 9747,3712 L 1206,3712 L 1199,3712 L 1193,3710 L 1187,3706 L 1181,3702 L 906,3426 L 902,3422 L 898,3416 L 896,3409 L 895,3401 L 895,2652 L 846,2603 L 820,2603 L 815,2612 L 805,2623 L 792,2633 L 778,2639 L 763,2642 L 747,2642 L 732,2639 L 717,2633 L 705,2623 L 694,2612 L 686,2598 L 681,2583 L 680,2568 L 681,2552 L 686,2537 L 694,2524 L 705,2512 L 717,2503 L 732,2496 L 747,2493 L 763,2493 L 778,2496 L 792,2503 L 805,2512 L 815,2524 L 820,2532 L 861,2532 L 868,2533 L 874,2535 L 880,2538 L 886,2543 L 956,2613 L 960,2618 L 963,2624 L 966,2631 L 966,2638 L 966,3387 L 1221,3641 L 9732,3641 L 9895,3479 L 9895,3414 L 9725,3245 L 9716,3245 L 9704,3243 L 9692,3239 L 9681,3233 L 9672,3225 L 9665,3215 L 9660,3204 L 9657,3192 L 9657,3179 L 9660,3167 L 9665,3156 L 9672,3146 L 9681,3138 L 9692,3132 L 9704,3128 L 9716,3127 L 9770,3127 L 9783,3128 L 9794,3132 L 9805,3138 L 9814,3146 L 9822,3156 L 9827,3167 L 9829,3179 L 9829,3192 L 9827,3204 L 9822,3215 L 9814,3225 L 9810,3229 z " style="fill-opacity:1.000000;fill:rgb(18,30,51);stroke:rgb(0,0,0);stroke-width:2"/></g>
<g fill-rule="evenodd"><path d="M 12004,3369 L 12013,3367 L 12026,3368 L 12038,3371 L 12049,3377 L 12058,3385 L 12098,3424 L 12105,3434 L 12111,3445 L 12114,3457 L 12115,3469 L 12113,3481 L 12108,3493 L 12102,3503 L 12093,3512 L 12083,3518 L 12071,3523 L 12059,3525 L 12047,3524 L 12035,3521 L 12024,3515 L 12014,3508 L 11975,3468 L 11967,3459 L 11961,3448 L 11958,3436 L 11957,3423 L 11959,3414 L 11496,2951 L 10676,2951 L 10671,2951 L 10664,2949 L 10659,2946 L 10653,2942 L 9497,1785 L 4390,1785 L 4383,1784 L 4378,1783 L 4372,1780 L 4367,1776 L 3532,940 L 3528,936 L 3525,930 L 3523,924 L 3523,918 L 3523,662 L 3523,656 L 3525,650 L 3528,645 L 3532,640 L 3626,546 L 3631,542 L 3636,539 L 3642,537 L 3648,537 L 3686,537 L 3693,524 L 3704,512 L 3717,503 L 3731,497 L 3746,494 L 3762,494 L 3777,497 L 3792,503 L 3804,512 L 3815,524 L 3823,538 L 3827,553 L 3829,568 L 3827,584 L 3823,599 L 3815,612 L 3804,624 L 3792,633 L 3777,639 L 3762,643 L 3746,643 L 3731,639 L 3717,633 L 3704,624 L 3693,612 L 3686,600 L 3661,600 L 3586,675 L 3586,905 L 4403,1722 L 9510,1722 L 9515,1722 L 9521,1724 L 9527,1727 L 9532,1731 L 10689,2888 L 11509,2888 L 11516,2889 L 11522,2890 L 11527,2893 L 11532,2897 L 12004,3369 z " style="fill-opacity:1.000000;fill:rgb(116,158,12);stroke:rgb(0,0,0);stroke-width:2"/></g>
<g fill-rule="evenodd"><path d="M 11989,2605 L 11999,2594 L 12009,2587 L 12020,2581 L 12032,2578 L 12044,2577 L 12056,2579 L 12068,2583 L 12078,2590 L 12087,2599 L 12093,2609 L 12098,2621 L 12100,2633 L 12099,2645 L 12096,2657 L 12090,2668 L 12083,2678 L 12056,2705 L 12047,2712 L 12037,2717 L 12026,2721 L 12014,2722 L 12009,2722 L 11997,2721 L 11985,2717 L 11975,2711 L 11965,2702 L 11958,2692 L 11953,2681 L 11951,2669 L 11951,2668 L 11224,2668 L 11218,2667 L 11212,2665 L 11207,2662 L 11202,2658 L 10043,1499 L 6690,1499 L 6684,1499 L 6678,1497 L 6672,1494 L 6668,1490 L 6659,1481 L 6646,1483 L 6599,1483 L 6586,1481 L 6575,1478 L 6564,1472 L 6555,1463 L 6548,1453 L 6543,1442 L 6540,1430 L 6540,1418 L 6543,1406 L 6548,1394 L 6555,1384 L 6564,1376 L 6575,1370 L 6586,1366 L 6599,1365 L 6646,1365 L 6658,1366 L 6670,1370 L 6680,1376 L 6690,1384 L 6697,1394 L 6702,1406 L 6704,1418 L 6704,1430 L 6703,1436 L 10056,1436 L 10062,1437 L 10068,1439 L 10074,1442 L 10078,1446 L 11237,2605 L 11989,2605 z " style="fill-opacity:1.000000;fill:rgb(244,213,212);stroke:rgb(0,0,0);stroke-width:2"/></g>
<g fill-rule="evenodd"><path d="M 1971,3240 L 2009,3278 L 3237,3278 L 3329,3186 L 3326,3177 L 3326,3160 L 3328,3144 L 3334,3129 L 3343,3115 L 3355,3103 L 3368,3094 L 3384,3088 L 3400,3086 L 3417,3087 L 3432,3091 L 3447,3098 L 3460,3109 L 3476,3125 L 3487,3138 L 3494,3153 L 3498,3169 L 3499,3185 L 3497,3201 L 3495,3205 L 3568,3278 L 4735,3278 L 4821,3192 L 4818,3180 L 4817,3163 L 4820,3147 L 4826,3132 L 4835,3118 L 4846,3106 L 4860,3097 L 4876,3091 L 4892,3089 L 4908,3090 L 4924,3094 L 4939,3101 L 4952,3112 L 4990,3150 L 5001,3163 L 5008,3178 L 5012,3194 L 5013,3210 L 5011,3226 L 5009,3230 L 5057,3278 L 6577,3278 L 6585,3279 L 6592,3281 L 6599,3285 L 6605,3290 L 6844,3528 L 7793,3528 L 7839,3482 L 7838,3472 L 7838,3416 L 7839,3404 L 7843,3392 L 7849,3382 L 7857,3372 L 7867,3365 L 7879,3360 L 7891,3357 L 7903,3357 L 7915,3360 L 7926,3365 L 7936,3372 L 7945,3382 L 7951,3392 L 7955,3404 L 7956,3416 L 7956,3472 L 7954,3485 L 7998,3528 L 8349,3528 L 8349,3524 L 8349,3512 L 8353,3500 L 8358,3489 L 8366,3479 L 8405,3440 L 8415,3432 L 8426,3426 L 8438,3423 L 8450,3423 L 8462,3425 L 8474,3429 L 8484,3436 L 8493,3444 L 8500,3455 L 8504,3466 L 8506,3478 L 8505,3491 L 8505,3494 L 8541,3530 L 8548,3530 L 8556,3531 L 8565,3534 L 9582,3534 L 9664,3452 L 9663,3448 L 9663,3435 L 9666,3423 L 9671,3412 L 9678,3402 L 9687,3394 L 9698,3387 L 9709,3384 L 9722,3382 L 9752,3382 L 9764,3382 L 9776,3384 L 9788,3388 L 9798,3395 L 9807,3403 L 9814,3414 L 9818,3425 L 9820,3438 L 9819,3450 L 9816,3462 L 9811,3473 L 9803,3482 L 9793,3490 L 9783,3496 L 9772,3499 L 9760,3500 L 9722,3500 L 9716,3500 L 9621,3595 L 9616,3599 L 9610,3603 L 9603,3605 L 9596,3605 L 8565,3605 L 8556,3608 L 8548,3609 L 8449,3609 L 8441,3608 L 8436,3607 L 6827,3607 L 6819,3606 L 6811,3603 L 6806,3600 L 6800,3595 L 6561,3357 L 1155,3357 L 1151,3357 L 1146,3356 L 1142,3355 L 1139,3353 L 1135,3352 L 1131,3349 L 1128,3347 L 1125,3344 L 1123,3341 L 1121,3337 L 1119,3334 L 1117,3330 L 1116,3326 L 1115,3322 L 1115,3318 L 1115,3313 L 1116,3309 L 1117,3305 L 1119,3302 L 1121,3298 L 1123,3294 L 1125,3291 L 1128,3288 L 1131,3286 L 1135,3283 L 1139,3282 L 1142,3280 L 1146,3279 L 1151,3278 L 1155,3278 L 1749,3278 L 1828,3199 L 1827,3197 L 1827,3170 L 1829,3153 L 1834,3138 L 1842,3124 L 1853,3111 L 1867,3102 L 1882,3095 L 1898,3092 L 1914,3092 L 1930,3095 L 1945,3102 L 1959,3111 L 1970,3124 L 1978,3138 L 1983,3153 L 1985,3170 L 1985,3197 L 1983,3213 L 1978,3229 L 1971,3240M 1905,3275 L 1898,3275 L 1882,3271 L 1867,3265 L 1864,3263 L 1849,3278 L 1909,3278 L 1905,3275M 4904,3278 L 4892,3272 L 4879,3262 L 4865,3248 L 4835,3278 L 4904,3278M 3445,3255 L 3441,3257 L 3425,3259 L 3408,3259 L 3393,3254 L 3378,3247 L 3373,3243 L 3337,3278 L 3468,3278 L 3445,3255 z " style="fill-opacity:1.000000;fill:rgb(159,212,164);stroke:rgb(0,0,0);stroke-width:2"/></g>
<g fill-rule="evenodd"><path d="M 395,1501 L 422,1501 L 422,1527 L 423,1529 L 430,1544 L 433,1560 L 433,1576 L 430,1592 L 423,1607 L 422,1609 L 422,1635 L 396,1635 L 387,1640 L 371,1645 L 355,1647 L 155,1647 L 138,1645 L 123,1640 L 109,1632 L 96,1621 L 87,1607 L 80,1592 L 77,1576 L 77,1560 L 80,1544 L 87,1529 L 96,1515 L 109,1504 L 123,1496 L 138,1491 L 155,1489 L 355,1489 L 371,1491 L 387,1496 L 395,1501 z " style="fill-opacity:1.000000;fill:rgb(89,126,53);stroke:rgb(0,0,0);stroke-width:2"/></g>
</svg>
