<?xml version="1.0" standalone="no"?>
<!DOCTYPE svg PUBLIC "-//W3C//DTD SVG 1.1//EN"
"http://www.w3.org/Graphics/SVG/1.1/DTD/svg11.dtd">
<svg width="12512" height="3915" viewBox="0 0 12512 3915" version="1.1"
xmlns="http://www.w3.org/2000/svg"
xmlns:xlink="http://www.w3.org/1999/xlink">
<g fill-rule="evenodd"><path d="M 0,5 L 0,3 L 1,2 L 2,1 L 4,0 L 12505,0 L 12507,0 L 12508,1 L 12510,2 L 12510,3 L 12511,6 L 12511,3906 L 12512,3908 L 12512,3909 L 12511,3910 L 12510,3912 L 12509,3913 L 12507,3914 L 6,3914 L 4,3914 L 2,3913 L 0,3911 L 0,3909 L 0,7 L 0,5M 12,3903 L 12499,3903 L 12499,11 L 12,11 L 12,3903 z " style="fill-opacity:1.000000;fill:rgb(41,35,190);stroke:rgb(0,0,0);stroke-width:2"/></g>
</svg>
