<?xml version="1.0" standalone="no"?>
<!DOCTYPE svg PUBLIC "-//W3C//DTD SVG 1.1//EN"
"http://www.w3.org/Graphics/SVG/1.1/DTD/svg11.dtd">
<svg width="12749" height="4151" viewBox="0 0 12749 4151" version="1.1"
xmlns="http://www.w3.org/2000/svg"
xmlns:xlink="http://www.w3.org/1999/xlink">
<g fill-rule="evenodd"><path d="M 0,4150 L 0,0 L 12748,0 L 12748,4150 L 0,4150 z " style="fill-opacity:0.300000;fill:rgb(41,35,190);"/></g>
<g fill-rule="evenodd"><path d="M 8,4025 L 8,126 L 10,103 L 17,80 L 28,60 L 43,42 L 61,27 L 81,16 L 103,10 L 126,8 L 12621,7 L 12644,10 L 12667,16 L 12687,27 L 12705,42 L 12720,60 L 12731,80 L 12737,102 L 12740,125 L 12740,4024 L 12737,4047 L 12731,4070 L 12720,4090 L 12705,4108 L 12687,4123 L 12667,4134 L 12645,4140 L 12621,4143 L 126,4143 L 103,4140 L 81,4134 L 61,4123 L 43,4108 L 28,4090 L 17,4070 L 10,4048 L 8,4025 z " style="fill-opacity:0.600000;fill:rgb(41,35,190);stroke:rgb(0,0,0);stroke-width:2"/></g>
<g fill-rule="evenodd"><path d="M 126,4025 L 126,126 L 12621,125 L 12621,4024 L 12621,4024 L 126,4025 z " style="fill-opacity:1.000000;fill:rgb(41,35,190);stroke:rgb(0,0,0);stroke-width:2"/></g>
</svg>
